<?xml version="1.0" encoding="UTF-8"?>
<svg version="1.1" xmlns="http://www.w3.org/2000/svg" width="225" height="225">
<path d="M0 0 C74.25 0 148.5 0 225 0 C225 74.25 225 148.5 225 225 C150.75 225 76.5 225 0 225 C0 150.75 0 76.5 0 0 Z " fill="#FEFEFE" transform="translate(0,0)"/>
<path d="M0 0 C0.61222412 0.21644669 1.22444824 0.43289337 1.85522461 0.65589905 C3.87218055 1.36989075 5.88737572 2.08872008 7.90258789 2.80761719 C9.31911451 3.31016997 10.73574744 3.81242319 12.15248108 4.31439209 C15.8849229 5.63777409 19.61588478 6.96528088 23.34655762 8.29364014 C27.09545538 9.62765489 30.84576871 10.95767702 34.59594727 12.28808594 C41.38253403 14.69651861 48.16863072 17.10630599 54.9513855 19.5255127 C57.54057752 20.44645831 60.13110647 21.36241145 62.72415161 22.27233887 C63.37320497 22.50119656 64.02225832 22.73005424 64.69097996 22.96584702 C66.4831369 23.59766308 68.27621607 24.22686147 70.0693512 24.855896 C72.68774414 25.85449219 72.68774414 25.85449219 73.68774414 26.85449219 C73.85194565 32.07496768 73.53316614 37.0410016 72.87524414 42.22949219 C72.68974255 43.72551095 72.50489046 45.22161034 72.32055664 46.71777344 C72.21904297 47.5332666 72.1175293 48.34875977 72.01293945 49.18896484 C71.52844496 53.16021923 71.07918355 57.13534139 70.62670898 61.11035156 C69.77303781 68.60848537 68.91738736 76.10593848 67.96899414 83.59277344 C67.794729 84.98411499 67.794729 84.98411499 67.61694336 86.40356445 C67.37077658 88.30062201 67.10915696 90.19573314 66.83276367 92.08862305 C66.06660121 97.58183805 65.62429854 102.95859389 65.55715942 108.49888611 C65.20086475 133.73523457 65.20086475 133.73523457 59.33032227 140.61865234 C53.23110567 145.26759697 46.32778196 147.89715903 39.16772461 150.49755859 C33.76048257 152.60598088 28.91595383 155.52359937 23.93774414 158.47949219 C22.05773621 159.53036175 20.17623005 160.5785556 18.29321289 161.62402344 C14.40203428 163.81871614 10.65623914 166.15865092 6.92602539 168.61621094 C-6.1029177 176.95112372 -6.1029177 176.95112372 -11.45288086 176.79003906 C-15.90941575 175.63642816 -19.43747499 173.07760773 -23.11254883 170.39160156 C-27.29979639 167.46564033 -31.8446795 165.13279173 -36.31225586 162.66699219 C-38.27444691 161.54939856 -40.23536563 160.42956838 -42.19506836 159.30761719 C-49.44387579 155.18753848 -56.78870679 151.24757209 -64.15600586 147.34399414 C-65.09186523 146.84343506 -66.02772461 146.34287598 -66.99194336 145.82714844 C-67.8038916 145.39668213 -68.61583984 144.96621582 -69.45239258 144.52270508 C-70.39614746 143.97219482 -71.33990234 143.42168457 -72.31225586 142.85449219 C-73.05926758 142.47705368 -73.8062793 142.09961517 -74.57592773 141.71073914 C-80.70809933 138.26947456 -80.70809933 138.26947456 -82.29452515 134.55393982 C-82.85049822 131.72975533 -83.12959546 128.98783666 -83.32788086 126.11621094 C-83.48837669 124.52999939 -83.48837669 124.52999939 -83.65211487 122.91174316 C-83.9935502 119.45760215 -84.27771184 116.00124166 -84.56225586 112.54199219 C-84.78922749 110.14940022 -85.0206307 107.75722473 -85.25634766 105.36547852 C-85.73148076 100.52195935 -86.18912889 95.67725827 -86.63598633 90.83105469 C-87.57543458 80.87369024 -88.84647499 70.96045682 -90.12475586 61.04199219 C-91.59237693 49.64999689 -92.7432659 38.3292863 -93.31225586 26.85449219 C-85.26576651 23.40584446 -77.15978954 20.29046598 -68.89038086 17.42089844 C-67.74672058 17.02047836 -66.6030603 16.62005829 -65.42474365 16.20750427 C-61.80507459 14.94065095 -58.183798 13.6784799 -54.56225586 12.41699219 C-50.96383701 11.16146533 -47.36580023 9.90486762 -43.76843262 8.64633179 C-41.45220836 7.836073 -39.13540376 7.02747107 -36.81799316 6.22061157 C-31.9239512 4.50934453 -27.0473193 2.77871346 -22.22045898 0.88525391 C-21.479953 0.59577377 -20.73944702 0.30629364 -19.97650146 0.00804138 C-18.09345932 -0.73762194 -16.21759406 -1.50134348 -14.3425293 -2.2668457 C-9.18845371 -3.7613283 -4.92970034 -1.75137798 0 0 Z " fill="#DC0131" transform="translate(122.312255859375,30.1455078125)"/>
<path d="M0 0 C7.47010577 1.31450698 14.41650599 3.77734777 21.53125 6.359375 C23.31613831 6.99966644 23.31613831 6.99966644 25.13708496 7.65289307 C28.28832653 8.7843473 31.4378349 9.92038143 34.58654785 11.05883789 C37.73608731 12.19648972 40.88765684 13.32846516 44.0390625 14.4609375 C47.69501043 15.774775 51.35068266 17.08933404 55.00512695 18.40734863 C62.42747742 21.08347479 69.85806297 23.73374332 77.31896973 26.30072021 C81.89185441 27.89185441 81.89185441 27.89185441 83 29 C83.16420151 34.22047549 82.845422 39.18650941 82.1875 44.375 C82.00199841 45.87101876 81.81714632 47.36711815 81.6328125 48.86328125 C81.53129883 49.67877441 81.42978516 50.49426758 81.32519531 51.33447266 C80.84070082 55.30572704 80.39143941 59.2808492 79.93896484 63.25585938 C79.08529367 70.75399318 78.22964322 78.2514463 77.28125 85.73828125 C77.10698486 87.1296228 77.10698486 87.1296228 76.92919922 88.54907227 C76.68303244 90.44612982 76.42141281 92.34124095 76.14501953 94.23413086 C75.37885707 99.72734586 74.9365544 105.10410171 74.86941528 110.64439392 C74.51312061 135.88074238 74.51312061 135.88074238 68.64257812 142.76416016 C62.54563772 147.41136982 55.64618192 150.0394979 48.48876953 152.63867188 C43.03816597 154.7655134 38.14275941 157.70497003 33.125 160.6875 C31.26149448 161.75157459 29.39562905 162.8115277 27.52734375 163.8671875 C26.61968262 164.38249023 25.71202148 164.89779297 24.77685547 165.42871094 C20.09283629 168.07917229 15.39459437 170.70327143 10.6875 173.3125 C9.83881348 173.7871167 8.99012695 174.2617334 8.11572266 174.75073242 C7.33890137 175.17974854 6.56208008 175.60876465 5.76171875 176.05078125 C5.08069092 176.42887939 4.39966309 176.80697754 3.69799805 177.1965332 C2 178 2 178 0 178 C0 155.56 0 133.12 0 110 C7.26 110 14.52 110 22 110 C25.3 118.25 28.6 126.5 32 135 C38.27 135.33 44.54 135.66 51 136 C42.41257875 116.34840716 33.8070349 96.70661097 24.9876709 77.15777588 C23.87259173 74.68215332 22.76237449 72.2044011 21.65332031 69.72607422 C18.32921013 62.30897843 14.9781569 54.91105611 11.47921753 47.57447815 C9.95241794 44.36390988 8.45143561 41.14160532 6.95318604 37.91763306 C6.25037753 36.42319521 5.53553418 34.93434023 4.80706787 33.45223999 C-0.57371172 22.49520953 -2.20106288 13.2128221 -1 1 C-0.67 0.67 -0.34 0.34 0 0 Z " fill="#C3012E" transform="translate(113,28)"/>
<path d="M0 0 C3.2453526 3.78192094 4.99060879 8.13214541 6.96484375 12.65234375 C7.35033386 13.52359894 7.73582397 14.39485413 8.13299561 15.29251099 C9.40586617 18.17212345 10.67160791 21.05481382 11.9375 23.9375 C12.82668625 25.95198155 13.71642433 27.96621961 14.60668945 29.98022461 C16.46586883 34.18736269 18.32263294 38.39555447 20.17773438 42.60449219 C24.23800421 51.81171612 28.32641422 61.00642209 32.41531372 70.20095825 C33.64814685 72.97398255 34.87978689 75.74753361 36.11108398 78.52124023 C36.50034561 79.39754593 36.88960724 80.27385162 37.29066467 81.17671204 C38.05419453 82.89577296 38.8171777 84.61507681 39.57957458 86.3346405 C41.55514409 90.78274662 43.55284293 95.21944416 45.58056641 99.64404297 C46.20908257 101.02117714 46.20908257 101.02117714 46.85029602 102.4261322 C47.65343303 104.18334698 48.46115192 105.93847699 49.27409363 107.69117737 C49.63199478 108.47556686 49.98989594 109.25995636 50.35864258 110.06811523 C50.67642166 110.75703354 50.99420074 111.44595184 51.3216095 112.15574646 C52 114 52 114 52 117 C45.73 117 39.46 117 33 117 C30.32680763 111.19535371 27.69631287 105.37779015 25.1875 99.5 C24.76855469 98.5203125 24.34960938 97.540625 23.91796875 96.53125 C23 94 23 94 23 91 C8.15 91 -6.7 91 -22 91 C-22.99 94.3 -23.98 97.6 -25 101 C-26.0083195 103.71142632 -27.03102818 106.38804126 -28.125 109.0625 C-28.38925781 109.72443359 -28.65351562 110.38636719 -28.92578125 111.06835938 C-30.86351657 115.86351657 -30.86351657 115.86351657 -32 117 C-33.41570123 117.08651611 -34.835595 117.10704904 -36.25390625 117.09765625 C-37.10791016 117.09443359 -37.96191406 117.09121094 -38.84179688 117.08789062 C-39.73962891 117.07951172 -40.63746094 117.07113281 -41.5625 117.0625 C-42.46419922 117.05798828 -43.36589844 117.05347656 -44.29492188 117.04882812 C-46.53001314 117.03700225 -48.76497437 117.0205222 -51 117 C-50.34222257 112.72016889 -48.87819656 109.15991564 -47.10546875 105.21875 C-46.80634079 104.54958054 -46.50721283 103.88041107 -46.19902039 103.19096375 C-45.19986894 100.95850783 -44.19362214 98.72932199 -43.1875 96.5 C-42.47422054 94.90950832 -41.76150593 93.31876323 -41.04931641 91.7277832 C-39.91131723 89.18609845 -38.77278389 86.64466202 -37.63232422 84.1040802 C-34.73204582 77.64299598 -31.85137779 71.17340206 -28.98046875 64.69921875 C-28.350019 63.27764214 -28.350019 63.27764214 -27.70683289 61.8273468 C-26.8552503 59.90707045 -26.00368272 57.98678745 -25.15213013 56.0664978 C-16.84599585 37.34221762 -8.46809108 18.65159012 0 0 Z " fill="#FEFCFC" transform="translate(112,47)"/>
<path d="M0 0 C2.84024298 3.38478685 4.47340882 7.0890727 6.13671875 11.13671875 C6.42102249 11.81676468 6.70532623 12.49681061 6.99824524 13.19746399 C7.59497404 14.62769656 8.18901672 16.05905248 8.78051758 17.49145508 C9.68966095 19.69273222 10.60678667 21.89054681 11.52539062 24.08789062 C12.10463083 25.47897348 12.68342285 26.87024306 13.26171875 28.26171875 C13.6741407 29.25228523 13.6741407 29.25228523 14.09489441 30.26286316 C16 34.88262459 16 34.88262459 16 36 C5.77 36 -4.46 36 -15 36 C-13.453125 32.101875 -11.90625 28.20375 -10.3125 24.1875 C-9.83594971 22.98246826 -9.35939941 21.77743652 -8.8684082 20.53588867 C-6.10320353 13.59655518 -3.16017319 6.76864013 0 0 Z " fill="#DD022F" transform="translate(112,86)"/>
<path d="M0 0 C3.13076077 1.56538038 3.51033024 4.18575719 4.8203125 7.37109375 C5.08383514 8.00862076 5.34735779 8.64614777 5.61886597 9.30299377 C6.17506893 10.65257993 6.72797122 12.00353036 7.27783203 13.35571289 C8.12138289 15.4286115 8.9758067 17.49676193 9.83203125 19.56445312 C14 29.70766788 14 29.70766788 14 32 C9.38 32 4.76 32 0 32 C0 21.44 0 10.88 0 0 Z " fill="#C3022D" transform="translate(113,89)"/>
<path d="M0 0 C2.42248355 3.63372533 2.17281207 6.12080842 1.9765625 10.29296875 C1.95153656 10.99899734 1.92651062 11.70502594 1.90072632 12.43244934 C1.81863741 14.68462949 1.72200748 16.93591791 1.625 19.1875 C1.56674891 20.71545852 1.50944586 22.24345349 1.453125 23.77148438 C1.31485189 27.51502546 1.15692996 31.25700843 1 35 C5.95 35 10.9 35 16 35 C16 35.33 16 35.66 16 36 C5.77 36 -4.46 36 -15 36 C-15 35.67 -15 35.34 -15 35 C-10.05 35 -5.1 35 0 35 C0 25.1 0 15.2 0 5 C-0.66 4.67 -1.32 4.34 -2 4 C-1.34 2.68 -0.68 1.36 0 0 Z " fill="#D2183C" transform="translate(112,86)"/>
</svg>
