<?xml version="1.0" standalone="no"?>
<!DOCTYPE svg PUBLIC "-//W3C//DTD SVG 20010904//EN"
 "http://www.w3.org/TR/2001/REC-SVG-20010904/DTD/svg10.dtd">
<svg version="1.0" xmlns="http://www.w3.org/2000/svg"
 width="225.000000pt" height="225.000000pt" viewBox="0 0 225.000000 225.000000"
 preserveAspectRatio="xMidYMid meet">
<metadata>
Created by potrace 1.16, written by Peter Selinger 2001-2019
</metadata>
<g transform="translate(0.000000,225.000000) scale(0.100000,-0.100000)"
fill="#000000" stroke="none">
<path d="M25 2217 c-3 -7 -4 -120 -3 -252 l3 -240 129 -3 c86 -2 133 1 142 9
10 8 14 38 14 110 l0 99 815 0 815 0 0 -99 c0 -72 4 -102 14 -110 9 -8 56 -11
142 -9 l129 3 0 250 0 250 -1098 3 c-882 2 -1099 0 -1102 -11z"/>
<path d="M500 1587 c0 -19 479 -492 520 -513 48 -25 162 -25 210 0 41 21 520
494 520 513 0 10 -125 13 -625 13 -500 0 -625 -3 -625 -13z"/>
<path d="M500 1067 l0 -417 625 0 625 0 0 417 0 417 -227 -226 c-258 -257
-279 -271 -398 -271 -119 0 -140 14 -397 271 l-228 226 0 -417z"/>
<path d="M24 517 c-2 -7 -3 -120 -2 -252 l3 -240 1100 0 1100 0 0 245 0 245
-135 0 -135 0 -3 -102 -3 -103 -819 0 -820 0 0 98 c0 63 -4 102 -12 110 -17
17 -267 17 -274 -1z"/>
</g>
</svg>
