<?xml version="1.0" encoding="UTF-8"?>
<svg version="1.1" xmlns="http://www.w3.org/2000/svg" width="595" height="85">
<path d="M0 0 C196.35 0 392.7 0 595 0 C595 28.05 595 56.1 595 85 C398.65 85 202.3 85 0 85 C0 56.95 0 28.9 0 0 Z " fill="#FCFCFD" transform="translate(0,0)"/>
<path d="M0 0 C87.45 0 174.9 0 265 0 C265 27.72 265 55.44 265 84 C268.3 84 271.6 84 275 84 C275 80.7 275 77.4 275 74 C275.45375 74.721875 275.9075 75.44375 276.375 76.1875 C279.99063981 80.0613998 284.21362666 81.85343944 289 84 C289 84.33 289 84.66 289 85 C193.63 85 98.26 85 0 85 C0 56.95 0 28.9 0 0 Z " fill="#FBFCFD" transform="translate(0,0)"/>
<path d="M0 0 C45.21 0 90.42 0 137 0 C137 28.05 137 56.1 137 85 C100.37 85 63.74 85 26 85 C26 84.67 26 84.34 26 84 C32.435 83.505 32.435 83.505 39 83 C37.06447266 81.081875 37.06447266 81.081875 35.08984375 79.125 C33.37226064 77.41680259 31.65482031 75.70846162 29.9375 74 C29.08994141 73.16082031 28.24238281 72.32164063 27.36914062 71.45703125 C15.26921695 59.40382543 15.26921695 59.40382543 11 53 C11.85722656 52.154375 12.71445312 51.30875 13.59765625 50.4375 C19.0774667 45.00897013 24.50330805 39.60626103 29.5 33.72265625 C31.86470366 31.00694189 34.42333018 28.51382421 37 26 C32.63100971 24.73398577 29.37746472 24.70707793 25 26 C18.80608792 30.6950937 13.95821223 37.07005005 9 43 C7.36904405 44.86811715 5.71692758 46.71500636 4.0625 48.5625 C3.18271484 49.58537109 3.18271484 49.58537109 2.28515625 50.62890625 C1.64900391 51.30759766 1.64900391 51.30759766 1 52 C0.67 52 0.34 52 0 52 C0 34.84 0 17.68 0 0 Z " fill="#FDFDFD" transform="translate(458,0)"/>
<path d="M0 0 C27.06 0 54.12 0 82 0 C83.09642285 4.38569141 82.73102102 6.75649552 81.9609375 11.17578125 C81.83983612 11.88586838 81.71873474 12.59595551 81.59396362 13.32756042 C81.1951334 15.6572341 80.78516317 17.98479728 80.375 20.3125 C79.95498371 22.74304358 79.53760112 25.17402949 79.1204834 27.60507202 C78.8356818 29.26426822 78.54994706 30.92330449 78.26330566 32.58218384 C77.31408283 38.09353318 76.41496193 43.61082247 75.5546875 49.13671875 C75.44293182 49.85056229 75.33117615 50.56440582 75.21603394 51.29988098 C74.68699509 54.68240569 74.16408065 58.06560657 73.64990234 61.45043945 C73.46121582 62.65273193 73.2725293 63.85502441 73.078125 65.09375 C72.91731445 66.14240234 72.75650391 67.19105469 72.59082031 68.27148438 C72 71 72 71 70 75 C50.86 75 31.72 75 12 75 C10.10253002 71.20506003 9.43268324 68.59016151 8.74731445 64.45898438 C8.63812683 63.81133621 8.52893921 63.16368805 8.41644287 62.49641418 C8.05873308 60.36324025 7.71063716 58.22863252 7.36328125 56.09375 C7.1174597 54.60683693 6.8712948 53.11998059 6.62480164 51.63317871 C6.11034227 48.52030972 5.6007686 45.40668883 5.09448242 42.29248047 C4.44535385 38.30275188 3.78303606 34.31534385 3.11690998 30.32842255 C2.60591058 27.25986966 2.10247073 24.19011285 1.60124779 21.11994934 C1.36009005 19.64915058 1.11645527 18.17875573 0.87029457 16.70878601 C0.52725988 14.65404162 0.19457454 12.59787641 -0.13549805 10.54101562 C-0.32710007 9.37171509 -0.51870209 8.20241455 -0.71611023 6.99768066 C-1 4 -1 4 0 0 Z " fill="#2784FE" transform="translate(1,9)"/>
<path d="M0 0 C41.85714286 0 41.85714286 0 49.625 7.5 C53.88701149 12.91989901 53.51012076 19.38768002 53 26 C51.21031688 31.57960031 47.50263629 34.52125086 43 38 C44.051875 38.391875 45.10375 38.78375 46.1875 39.1875 C50.53622674 41.0537552 53.56504941 43.7371933 56.1171875 47.76171875 C58.35699222 53.44051568 57.70678791 60.71333325 55.9375 66.4375 C51.80589067 71.90188653 47.67106401 75.21060285 41 77 C37.81197964 77.26121497 34.64219812 77.23358953 31.4453125 77.1953125 C30.24539673 77.19229126 30.24539673 77.19229126 29.02124023 77.18920898 C26.05576783 77.17880776 23.09037767 77.15088549 20.125 77.125 C13.48375 77.08375 6.8425 77.0425 0 77 C0 51.59 0 26.18 0 0 Z " fill="#213657" transform="translate(127,6)"/>
<path d="M0 0 C3.3 0 6.6 0 10 0 C10.33 10.89 10.66 21.78 11 33 C12.32 31.35 13.64 29.7 15 28 C20.56483851 23.52393424 25.57730434 23.38953758 32.62109375 23.62109375 C39.80069807 24.42620545 44.03062918 27.45092891 48.67578125 32.828125 C52.65731557 39.35831109 53.52769195 45.32012583 53.4375 52.8125 C53.42992676 53.69252686 53.42235352 54.57255371 53.41455078 55.47924805 C53.18254751 64.6552314 51.27593011 72.76259542 44.75390625 79.5625 C39.39305729 83.95624703 33.45514964 85.74781491 26.5625 85.45703125 C21.10277538 84.48326939 15.77131701 82.15503777 12.21484375 77.828125 C11.81394531 77.22484375 11.41304688 76.6215625 11 76 C10.67 78.64 10.34 81.28 10 84 C6.7 84 3.4 84 0 84 C0 56.28 0 28.56 0 0 Z " fill="#233758" transform="translate(265,0)"/>
<path d="M0 0 C5.46327426 4.61685149 8.0019829 10.23748057 10 17 C10 21.95 10 26.9 10 32 C-10.79 32.495 -10.79 32.495 -32 33 C-28.84710456 41.64177235 -28.84710456 41.64177235 -21.8515625 46.0859375 C-18.13626901 47.27686719 -14.60888992 47.29752014 -10.75 47.25 C-9.6209021 47.24419922 -9.6209021 47.24419922 -8.46899414 47.23828125 C-3.07235786 47.15440477 1.79859332 46.51313649 7 45 C7 47.97 7 50.94 7 54 C-3.01246946 58.60573595 -14.1639496 59.90791893 -24.8125 56.4375 C-31.91006884 53.47845527 -37.15372155 49.42339588 -40.4375 42.375 C-44.18449936 33.06631101 -44.4577646 21.83482377 -41.16796875 12.3515625 C-38.1139174 6.20260292 -32.9203113 0.34946004 -26.53125 -2.4140625 C-18.06912157 -4.37288853 -7.61059747 -4.3690467 0 0 Z " fill="#263A5A" transform="translate(543,27)"/>
<path d="M0 0 C3.3 0 6.6 0 10 0 C10 4.29 10 8.58 10 13 C15.28 13 20.56 13 26 13 C26 32.14 26 51.28 26 71 C11 71 11 71 5 67 C0.13815822 61.79088381 -0.29137948 55.59450119 -0.1953125 48.7578125 C-0.1924826 47.98944061 -0.18965271 47.22106873 -0.18673706 46.42941284 C-0.17561311 43.99444479 -0.1505236 41.55985538 -0.125 39.125 C-0.11496011 37.46615118 -0.10583603 35.80729654 -0.09765625 34.1484375 C-0.07569937 30.09881421 -0.04122406 26.04947113 0 22 C-2.97 22 -5.94 22 -9 22 C-9 19.03 -9 16.06 -9 13 C-6.03 13 -3.06 13 0 13 C0 8.71 0 4.42 0 0 Z " fill="#253959" transform="translate(569,12)"/>
<path d="M0 0 C3.3 0 6.6 0 10 0 C10.33 16.83 10.66 33.66 11 51 C21.1733167 40.30696304 21.1733167 40.30696304 30.625 29 C33.27391343 25.95959648 34.41299757 25.10284229 38.43359375 24.3984375 C41.6909787 24.37739949 44.77633191 24.55157631 48 25 C42.803597 31.17378287 37.31116233 37.01860578 31.74609375 42.859375 C28.33129149 46.46137814 25.01480203 50.04795382 22 54 C22.49628906 54.4846875 22.99257813 54.969375 23.50390625 55.46875 C26.8581837 58.77847348 30.13755695 62.09347164 33.1875 65.6875 C37.11493922 70.27562993 41.42127734 74.47327814 45.7331543 78.69604492 C47.17254003 80.11353566 48.58859998 81.55464148 50 83 C50 83.33 50 83.66 50 84 C37.99488145 85.21400075 37.99488145 85.21400075 33.53515625 82.5 C31.50147453 80.43812863 29.74470074 78.31044271 28 76 C26.84212186 74.65902755 25.67557756 73.32548342 24.5 72 C23.93925781 71.34644531 23.37851562 70.69289063 22.80078125 70.01953125 C20.22840313 67.13467336 17.4746866 64.44994203 14.69921875 61.76171875 C13 60 13 60 11 57 C10.67 65.91 10.34 74.82 10 84 C6.7 84 3.4 84 0 84 C0 56.28 0 28.56 0 0 Z " fill="#233758" transform="translate(448,0)"/>
<path d="M0 0 C3.3 0 6.6 0 10 0 C10.0093457 1.16982422 10.01869141 2.33964844 10.02832031 3.54492188 C10.06840062 7.913789 10.13420859 12.28196523 10.20751953 16.65039062 C10.23562497 18.53571654 10.25689106 20.42115799 10.27099609 22.30664062 C10.29257089 25.027941 10.33929349 27.74786731 10.390625 30.46875 C10.39185364 31.30241089 10.39308228 32.13607178 10.39434814 32.99499512 C10.53528382 38.71447847 11.72553875 43.23643629 15 48 C18.88599948 50.59066632 23.4485101 50.5722895 28 50 C33.34740414 48.04614079 36.45618143 45.08763713 39 40 C39.15733249 37.01236645 39.25861415 34.04458849 39.31640625 31.0546875 C39.33718735 30.1696756 39.35796844 29.2846637 39.37937927 28.37283325 C39.44486598 25.54030259 39.50375562 22.70767775 39.5625 19.875 C39.60568606 17.95702143 39.64930037 16.03905246 39.69335938 14.12109375 C39.80054647 9.41415949 39.9018164 4.70713033 40 0 C43.3 0 46.6 0 50 0 C50 19.14 50 38.28 50 58 C47.03 58 44.06 58 41 58 C41 55.03 41 52.06 41 49 C40.34 49 39.68 49 39 49 C38.9071875 49.86625 38.9071875 49.86625 38.8125 50.75 C37.45500506 54.50921677 34.68394792 56.13784802 31.20703125 57.91796875 C25.48802013 60.34940461 19.79036066 61.24780015 13.79296875 59.2734375 C6.67366437 56.0241817 3.72068498 51.25515994 1 44 C-0.2445972 39.34291671 -0.12749555 34.76322772 -0.09765625 29.98046875 C-0.0962413 29.12189774 -0.09482635 28.26332672 -0.09336853 27.3787384 C-0.08779057 24.64828951 -0.07524214 21.91792393 -0.0625 19.1875 C-0.05748215 17.3313814 -0.05291974 15.4752615 -0.04882812 13.61914062 C-0.03782836 9.0793952 -0.02057893 4.5397117 0 0 Z " fill="#253959" transform="translate(329,25)"/>
<path d="M0 0 C4.0779986 2.71866573 6.02132592 5.47170583 7.828125 10.09375 C8.29646051 13.39450352 8.33802086 16.63879285 8.328125 19.96875 C8.35648437 20.82855469 8.38484375 21.68835938 8.4140625 22.57421875 C8.43337074 28.93628309 7.01576634 33.2470509 2.828125 38.09375 C-0.91954341 41.17219191 -3.88445056 41.50230671 -8.671875 41.46875 C-9.7753125 41.47648437 -10.87875 41.48421875 -12.015625 41.4921875 C-15.51564164 41.05035372 -17.35957337 40.18822639 -20.171875 38.09375 C-26.1269766 30.15361453 -26.05849518 21.66264541 -25.171875 12.09375 C-23.76737711 6.70475265 -20.86817125 3.10419632 -16.171875 0.09375 C-11.04370377 -1.61564041 -5.07796919 -2.11886484 0 0 Z " fill="#FCFCFC" transform="translate(300.171875,33.90625)"/>
<path d="M0 0 C0.89759843 3.59039373 1.0565969 4.91383022 0.48681641 8.35375977 C0.3498233 9.2046669 0.2128302 10.05557404 0.07168579 10.93226624 C-0.0834549 11.84278244 -0.23859558 12.75329865 -0.3984375 13.69140625 C-0.55285309 14.63306137 -0.70726868 15.57471649 -0.86636353 16.54490662 C-1.19393957 18.53340799 -1.52536309 20.52127883 -1.86035156 22.50854492 C-2.37343678 25.55322374 -2.8752591 28.5995897 -3.375 31.64648438 C-3.69465729 33.57823354 -4.01494836 35.50987795 -4.3359375 37.44140625 C-4.48702972 38.35394669 -4.63812195 39.26648712 -4.79379272 40.2066803 C-4.93709015 41.05443527 -5.08038757 41.90219025 -5.22802734 42.77563477 C-5.35317719 43.52079849 -5.47832703 44.26596222 -5.60726929 45.03370667 C-6 47 -6 47 -7 50 C-11.29 50 -15.58 50 -20 50 C-20.66 48.35 -21.32 46.7 -22 45 C-23.17281117 43.18374376 -23.17281117 43.18374376 -24.53125 41.5546875 C-25.01207031 40.95269531 -25.49289063 40.35070312 -25.98828125 39.73046875 C-26.48714844 39.11816406 -26.98601563 38.50585938 -27.5 37.875 C-28.49047425 36.64394544 -29.48008987 35.41219945 -30.46875 34.1796875 C-30.90638672 33.64069824 -31.34402344 33.10170898 -31.79492188 32.54638672 C-32.93465818 31.08384827 -33.97148089 29.54277866 -35 28 C-35.99 27.34 -36.98 26.68 -38 26 C-34.7 26 -31.4 26 -28 26 C-27.87882812 24.865625 -27.75765625 23.73125 -27.6328125 22.5625 C-27.46382749 21.04163488 -27.29454047 19.5208033 -27.125 18 C-27.04636719 17.25621094 -26.96773437 16.51242188 -26.88671875 15.74609375 C-26.80292969 15.00488281 -26.71914063 14.26367188 -26.6328125 13.5 C-26.55949707 12.8296875 -26.48618164 12.159375 -26.41064453 11.46875 C-25.82308033 7.9363783 -24.86849706 4.47398825 -24 1 C-16.08 0.67 -8.16 0.34 0 0 Z " fill="#176FE9" transform="translate(79,33)"/>
<path d="M0 0 C0 2.97 0 5.94 0 9 C-0.84820312 8.84144531 -1.69640625 8.68289062 -2.5703125 8.51953125 C-10.58226472 7.30587562 -19.28550019 6.44729071 -26.453125 10.796875 C-30.40366893 13.86952028 -32.41018958 17.3383525 -34 22 C-34.87419909 29.3697016 -34.52385499 35.91923388 -30 42 C-25.19004204 46.6866257 -20.76980751 48.24345131 -14.06835938 48.22460938 C-13.36517578 48.21236328 -12.66199219 48.20011719 -11.9375 48.1875 C-11.23044922 48.18685547 -10.52339844 48.18621094 -9.79492188 48.18554688 C-6.30026708 48.15601458 -3.41465542 47.85366386 0 47 C0 49.97 0 52.94 0 56 C-10.11139821 60.04455928 -19.34415177 60.45273429 -29.5234375 56.2578125 C-37.96504488 51.97043462 -41.3372474 45.9882578 -44.25 37.25 C-46.64347295 26.13123019 -44.8441411 16.3668587 -39 6.6875 C-29.10124049 -3.50851955 -12.83779474 -5.05360809 0 0 Z " fill="#253959" transform="translate(436,26)"/>
<path d="M0 0 C3.3 0 6.6 0 10 0 C10 4.29 10 8.58 10 13 C15.28 13 20.56 13 26 13 C26 15.97 26 18.94 26 22 C20.72 22 15.44 22 10 22 C10.02812234 26.75267497 10.07124021 31.50033082 10.15258789 36.25170898 C10.17573286 37.86651549 10.19015543 39.48147221 10.19555664 41.09643555 C10.20487274 43.42331148 10.24591368 45.74783676 10.29296875 48.07421875 C10.2890361 48.79212082 10.28510345 49.51002289 10.28105164 50.24967957 C10.39407191 54.16407507 10.89802177 55.87279954 13.37695312 58.96484375 C16.36682601 61.2846111 17.59885574 61.56007628 21.3125 61.3125 C22.859375 61.209375 24.40625 61.10625 26 61 C26 64.3 26 67.6 26 71 C23.62374823 71.10883596 21.25256024 71.18766696 18.875 71.25 C18.20984375 71.28351563 17.5446875 71.31703125 16.859375 71.3515625 C11.71550966 71.4524226 8.96707537 70.19142332 5 67 C0.27943116 61.77365592 -0.28791815 56.46961537 -0.1953125 49.63671875 C-0.1924826 48.84473587 -0.18965271 48.05275299 -0.18673706 47.23677063 C-0.17558863 44.72019001 -0.15049422 42.20397211 -0.125 39.6875 C-0.11496329 37.97591662 -0.10583864 36.26432763 -0.09765625 34.55273438 C-0.07566681 30.36835094 -0.04117408 26.18423686 0 22 C-2.97 22 -5.94 22 -9 22 C-9 19.03 -9 16.06 -9 13 C-6.03 13 -3.06 13 0 13 C0 8.71 0 4.42 0 0 Z " fill="#243859" transform="translate(226,12)"/>
<path d="M0 0 C4.0209236 -0.09219952 8.03913024 -0.17171538 12.06054688 -0.21972656 C13.42623368 -0.23975319 14.79183569 -0.26698332 16.15722656 -0.30175781 C18.12787102 -0.35066432 20.09915983 -0.37091347 22.0703125 -0.390625 C23.84559326 -0.4220459 23.84559326 -0.4220459 25.65673828 -0.45410156 C30.22082982 0.16582032 33.5153164 2.11040269 36.375 5.75 C37.66468814 10.39287732 37.66450886 14.42616322 35.8125 18.8125 C32.91758515 22.30636275 30.31710976 23.86111058 25.77026367 24.34057617 C24.58150635 24.32486572 23.39274902 24.30915527 22.16796875 24.29296875 C20.87568359 24.28330078 19.58339844 24.27363281 18.25195312 24.26367188 C16.8971293 24.23860985 15.54231159 24.21321506 14.1875 24.1875 C12.81316555 24.17244013 11.43881532 24.15875401 10.06445312 24.14648438 C6.70946596 24.11116872 3.35468262 24.05736316 0 24 C0 16.08 0 8.16 0 0 Z " fill="#FBFBFC" transform="translate(137,49)"/>
<path d="M0 0 C5.7234375 -0.12375 5.7234375 -0.12375 11.5625 -0.25 C12.75174072 -0.28641602 13.94098145 -0.32283203 15.16625977 -0.36035156 C21.66250909 -0.42816324 25.81928482 -0.06497817 31 4 C33.60404123 7.55416438 33.13472635 10.62240094 32.53515625 14.8125 C31.74066527 18.06005436 30.48303815 19.78539841 28 22 C22.35200717 24.60188434 16.7034861 24.2261738 10.625 24.125 C7.11875 24.08375 3.6125 24.0425 0 24 C0 16.08 0 8.16 0 0 Z " fill="#F6F7F8" transform="translate(137,16)"/>
<path d="M0 0 C5.28 0 10.56 0 16 0 C16 12.87 16 25.74 16 39 C12.39427296 40.20190901 9.7897565 40.32670315 6 40 C3.24670979 38.20437595 1.47372539 36.94745078 0 34 C-0.08658569 31.44637396 -0.11562516 28.9204558 -0.09765625 26.3671875 C-0.0962413 25.61535187 -0.09482635 24.86351624 -0.09336853 24.08889771 C-0.08776465 21.6842249 -0.07521157 19.27964473 -0.0625 16.875 C-0.0574855 15.24609509 -0.0529225 13.61718873 -0.04882812 11.98828125 C-0.03864424 7.99212298 -0.01906972 3.99616535 0 0 Z " fill="#FBFBFB" transform="translate(579,34)"/>
<path d="M0 0 C3.3 0 6.6 0 10 0 C10 19.47 10 38.94 10 59 C6.7 59 3.4 59 0 59 C0 39.53 0 20.06 0 0 Z " fill="#273B5A" transform="translate(197,25)"/>
<path d="M0 0 C8.25 0 16.5 0 25 0 C25 9 25 9 24.34375 12.28125 C24.22193359 12.91095703 24.10011719 13.54066406 23.97460938 14.18945312 C23.81798828 14.95193359 23.66136719 15.71441406 23.5 16.5 C23.005 18.975 22.51 21.45 22 24 C16.06 24 10.12 24 4 24 C3.34 21.15375 2.68 18.3075 2 15.375 C1.79117187 14.48989746 1.58234375 13.60479492 1.3671875 12.69287109 C1.20476563 11.97695801 1.04234375 11.26104492 0.875 10.5234375 C0.70742188 9.80075684 0.53984375 9.07807617 0.3671875 8.33349609 C0 6 0 6 0 0 Z " fill="#FCFDFE" transform="translate(29,34)"/>
<path d="M0 0 C5.04758323 2.16324996 7.00942697 5.14529174 9.3359375 9.90234375 C10 12 10 12 10 17 C-0.89 17 -11.78 17 -23 17 C-21.93825736 9.56780151 -20.79648496 6.65666071 -15.5 1.625 C-10.32758226 -0.77647967 -5.60681999 -0.73936088 0 0 Z " fill="#FCFCFC" transform="translate(533,33)"/>
<path d="M0 0 C1.05708089 4.22832355 0.79046802 6.29504967 0.00390625 10.515625 C-0.22490234 11.76601563 -0.45371094 13.01640625 -0.68945312 14.3046875 C-0.93862171 15.61982585 -1.18797299 16.9349296 -1.4375 18.25 C-1.68370733 19.58058791 -1.92915856 20.91131597 -2.17382812 22.2421875 C-2.77512196 25.49624823 -3.38412249 28.74867338 -4 32 C-8.28487578 27.96857343 -11.71710585 23.55265518 -15.1875 18.8125 C-16.24207677 17.38046891 -17.29800656 15.94943296 -18.35546875 14.51953125 C-18.81590576 13.89151611 -19.27634277 13.26350098 -19.75073242 12.61645508 C-21.0475038 10.86776831 -21.0475038 10.86776831 -23 9 C-23.66 9.66 -24.32 10.32 -25 11 C-25.125 4.375 -25.125 4.375 -24 1 C-16.08 0.67 -8.16 0.34 0 0 Z " fill="#075BD6" transform="translate(79,33)"/>
<path d="M0 0 C4.24545391 4.00263275 7.67367628 8.36749479 11.125 13.0625 C11.91197266 14.12307617 11.91197266 14.12307617 12.71484375 15.20507812 C13.71805316 16.557506 14.71508209 17.91454807 15.70483398 19.27685547 C17.0389866 21.11259786 17.0389866 21.11259786 18.91796875 23.07421875 C20.61323937 26.09143324 19.8189504 28.42657686 19.1875 31.75 C18.86845703 33.50570312 18.86845703 33.50570312 18.54296875 35.296875 C18.36378906 36.18890625 18.18460938 37.0809375 18 38 C17.67 38 17.34 38 17 38 C16.87625 36.7625 16.7525 35.525 16.625 34.25 C15.32256872 28.22269029 11.44975994 24.28065597 7.48046875 19.8125 C5.49400944 17.56013669 3.70804165 15.33704202 2 12.875 C0.14353955 10.02576351 0.14353955 10.02576351 -2 8 C-1.7578125 6.0546875 -1.7578125 6.0546875 -1.125 3.875 C-0.92132813 3.15054688 -0.71765625 2.42609375 -0.5078125 1.6796875 C-0.34023438 1.12539063 -0.17265625 0.57109375 0 0 Z " fill="#1167E1" transform="translate(55,40)"/>
<path d="M0 0 C4.08356561 -0.70738932 7.12240866 -0.51446433 11 1 C15.8776653 5.539566 19.40722048 11.43579084 23 17 C23.78061257 18.1744685 24.56294311 19.34779855 25.34765625 20.51953125 C25.89292969 21.33808594 26.43820313 22.15664062 27 23 C24.03 23.33 21.06 23.66 18 24 C17.7834375 23.32195312 17.566875 22.64390625 17.34375 21.9453125 C15.59096196 18.10344568 13.15536068 15.13416363 10.5 11.875 C9.50952575 10.64394544 8.51991013 9.41219945 7.53125 8.1796875 C6.87479492 7.37120361 6.87479492 7.37120361 6.20507812 6.54638672 C5.06534182 5.08384827 4.02851911 3.54277866 3 2 C2.01 1.34 1.02 0.68 0 0 Z " fill="#1D78F3" transform="translate(41,59)"/>
<path d="M0 0 C2.4375 1.5625 2.4375 1.5625 4 4 C3.93866496 7.4960972 3.65265114 9.93514814 1.8125 12.9375 C-0.95588471 14.56034621 -2.85545467 14.44922076 -6 14 C-8.375 12.375 -8.375 12.375 -10 10 C-10.61195145 6.3282913 -10.48706506 4.71186432 -8.375 1.625 C-5.28813568 -0.48706506 -3.6717087 -0.61195145 0 0 Z " fill="#253859" transform="translate(205,2)"/>
<path d="M0 0 C1.13082641 4.52330564 0.48536209 7.80455366 -0.4375 12.25 C-0.65889648 13.36761719 -0.65889648 13.36761719 -0.88476562 14.5078125 C-1.2488694 16.34007665 -1.62341409 18.17026053 -2 20 C-2.33 20 -2.66 20 -3 20 C-3.165 19.05125 -3.33 18.1025 -3.5 17.125 C-5.07466412 11.5966828 -8.86182852 6.89211804 -13 3 C-15.64540814 2.15291411 -15.64540814 2.15291411 -18 2 C-18 1.67 -18 1.34 -18 1 C-12.06 0.67 -6.12 0.34 0 0 Z " fill="#0453CD" transform="translate(79,33)"/>
<path d="M0 0 C0 3 0 3 -1.3125 4.38671875 C-2.875 5.59114583 -4.4375 6.79557292 -6 8 C-5.65120368 4.74456771 -4.97866739 3.98126893 -2.4375 1.75 C-1.633125 1.1725 -0.82875 0.595 0 0 Z " fill="#2A3E5E" transform="translate(403,28)"/>
</svg>
