<?xml version="1.0" encoding="UTF-8"?>
<svg version="1.1" xmlns="http://www.w3.org/2000/svg" width="225" height="225">
<path d="M0 0 C74.25 0 148.5 0 225 0 C225 74.25 225 148.5 225 225 C150.75 225 76.5 225 0 225 C0 150.75 0 76.5 0 0 Z " fill="#FCFCFC" transform="translate(0,0)"/>
<path d="M0 0 C10.56 0 21.12 0 32 0 C32 71.28 32 142.56 32 216 C42.23 216 52.46 216 63 216 C70 224 70 224 70 225 C46.9 225 23.8 225 0 225 C0 150.75 0 76.5 0 0 Z " fill="#FBFBFB" transform="translate(0,0)"/>
<path d="M0 0 C6.27 0 12.54 0 19 0 C20.39004992 4.86517472 21.39456125 9.05558357 22 14 C24.23995165 14.82528164 24.23995165 14.82528164 27 15 C29.75950837 13.61187111 29.75950837 13.61187111 32.3125 11.5625 C33.19550781 10.90378906 34.07851562 10.24507812 34.98828125 9.56640625 C35.98408203 8.79103516 35.98408203 8.79103516 37 8 C40.55939356 9.53013011 43.02831385 11.63626291 45.8125 14.3125 C47.02873047 15.45138672 47.02873047 15.45138672 48.26953125 16.61328125 C50 19 50 19 49.92578125 21.54296875 C48.71913631 24.7454146 46.96641365 27.18966527 44.9609375 29.9375 C43.70190117 32.63982189 44.19110011 34.19321485 45 37 C45.84304687 37.13277344 46.68609375 37.26554687 47.5546875 37.40234375 C48.65039062 37.57894531 49.74609375 37.75554687 50.875 37.9375 C51.96554688 38.11152344 53.05609375 38.28554687 54.1796875 38.46484375 C57 39 57 39 59 40 C59 59.47 59 78.94 59 99 C39.53 99 20.06 99 0 99 C-0.66 94.38 -1.32 89.76 -2 85 C-8.45374128 83.92437645 -8.90951116 83.98587971 -13.875 87.4375 C-16.411875 89.2009375 -16.411875 89.2009375 -19 91 C-23.29 86.71 -27.58 82.42 -32 78 C-30.26219333 73.65548333 -28.77788416 71.2248559 -25.92578125 67.74609375 C-24.80225326 66.01151111 -24.80225326 66.01151111 -25.1953125 63.859375 C-25.88058233 61.70998372 -25.88058233 61.70998372 -28.5625 60.8125 C-32.31906491 59.92458466 -36.16973367 59.47878329 -40 59 C-40 52.73 -40 46.46 -40 40 C-34.52413817 38.43546805 -31.42372238 37.77862358 -26 38 C-25.02213503 34.35571635 -24.66882658 32.64068973 -26.43359375 29.2265625 C-27.09488281 28.36804688 -27.75617188 27.50953125 -28.4375 26.625 C-29.09621094 25.75101563 -29.75492188 24.87703125 -30.43359375 23.9765625 C-30.95050781 23.32429688 -31.46742188 22.67203125 -32 22 C-30.41332422 18.09714233 -27.86649519 15.66479018 -24.875 12.75 C-23.96492188 11.85796875 -23.05484375 10.9659375 -22.1171875 10.046875 C-21.41851562 9.37140625 -20.71984375 8.6959375 -20 8 C-16.75139736 9.18837772 -14.23235753 10.43533268 -11.5625 12.625 C-8.31731764 15.05177014 -6.10538847 15.50065713 -2 15 C-1.855625 13.824375 -1.71125 12.64875 -1.5625 11.4375 C-1.09309543 7.61520567 -0.54499277 3.81494939 0 0 Z " fill="#F8F8F8" transform="translate(166,126)"/>
<path d="M0 0 C54.78 0 109.56 0 166 0 C166 38.61 166 77.22 166 117 C163.03 117 160.06 117 157 117 C157 81.36 157 45.72 157 9 C107.83 9 58.66 9 8 9 C8 74.34 8 139.68 8 207 C35.72 207 63.44 207 92 207 C92 209.97 92 212.94 92 216 C61.64 216 31.28 216 0 216 C0 144.72 0 73.44 0 0 Z " fill="#000000" transform="translate(32,0)"/>
<path d="M0 0 C6.27 0 12.54 0 19 0 C20.39004992 4.86517472 21.39456125 9.05558357 22 14 C24.23995165 14.82528164 24.23995165 14.82528164 27 15 C29.75950837 13.61187111 29.75950837 13.61187111 32.3125 11.5625 C33.19550781 10.90378906 34.07851562 10.24507812 34.98828125 9.56640625 C35.98408203 8.79103516 35.98408203 8.79103516 37 8 C40.55939356 9.53013011 43.02831385 11.63626291 45.8125 14.3125 C47.02873047 15.45138672 47.02873047 15.45138672 48.26953125 16.61328125 C50 19 50 19 49.92578125 21.54296875 C48.99385086 24.01631986 47.91776829 25.86253332 46.375 28 C44.24552892 31.17542909 44.24552892 31.17542909 44.1875 35 C44.5896875 35.99 44.5896875 35.99 45 37 C47.31 37.33 49.62 37.66 52 38 C52 41 52 41 50 43.1875 C49.34 43.785625 48.68 44.38375 48 45 C48.66 45.66 49.32 46.32 50 47 C48.58297487 46.85769192 47.1663904 46.71099254 45.75 46.5625 C44.96109375 46.48128906 44.1721875 46.40007812 43.359375 46.31640625 C42.58078125 46.21199219 41.8021875 46.10757813 41 46 C40.2884375 45.93296875 39.576875 45.8659375 38.84375 45.796875 C37 45 37 45 35.734375 42.63671875 C35.40953125 41.66347656 35.0846875 40.69023437 34.75 39.6875 C34.24726563 38.23923828 34.24726563 38.23923828 33.734375 36.76171875 C33 34 33 34 33 30 C34.09375 28.1484375 34.09375 28.1484375 35.5 26.375 C37.54676069 23.97706491 37.54676069 23.97706491 38 21 C34.75038556 21.58507158 33.1979165 22.58022135 30.8125 24.8125 C28.99609375 26.1796875 28.99609375 26.1796875 27 27 C23.64888213 26.27574468 20.96493006 24.67104716 18 23 C15.525 22.01 15.525 22.01 13 21 C12.505 15.06 12.505 15.06 12 9 C10.68 9 9.36 9 8 9 C7.34 13.29 6.68 17.58 6 22 C3.00810862 23.04262881 0.01868165 24.04176717 -3 25 C-4.03125 25.33 -5.0625 25.66 -6.125 26 C-9.92725195 26 -11.546147 24.5254346 -14.38671875 22.12890625 C-16.08148976 20.7133354 -16.08148976 20.7133354 -19 21 C-18.53496068 24.02275559 -17.69489169 25.43074114 -15.875 28 C-14 31 -14 31 -14.125 33.125 C-14.7160004 34.39142944 -15.34233295 35.64187428 -16 36.875 C-17.25330113 39.5382649 -17.60416681 42.09722329 -18 45 C-19.41538717 45.33872513 -20.83237963 45.67074624 -22.25 46 C-23.03890625 46.185625 -23.8278125 46.37125 -24.640625 46.5625 C-27 47 -27 47 -31 47 C-31 48.32 -31 49.64 -31 51 C-29.78763672 51.00773437 -29.78763672 51.00773437 -28.55078125 51.015625 C-25.02600972 51.27073512 -22.28179774 51.66170846 -19 53 C-16.04233144 57.05046176 -13.6670374 61.99223786 -14.234375 67.1171875 C-15.13669393 69.33615548 -16.25716837 71.2417975 -17.5625 73.25 C-18.01753906 73.95640625 -18.47257812 74.6628125 -18.94140625 75.390625 C-19.29074219 75.92171875 -19.64007813 76.4528125 -20 77 C-18.515 77.495 -18.515 77.495 -17 78 C-14.63783961 76.54466148 -12.53274735 74.86506106 -10.3515625 73.15234375 C-8 72 -8 72 -5.5078125 72.71484375 C-4.68023437 73.13894531 -3.85265625 73.56304687 -3 74 C-2.20078125 74.26039063 -1.4015625 74.52078125 -0.578125 74.7890625 C5.38798426 76.93125609 5.38798426 76.93125609 7.046875 79.828125 C7.57169304 82.19885475 7.64354579 83.65083285 7 86 C4.96370123 88.46855657 2.66422333 90.24599761 0 92 C-0.66 89.69 -1.32 87.38 -2 85 C-5.72876073 83.98759167 -7.44944005 83.73621997 -10.9921875 85.43359375 C-11.94351563 86.09488281 -12.89484375 86.75617188 -13.875 87.4375 C-16.411875 89.2009375 -16.411875 89.2009375 -19 91 C-23.29 86.71 -27.58 82.42 -32 78 C-30.26219333 73.65548333 -28.77788416 71.2248559 -25.92578125 67.74609375 C-24.80225326 66.01151111 -24.80225326 66.01151111 -25.1953125 63.859375 C-25.88058233 61.70998372 -25.88058233 61.70998372 -28.5625 60.8125 C-32.31906491 59.92458466 -36.16973367 59.47878329 -40 59 C-40 52.73 -40 46.46 -40 40 C-34.52413817 38.43546805 -31.42372238 37.77862358 -26 38 C-25.02213503 34.35571635 -24.66882658 32.64068973 -26.43359375 29.2265625 C-27.09488281 28.36804688 -27.75617188 27.50953125 -28.4375 26.625 C-29.09621094 25.75101563 -29.75492188 24.87703125 -30.43359375 23.9765625 C-30.95050781 23.32429688 -31.46742188 22.67203125 -32 22 C-30.41332422 18.09714233 -27.86649519 15.66479018 -24.875 12.75 C-23.96492188 11.85796875 -23.05484375 10.9659375 -22.1171875 10.046875 C-21.41851562 9.37140625 -20.71984375 8.6959375 -20 8 C-16.75139736 9.18837772 -14.23235753 10.43533268 -11.5625 12.625 C-8.31731764 15.05177014 -6.10538847 15.50065713 -2 15 C-1.855625 13.824375 -1.71125 12.64875 -1.5625 11.4375 C-1.09309543 7.61520567 -0.54499277 3.81494939 0 0 Z " fill="#060606" transform="translate(166,126)"/>
<path d="M0 0 C0 19.47 0 38.94 0 59 C-19.47 59 -38.94 59 -59 59 C-59 52 -59 52 -57.46875 50.00390625 C-56.8190625 49.52824219 -56.169375 49.05257812 -55.5 48.5625 C-54.8503125 48.06878906 -54.200625 47.57507813 -53.53125 47.06640625 C-52.77328125 46.53853516 -52.77328125 46.53853516 -52 46 C-52 47.32 -52 48.64 -52 50 C-50.35 50 -48.7 50 -47 50 C-46.67 46.04 -46.34 42.08 -46 38 C-39.45703125 35.0703125 -39.45703125 35.0703125 -37 34 C-36.17113281 33.56558594 -35.34226563 33.13117188 -34.48828125 32.68359375 C-32 32 -32 32 -29.6484375 33.15234375 C-28.89820313 33.74144531 -28.14796875 34.33054688 -27.375 34.9375 C-25.17463168 36.71191563 -25.17463168 36.71191563 -23 38 C-22.01 37.67 -21.02 37.34 -20 37 C-20.433125 36.39671875 -20.86625 35.7934375 -21.3125 35.171875 C-21.869375 34.37265625 -22.42625 33.5734375 -23 32.75 C-23.8353125 31.56664062 -23.8353125 31.56664062 -24.6875 30.359375 C-26 28 -26 28 -26 24 C-23.08799714 14.2279904 -23.08799714 14.2279904 -19.02734375 11.83984375 C-15.68060152 10.9953387 -12.43935657 11 -9 11 C-9 9.35 -9 7.7 -9 6 C-9.99 5.67 -10.98 5.34 -12 5 C-11.14909413 3.95899813 -10.26796414 2.94265707 -9.375 1.9375 C-8.88773438 1.36902344 -8.40046875 0.80054688 -7.8984375 0.21484375 C-6 -1 -6 -1 0 0 Z " fill="#030303" transform="translate(225,166)"/>
<path d="M0 0 C4.47413236 2.46605721 7.51255818 5.77511637 9.8125 10.375 C10.53589661 17.41922273 10.25080792 23.62012979 5.8125 29.375 C-0.01715711 34.01493117 -4.93596877 35.03536281 -12.1875 34.375 C-17.62939799 32.561034 -20.9658325 28.99237362 -24.1875 24.375 C-26.12545159 18.56114524 -26.20805692 12.45391224 -23.5 6.9375 C-16.83501315 -0.44802597 -9.65231322 -4.37912131 0 0 Z " fill="#080808" transform="translate(183.1875,158.625)"/>
<path d="M0 0 C0 13.53 0 27.06 0 41 C-13.2 41 -26.4 41 -40 41 C-39 31 -39 31 -38 27 C-35.5625 25.3125 -35.5625 25.3125 -32 25 C-28.38591983 26.98747479 -25.20000219 29.40711285 -22 32 C-18.41597305 30.46751951 -15.97149866 28.3325399 -13.1875 25.625 C-12.37667969 24.85414063 -11.56585938 24.08328125 -10.73046875 23.2890625 C-8.78511087 21.20598756 -8.78511087 21.20598756 -9.0390625 18.953125 C-10.51794712 15.94726195 -12.69389515 13.67543069 -14.91796875 11.1953125 C-16 9 -16 9 -15.5859375 5.859375 C-14 3 -14 3 -10.99609375 1.7578125 C-9.23458984 1.44457031 -9.23458984 1.44457031 -7.4375 1.125 C-6.26058594 0.90070313 -5.08367187 0.67640625 -3.87109375 0.4453125 C-1 0 -1 0 0 0 Z " fill="#F9F9F9" transform="translate(225,184)"/>
<path d="M0 0 C22.11 0 44.22 0 67 0 C67 2.97 67 5.94 67 9 C44.89 9 22.78 9 0 9 C0 6.03 0 3.06 0 0 Z " fill="#010101" transform="translate(59,81)"/>
<path d="M0 0 C22.11 0 44.22 0 67 0 C67 2.64 67 5.28 67 8 C44.89 8 22.78 8 0 8 C0 5.36 0 2.72 0 0 Z " fill="#000000" transform="translate(59,122)"/>
<path d="M0 0 C22.11 0 44.22 0 67 0 C67 2.64 67 5.28 67 8 C44.89 8 22.78 8 0 8 C0 5.36 0 2.72 0 0 Z " fill="#000000" transform="translate(59,41)"/>
<path d="M0 0 C16.17 0 32.34 0 49 0 C49 2.97 49 5.94 49 9 C32.83 9 16.66 9 0 9 C0 6.03 0 3.06 0 0 Z " fill="#000000" transform="translate(59,162)"/>
<path d="M0 0 C3.19859011 0.70859035 5.05294781 1.23313636 7 4 C6.56491323 7.38568545 5.18267509 9.32276184 3.015625 11.8984375 C2.40976563 12.62546875 1.80390625 13.3525 1.1796875 14.1015625 C0.54289062 14.85179688 -0.09390625 15.60203125 -0.75 16.375 C-1.37132812 17.1175 -1.99265625 17.86 -2.6328125 18.625 C-3.84932027 20.07762321 -5.06864014 21.52789691 -6.29101562 22.97558594 C-8.54013734 25.63983126 -10.77041798 28.31939566 -13 31 C-18.99959229 26.04381506 -24.80855449 20.80773381 -30 15 C-30 13 -30 13 -27.5 10.375 C-26.675 9.59125 -25.85 8.8075 -25 8 C-20.70761377 9.65091778 -18.1206085 12.73754566 -15 16 C-11.9618161 14.67435047 -10.21054802 13.37095575 -8.203125 10.7421875 C-7.71972656 10.11699219 -7.23632812 9.49179688 -6.73828125 8.84765625 C-6.24714844 8.19667969 -5.75601563 7.54570313 -5.25 6.875 C-4.74339844 6.21628906 -4.23679688 5.55757813 -3.71484375 4.87890625 C-2.46969142 3.25785888 -1.23391431 1.62961787 0 0 Z " fill="#070707" transform="translate(171,70)"/>
<path d="M0 0 C3.38005327 1.44859426 5.4587228 3.37330171 8 6 C7.60731934 6.47308594 7.21463867 6.94617187 6.81005859 7.43359375 C4.99644326 9.62080425 3.18571251 11.81038588 1.375 14 C0.75753906 14.74378906 0.14007813 15.48757812 -0.49609375 16.25390625 C-4.47376777 21.06898532 -8.30218806 25.96672423 -12 31 C-15.04332765 29.6415798 -17.12309151 28.11536976 -19.453125 25.7421875 C-20.071875 25.11699219 -20.690625 24.49179687 -21.328125 23.84765625 C-21.96234375 23.19667969 -22.5965625 22.54570313 -23.25 21.875 C-23.8996875 21.21628906 -24.549375 20.55757812 -25.21875 19.87890625 C-26.81711727 18.25703357 -28.41061897 16.6306719 -30 15 C-28.35 13.02 -26.7 11.04 -25 9 C-21.25633814 10.43986995 -19.0306886 12.87350302 -16.3671875 15.7578125 C-15.06115997 17.22415409 -15.06115997 17.22415409 -13 17 C-11.08696658 14.76517546 -9.28133347 12.5234864 -7.5 10.1875 C-7.00113281 9.54490234 -6.50226563 8.90230469 -5.98828125 8.24023438 C-3.89887565 5.53745099 -1.89646826 2.84470239 0 0 Z " fill="#040404" transform="translate(171,29)"/>
<path d="M0 0 C-0.33 0.99 -0.66 1.98 -1 3 C-1.99 3.33 -2.98 3.66 -4 4 C-4.33 4.66 -4.66 5.32 -5 6 C-4.0925 5.46375 -3.185 4.9275 -2.25 4.375 C1 3 1 3 3.375 3.8125 C3.91125 4.204375 4.4475 4.59625 5 5 C4.25 9.75 4.25 9.75 2 12 C-0.625 12.125 -0.625 12.125 -3 12 C-2 10 -2 10 1 9 C1.33 8.01 1.66 7.02 2 6 C0.02 7.32 -1.96 8.64 -4 10 C-3.814375 11.11375 -3.62875 12.2275 -3.4375 13.375 C-3 17 -3 17 -4 19 C-6.88437779 17.70700306 -8.87219421 16.34058637 -11 14 C-10.72382467 15.94074861 -10.72382467 15.94074861 -10 18 C-9.01 18.66 -8.02 19.32 -7 20 C-7 20.66 -7 21.32 -7 22 C-4.69 22.33 -2.38 22.66 0 23 C0 23.33 0 23.66 0 24 C-22.11 24 -44.22 24 -67 24 C-67 23.67 -67 23.34 -67 23 C-53.8 23 -40.6 23 -27 23 C-26.34 21.68 -25.68 20.36 -25 19 C-23.33333333 18 -21.66666667 17 -20 16 C-19.690625 15.38125 -19.38125 14.7625 -19.0625 14.125 C-17.37215104 10.74430208 -15.09692508 9.16784756 -12 7 C-9.625 7.1875 -9.625 7.1875 -8 8 C-7.896875 7.236875 -7.79375 6.47375 -7.6875 5.6875 C-6.43889391 0.8065853 -5.02712572 0 0 0 Z " fill="#FBFBFB" transform="translate(126,98)"/>
<path d="M0 0 C2.375 1.25 2.375 1.25 3.375 4.25 C5.87947516 5.46869929 5.87947516 5.46869929 8.375 6.25 C8.86086118 12.56619537 8.86086118 12.56619537 6.6875 15.625 C4.18381813 17.38434402 2.39299494 17.91466723 -0.625 18.25 C-0.66625 19.1575 -0.7075 20.065 -0.75 21 C-1.625 24.25 -1.625 24.25 -4.5625 26.5 C-6.0784375 27.36625 -6.0784375 27.36625 -7.625 28.25 C-8.285 28.91 -8.945 29.57 -9.625 30.25 C-11.76701526 27.03697711 -12.27825876 25.98290719 -11.625 22.25 C-9.2417054 20.43116991 -7.66681663 19.25 -4.625 19.25 C-4.9375 21.1875 -4.9375 21.1875 -5.625 23.25 C-6.615 23.58 -7.605 23.91 -8.625 24.25 C-6.975 23.92 -5.325 23.59 -3.625 23.25 C-3.295 21.6 -2.965 19.95 -2.625 18.25 C-6.39124671 16.99458443 -7.99688934 17.87938042 -11.625 19.25 C-11.295 18.26 -10.965 17.27 -10.625 16.25 C-9.635 15.92 -8.645 15.59 -7.625 15.25 C-7.295 14.59 -6.965 13.93 -6.625 13.25 C-11.04389613 14.60021826 -12.96845343 16.51115668 -15.625 20.25 C-15.26192621 17.56325398 -14.95595772 15.69127696 -13.3125 13.5 C-11.42595268 12.10255754 -9.92300696 11.6462081 -7.625 11.25 C-7.955 10.92 -8.285 10.59 -8.625 10.25 C-8.66563832 8.58382885 -8.667721 6.91611905 -8.625 5.25 C-7.965 5.25 -7.305 5.25 -6.625 5.25 C-6.295 3.6 -5.965 1.95 -5.625 0.25 C-2.625 -0.75 -2.625 -0.75 0 0 Z " fill="#FAFAFA" transform="translate(132.625,84.75)"/>
<path d="M0 0 C1.5 1.3125 1.5 1.3125 3 3 C3 3.99 3 4.98 3 6 C5.97 6.495 5.97 6.495 9 7 C8.525625 7.804375 8.05125 8.60875 7.5625 9.4375 C6.62059358 12.94297841 6.62059358 12.94297841 8.42578125 15.40234375 C10.21613805 17.67347773 12.05253247 19.86253564 14 22 C13.34 22.99 12.68 23.98 12 25 C8.89645512 23.87143823 6.2572804 22.53589716 3.5 20.75 C0.17997094 18.61268794 0.17997094 18.61268794 -2.9375 19.75 C-3.618125 20.1625 -4.29875 20.575 -5 21 C-6.17539996 20.07347299 -7.34010577 19.13336613 -8.5 18.1875 C-9.1496875 17.66542969 -9.799375 17.14335937 -10.46875 16.60546875 C-12 15 -12 15 -12 12 C-9.0173094 10.47551369 -6.181798 9.06059933 -3 8 C-1.81608777 5.62374655 -1.81608777 5.62374655 -1 3 C-0.67 2.01 -0.34 1.02 0 0 Z " fill="#E2E2E2" transform="translate(192,180)"/>
<path d="M0 0 C3.76706021 1.18592636 5.27969919 1.71001871 7.375 5.0625 C8.13898394 9.34711098 8.08480107 12.79720244 5.9375 16.625 C2.10117511 18.7770847 -1.33204811 18.81081272 -5.625 18.0625 C-8.1875 16.625 -8.1875 16.625 -9.625 14.0625 C-10.43300186 10.229854 -10.6890843 6.72818673 -8.51953125 3.33203125 C-5.73786573 0.6696865 -3.80733387 0.06564369 0 0 Z " fill="#F8F8F8" transform="translate(176.625,165.9375)"/>
<path d="M0 0 C22.11 0 44.22 0 67 0 C67 0.33 67 0.66 67 1 C59.74 1 52.48 1 45 1 C44.67 2.98 44.34 4.96 44 7 C41.79197224 8.68381973 39.68396502 9.12161145 37 10 C37 10.99 37 11.98 37 13 C35.33333333 11.33333333 33.66666667 9.66666667 32 8 C31.071875 7.113125 30.14375 6.22625 29.1875 5.3125 C27 3 27 3 27 1 C18.09 1 9.18 1 0 1 C0 0.67 0 0.34 0 0 Z " fill="#C9C9C9" transform="translate(59,130)"/>
<path d="M0 0 C0.99 0.66 1.98 1.32 3 2 C2.236875 2.268125 1.47375 2.53625 0.6875 2.8125 C-1.87380884 3.94424112 -3.19692938 4.91223401 -5 7 C-3.61615706 9.98058479 -2.27230727 12.6101596 0 15 C2.95551526 15.69952489 2.95551526 15.69952489 6.1875 15.75 C7.27417969 15.80671875 8.36085937 15.8634375 9.48046875 15.921875 C10.31191406 15.94765625 11.14335938 15.9734375 12 16 C12 16.33 12 16.66 12 17 C-10.11 17 -32.22 17 -55 17 C-55 16.67 -55 16.34 -55 16 C-41.8 16 -28.6 16 -15 16 C-14.34 14.68 -13.68 13.36 -13 12 C-11.33333333 11 -9.66666667 10 -8 9 C-7.690625 8.38125 -7.38125 7.7625 -7.0625 7.125 C-5.43749406 3.87498812 -2.84594379 2.22726036 0 0 Z " fill="#C7C7C7" transform="translate(114,105)"/>
<path d="M0 0 C0.66 0 1.32 0 2 0 C2 6.93 2 13.86 2 21 C1.01 20.67 0.02 20.34 -1 20 C-1 19.34 -1 18.68 -1 18 C-1.99 17.67 -2.98 17.34 -4 17 C-4 16.34 -4 15.68 -4 15 C-4.66 15 -5.32 15 -6 15 C-6 14.34 -6 13.68 -6 13 C-7.32 13.33 -8.64 13.66 -10 14 C-8.73858678 8.95434712 -7.14982182 7.03645499 -3 4 C-2.443125 3.2575 -1.88625 2.515 -1.3125 1.75 C-0.879375 1.1725 -0.44625 0.595 0 0 Z " fill="#E5E5E5" transform="translate(186,25)"/>
<path d="M0 0 C4.62 0 9.24 0 14 0 C14 2.64 14 5.28 14 8 C6.74 8 -0.52 8 -8 8 C-8 7.67 -8 7.34 -8 7 C-7.05125 6.773125 -6.1025 6.54625 -5.125 6.3125 C-4.09375 5.879375 -3.0625 5.44625 -2 5 C-1.34 3.35 -0.68 1.7 0 0 Z " fill="#000000" transform="translate(112,122)"/>
<path d="M0 0 C0.61875 0.66 1.2375 1.32 1.875 2 C3.75637427 4.2284549 3.75637427 4.2284549 6 4 C6.33 5.65 6.66 7.3 7 9 C11.64586892 8.51515724 11.64586892 8.51515724 16 7 C15 10 15 10 13.125 11.1875 C11 12 11 12 8 12 C7.95875 12.9075 7.9175 13.815 7.875 14.75 C7 18 7 18 4.0625 20.25 C2.5465625 21.11625 2.5465625 21.11625 1 22 C0.34 22.66 -0.32 23.32 -1 24 C-3.14201526 20.78697711 -3.65325876 19.73290719 -3 16 C-0.6167054 14.18116991 0.95818337 13 4 13 C3.6875 14.9375 3.6875 14.9375 3 17 C2.01 17.33 1.02 17.66 0 18 C1.65 17.67 3.3 17.34 5 17 C5.33 15.35 5.66 13.7 6 12 C2.23375329 10.74458443 0.62811066 11.62938042 -3 13 C-2.67 12.01 -2.34 11.02 -2 10 C-1.01 9.67 -0.02 9.34 1 9 C1.33 8.34 1.66 7.68 2 7 C-2.41889613 8.35021826 -4.34345343 10.26115668 -7 14 C-6.63692621 11.31325398 -6.33095772 9.44127696 -4.6875 7.25 C-2.80095268 5.85255754 -1.29800696 5.3962081 1 5 C0.67 3.35 0.34 1.7 0 0 Z " fill="#F1F1F1" transform="translate(124,91)"/>
<path d="M0 0 C0.33 0 0.66 0 1 0 C1 5.94 1 11.88 1 18 C-6.57142857 11.71428571 -6.57142857 11.71428571 -9 8 C-8.0479279 6.99403703 -7.08812654 5.99538437 -6.125 5 C-5.59132813 4.443125 -5.05765625 3.88625 -4.5078125 3.3125 C-3 2 -3 2 -1 2 C-0.67 1.34 -0.34 0.68 0 0 Z " fill="#E7E7E7" transform="translate(30,27)"/>
<path d="M0 0 C0.33 0 0.66 0 1 0 C1 5.94 1 11.88 1 18 C-5.75 12.25 -5.75 12.25 -8 10 C-7.875 8 -7.875 8 -7 6 C-4.9375 4.75 -4.9375 4.75 -3 4 C-3 3.34 -3 2.68 -3 2 C-2.34 2 -1.68 2 -1 2 C-0.67 1.34 -0.34 0.68 0 0 Z " fill="#E7E7E7" transform="translate(30,182)"/>
<path d="M0 0 C3.96 0 7.92 0 12 0 C11 5 11 5 9 7 C5.5 6.8125 5.5 6.8125 2 6 C0 3 0 3 0 0 Z " fill="#393939" transform="translate(100,122)"/>
<path d="M0 0 C2.6875 -0.5 2.6875 -0.5 6 0 C8.08132026 2.45240837 9.55490096 5.1353789 11 8 C9.02 8.99 9.02 8.99 7 10 C4.36 8.02 1.72 6.04 -1 4 C-0.34 3.67 0.32 3.34 1 3 C0.67 2.01 0.34 1.02 0 0 Z " fill="#F1F1F1" transform="translate(195,195)"/>
<path d="M0 0 C0 1.32 0 2.64 0 4 C-1.28197266 4.18175781 -1.28197266 4.18175781 -2.58984375 4.3671875 C-3.69457031 4.53476563 -4.79929688 4.70234375 -5.9375 4.875 C-7.03964844 5.03742188 -8.14179688 5.19984375 -9.27734375 5.3671875 C-10.62505859 5.68042969 -10.62505859 5.68042969 -12 6 C-12.33 6.66 -12.66 7.32 -13 8 C-12.7181109 4.61733079 -12.16935563 3.18927982 -9.875 0.625 C-6.15381172 -1.47828033 -4.07651571 -0.95918017 0 0 Z " fill="#EFEFEF" transform="translate(216,173)"/>
<path d="M0 0 C2.3125 -0.3125 2.3125 -0.3125 5 0 C6.01866229 1.65532623 7.01810813 3.32260138 8 5 C10.43810155 6.15474612 10.43810155 6.15474612 13 6 C15.30942443 4.28931523 16.38324287 2.4251357 18 0 C17.9375 2.8125 17.9375 2.8125 17 6 C14.72555566 7.4926041 12.62038301 8.14242011 10 9 C10 9.99 10 10.98 10 12 C8.33333333 10.33333333 6.66666667 8.66666667 5 7 C4.071875 6.113125 3.14375 5.22625 2.1875 4.3125 C0 2 0 2 0 0 Z " fill="#F2F2F2" transform="translate(86,131)"/>
<path d="M0 0 C0.99 0 1.98 0 3 0 C3 2.64 3 5.28 3 8 C-0.3 8 -3.6 8 -7 8 C-1.125 1.125 -1.125 1.125 0 0 Z " fill="#F3F3F3" transform="translate(163,217)"/>
<path d="M0 0 C-0.33 3.63 -0.66 7.26 -1 11 C-2.65 11 -4.3 11 -6 11 C-6.3125 8.3125 -6.3125 8.3125 -6 5 C-1.76086957 0 -1.76086957 0 0 0 Z " fill="#EDEDED" transform="translate(179,205)"/>
<path d="M0 0 C0 3.3 0 6.6 0 10 C-2.31 9.67 -4.62 9.34 -7 9 C-7 6 -7 6 -5.72265625 4.39453125 C-5.17480469 3.87246094 -4.62695312 3.35039062 -4.0625 2.8125 C-3.51722656 2.28269531 -2.97195312 1.75289062 -2.41015625 1.20703125 C-1 0 -1 0 0 0 Z " fill="#F1F1F1" transform="translate(225,156)"/>
<path d="M0 0 C4 1 4 1 5 2 C5.04080783 3.99958364 5.04254356 6.00045254 5 8 C3.35 8.33 1.7 8.66 0 9 C0 6.03 0 3.06 0 0 Z " fill="#E7E7E7" transform="translate(41,186)"/>
<path d="M0 0 C4 1 4 1 5 2 C5.1875 4.4375 5.1875 4.4375 5 7 C4.34 7.66 3.68 8.32 3 9 C2.01 9 1.02 9 0 9 C0 6.03 0 3.06 0 0 Z " fill="#E6E6E6" transform="translate(41,31)"/>
<path d="M0 0 C3 0.5 3 0.5 6 4.5 C2.04 4.5 -1.92 4.5 -6 4.5 C-3 0.5 -3 0.5 0 0 Z " fill="#FCFCFC" transform="translate(106,116.5)"/>
<path d="M0 0 C2.31 0 4.62 0 7 0 C6.02433888 1.16959987 5.044375 2.33561177 4.0625 3.5 C3.51722656 4.1496875 2.97195312 4.799375 2.41015625 5.46875 C1.94480469 5.9740625 1.47945312 6.479375 1 7 C0.67 7 0.34 7 0 7 C0 4.69 0 2.38 0 0 Z " fill="#191919" transform="translate(59,162)"/>
<path d="M0 0 C0.66 0 1.32 0 2 0 C3.35439668 2.70879335 3.06501451 5.00933268 3 8 C2.01 8.33 1.02 8.66 0 9 C0 6.03 0 3.06 0 0 Z " fill="#EBEBEB" transform="translate(198,31)"/>
<path d="M0 0 C3.53372712 1.96318174 6.24479785 4.04070881 9 7 C8.67 7.66 8.34 8.32 8 9 C6.66079162 7.88200014 5.32877444 6.75538103 4 5.625 C2.88625 4.68527344 2.88625 4.68527344 1.75 3.7265625 C1.1725 3.15679687 0.595 2.58703125 0 2 C0 1.34 0 0.68 0 0 Z " fill="#2D2D2D" transform="translate(53,207)"/>
<path d="M0 0 C1.98 0 3.96 0 6 0 C5.67 0.99 5.34 1.98 5 3 C2.69 3.33 0.38 3.66 -2 4 C-1.34 2.68 -0.68 1.36 0 0 Z " fill="#363636" transform="translate(93,126)"/>
<path d="M0 0 C0.99 0.33 1.98 0.66 3 1 C1.71937515 2.7074998 0.38232443 4.37373596 -1 6 C-1.66 6 -2.32 6 -3 6 C-3.33 6.66 -3.66 7.32 -4 8 C-4.33 7.01 -4.66 6.02 -5 5 C-3.35 3.35 -1.7 1.7 0 0 Z " fill="#333333" transform="translate(146,78)"/>
<path d="M0 0 C1.98 0 3.96 0 6 0 C5.67 1.32 5.34 2.64 5 4 C3.0625 3.6875 3.0625 3.6875 1 3 C0.67 2.01 0.34 1.02 0 0 Z " fill="#F6F6F6" transform="translate(94,131)"/>
<path d="M0 0 C1.98 0 3.96 0 6 0 C6 1.32 6 2.64 6 4 C4.68 4 3.36 4 2 4 C1.34 2.68 0.68 1.36 0 0 Z " fill="#050505" transform="translate(103,122)"/>
</svg>
