<?xml version="1.0" standalone="no"?>
<!DOCTYPE svg PUBLIC "-//W3C//DTD SVG 20010904//EN"
 "http://www.w3.org/TR/2001/REC-SVG-20010904/DTD/svg10.dtd">
<svg version="1.0" xmlns="http://www.w3.org/2000/svg"
 width="225.000000pt" height="225.000000pt" viewBox="0 0 225.000000 225.000000"
 preserveAspectRatio="xMidYMid meet">
<metadata>
Created by potrace 1.16, written by Peter Selinger 2001-2019
</metadata>
<g transform="translate(0.000000,225.000000) scale(0.100000,-0.100000)"
fill="#000000" stroke="none">
<path d="M1230 1545 c-52 -6 -165 -20 -250 -30 l-155 -17 32 -257 c18 -141 32
-262 33 -268 0 -8 13 -13 32 -13 l31 0 -22 24 c-30 31 -22 54 35 110 24 24 44
53 44 65 0 11 -13 35 -28 53 -16 18 -32 50 -35 71 -5 35 -4 37 22 37 32 0 51
16 51 45 -1 18 -3 17 -21 -7 -26 -35 -52 -35 -84 -3 -32 31 -32 71 0 101 39
36 63 39 91 13 24 -23 25 -23 57 -6 22 12 42 15 65 11 27 -6 38 -2 62 21 23
22 31 25 48 16 21 -11 62 -70 62 -90 0 -20 -28 -11 -51 17 -20 26 -21 26 -14
3 5 -18 4 -22 -6 -15 -8 4 -4 -5 9 -20 12 -16 22 -38 22 -50 0 -11 9 -32 20
-46 20 -25 25 -64 14 -94 -4 -10 -18 -16 -39 -16 -19 0 -37 -4 -40 -10 -9 -15
-56 -12 -90 5 l-30 15 28 -25 c31 -27 78 -33 95 -12 12 14 169 44 179 33 6 -5
25 -198 20 -202 -4 -5 -289 -55 -292 -52 -1 2 -7 48 -13 103 -9 77 -8 101 1
107 8 5 6 8 -6 8 -16 0 -17 -6 -11 -62 11 -91 10 -100 -3 -105 -7 -3 -13 2
-13 9 0 8 -12 25 -27 39 l-27 24 22 -29 c12 -16 22 -37 22 -48 0 -15 5 -18 20
-13 16 5 20 2 20 -19 0 -18 5 -26 18 -26 34 1 302 37 306 41 9 9 -16 226 -28
249 -8 14 -19 94 -27 178 -12 144 -14 152 -33 151 -12 -1 -64 -7 -116 -14z"/>
<path d="M1360 1126 c-13 -40 -17 -42 -44 -21 -28 21 -34 19 -53 -20 -15 -31
-20 -35 -47 -30 -27 5 -34 1 -54 -31 -13 -20 -21 -39 -18 -42 4 -3 52 2 109
12 159 27 144 19 139 84 -6 79 -16 94 -32 48z"/>
<path d="M515 780 l0 -90 53 0 c29 0 62 4 72 10 24 13 43 72 35 110 -9 43 -40
60 -105 60 l-55 0 0 -90z"/>
<path d="M1200 780 l0 -90 55 0 c74 0 105 28 105 95 0 65 -23 85 -100 85 l-60
0 0 -90z"/>
<path d="M1423 855 c-43 -30 -38 -131 8 -155 10 -6 34 -10 54 -10 51 0 85 36
85 90 0 55 -34 90 -87 90 -21 0 -48 -7 -60 -15z"/>
</g>
</svg>
