<?xml version="1.0" encoding="UTF-8"?>
<svg version="1.1" xmlns="http://www.w3.org/2000/svg" width="222" height="227">
<path d="M0 0 C73.26 0 146.52 0 222 0 C222 74.91 222 149.82 222 227 C148.74 227 75.48 227 0 227 C0 152.09 0 77.18 0 0 Z " fill="#FDFDFD" transform="translate(0,0)"/>
<path d="M0 0 C6.19783498 3.65061871 10.23505664 9.47313851 13 16 C13 16.66 13 17.32 13 18 C14.11375 18.103125 15.2275 18.20625 16.375 18.3125 C19.80549675 18.69903485 22.65492493 19.58968668 25.875 20.8125 C31.0459942 22.48056265 33.89390502 21.2926287 38.66015625 18.99609375 C41.96732681 17.58819977 44.45824786 17.69202155 48 18 C50.93068372 22.85394491 52.23087292 25.74717042 51.75 31.4375 C51.61693897 34.7869673 51.60312928 36.422548 53.51953125 39.2109375 C54.92053441 40.65212239 56.3368092 42.07857187 57.765625 43.4921875 C67.67573691 54.61507534 70.40045909 69.65236581 71 84 C70.01 84 69.02 84 68 84 C67.76925781 83.32195312 67.53851563 82.64390625 67.30078125 81.9453125 C61.9135698 66.09847185 61.9135698 66.09847185 51 54 C51 53.34 51 52.68 51 52 C50.43539062 51.73960938 49.87078125 51.47921875 49.2890625 51.2109375 C46.78383934 49.8856488 44.64613155 48.31910139 42.375 46.625 C29.48886027 37.52333596 14.44190973 35.46292226 -1 37 C-14.62606278 39.40151715 -25.87440031 45.66387824 -34 57 C-42.31126337 70.94093675 -46.1929627 85.64120221 -43.53125 101.85546875 C-39.673213 116.30014299 -31.08468173 126.89476568 -18.32421875 134.30078125 C-7.9202102 139.61892898 3.86568473 140.81485441 15.25 137.9375 C25.08343206 134.51364824 31.90501447 128.11409691 36.6875 119.0625 C38.48569169 115.31718663 39.73815368 112.18954114 40 108 C40.07347656 107.28585938 40.14695313 106.57171875 40.22265625 105.8359375 C40.71281192 97.91803821 38.53540056 90.09913186 33.28515625 84.01171875 C31.59030336 82.51713294 29.88928583 81.23630686 28 80 C27.13375 79.401875 26.2675 78.80375 25.375 78.1875 C19.47569718 75.23784859 12.43807617 75.27285688 6 76 C-0.70062487 78.38883224 -5.17871887 82.17530962 -8.25 88.625 C-9.68750919 95.09379138 -10.31355608 101.46863636 -7 107.4375 C-4.08088369 111.43078551 -0.75550702 113.66437459 4 115 C8.76368815 115.5487387 13.35137416 115.19964538 18 114 C18 115.32 18 116.64 18 118 C12.30231635 120.97270451 7.4087718 122.09994523 1 121 C-6.86837393 118.29121553 -13.14040951 114.55257995 -17 107 C-20.37646617 98.55299295 -20.32977122 88.46356111 -16.9921875 79.9765625 C-15.31520254 76.63579719 -13.39141729 73.88196442 -11 71 C-10.34 71 -9.68 71 -9 71 C-8.505 69.515 -8.505 69.515 -8 68 C-6.6171875 66.71875 -6.6171875 66.71875 -4.875 65.5 C-4.31554687 65.0978125 -3.75609375 64.695625 -3.1796875 64.28125 C2.61181394 60.87692657 7.38469088 59.43883005 14.125 59.5 C14.86564697 59.50572021 15.60629395 59.51144043 16.36938477 59.51733398 C28.61972878 59.90910228 39.16815573 65.58261203 47.99609375 73.875 C56.61131907 83.06457368 59.76787786 93.37066091 60.3125 105.6875 C60.69783807 111.71979237 61.79984545 113.79984545 66 118 C68.17409701 122.27322516 69.15418487 125.25272893 69 130 C59.60890094 135.21513903 59.60890094 135.21513903 54.625 135.375 C53.42875 135.58125 52.2325 135.7875 51 136 C49.07098467 138.85589216 49.07098467 138.85589216 48.12890625 141.01953125 C45.44197081 145.73328997 40.44199679 149.0386688 36 152 C35.34664565 153.88427438 35.34664565 153.88427438 35.0625 156.0625 C33.8710801 162.16729619 31.70114049 167.44828927 28.25 172.625 C25.44374221 174.33993532 23.42550208 174.26675881 20.2265625 173.6796875 C15.6101297 172.27046064 10.2789475 170.19423261 7.77734375 165.90234375 C4.93787106 162.86317188 1.31422154 163.13904635 -2.625 162.875 C-12.24902336 162.09339195 -12.24902336 162.09339195 -16.875 160.5 C-21.96514355 159.16207689 -25.88537193 162.02368721 -30.203125 164.51953125 C-34.74676418 166.924614 -38.73382693 167.12368883 -43.8125 167.0625 C-44.78832031 167.05347656 -45.76414063 167.04445312 -46.76953125 167.03515625 C-47.87361328 167.01775391 -47.87361328 167.01775391 -49 167 C-51.83582735 160.53213225 -50.99397893 154.02715758 -50.5703125 147.14257812 C-50.4202705 142.15368172 -50.45255561 138.97545992 -53.828125 135.12109375 C-54.37927979 134.58395752 -54.93043457 134.04682129 -55.49829102 133.4934082 C-57 132 -57 132 -58.48046875 129.1953125 C-60.62804494 126.09264459 -62.70979975 125.79749072 -66.3125 124.875 C-70.88017378 123.67605195 -74.83021014 122.2331401 -79 120 C-79 119.34 -79 118.68 -79 118 C-79.58136719 117.89945312 -80.16273437 117.79890625 -80.76171875 117.6953125 C-83.41774029 116.87023076 -84.79076466 115.77330307 -86.8125 113.875 C-87.43769531 113.31554687 -88.06289062 112.75609375 -88.70703125 112.1796875 C-90 110 -90 110 -89.984375 106.66796875 C-88.87498725 102.53417869 -87.09291593 99.70193832 -84.4375 96.4375 C-83.99148437 95.87321289 -83.54546875 95.30892578 -83.0859375 94.72753906 C-79.08813509 89.81570918 -74.69723961 85.8486198 -69 83 C-68.28069677 80.06166983 -67.89163878 77.11872696 -67.4609375 74.125 C-67 71 -67 71 -66.4765625 68.8125 C-64.89380565 61.64529915 -69.02611327 55.88131263 -72.16015625 49.71875 C-73.35447407 45.85249323 -73.21258888 42.20648228 -73.125 38.1875 C-73.11597656 37.39923828 -73.10695313 36.61097656 -73.09765625 35.79882812 C-73.07422504 33.86575334 -73.03835838 31.9328362 -73 30 C-66.76001405 27.25556173 -61.77690484 26.5857114 -55 26.75 C-53.72382812 26.75773437 -53.72382812 26.75773437 -52.421875 26.765625 C-48.41733085 26.81476051 -44.551003 27.0216629 -40.58984375 27.62109375 C-36.65629044 28.03627838 -35.11820273 27.34127116 -31.8671875 25.19140625 C-29.71620318 23.81891626 -27.51724413 22.78833644 -25.1875 21.75 C-24.43855469 21.41484375 -23.68960938 21.0796875 -22.91796875 20.734375 C-21 20 -21 20 -19 20 C-18.79375 19.195625 -18.5875 18.39125 -18.375 17.5625 C-15.39943997 9.85309447 -9.51856942 -1.13005847 0 0 Z " fill="#F48426" transform="translate(121,1)"/>
<path d="M0 0 C2.11209734 1.59103378 4.04879915 3.21139922 6 5 C5.505 5.350625 5.01 5.70125 4.5 6.0625 C2.27065603 8.94206929 2.87522516 11.44391719 3 15 C2.5625 17.1875 2.5625 17.1875 2 19 C1.855625 19.721875 1.71125 20.44375 1.5625 21.1875 C1.2840625 22.0846875 1.2840625 22.0846875 1 23 C0.01 23.495 0.01 23.495 -1 24 C-2.89709863 22.99373864 -4.74421028 21.89252687 -6.5625 20.75 C-17.10311855 14.50786064 -26.73961568 12.38639094 -39 14 C-48.17520945 16.72808007 -56.40010839 23.60879148 -61 32 C-63.97906445 40.08603207 -64.5999551 50.35525224 -61.75 58.5625 C-57.68227189 66.55268023 -52.28260797 69.93614995 -44 73 C-37.60353908 74.12186868 -32.68572254 72.96646393 -27 70 C-27 69.34 -27 68.68 -27 68 C-27.639375 68.165 -28.27875 68.33 -28.9375 68.5 C-35.46849686 69.5662852 -41.24178634 69.82397116 -47.13671875 66.4453125 C-51.59559552 62.98664498 -54.52154902 58.81930205 -55.47265625 53.21484375 C-55.70309296 45.93104005 -53.94383943 40.83245175 -49.8125 34.8125 C-44.62932787 29.62932787 -40.24265347 27.77107491 -32.875 27.625 C-23.44955554 28.00248964 -16.43084339 31.68890913 -9.6875 38.25 C-4.22456795 47.15255593 -3.00182414 54.71149209 -4.625 64.9375 C-6.13828525 70.35639643 -9.17919848 75.17447791 -12 80 C-12.66 80 -13.32 80 -14 80 C-14.22429687 80.58523437 -14.44859375 81.17046875 -14.6796875 81.7734375 C-17.77383323 86.99137557 -25.08008364 90.70907077 -30.8125 92.4375 C-45.06791125 95.02674817 -58.51549531 92.20607964 -70.43359375 84.03515625 C-79.72007828 76.67098815 -87.39125742 66.21004085 -89.75 54.3671875 C-91.52827877 37.52911043 -88.45302969 20.81270935 -77.7890625 7.171875 C-72.55492017 1.22477641 -67.61180166 -3.60857338 -60.1875 -6.625 C-59.21167969 -7.02976563 -58.23585938 -7.43453125 -57.23046875 -7.8515625 C-37.751419 -14.77640002 -16.98393869 -11.68787179 0 0 Z " fill="#FDFCFB" transform="translate(166,48)"/>
<path d="M0 0 C0.74064697 0.00572021 1.48129395 0.01144043 2.24438477 0.01733398 C15.56198106 0.44323321 27.05454938 7.12876739 36.0625 16.6875 C37.79296875 18.60546875 37.79296875 18.60546875 38.875 20.5 C38.7109375 22.62890625 38.7109375 22.62890625 37.875 24.5 C35.3125 26.25 35.3125 26.25 32.875 27.5 C32.875 25.19 32.875 22.88 32.875 20.5 C29.245 20.5 25.615 20.5 21.875 20.5 C22.37 21.49 22.37 21.49 22.875 22.5 C23.535 22.17 24.195 21.84 24.875 21.5 C24.545 23.48 24.215 25.46 23.875 27.5 C20.9042809 26.11765196 18.40550974 24.49846608 15.8125 22.5 C8.1725486 16.63439432 1.49915145 15.41300828 -8.125 16.5 C-14.82562487 18.88883224 -19.30371887 22.67530962 -22.375 29.125 C-23.81250919 35.59379138 -24.43855608 41.96863636 -21.125 47.9375 C-18.20588369 51.93078551 -14.88050702 54.16437459 -10.125 55.5 C-5.36131185 56.0487387 -0.77362584 55.69964538 3.875 54.5 C3.875 55.82 3.875 57.14 3.875 58.5 C-1.82268365 61.47270451 -6.7162282 62.59994523 -13.125 61.5 C-20.99337393 58.79121553 -27.26540951 55.05257995 -31.125 47.5 C-34.50146617 39.05299295 -34.45477122 28.96356111 -31.1171875 20.4765625 C-29.44020254 17.13579719 -27.51641729 14.38196442 -25.125 11.5 C-24.465 11.5 -23.805 11.5 -23.125 11.5 C-22.795 10.51 -22.465 9.52 -22.125 8.5 C-20.7421875 7.21875 -20.7421875 7.21875 -19 6 C-18.44054687 5.5978125 -17.88109375 5.195625 -17.3046875 4.78125 C-11.51318606 1.37692657 -6.74030912 -0.06116995 0 0 Z " fill="#F16D2A" transform="translate(135.125,60.5)"/>
<path d="M0 0 C0.66 0.66 1.32 1.32 2 2 C1.625 4.125 1.625 4.125 1 6 C-3 6 -3 6 -5.75 4.5 C-10.86242851 2.14041761 -14.91167326 2.2629435 -20.1875 4.125 C-24.42051121 6.94700747 -27.35909664 10.07728992 -29 15 C-29.52983207 21.25201845 -28.83396749 25.88804335 -25 31 C-21.70036672 33.9738467 -18.35548379 35.22631531 -13.9375 35.4375 C-8.58307946 34.84256438 -5.46418858 33.54553239 -1.75 29.625 C0.30257789 26.74141393 0.30257789 26.74141393 2 22 C-3.94 22 -9.88 22 -16 22 C-16 20.35 -16 18.7 -16 17 C-6.76 16.34 2.48 15.68 12 15 C12.33 13.68 12.66 12.36 13 11 C14.65 11 16.3 11 18 11 C18 11.66 18 12.32 18 13 C18.55171875 12.67257813 19.1034375 12.34515625 19.671875 12.0078125 C22.38780923 10.83212285 24.30551759 10.79751362 27.25 10.875 C28.14203125 10.89304688 29.0340625 10.91109375 29.953125 10.9296875 C30.96632812 10.96449219 30.96632812 10.96449219 32 11 C31.34 12.98 30.68 14.96 30 17 C28.88625 17.12375 27.7725 17.2475 26.625 17.375 C22.96896323 17.6465813 22.96896323 17.6465813 21 20 C20.64631984 22.21072886 20.64631984 22.21072886 20.62109375 24.75390625 C20.58693359 25.69041016 20.55277344 26.62691406 20.51757812 27.59179688 C20.49115234 28.57212891 20.46472656 29.55246094 20.4375 30.5625 C20.37782098 32.50143338 20.31423391 34.44025178 20.24609375 36.37890625 C20.22216553 37.2407251 20.1982373 38.10254395 20.17358398 38.99047852 C20 41 20 41 19 42 C17.28134591 42.0935919 15.55884256 42.11744611 13.83764648 42.11352539 C12.73658066 42.11344986 11.63551483 42.11337433 10.50108337 42.11329651 C9.3031868 42.10813522 8.10529022 42.10297394 6.87109375 42.09765625 C5.65172623 42.0962413 4.4323587 42.09482635 3.17604065 42.09336853 C-0.7368307 42.08774967 -4.64964581 42.07519396 -8.5625 42.0625 C-11.20768147 42.05748743 -13.85286383 42.0529241 -16.49804688 42.04882812 C-22.99871726 42.03777411 -29.49935461 42.02101764 -36 42 C-36.07729795 38.69164784 -36.15432062 35.38329501 -36.2293396 32.07489014 C-36.2756546 30.15352285 -36.32558226 28.23220071 -36.38955688 26.31134033 C-36.66911747 17.86174434 -36.10786079 10.98596238 -31 4 C-21.28789251 -5.20180047 -11.77039409 -5.99458732 0 0 Z " fill="#EFEFEF" transform="translate(36,185)"/>
<path d="M0 0 C2.37109375 1.52734375 2.37109375 1.52734375 4 3 C4.33 2.01 4.66 1.02 5 0 C6.65 0 8.3 0 10 0 C10 10.23 10 20.46 10 31 C6.82375 31.0825 3.6475 31.165 0.375 31.25 C-0.6145166 31.28641602 -1.6040332 31.32283203 -2.62353516 31.36035156 C-8.27643631 31.43119851 -11.54880717 30.83123013 -16 27 C-20.39893104 22.00661882 -21.35676337 19.08984773 -21.28125 12.5390625 C-20.86866805 8.81436433 -19.45081269 6.78200359 -17 4 C-16.34 3.21625 -15.68 2.4325 -15 1.625 C-10.28644603 -0.92817507 -5.24655403 -0.8010557 0 0 Z " fill="#565656" transform="translate(212,196)"/>
<path d="M0 0 C0.9384375 -0.01675781 1.876875 -0.03351563 2.84375 -0.05078125 C5.88255053 0.36481941 7.24062173 1.29291424 9.5 3.3125 C9.83 2.3225 10.16 1.3325 10.5 0.3125 C12.15 0.3125 13.8 0.3125 15.5 0.3125 C15.5 10.2125 15.5 20.1125 15.5 30.3125 C13.85 30.3125 12.2 30.3125 10.5 30.3125 C10.17 29.6525 9.84 28.9925 9.5 28.3125 C8.654375 28.8075 7.80875 29.3025 6.9375 29.8125 C1.99094432 31.97099702 -1.553536 32.01322704 -6.625 30.1875 C-10.56292318 27.61928923 -13.37112583 24.57024835 -15.5 20.3125 C-16.32134287 14.71905106 -16.13659165 10.47012982 -12.75 5.8125 C-9.06205411 1.2677586 -5.81446322 0.0239607 0 0 Z " fill="#555555" transform="translate(83.5,195.6875)"/>
<path d="M0 0 C0.99 0.66 1.98 1.32 3 2 C3.33 1.34 3.66 0.68 4 0 C5.65 0 7.3 0 9 0 C9 9.9 9 19.8 9 30 C7.35 30 5.7 30 4 30 C3.67 29.34 3.34 28.68 3 28 C2.154375 28.495 1.30875 28.99 0.4375 29.5 C-3.54530889 31.23795297 -5.69592829 31.59366506 -10 31 C-16.08555761 28.43104979 -19.48914385 25.06790237 -22 19 C-22.85563472 13.11751131 -21.30667215 8.79363479 -18 4 C-12.94520926 -1.05479074 -6.76440854 -0.83945041 0 0 Z " fill="#595959" transform="translate(144,196)"/>
<path d="M0 0 C2.93068372 4.85394491 4.23087292 7.74717042 3.75 13.4375 C3.61693897 16.7869673 3.60312928 18.422548 5.51953125 21.2109375 C6.92053441 22.65212239 8.3368092 24.07857187 9.765625 25.4921875 C19.67573691 36.61507534 22.40045909 51.65236581 23 66 C22.01 66 21.02 66 20 66 C19.76925781 65.32195312 19.53851563 64.64390625 19.30078125 63.9453125 C13.9135698 48.09847185 13.9135698 48.09847185 3 36 C3 35.34 3 34.68 3 34 C2.44054687 33.74089844 1.88109375 33.48179688 1.3046875 33.21484375 C-1.26727319 31.85911532 -3.52077887 30.26766017 -5.875 28.5625 C-9.48626417 25.99828876 -12.96193123 23.80650445 -17 22 C-11.83608171 20.2786939 -6.40708764 20.94646448 -1 21 C-1 15.72 -1 10.44 -1 5 C-5.62 5 -10.24 5 -15 5 C-15 4.34 -15 3.68 -15 3 C-9.63999211 0.74315457 -5.8022175 -0.36263859 0 0 Z " fill="#F05E2A" transform="translate(169,19)"/>
<path d="M0 0 C0.66 0.66 1.32 1.32 2 2 C1.625 4.125 1.625 4.125 1 6 C-3 6 -3 6 -5.75 4.5 C-10.86242851 2.14041761 -14.91167326 2.2629435 -20.1875 4.125 C-24.42051121 6.94700747 -27.35909664 10.07728992 -29 15 C-29.52996043 21.25353312 -28.83279169 25.8858312 -25 31 C-20.38182412 35.15157262 -15.00820363 35.72751911 -9 36 C-9 36.33 -9 36.66 -9 37 C-11.64 37.66 -14.28 38.32 -17 39 C-17 39.66 -17 40.32 -17 41 C-22.8734885 40.87763566 -25.95769309 39.12589358 -30.19921875 35.08203125 C-34.87936148 29.67093348 -36.7850515 23.67864891 -36.44140625 16.55078125 C-35.29032865 9.89897882 -32.321458 4.65234981 -27 0.5 C-17.60441994 -5.70528981 -9.83632042 -5.00957583 0 0 Z " fill="#575757" transform="translate(36,185)"/>
<path d="M0 0 C1.65 0 3.3 0 5 0 C5 0.66 5 1.32 5 2 C5.99 1.34 6.98 0.68 8 0 C12.04257341 -0.66100598 16.20172043 -0.91928345 19.91796875 0.98046875 C22.77639175 3.27426499 24.65155361 5.62926864 26 9 C26.22705078 11.38183594 26.22705078 11.38183594 26.1953125 13.984375 C26.18886719 14.91894531 26.18242187 15.85351562 26.17578125 16.81640625 C26.15902344 17.78449219 26.14226562 18.75257813 26.125 19.75 C26.11597656 20.73355469 26.10695312 21.71710938 26.09765625 22.73046875 C26.07412785 25.15389407 26.04125368 27.57682222 26 30 C24.02 30 22.04 30 20 30 C19.98018066 29.40985107 19.96036133 28.81970215 19.93994141 28.21166992 C19.84465341 25.53649904 19.73499061 22.86210502 19.625 20.1875 C19.5940625 19.25873047 19.563125 18.32996094 19.53125 17.37304688 C19.49257812 16.48037109 19.45390625 15.58769531 19.4140625 14.66796875 C19.36693115 13.43469849 19.36693115 13.43469849 19.31884766 12.17651367 C19.11626378 9.71047063 19.11626378 9.71047063 17 7 C15.098006 6.52441794 15.098006 6.52441794 13 6.625 C11.948125 6.61339844 11.948125 6.61339844 10.875 6.6015625 C8.58941406 6.859086 8.58941406 6.859086 7 10 C6.6349209 12.22131423 6.6349209 12.22131423 6.5859375 14.66796875 C6.54726562 15.56064453 6.50859375 16.45332031 6.46875 17.37304688 C6.4378125 18.30181641 6.406875 19.23058594 6.375 20.1875 C6.33632812 21.12787109 6.29765625 22.06824219 6.2578125 23.03710938 C6.16356813 25.3578771 6.07795975 27.67863748 6 30 C4.02 30 2.04 30 0 30 C0 20.1 0 10.2 0 0 Z " fill="#515151" transform="translate(160,196)"/>
<path d="M0 0 C7.92 0 15.84 0 24 0 C24 11.70752089 24 11.70752089 20 17 C14.18156141 22.47832109 8.67616863 25.27181202 0.60546875 25.1953125 C-0.59658203 25.18886719 -1.79863281 25.18242187 -3.03710938 25.17578125 C-4.28298828 25.15902344 -5.52886719 25.14226562 -6.8125 25.125 C-8.71032227 25.11146484 -8.71032227 25.11146484 -10.64648438 25.09765625 C-13.76440405 25.07412478 -16.88222622 25.03825489 -20 25 C-20 19.06 -20 13.12 -20 7 C-18 10 -18 10 -16.25 13.375 C-13.39356067 18.36059337 -9.68740558 21.69434565 -4.125 23.3125 C-3.09375 23.539375 -2.0625 23.76625 -1 24 C-1 23.34 -1 22.68 -1 22 C1.58789062 20.92578125 1.58789062 20.92578125 4.17578125 19.8515625 C11.80297725 16.29111555 14.72901103 12.6323076 18 5 C12.06 5 6.12 5 0 5 C0 3.35 0 1.7 0 0 Z " fill="#5D5D5D" transform="translate(20,202)"/>
<path d="M0 0 C2.0343459 1.41519715 2.90410393 2.54982123 3.421875 4.98046875 C3.66273952 6.98176954 3.83532741 8.9909944 4 11 C4.66 11 5.32 11 6 11 C5.67 8.36 5.34 5.72 5 3 C7.93930291 6.26589213 8.3187927 8.41079647 8.375 12.75 C8.75505334 18.63007056 9.84552026 22.71150479 14 27 C19.27932796 31.04863495 24.51872362 31.65305637 31 31 C33.89086974 30.57549372 33.89086974 30.57549372 36 30 C36 31.32 36 32.64 36 34 C30.30231635 36.97270451 25.4087718 38.09994523 19 37 C11.13162607 34.29121553 4.85959049 30.55257995 1 23 C-0.83755147 18.47242473 -1.24494257 14.68467466 -1.1875 9.8125 C-1.17783203 7.99685547 -1.17783203 7.99685547 -1.16796875 6.14453125 C-1 3 -1 3 0 0 Z " fill="#F38F28" transform="translate(103,85)"/>
<path d="M0 0 C1.51400391 0.01740234 1.51400391 0.01740234 3.05859375 0.03515625 C4.07050781 0.04417969 5.08242187 0.05320313 6.125 0.0625 C7.29869141 0.07990234 7.29869141 0.07990234 8.49609375 0.09765625 C7.83609375 2.07765625 7.17609375 4.05765625 6.49609375 6.09765625 C3.85609375 6.42765625 1.21609375 6.75765625 -1.50390625 7.09765625 C-2.16390625 8.74765625 -2.82390625 10.39765625 -3.50390625 12.09765625 C-0.20390625 12.09765625 3.09609375 12.09765625 6.49609375 12.09765625 C6.49609375 13.74765625 6.49609375 15.39765625 6.49609375 17.09765625 C3.19609375 17.09765625 -0.10390625 17.09765625 -3.50390625 17.09765625 C-3.50390625 25.34765625 -3.50390625 33.59765625 -3.50390625 42.09765625 C-5.15390625 42.09765625 -6.80390625 42.09765625 -8.50390625 42.09765625 C-8.62777845 37.06234662 -8.71837139 32.02792928 -8.77856445 26.99145508 C-8.80366339 25.2793838 -8.83775054 23.56741921 -8.88110352 21.85571289 C-8.94196364 19.3905198 -8.97016057 16.9267464 -8.9921875 14.4609375 C-9.01799393 13.69928787 -9.04380035 12.93763824 -9.07038879 12.15290833 C-9.07254314 8.04353289 -8.70575942 6.33976424 -6.03588867 3.13745117 C-5.20033447 2.46431885 -4.36478027 1.79118652 -3.50390625 1.09765625 C-2.50390625 0.09765625 -2.50390625 0.09765625 0 0 Z " fill="#515151" transform="translate(114.50390625,183.90234375)"/>
<path d="M0 0 C3.14249107 2.02952548 4.63745366 3.46955631 5.51171875 7.16015625 C5.75802839 10.43881119 5.73398271 12.91530883 3.85546875 15.69140625 C1.43005003 17.93763837 -0.79056388 18.95636748 -4 19.625 C-8.19977529 18.75004681 -9.93868007 16.99012644 -13 14 C-14.42662219 11.14675563 -14.31033868 9.16545451 -14 6 C-10.24003519 0.36005278 -6.75040159 -1.0971016 0 0 Z " fill="#F8F8F8" transform="translate(142,202)"/>
<path d="M0 0 C3.69059994 0.87426509 5.13063077 2.36922768 7.16015625 5.51171875 C8.10666867 9.70341662 7.60623459 12.63814867 5.66015625 16.44921875 C2.29574263 19.22485998 -0.51721343 19.8124982 -4.83984375 19.51171875 C-7.80203303 18.28820579 -9.2832314 17.2803739 -11.15234375 14.69921875 C-12.0983123 11.68931883 -12.2805665 9.65973839 -11.83984375 6.51171875 C-8.73642578 1.10576487 -6.27795379 -0.47163259 0 0 Z " fill="#F8F8F8" transform="translate(85.83984375,201.48828125)"/>
<path d="M0 0 C2.75329021 1.79562405 4.52627461 3.05254922 6 6 C6.375 9.3125 6.375 9.3125 6 13 C3.02177816 16.60521591 0.87843794 18.79128467 -3.8125 19.3125 C-7.7307645 18.92835642 -9.21293267 17.70743683 -12 15 C-13.62334671 11.75330659 -13.69541503 8.49713522 -13 5 C-9.06923744 0.39813164 -5.99319358 -0.9807044 0 0 Z " fill="#F9F9F9" transform="translate(210,202)"/>
<path d="M0 0 C1.65 0.33 3.3 0.66 5 1 C5 1.66 5 2.32 5 3 C6.32 3 7.64 3 9 3 C9.66 4.32 10.32 5.64 11 7 C15.62 7 20.24 7 25 7 C25 9.64 25 12.28 25 15 C27.64 15 30.28 15 33 15 C33 27.54 33 40.08 33 53 C31.04745503 49.09491006 30.78375739 48.12253355 31.015625 44.04296875 C31.04914063 43.09486328 31.08265625 42.14675781 31.1171875 41.16992188 C31.20524219 39.19257608 31.30923779 37.21587146 31.4296875 35.24023438 C31.57910843 30.22444555 31.5688814 26.99002558 28.171875 23.11328125 C27.62072021 22.57727295 27.06956543 22.04126465 26.50170898 21.48901367 C25 20 25 20 23.51953125 17.1953125 C21.37195506 14.09264459 19.29020025 13.79749072 15.6875 12.875 C11.11982622 11.67605195 7.16978986 10.2331401 3 8 C3 7.34 3 6.68 3 6 C1.68 5.67 0.36 5.34 -1 5 C-0.67 3.35 -0.34 1.7 0 0 Z M15 8 C15 8.66 15 9.32 15 10 C15.99 9.67 16.98 9.34 18 9 C17.01 8.67 16.02 8.34 15 8 Z " fill="#F3A923" transform="translate(39,113)"/>
<path d="M0 0 C1.32 0 2.64 0 4 0 C4 0.66 4 1.32 4 2 C4.55171875 1.67257813 5.1034375 1.34515625 5.671875 1.0078125 C8.38780923 -0.16787715 10.30551759 -0.20248638 13.25 -0.125 C14.14203125 -0.10695312 15.0340625 -0.08890625 15.953125 -0.0703125 C16.96632813 -0.03550781 16.96632813 -0.03550781 18 0 C17.34 1.98 16.68 3.96 16 6 C14.88625 6.12375 13.7725 6.2475 12.625 6.375 C8.96896323 6.6465813 8.96896323 6.6465813 7 9 C6.62995706 11.22658154 6.62995706 11.22658154 6.5859375 13.7890625 C6.54726563 14.73007813 6.50859375 15.67109375 6.46875 16.640625 C6.4378125 17.62546875 6.406875 18.6103125 6.375 19.625 C6.31699219 21.11386719 6.31699219 21.11386719 6.2578125 22.6328125 C6.1633686 25.08835385 6.07780125 27.5438841 6 30 C4.02 30 2.04 30 0 30 C0 20.1 0 10.2 0 0 Z " fill="#5C5C5C" transform="translate(50,196)"/>
<path d="M0 0 C10.89 0 21.78 0 33 0 C33.495 3.96 33.495 3.96 34 8 C38.95 8 43.9 8 49 8 C46 13 46 13 44 15 C37.42938284 14.88472601 32.31018653 12.88575779 27 9 C26.60039062 8.30777344 26.20078125 7.61554688 25.7890625 6.90234375 C22.87711621 3.80601658 19.27508293 4.1429311 15.1875 3.875 C9.8159143 3.46548738 5.07757323 2.97870003 0 1 C0 0.67 0 0.34 0 0 Z " fill="#F6C624" transform="translate(103,160)"/>
<path d="M0 0 C1.62490954 -0.02698189 3.24994633 -0.04638757 4.875 -0.0625 C5.77992187 -0.07410156 6.68484375 -0.08570312 7.6171875 -0.09765625 C10 0 10 0 12 1 C12.99 0.67 13.98 0.34 15 0 C16.83406994 -0.09388227 18.67134252 -0.13070611 20.5078125 -0.1328125 C21.57644531 -0.13410156 22.64507812 -0.13539062 23.74609375 -0.13671875 C24.86113281 -0.13285156 25.97617188 -0.12898438 27.125 -0.125 C28.24777344 -0.12886719 29.37054688 -0.13273437 30.52734375 -0.13671875 C32.12642578 -0.13478516 32.12642578 -0.13478516 33.7578125 -0.1328125 C34.7389502 -0.13168457 35.72008789 -0.13055664 36.73095703 -0.12939453 C39 0 39 0 40 1 C40.04092937 3.33297433 40.04241723 5.66705225 40 8 C32.41532756 7.10012361 32.41532756 7.10012361 29.8125 6.47265625 C25.766809 5.7927554 21.78224935 5.85588055 17.6875 5.875 C16.87087891 5.87113281 16.05425781 5.86726563 15.21289062 5.86328125 C10.05440865 5.87150194 5.1053962 6.25974693 0 7 C0 4.69 0 2.38 0 0 Z " fill="#EF5A29" transform="translate(112,32)"/>
<path d="M0 0 C-1.32 0.33 -2.64 0.66 -4 1 C-3.6596875 2.1446875 -3.6596875 2.1446875 -3.3125 3.3125 C-3.209375 4.199375 -3.10625 5.08625 -3 6 C-3.474375 6.433125 -3.94875 6.86625 -4.4375 7.3125 C-6.39337067 9.09766794 -6.39337067 9.09766794 -6.5 12.875 C-6.36274978 16.26258503 -5.98005589 17.0275698 -3.875 19.9375 C-0.77431907 22.16190154 1.2305679 22.73701637 5 23 C4.01 23.33 3.02 23.66 2 24 C1.67 24.99 1.34 25.98 1 27 C-1.0625 27.875 -1.0625 27.875 -4 28 C-8.04515452 25.49130975 -11.25669166 22.47921807 -13 18 C-13.70857092 13.00704678 -13.55152691 9.08335642 -11.25 4.5625 C-5.71153846 -1.74519231 -5.71153846 -1.74519231 0 0 Z " fill="#575757" transform="translate(204,198)"/>
<path d="M0 0 C0.33 0 0.66 0 1 0 C1.01417969 0.86882812 1.02835938 1.73765625 1.04296875 2.6328125 C1.35099673 10.07543444 1.74953503 13.74953503 7 19 C9.17409701 23.27322516 10.15418487 26.25272893 10 31 C8.421924 31.84324672 6.8372958 32.67423918 5.25 33.5 C4.36828125 33.9640625 3.4865625 34.428125 2.578125 34.90625 C0 36 0 36 -4 36 C-4 33.36 -4 30.72 -4 28 C-3.67 28.66 -3.34 29.32 -3 30 C-0.69 29.34 1.62 28.68 4 28 C4 25.36 4 22.72 4 20 C3.05125 20.04125 2.1025 20.0825 1.125 20.125 C-2 20 -2 20 -4 18 C-4.125 14.875 -4.125 14.875 -4 12 C-3.34 12 -2.68 12 -2 12 C-0.85110867 8.06094403 -0.47417305 4.06434042 0 0 Z " fill="#F4A125" transform="translate(180,100)"/>
<path d="M0 0 C-0.33 0.763125 -0.66 1.52625 -1 2.3125 C-2.17436686 4.99069135 -2.17436686 4.99069135 -2 8 C-2.55710159 7.99777939 -3.11420319 7.99555878 -3.68818665 7.99327087 C-9.47921102 7.97117125 -15.27022343 7.95607379 -21.0612793 7.94506836 C-23.22339362 7.94003528 -25.38550453 7.93320831 -27.54760742 7.92456055 C-30.65284059 7.91245021 -33.7580288 7.90676148 -36.86328125 7.90234375 C-37.83211746 7.89718246 -38.80095367 7.89202118 -39.79914856 7.88670349 C-41.15020943 7.88659019 -41.15020943 7.88659019 -42.52856445 7.88647461 C-43.32132278 7.884254 -44.11408112 7.88203339 -44.93086243 7.87974548 C-47.19844698 7.92134223 -47.19844698 7.92134223 -50 9 C-50 8.34 -50 7.68 -50 7 C-43.76001405 4.25556173 -38.77690484 3.5857114 -32 3.75 C-30.72382812 3.75773437 -30.72382812 3.75773437 -29.421875 3.765625 C-25.42037461 3.81472316 -21.56237939 4.02179985 -17.60546875 4.62890625 C-13.59652713 5.05616336 -13.59652713 5.05616336 -10.3125 3.1875 C-3.12195122 -1.56097561 -3.12195122 -1.56097561 0 0 Z " fill="#F15F2C" transform="translate(98,24)"/>
<path d="M0 0 C-3.31515122 7.87348416 -7.94561336 12.29707557 -15 17 C-15.75987096 19.08393372 -15.75987096 19.08393372 -16.125 21.4375 C-16.62072214 24.07700295 -17.14694803 26.44084408 -18 29 C-18.66 29 -19.32 29 -20 29 C-20.05791844 25.87507749 -20.09356746 22.75029234 -20.125 19.625 C-20.14175781 18.73554688 -20.15851563 17.84609375 -20.17578125 16.9296875 C-20.18222656 16.07890625 -20.18867188 15.228125 -20.1953125 14.3515625 C-20.20578613 13.56604004 -20.21625977 12.78051758 -20.22705078 11.97119141 C-20 10 -20 10 -18 8 C-17.05125 7.855625 -16.1025 7.71125 -15.125 7.5625 C-11.84929557 6.9728732 -10.33549148 6.33549148 -8 4 C-8 3.01 -8 2.02 -8 1 C-5.29120665 -0.35439668 -2.99066732 -0.06501451 0 0 Z " fill="#F9AE2B" transform="translate(172,136)"/>
<path d="M0 0 C0.99 0 1.98 0 3 0 C2.98428955 0.62455078 2.9685791 1.24910156 2.95239258 1.89257812 C2.88947956 4.76162417 2.85083269 7.63052442 2.8125 10.5 C2.78736328 11.48226562 2.76222656 12.46453125 2.73632812 13.4765625 C2.67379154 19.7302206 3.26670951 24.34227982 6 30 C6.5360083 30.51111328 7.0720166 31.02222656 7.62426758 31.54882812 C8.07825928 32.02771484 8.53225098 32.50660156 9 33 C8.6875 35.6875 8.6875 35.6875 8 38 C7.34 38 6.68 38 6 38 C4.68 34.7 3.36 31.4 2 28 C0.68 28 -0.64 28 -2 28 C-2 27.01 -2 26.02 -2 25 C-2.66 24.67 -3.32 24.34 -4 24 C-3.01 24 -2.02 24 -1 24 C-1.50603992 21.83125748 -1.99983813 20.00032373 -3 18 C-3.2322646 15.28737884 -3.41936235 12.59226874 -3.5625 9.875 C-3.60568359 9.12089844 -3.64886719 8.36679688 -3.69335938 7.58984375 C-3.7994832 5.72678112 -3.90025001 3.86341476 -4 2 C-3.01 2 -2.02 2 -1 2 C-0.67 1.34 -0.34 0.68 0 0 Z " fill="#FAF6F0" transform="translate(100,80)"/>
<path d="M0 0 C7.92 0 15.84 0 24 0 C24 10.125 24 10.125 21 15 C17.60518787 11.32228686 18 10.62972396 18 5 C12.06 5 6.12 5 0 5 C0 3.35 0 1.7 0 0 Z " fill="#505050" transform="translate(20,202)"/>
<path d="M0 0 C0.66 0 1.32 0 2 0 C2 2.64 2 5.28 2 8 C-11.2 8 -24.4 8 -38 8 C-38 5.69 -38 3.38 -38 1 C-36.83597656 1.32484375 -36.83597656 1.32484375 -35.6484375 1.65625 C-23.9355762 4.67531687 -12.39734289 5.79234679 -1 1 C-0.67 0.67 -0.34 0.34 0 0 Z " fill="#F4AA21" transform="translate(142,136)"/>
<path d="M0 0 C2.53357212 0.61213823 4.82765166 0.92898992 7.4140625 1.15625 C8.22311035 1.22763184 9.0321582 1.29901367 9.86572266 1.37255859 C11.50628746 1.50843854 13.14797945 1.63139456 14.79052734 1.74072266 C17.09375 1.9453125 17.09375 1.9453125 20.91015625 2.703125 C21.57015625 4.023125 22.23015625 5.343125 22.91015625 6.703125 C13.67015625 6.703125 4.43015625 6.703125 -5.08984375 6.703125 C-5.41984375 5.713125 -5.74984375 4.723125 -6.08984375 3.703125 C-8.10492733 2.96988704 -8.10492733 2.96988704 -10.08984375 2.703125 C-10.08984375 3.363125 -10.08984375 4.023125 -10.08984375 4.703125 C-11.40984375 4.043125 -12.72984375 3.383125 -14.08984375 2.703125 C-9.08701488 -0.59574308 -5.96898903 -1.81069861 0 0 Z M-8.08984375 5.703125 C-6.08984375 6.703125 -6.08984375 6.703125 -6.08984375 6.703125 Z " fill="#FCFCF8" transform="translate(106.08984375,161.296875)"/>
<path d="M0 0 C0.66 0.66 1.32 1.32 2 2 C2.66 1.67 3.32 1.34 4 1 C5.62890625 1.77734375 5.62890625 1.77734375 7.5625 2.9375 C13.52960591 6.08379221 19.56677827 5.66018625 26 4 C26 5.32 26 6.64 26 8 C20.32525407 10.96073701 15.38481947 12.14207334 9 11 C-2.18161601 6.63676798 -2.18161601 6.63676798 -4 3 C-3.34 3 -2.68 3 -2 3 C-2 2.34 -2 1.68 -2 1 C-1.34 0.67 -0.68 0.34 0 0 Z " fill="#F2941E" transform="translate(113,111)"/>
<path d="M0 0 C1.6681764 2.2242352 3.30641103 4.4754654 4.8125 6.8125 C9.2427181 13.26796066 13.53650383 17.69744626 20.2421875 21.8359375 C21.11230469 22.41214844 21.11230469 22.41214844 22 23 C22 23.33 22 23.66 22 24 C17.38 24 12.76 24 8 24 C8 21.36 8 18.72 8 16 C5.36 16 2.72 16 0 16 C0 10.72 0 5.44 0 0 Z " fill="#F39F29" transform="translate(80,112)"/>
<path d="M0 0 C4.09667595 0.97539904 6.65238916 3.74662178 9.625 6.625 C6.38111057 7.544102 3.23148937 7.90779255 -0.125 8.1875 C-1.10984375 8.27128906 -2.0946875 8.35507813 -3.109375 8.44140625 C-3.85703125 8.50199219 -4.6046875 8.56257812 -5.375 8.625 C-5.705 10.935 -6.035 13.245 -6.375 15.625 C-9.015 15.955 -11.655 16.285 -14.375 16.625 C-12.51450932 9.5213083 -7.47322956 1.96663936 0 0 Z " fill="#ED5E2F" transform="translate(118.375,0.375)"/>
<path d="M0 0 C2.64 0 5.28 0 8 0 C8 7.92 8 15.84 8 24 C2.60157002 16.80209335 -0.87283962 9.07753201 0 0 Z " fill="#F05B27" transform="translate(48,40)"/>
<path d="M0 0 C3.38133995 3.1614154 4.77337801 5.50238605 6 10 C7.7325 10.1546875 7.7325 10.1546875 9.5 10.3125 C14.01171519 10.86035113 17.80605749 12.2774879 22 14 C22 14.33 22 14.66 22 15 C15.07 15 8.14 15 1 15 C-0.44207941 12.11584117 -0.09394887 9.58278472 -0.0625 6.375 C-0.05347656 5.18648437 -0.04445313 3.99796875 -0.03515625 2.7734375 C-0.02355469 1.85820312 -0.01195313 0.94296875 0 0 Z " fill="#F05827" transform="translate(128,9)"/>
<path d="M0 0 C2 3 2 3 3.75 6.375 C6.8101827 11.75591606 11.05441853 15.07642952 17 17 C17 17.33 17 17.66 17 18 C11.39 18 5.78 18 0 18 C0 12.06 0 6.12 0 0 Z " fill="#F9F9F9" transform="translate(0,209)"/>
<path d="M0 0 C0.99 0.33 1.98 0.66 3 1 C4.77472775 0.91363177 6.5467189 0.7603261 8.3125 0.5625 C12.23384505 0.15684362 16.05225036 -0.10669594 20 0 C13.20168889 5.9742734 6.09075482 8.16976813 -2.8125 8.0625 C-4.27623047 8.04896484 -4.27623047 8.04896484 -5.76953125 8.03515625 C-6.87361328 8.01775391 -6.87361328 8.01775391 -8 8 C-8 7.34 -8 6.68 -8 6 C-5.36 6 -2.72 6 0 6 C0 4.02 0 2.04 0 0 Z " fill="#F6BF1F" transform="translate(80,160)"/>
<path d="M0 0 C1.65 0.33 3.3 0.66 5 1 C5 1.66 5 2.32 5 3 C6.32 3 7.64 3 9 3 C9.66 4.32 10.32 5.64 11 7 C15.62 7 20.24 7 25 7 C25 7.33 25 7.66 25 8 C23.88625 8.12375 23.88625 8.12375 22.75 8.25 C19.48778646 9.1396946 18.19045122 10.48503749 16 13 C14.58208592 12.54554036 13.16571954 12.08625056 11.75 11.625 C10.96109375 11.36976562 10.1721875 11.11453125 9.359375 10.8515625 C7.13372042 10.04826333 5.09068328 9.10288338 3 8 C3 7.34 3 6.68 3 6 C1.68 5.67 0.36 5.34 -1 5 C-0.67 3.35 -0.34 1.7 0 0 Z M15 8 C15 8.66 15 9.32 15 10 C15.99 9.67 16.98 9.34 18 9 C17.01 8.67 16.02 8.34 15 8 Z " fill="#F49A2C" transform="translate(39,113)"/>
<path d="M0 0 C0.33 0 0.66 0 1 0 C0.979375 1.0725 0.95875 2.145 0.9375 3.25 C0.9857984 6.14790424 1.13155885 8.28612141 2 11 C1.01 11.495 1.01 11.495 0 12 C-0.061875 13.010625 -0.12375 14.02125 -0.1875 15.0625 C-0.78781441 20.22949191 -4.03446918 23.83241136 -8 27 C-11.4375 27.5 -11.4375 27.5 -14 27 C-14 26.01 -14 25.02 -14 24 C-12.96875 23.195625 -11.9375 22.39125 -10.875 21.5625 C-4.37866629 16.29413181 -1.04291312 8.14927464 0 0 Z " fill="#F4A125" transform="translate(161,109)"/>
<path d="M0 0 C1.32 0 2.64 0 4 0 C4 0.66 4 1.32 4 2 C4.55171875 1.67257813 5.1034375 1.34515625 5.671875 1.0078125 C8.38780923 -0.16787715 10.30551759 -0.20248638 13.25 -0.125 C14.14203125 -0.10695312 15.0340625 -0.08890625 15.953125 -0.0703125 C16.96632813 -0.03550781 16.96632813 -0.03550781 18 0 C17.34 1.98 16.68 3.96 16 6 C14.54364629 6.22174933 13.08477044 6.42698698 11.625 6.625 C10.81289063 6.74101562 10.00078125 6.85703125 9.1640625 6.9765625 C8.44992188 6.98429688 7.73578125 6.99203125 7 7 C6.34 6.34 5.68 5.68 5 5 C4.01 5 3.02 5 2 5 C2 7.31 2 9.62 2 12 C1.01 12.495 1.01 12.495 0 13 C0 8.71 0 4.42 0 0 Z " fill="#525252" transform="translate(50,196)"/>
<path d="M0 0 C1.51400391 0.01740234 1.51400391 0.01740234 3.05859375 0.03515625 C4.07050781 0.04417969 5.08242187 0.05320313 6.125 0.0625 C7.29869141 0.07990234 7.29869141 0.07990234 8.49609375 0.09765625 C7.83609375 2.07765625 7.17609375 4.05765625 6.49609375 6.09765625 C3.41992188 6.390625 3.41992188 6.390625 0.34375 6.68359375 C-0.26597656 6.82023438 -0.87570313 6.956875 -1.50390625 7.09765625 C-1.83390625 7.75765625 -2.16390625 8.41765625 -2.50390625 9.09765625 C-4.56640625 9.72265625 -4.56640625 9.72265625 -6.50390625 10.09765625 C-7.16390625 8.77765625 -7.82390625 7.45765625 -8.50390625 6.09765625 C-2.50390625 0.09765625 -2.50390625 0.09765625 0 0 Z " fill="#575757" transform="translate(114.50390625,183.90234375)"/>
<path d="M0 0 C3.4753869 5.97332123 4.57374185 10.11509775 4 17 C2.77491933 14.68321437 1.98403716 12.91419973 1.5 10.3125 C1.2525 9.1678125 1.2525 9.1678125 1 8 C0.34 7.67 -0.32 7.34 -1 7 C-1 6.34 -1 5.68 -1 5 C-5.62 5 -10.24 5 -15 5 C-15 4.34 -15 3.68 -15 3 C-9.63999211 0.74315457 -5.8022175 -0.36263859 0 0 Z " fill="#EF6337" transform="translate(169,19)"/>
<path d="M0 0 C0.33 0 0.66 0 1 0 C1.01417969 0.85722656 1.02835938 1.71445313 1.04296875 2.59765625 C1.35344794 10.04076537 1.94852142 14.43042105 7 20 C6.34 20 5.68 20 5 20 C4.67 21.32 4.34 22.64 4 24 C4 22.68 4 21.36 4 20 C3.05125 20.04125 2.1025 20.0825 1.125 20.125 C-2 20 -2 20 -4 18 C-4.125 14.875 -4.125 14.875 -4 12 C-3.34 12 -2.68 12 -2 12 C-0.85110867 8.06094403 -0.47417305 4.06434042 0 0 Z " fill="#F19734" transform="translate(180,100)"/>
<path d="M0 0 C1.65 0 3.3 0 5 0 C7.125 4.625 7.125 4.625 6 8 C4.35 8.33 2.7 8.66 1 9 C1 15.93 1 22.86 1 30 C0.67 30 0.34 30 0 30 C0 20.1 0 10.2 0 0 Z " fill="#626262" transform="translate(160,196)"/>
<path d="M0 0 C0.99 0 1.98 0 3 0 C4.22899346 6.06815522 5.27560214 11.79895188 5 18 C4.01 18 3.02 18 2 18 C-2.63243635 7.41430867 -2.63243635 7.41430867 -1.25 2.8125 C-0.8375 1.884375 -0.425 0.95625 0 0 Z " fill="#F06F2A" transform="translate(187,67)"/>
<path d="M0 0 C0.99 0.33 1.98 0.66 3 1 C2.01 1.33 1.02 1.66 0 2 C0 4.97 0 7.94 0 11 C0.66 8.69 1.32 6.38 2 4 C3.32 4 4.64 4 6 4 C6.33 3.34 6.66 2.68 7 2 C7 3.32 7 4.64 7 6 C6.38125 6.391875 5.7625 6.78375 5.125 7.1875 C2.18146623 9.69816116 2.05642356 12.13220432 1.39453125 15.84375 C1 18 1 18 0 21 C-0.66 21 -1.32 21 -2 21 C-2.05791844 17.87507749 -2.09356746 14.75029234 -2.125 11.625 C-2.14175781 10.73554688 -2.15851563 9.84609375 -2.17578125 8.9296875 C-2.18222656 8.07890625 -2.18867188 7.228125 -2.1953125 6.3515625 C-2.20578613 5.56604004 -2.21625977 4.78051758 -2.22705078 3.97119141 C-2 2 -2 2 0 0 Z " fill="#F2B51A" transform="translate(154,144)"/>
<path d="M0 0 C1.65 0 3.3 0 5 0 C5.15178302 9.05638678 4.69037426 17.97582223 4 27 C3.67 27 3.34 27 3 27 C2.67 23.37 2.34 19.74 2 16 C1.34 16 0.68 16 0 16 C0 10.72 0 5.44 0 0 Z " fill="#F26F20" transform="translate(72,72)"/>
<path d="M0 0 C3.3 0 6.6 0 10 0 C10.33 0.66 10.66 1.32 11 2 C10.01 2.33 9.02 2.66 8 3 C14.27 3.33 20.54 3.66 27 4 C27 4.33 27 4.66 27 5 C25.72125 5.06058594 24.4425 5.12117188 23.125 5.18359375 C21.4166589 5.26807216 19.70832599 5.35271641 18 5.4375 C17.16082031 5.47681641 16.32164062 5.51613281 15.45703125 5.55664062 C10.25986542 5.81851332 5.15542847 6.2899352 0 7 C0 4.69 0 2.38 0 0 Z " fill="#F2561D" transform="translate(112,32)"/>
<path d="M0 0 C2.0343459 1.41519715 2.90410393 2.54982123 3.421875 4.98046875 C3.66273952 6.98176954 3.83532741 8.9909944 4 11 C2.68 11 1.36 11 0 11 C0 11.66 0 12.32 0 13 C0.99 13 1.98 13 3 13 C3 14.98 3 16.96 3 19 C2.01 19 1.02 19 0 19 C-1.47899501 16.04200997 -1.13178874 13.3516424 -1.125 10.0625 C-1.12757812 8.81597656 -1.13015625 7.56945312 -1.1328125 6.28515625 C-1 3 -1 3 0 0 Z " fill="#F2791E" transform="translate(103,85)"/>
<path d="M0 0 C1.32 0 2.64 0 4 0 C5.34164079 0.2981424 6.67851173 0.62243192 8 1 C4.74800683 4.92112756 4.74800683 4.92112756 1.43457031 5.27050781 C0.49194336 5.16577148 -0.45068359 5.06103516 -1.421875 4.953125 C-2.44667969 4.85 -3.47148438 4.746875 -4.52734375 4.640625 C-5.59082031 4.51171875 -6.65429688 4.3828125 -7.75 4.25 C-8.82894531 4.1365625 -9.90789062 4.023125 -11.01953125 3.90625 C-13.68241495 3.62346589 -16.34146661 3.32074819 -19 3 C-19 2.67 -19 2.34 -19 2 C-18.22914062 1.93941406 -17.45828125 1.87882812 -16.6640625 1.81640625 C-15.15972656 1.69072266 -15.15972656 1.69072266 -13.625 1.5625 C-12.62726563 1.48128906 -11.62953125 1.40007813 -10.6015625 1.31640625 C-6.79048088 0.85289632 -4.01206506 -0.0802413 0 0 Z " fill="#FBF2EA" transform="translate(80,25)"/>
<path d="M0 0 C-1 3 -1 3 -3.9375 4.6875 C-8.53650456 6.52710182 -13.12631335 6.26476769 -18 6 C-17.01 5.34 -16.02 4.68 -15 4 C-15.33 3.34 -15.66 2.68 -16 2 C-15.39671875 1.95101562 -14.7934375 1.90203125 -14.171875 1.8515625 C-12.97304687 1.73941406 -12.97304687 1.73941406 -11.75 1.625 C-10.56664062 1.52058594 -10.56664062 1.52058594 -9.359375 1.4140625 C-6.96324481 1.11625191 -6.96324481 1.11625191 -4.890625 -0.1015625 C-3 -1 -3 -1 0 0 Z " fill="#F2982E" transform="translate(140,116)"/>
<path d="M0 0 C6.49628253 9.74442379 6.49628253 9.74442379 5.75 15.5 C5.5025 16.655 5.255 17.81 5 19 C4.34 19 3.68 19 3 19 C2.855625 17.906875 2.71125 16.81375 2.5625 15.6875 C2.11711896 12.06877013 2.11711896 12.06877013 1 9 C0.34 9 -0.32 9 -1 9 C-1.09765625 2.84765625 -1.09765625 2.84765625 -1 1 C-0.67 0.67 -0.34 0.34 0 0 Z " fill="#F7EFE8" transform="translate(50,53)"/>
<path d="M0 0 C3.38101119 0.97855957 6.76048598 1.27124336 10.25390625 1.65234375 C10.25390625 1.98234375 10.25390625 2.31234375 10.25390625 2.65234375 C7.12940093 2.84879468 4.0042918 3.03297864 0.87890625 3.21484375 C-0.45527344 3.29895508 -0.45527344 3.29895508 -1.81640625 3.38476562 C-3.09257813 3.45727539 -3.09257813 3.45727539 -4.39453125 3.53125 C-5.18005371 3.57838135 -5.96557617 3.6255127 -6.77490234 3.67407227 C-8.74609375 3.65234375 -8.74609375 3.65234375 -10.74609375 2.65234375 C-10.74609375 3.31234375 -10.74609375 3.97234375 -10.74609375 4.65234375 C-12.06609375 3.99234375 -13.38609375 3.33234375 -14.74609375 2.65234375 C-9.43570331 -0.8493306 -6.13673945 -1.80366777 0 0 Z " fill="#FCF4E7" transform="translate(106.74609375,161.34765625)"/>
<path d="M0 0 C2 2 2 2 3 5 C4.65 4.34 6.3 3.68 8 3 C8 3.99 8 4.98 8 6 C9.65 6 11.3 6 13 6 C13 6.33 13 6.66 13 7 C6.4 7 -0.2 7 -7 7 C-7 6.34 -7 5.68 -7 5 C-6.01 4.67 -5.02 4.34 -4 4 C-3.67 3.34 -3.34 2.68 -3 2 C-2.01 2 -1.02 2 0 2 C0 1.34 0 0.68 0 0 Z " fill="#626262" transform="translate(209,220)"/>
<path d="M0 0 C2.64 0 5.28 0 8 0 C8 0.99 8 1.98 8 3 C7.01 3 6.02 3 5 3 C5 3.66 5 4.32 5 5 C2.03 6.32 -0.94 7.64 -4 9 C-4.99 8.01 -5.98 7.02 -7 6 C-4.92690266 4.88941214 -3.11381589 4.02601506 -0.8125 3.5 C-0.214375 3.335 0.38375 3.17 1 3 C1.33 2.34 1.66 1.68 2 1 C1.34 0.67 0.68 0.34 0 0 Z " fill="#515151" transform="translate(134,196)"/>
<path d="M0 0 C6.93 0 13.86 0 21 0 C21 0.99 21 1.98 21 3 C18.62468606 3.0543965 16.25064117 3.09385864 13.875 3.125 C13.20984375 3.14175781 12.5446875 3.15851563 11.859375 3.17578125 C7.50483944 3.21847278 4.04399886 2.59996217 0 1 C0 0.67 0 0.34 0 0 Z " fill="#F4BE1F" transform="translate(103,160)"/>
<path d="M0 0 C0.66 0.99 1.32 1.98 2 3 C2.66 2.34 3.32 1.68 4 1 C4.18175781 1.54269531 4.36351563 2.08539063 4.55078125 2.64453125 C4.92783203 3.71767578 4.92783203 3.71767578 5.3125 4.8125 C5.67794922 5.87404297 5.67794922 5.87404297 6.05078125 6.95703125 C6.89179547 9.08113464 6.89179547 9.08113464 8.625 10.59375 C9.07875 11.0578125 9.5325 11.521875 10 12 C9.6875 14.6875 9.6875 14.6875 9 17 C8.34 17 7.68 17 7 17 C5.68 13.7 4.36 10.4 3 7 C1.68 7 0.36 7 -1 7 C-1 6.01 -1 5.02 -1 4 C-1.66 3.67 -2.32 3.34 -3 3 C-2.01 3 -1.02 3 0 3 C0 2.01 0 1.02 0 0 Z " fill="#FCF2E5" transform="translate(99,101)"/>
<path d="M0 0 C2.31 0 4.62 0 7 0 C5.31326082 4.49797113 3.18326108 8.72886302 1 13 C0.67 13 0.34 13 0 13 C0 8.71 0 4.42 0 0 Z " fill="#EE602C" transform="translate(80,56)"/>
<path d="M0 0 C0.66 0 1.32 0 2 0 C2 0.99 2 1.98 2 3 C2.66 3 3.32 3 4 3 C4 3.99 4 4.98 4 6 C0.98509443 7.00496852 -1.04181692 7.10335303 -4.1875 7.0625 C-5.53908203 7.04896484 -5.53908203 7.04896484 -6.91796875 7.03515625 C-7.60503906 7.02355469 -8.29210937 7.01195312 -9 7 C-8.34 6.67 -7.68 6.34 -7 6 C-7 5.34 -7 4.68 -7 4 C-4.69 3.01 -2.38 2.02 0 1 C0 0.67 0 0.34 0 0 Z " fill="#616161" transform="translate(26,220)"/>
<path d="M0 0 C0.33 0 0.66 0 1 0 C1 10.23 1 20.46 1 31 C-3.29 31 -7.58 31 -12 31 C-9.68143083 29.45428722 -7.49361571 28.20381448 -5 27 C-5 27.99 -5 28.98 -5 30 C-3.35 30 -1.7 30 0 30 C0 20.1 0 10.2 0 0 Z " fill="#BABABA" transform="translate(153,196)"/>
<path d="M0 0 C0 0.66 0 1.32 0 2 C-0.66 2 -1.32 2 -2 2 C-1.96519531 2.62648437 -1.93039063 3.25296875 -1.89453125 3.8984375 C-1.86746094 4.71570313 -1.84039063 5.53296875 -1.8125 6.375 C-1.77769531 7.18710938 -1.74289063 7.99921875 -1.70703125 8.8359375 C-1.80371094 9.55007812 -1.90039062 10.26421875 -2 11 C-2.99 11.66 -3.98 12.32 -5 13 C-7 11 -7 11 -7.1953125 8.6171875 C-7.17210937 7.71226562 -7.14890625 6.80734375 -7.125 5.875 C-7.10695313 4.96492187 -7.08890625 4.05484375 -7.0703125 3.1171875 C-7.04710937 2.41851562 -7.02390625 1.71984375 -7 1 C-6.34 1.66 -5.68 2.32 -5 3 C-4.54625 2.505 -4.0925 2.01 -3.625 1.5 C-2 0 -2 0 0 0 Z " fill="#5E5E5E" transform="translate(7,198)"/>
<path d="M0 0 C2.92509086 3.90012114 3.47535095 5.38308839 4 10 C4.66 10 5.32 10 6 10 C5.67 11.65 5.34 13.3 5 15 C3.68 15.33 2.36 15.66 1 16 C1 15.01 1 14.02 1 13 C0.34 12.67 -0.32 12.34 -1 12 C-0.67 8.04 -0.34 4.08 0 0 Z " fill="#F3911C" transform="translate(162,104)"/>
<path d="M0 0 C0.639375 0.391875 1.27875 0.78375 1.9375 1.1875 C2.9275 1.5175 3.9175 1.8475 4.9375 2.1875 C5.2675 1.5275 5.5975 0.8675 5.9375 0.1875 C5.9375 2.1675 5.9375 4.1475 5.9375 6.1875 C1.55815881 5.66791715 -2.75053391 5.13074258 -7.0625 4.1875 C-6.0625 1.1875 -6.0625 1.1875 -4.25 -0.125 C-2.0625 -0.8125 -2.0625 -0.8125 0 0 Z " fill="#F36033" transform="translate(146.0625,33.8125)"/>
<path d="M0 0 C0.99 0.33 1.98 0.66 3 1 C2.67 3.31 2.34 5.62 2 8 C2.66 8 3.32 8 4 8 C3.44855089 12.08072342 3.08669204 12.91330796 0 16 C-1.32 12.37 -2.64 8.74 -4 5 C-2 5 -2 5 -0.375 6.5 C0.07875 6.995 0.5325 7.49 1 8 C0.67 5.36 0.34 2.72 0 0 Z " fill="#F8FAF5" transform="translate(188,48)"/>
<path d="M0 0 C7 7 7 7 7.13525391 9.06298828 C7.08288574 9.89040527 7.03051758 10.71782227 6.9765625 11.5703125 C6.925 12.46621094 6.8734375 13.36210937 6.8203125 14.28515625 C6.75585938 15.22230469 6.69140625 16.15945312 6.625 17.125 C6.56828125 18.06988281 6.5115625 19.01476562 6.453125 19.98828125 C6.31142903 22.32626481 6.16000217 24.66320944 6 27 C5.67 27 5.34 27 5 27 C4.8053162 24.22949974 4.61897208 21.45886998 4.4375 18.6875 C4.38142578 17.90181641 4.32535156 17.11613281 4.26757812 16.30664062 C4.21923828 15.54931641 4.17089844 14.79199219 4.12109375 14.01171875 C4.0739624 13.31522217 4.02683105 12.61872559 3.97827148 11.90112305 C4 10 4 10 5 7 C3.35 6.67 1.7 6.34 0 6 C0 4.02 0 2.04 0 0 Z " fill="#FCEBD5" transform="translate(64,133)"/>
<path d="M0 0 C2.64 0 5.28 0 8 0 C8 0.66 8 1.32 8 2 C9.65 1.34 11.3 0.68 13 0 C12.67 2.64 12.34 5.28 12 8 C11.61199219 7.34515625 11.22398437 6.6903125 10.82421875 6.015625 C9.16674709 3.76018967 9.16674709 3.76018967 6.51953125 3.609375 C5.62621094 3.65578125 4.73289063 3.7021875 3.8125 3.75 C2.91144531 3.78609375 2.01039063 3.8221875 1.08203125 3.859375 C0.39496094 3.90578125 -0.29210937 3.9521875 -1 4 C-0.67 2.68 -0.34 1.36 0 0 Z " fill="#FAF8F4" transform="translate(160,16)"/>
<path d="M0 0 C2.34290892 2.48434437 2.97982934 3.77731593 3.29296875 7.234375 C3.25816406 8.39453125 3.22335938 9.5546875 3.1875 10.75 C3.16042969 11.92046875 3.13335937 13.0909375 3.10546875 14.296875 C3.07066406 15.18890625 3.03585938 16.0809375 3 17 C2.34 17 1.68 17 1 17 C-1 15 -1 15 -1.125 11.375 C-1.08375 10.26125 -1.0425 9.1475 -1 8 C-0.34 8 0.32 8 1 8 C0.67 5.36 0.34 2.72 0 0 Z " fill="#F3811E" transform="translate(108,88)"/>
<path d="M0 0 C3.96 0 7.92 0 12 0 C8.18765077 3.3502463 4.66714289 5.16974789 0 7 C0 4.69 0 2.38 0 0 Z " fill="#EF592A" transform="translate(96,40)"/>
<path d="M0 0 C3.3 0 6.6 0 10 0 C10 1.32 10 2.64 10 4 C6.37 4 2.74 4 -1 4 C-0.67 2.68 -0.34 1.36 0 0 Z " fill="#575757" transform="translate(111,196)"/>
<path d="M0 0 C0.66 0.33 1.32 0.66 2 1 C1.34 2.32 0.68 3.64 0 5 C0.66 5.33 1.32 5.66 2 6 C-2.62 6 -7.24 6 -12 6 C-12.33 4.68 -12.66 3.36 -13 2 C-12.39671875 2.10699219 -11.7934375 2.21398437 -11.171875 2.32421875 C-6.1191966 3.20906779 -6.1191966 3.20906779 -1.4375 1.5625 C-0.7259375 0.7890625 -0.7259375 0.7890625 0 0 Z " fill="#EC612E" transform="translate(88,26)"/>
<path d="M0 0 C1.47968324 0.14049518 2.95874516 0.28754826 4.4375 0.4375 C5.67306641 0.55931641 5.67306641 0.55931641 6.93359375 0.68359375 C9 1 9 1 10 2 C11.32594105 2.36162029 12.65938457 2.69728039 14 3 C8.33615222 6.25369979 8.33615222 6.25369979 4.53125 5.53125 C2.30708943 4.77109386 0.14927732 3.95036072 -2 3 C-1.34 2.67 -0.68 2.34 0 2 C0 1.34 0 0.68 0 0 Z " fill="#F7EFE4" transform="translate(144,18)"/>
<path d="M0 0 C1.60875 0.5878125 1.60875 0.5878125 3.25 1.1875 C2.26 1.8475 1.27 2.5075 0.25 3.1875 C1.57 3.8475 2.89 4.5075 4.25 5.1875 C-1.03497409 6.24449482 -1.03497409 6.24449482 -3.75 6.1875 C-6.25 4.25 -6.25 4.25 -7.75 2.1875 C-4.89394414 -0.7827981 -4.16493458 -0.90240249 0 0 Z " fill="#5B5B5B" transform="translate(81.75,196.8125)"/>
<path d="M0 0 C1.02673828 0.24556641 1.02673828 0.24556641 2.07421875 0.49609375 C5.3743278 1.06447034 8.46554069 1.09630767 11.8125 1.0625 C13.55466797 1.04896484 13.55466797 1.04896484 15.33203125 1.03515625 C16.21246094 1.02355469 17.09289062 1.01195313 18 1 C18.33 2.32 18.66 3.64 19 5 C14.45131078 5.16590964 10.54010929 4.58125125 6.125 3.5 C4.97257812 3.2215625 3.82015625 2.943125 2.6328125 2.65625 C1.76398438 2.4396875 0.89515625 2.223125 0 2 C0 1.34 0 0.68 0 0 Z " fill="#FAF4F2" transform="translate(117,120)"/>
<path d="M0 0 C0.94875 0.350625 1.8975 0.70125 2.875 1.0625 C2.875 1.7225 2.875 2.3825 2.875 3.0625 C-1.50961538 6.0625 -1.50961538 6.0625 -4.125 6.0625 C-4.125 5.4025 -4.125 4.7425 -4.125 4.0625 C-4.785 4.0625 -5.445 4.0625 -6.125 4.0625 C-5.75 2.125 -5.75 2.125 -5.125 0.0625 C-3.125 -0.9375 -3.125 -0.9375 0 0 Z " fill="#535353" transform="translate(34.125,218.9375)"/>
<path d="M0 0 C0.33 0 0.66 0 1 0 C1.66 2.97 2.32 5.94 3 9 C2.34 9 1.68 9 1 9 C1.33 11.31 1.66 13.62 2 16 C0 15 0 15 -1 12 C-1.66 12 -2.32 12 -3 12 C-2.69230293 10.18667846 -2.37870936 8.37435655 -2.0625 6.5625 C-1.80146484 5.04849609 -1.80146484 5.04849609 -1.53515625 3.50390625 C-1 1 -1 1 0 0 Z " fill="#FAF7E6" transform="translate(157,152)"/>
<path d="M0 0 C2.64 0 5.28 0 8 0 C9 4.75 9 4.75 9 7 C8.01 7.33 7.02 7.66 6 8 C4.02 5.36 2.04 2.72 0 0 Z " fill="#FBF5EE" transform="translate(166,72)"/>
<path d="M0 0 C0.89203125 0.20367188 1.7840625 0.40734375 2.703125 0.6171875 C3.37859375 0.78476562 4.0540625 0.95234375 4.75 1.125 C4.75 1.785 4.75 2.445 4.75 3.125 C0.13 3.125 -4.49 3.125 -9.25 3.125 C-9.25 2.465 -9.25 1.805 -9.25 1.125 C-5.82794357 -1.03377391 -3.8855015 -0.92025036 0 0 Z " fill="#EF5B2E" transform="translate(163.25,20.875)"/>
<path d="M0 0 C0.99 0.33 1.98 0.66 3 1 C3 1.66 3 2.32 3 3 C3.33 3 3.66 3 4 3 C4.33 4.98 4.66 6.96 5 9 C4.01 9.33 3.02 9.66 2 10 C2 9.34 2 8.68 2 8 C0.68 8.33 -0.64 8.66 -2 9 C-1.34 6.03 -0.68 3.06 0 0 Z " fill="#5B5B5B" transform="translate(193,207)"/>
<path d="M0 0 C0.66 0.33 1.32 0.66 2 1 C2.33 1.99 2.66 2.98 3 4 C-3.75 7 -3.75 7 -6 7 C-6.33 6.01 -6.66 5.02 -7 4 C-1.7265625 0.77734375 -1.7265625 0.77734375 0 0 Z " fill="#F8F1E9" transform="translate(106,41)"/>
<path d="M0 0 C5.28 0 10.56 0 16 0 C16 1.32 16 2.64 16 4 C12.37 3.67 8.74 3.34 5 3 C5 2.67 5 2.34 5 2 C3.35 1.67 1.7 1.34 0 1 C0 0.67 0 0.34 0 0 Z " fill="#F05420" transform="translate(59,28)"/>
<path d="M0 0 C0.66 0.33 1.32 0.66 2 1 C2 3.31 2 5.62 2 8 C-0.64 7.67 -3.28 7.34 -6 7 C-4.02 4.69 -2.04 2.38 0 0 Z " fill="#FBF4E5" transform="translate(166,144)"/>
<path d="M0 0 C1.32 0 2.64 0 4 0 C4 1.32 4 2.64 4 4 C2.68 4.33 1.36 4.66 0 5 C0 5.99 0 6.98 0 8 C-1.32 8 -2.64 8 -4 8 C-2.87548273 5.0280615 -1.77706209 2.66559313 0 0 Z " fill="#F8F0DF" transform="translate(172,136)"/>
<path d="M0 0 C-1.3125 2.5 -1.3125 2.5 -3 5 C-3.99 5 -4.98 5 -6 5 C-6.33 5.99 -6.66 6.98 -7 8 C-7.66 8 -8.32 8 -9 8 C-8.74438677 5.6568787 -8.40729228 3.32156597 -8 1 C-5.29120665 -0.35439668 -2.99066732 -0.06501451 0 0 Z " fill="#F4A720" transform="translate(172,136)"/>
<path d="M0 0 C1.32 0 2.64 0 4 0 C4.144375 0.928125 4.28875 1.85625 4.4375 2.8125 C4.92100111 6.00725111 4.92100111 6.00725111 6 9 C4.0625 11.6875 4.0625 11.6875 2 14 C1.34 12.02 0.68 10.04 0 8 C0.99 8 1.98 8 3 8 C3 6.02 3 4.04 3 2 C2.01 2 1.02 2 0 2 C0 1.34 0 0.68 0 0 Z " fill="#F08B31" transform="translate(103,96)"/>
<path d="M0 0 C0.66 0 1.32 0 2 0 C1.77734375 1.859375 1.77734375 1.859375 1 4 C-0.99609375 5.265625 -0.99609375 5.265625 -3.4375 6.25 C-4.24058594 6.58515625 -5.04367188 6.9203125 -5.87109375 7.265625 C-8 8 -8 8 -10 8 C-10 7.34 -10 6.68 -10 6 C-9.01 6 -8.02 6 -7 6 C-7.33 5.01 -7.66 4.02 -8 3 C-5.36 2.67 -2.72 2.34 0 2 C0 1.34 0 0.68 0 0 Z " fill="#F6F3EA" transform="translate(101,17)"/>
<path d="M0 0 C2.475 0.99 2.475 0.99 5 2 C4.67 3.32 4.34 4.64 4 6 C0.42355152 7.2380014 -2.33694766 6.74926071 -6 6 C-5.01 5.67 -4.02 5.34 -3 5 C-3 4.34 -3 3.68 -3 3 C-2.01 2.34 -1.02 1.68 0 1 C0 0.67 0 0.34 0 0 Z " fill="#5F5F5F" transform="translate(142,196)"/>
<path d="M0 0 C3.36591866 1.44253657 5.51047079 3.33264727 8 6 C5.69 6.33 3.38 6.66 1 7 C-1 4 -1 4 -0.625 1.8125 C-0.41875 1.214375 -0.2125 0.61625 0 0 Z " fill="#F8F5EE" transform="translate(164,48)"/>
<path d="M0 0 C1.32 0 2.64 0 4 0 C4 0.99 4 1.98 4 3 C3.34 3 2.68 3 2 3 C2 4.65 2 6.3 2 8 C2.66 8 3.32 8 4 8 C4 9.65 4 11.3 4 13 C3.34 13 2.68 13 2 13 C-0.24828052 8.50343896 -0.16682272 4.92127034 0 0 Z " fill="#ED5F2C" transform="translate(48,40)"/>
<path d="M0 0 C0.66 0.66 1.32 1.32 2 2 C2.66 1.67 3.32 1.34 4 1 C4.66 1.33 5.32 1.66 6 2 C6 2.66 6 3.32 6 4 C4.02 4.99 2.04 5.98 0 7 C-1.32 5.68 -2.64 4.36 -4 3 C-3.34 3 -2.68 3 -2 3 C-2 2.34 -2 1.68 -2 1 C-1.34 0.67 -0.68 0.34 0 0 Z " fill="#F19734" transform="translate(113,111)"/>
<path d="M0 0 C3.72114571 2.31537955 6.61229661 4.28579473 9 8 C8.01 8.33 7.02 8.66 6 9 C5.443125 8.360625 4.88625 7.72125 4.3125 7.0625 C1.77933439 4.80319013 0.31658576 4.36850953 -3 4 C-2.34 3.67 -1.68 3.34 -1 3 C-0.67 2.01 -0.34 1.02 0 0 Z " fill="#F8F2E9" transform="translate(148,80)"/>
<path d="M0 0 C0 1.98 0 3.96 0 6 C-3.3 5.01 -6.6 4.02 -10 3 C-7.02931146 0.02931146 -4.09966187 0 0 0 Z " fill="#F07833" transform="translate(149,74)"/>
<path d="M0 0 C0.66 1.32 1.32 2.64 2 4 C1.01 4 0.02 4 -1 4 C-0.34 5.65 0.32 7.3 1 9 C0.34 9 -0.32 9 -1 9 C-1.33 9.99 -1.66 10.98 -2 12 C-2.99 11.34 -3.98 10.68 -5 10 C-3.35 6.7 -1.7 3.4 0 0 Z " fill="#F9F0E8" transform="translate(85,60)"/>
<path d="M0 0 C1.32 1.32 2.64 2.64 4 4 C3.01 4.495 3.01 4.495 2 5 C2.33 5.66 2.66 6.32 3 7 C-1.75 6.25 -1.75 6.25 -4 4 C-3.67 3.01 -3.34 2.02 -3 1 C-2.01 1.33 -1.02 1.66 0 2 C0 1.34 0 0.68 0 0 Z " fill="#4E4E4E" transform="translate(9,215)"/>
<path d="M0 0 C3 1 3 1 4 3 C4.66 2.67 5.32 2.34 6 2 C6 5.63 6 9.26 6 13 C5.34 13 4.68 13 4 13 C3.51891725 11.58398286 3.04021859 10.16715563 2.5625 8.75 C2.29566406 7.96109375 2.02882813 7.1721875 1.75390625 6.359375 C1.08045292 4.25178012 0.50849405 2.15246027 0 0 Z " fill="#F57E33" transform="translate(103,83)"/>
<path d="M0 0 C4.05281712 1.22527029 7.44360764 2.69880494 11 5 C10.67 5.66 10.34 6.32 10 7 C7.69 7 5.38 7 3 7 C2.67 6.01 2.34 5.02 2 4 C1.34870203 2.65909241 0.68486725 1.32407669 0 0 Z " fill="#F8EDE6" transform="translate(150,40)"/>
<path d="M0 0 C0.66 0 1.32 0 2 0 C1.67 2.31 1.34 4.62 1 7 C-1.31 7 -3.62 7 -6 7 C-5 4 -5 4 -3 2.9375 C-2.34 2.628125 -1.68 2.31875 -1 2 C-0.67 1.34 -0.34 0.68 0 0 Z " fill="#636363" transform="translate(86,220)"/>
<path d="M0 0 C0.99 0.33 1.98 0.66 3 1 C2.67 2.98 2.34 4.96 2 7 C0.35 6.67 -1.3 6.34 -3 6 C-3 3 -3 3 -1.5 1.3125 C-0.7575 0.6628125 -0.7575 0.6628125 0 0 Z " fill="#5B5B5B" transform="translate(13,218)"/>
<path d="M0 0 C3.63 0 7.26 0 11 0 C10.67 2.31 10.34 4.62 10 7 C8 5.625 8 5.625 6 4 C6 3.34 6 2.68 6 2 C3.03 1.505 3.03 1.505 0 1 C0 0.67 0 0.34 0 0 Z " fill="#F6BC21" transform="translate(125,160)"/>
<path d="M0 0 C1.65 0 3.3 0 5 0 C5 0.66 5 1.32 5 2 C4.01 2.495 4.01 2.495 3 3 C3 3.99 3 4.98 3 6 C0.69 5.67 -1.62 5.34 -4 5 C-3.67 4.34 -3.34 3.68 -3 3 C-2.34 3 -1.68 3 -1 3 C-0.67 2.01 -0.34 1.02 0 0 Z " fill="#F59820" transform="translate(59,121)"/>
<path d="M0 0 C2.97 0.99 5.94 1.98 9 3 C8.67 3.66 8.34 4.32 8 5 C6.54207116 5.05399736 5.08357288 5.09279177 3.625 5.125 C2.81289063 5.14820312 2.00078125 5.17140625 1.1640625 5.1953125 C-1 5 -1 5 -3 3 C-2.01 2.67 -1.02 2.34 0 2 C0 1.34 0 0.68 0 0 Z " fill="#FBF6F1" transform="translate(45,122)"/>
<path d="M0 0 C-1.58962659 4.03520597 -3.28232318 8.01811282 -5 12 C-5.33 12 -5.66 12 -6 12 C-6.48979592 4.65306122 -6.48979592 4.65306122 -4.125 1.5 C-2 0 -2 0 0 0 Z " fill="#F3F3F3" transform="translate(6,187)"/>
<path d="M0 0 C0 0.66 0 1.32 0 2 C-3.86723631 3.26582219 -7.73151262 3.1118765 -11.75 3.0625 C-12.44738281 3.05798828 -13.14476563 3.05347656 -13.86328125 3.04882812 C-15.57555803 3.0371002 -17.28779033 3.01916653 -19 3 C-19 2.67 -19 2.34 -19 2 C-18.22914062 1.93941406 -17.45828125 1.87882812 -16.6640625 1.81640625 C-15.15972656 1.69072266 -15.15972656 1.69072266 -13.625 1.5625 C-12.62726563 1.48128906 -11.62953125 1.40007813 -10.6015625 1.31640625 C-6.81613188 0.85601604 -3.98267162 -0.08657982 0 0 Z " fill="#FAD8D0" transform="translate(80,25)"/>
<path d="M0 0 C2 0.25 2 0.25 4 1 C4.33 1.99 4.66 2.98 5 4 C4.34 4.66 3.68 5.32 3 6 C0.875 5.625 0.875 5.625 -1 5 C-1 1 -1 1 0 0 Z " fill="#4F4F4F" transform="translate(73,217)"/>
<path d="M0 0 C0.99 0.33 1.98 0.66 3 1 C2.34 3.31 1.68 5.62 1 8 C0.34 7.67 -0.32 7.34 -1 7 C-0.67 6.01 -0.34 5.02 0 4 C-0.66 3.67 -1.32 3.34 -2 3 C-1 1 -1 1 0 0 Z M-4 3 C-3.34 3 -2.68 3 -2 3 C-2.33 4.98 -2.66 6.96 -3 9 C-3.33 9 -3.66 9 -4 9 C-4 7.02 -4 5.04 -4 3 Z " fill="#4D4D4D" transform="translate(195,204)"/>
<path d="M0 0 C0 3.63 0 7.26 0 11 C-0.66 9.68 -1.32 8.36 -2 7 C-2.33 6.67 -2.66 6.34 -3 6 C-3.99 6.99 -4.98 7.98 -6 9 C-3.4 0 -3.4 0 0 0 Z " fill="#4F4F4F" transform="translate(153,200)"/>
<path d="M0 0 C2.31 0 4.62 0 7 0 C6.02433888 1.16959987 5.044375 2.33561177 4.0625 3.5 C3.51722656 4.1496875 2.97195312 4.799375 2.41015625 5.46875 C1.94480469 5.9740625 1.47945313 6.479375 1 7 C0.67 7 0.34 7 0 7 C0 4.69 0 2.38 0 0 Z " fill="#F15B2C" transform="translate(88,48)"/>
<path d="M0 0 C3.98069267 2.87494471 6.43571997 5.82117329 9 10 C8.01 10 7.02 10 6 10 C5.34 9.01 4.68 8.02 4 7 C1.94996045 5.80767387 1.94996045 5.80767387 0 5 C0 3.35 0 1.7 0 0 Z " fill="#E95F33" transform="translate(172,38)"/>
<path d="M0 0 C2.12508244 3.18762365 2.5020163 5.26512223 3 9 C1.35 9.33 -0.3 9.66 -2 10 C-2.66 8.68 -3.32 7.36 -4 6 C-3.01 6 -2.02 6 -1 6 C-0.67 4.02 -0.34 2.04 0 0 Z " fill="#5C5C5C" transform="translate(6,208)"/>
<path d="M0 0 C1.5 1.375 1.5 1.375 3 3 C3 3.66 3 4.32 3 5 C2.34 5 1.68 5 1 5 C1 5.66 1 6.32 1 7 C1.66 7 2.32 7 3 7 C3 7.66 3 8.32 3 9 C1.0625 8.3125 1.0625 8.3125 -1 7 C-1.875 4.5 -1.875 4.5 -2 2 C-1.34 1.34 -0.68 0.68 0 0 Z " fill="#F38D19" transform="translate(108,105)"/>
<path d="M0 0 C2.31 0.33 4.62 0.66 7 1 C7 2.66666667 7 4.33333333 7 6 C5.68 6 4.36 6 3 6 C3 5.34 3 4.68 3 4 C2.01 3.67 1.02 3.34 0 3 C0 2.01 0 1.02 0 0 Z " fill="#626262" transform="translate(168,196)"/>
<path d="M0 0 C1.32 1.32 2.64 2.64 4 4 C2.02 6.97 2.02 6.97 0 10 C-0.66 9.01 -1.32 8.02 -2 7 C-1.125 3.3125 -1.125 3.3125 0 0 Z " fill="#F8F2EB" transform="translate(34,93)"/>
<path d="M0 0 C2.4375 0.75 2.4375 0.75 5 2 C5.8125 4.125 5.8125 4.125 6 6 C3.69 5.67 1.38 5.34 -1 5 C-0.67 3.35 -0.34 1.7 0 0 Z " fill="#5D5D5D" transform="translate(180,201)"/>
<path d="M0 0 C2.475 0.495 2.475 0.495 5 1 C4.6875 2.875 4.6875 2.875 4 5 C3.01 5.66 2.02 6.32 1 7 C0.67 4.69 0.34 2.38 0 0 Z " fill="#585858" transform="translate(38,203)"/>
<path d="M0 0 C1.65 0 3.3 0 5 0 C5.66 1.32 6.32 2.64 7 4 C4.66666667 4 2.33333333 4 0 4 C-0.66 3.34 -1.32 2.68 -2 2 C-1.34 2 -0.68 2 0 2 C0 1.34 0 0.68 0 0 Z " fill="#4F4F4F" transform="translate(177,199)"/>
<path d="M0 0 C0.61875 0.268125 1.2375 0.53625 1.875 0.8125 C2.205 1.8025 2.535 2.7925 2.875 3.8125 C1.875 4.8125 1.875 4.8125 -1.1875 4.875 C-2.156875 4.854375 -3.12625 4.83375 -4.125 4.8125 C-4.455 3.8225 -4.785 2.8325 -5.125 1.8125 C-2.125 -0.1875 -2.125 -0.1875 0 0 Z " fill="#666666" transform="translate(119.125,185.1875)"/>
<path d="M0 0 C2 1 2 1 3 2 C3.99 2 4.98 2 6 2 C6 2.66 6 3.32 6 4 C3.36 4.66 0.72 5.32 -2 6 C-1.125 1.125 -1.125 1.125 0 0 Z " fill="#EE7F2D" transform="translate(42,91)"/>
<path d="M0 0 C0 0.99 0 1.98 0 3 C1.65 3 3.3 3 5 3 C5 3.33 5 3.66 5 4 C0.38 4 -4.24 4 -9 4 C-7.68 3.34 -6.36 2.68 -5 2 C-2 0 -2 0 0 0 Z " fill="#D7D7D7" transform="translate(217,223)"/>
<path d="M0 0 C0.66 0.33 1.32 0.66 2 1 C1.3125 2.9375 1.3125 2.9375 0 5 C-2.5 5.875 -2.5 5.875 -5 6 C-5.66 5.34 -6.32 4.68 -7 4 C-4.61426621 2.10786631 -2.92824652 0.97608217 0 0 Z " fill="#EA5522" transform="translate(96,23)"/>
<path d="M0 0 C1.32 0.66 2.64 1.32 4 2 C4 3.66666667 4 5.33333333 4 7 C2.68 6.67 1.36 6.34 0 6 C0 4 0 2 0 0 Z " fill="#4D4D4D" transform="translate(90,198)"/>
<path d="M0 0 C2.97 0 5.94 0 9 0 C8.67 0.66 8.34 1.32 8 2 C7.34 1.67 6.68 1.34 6 1 C5.67 2.65 5.34 4.3 5 6 C3.31237149 4.3545622 1.6459651 2.68711423 0 1 C0 0.67 0 0.34 0 0 Z " fill="#FDF3EB" transform="translate(181,112)"/>
<path d="M0 0 C1.32 0.33 2.64 0.66 4 1 C3.34 1 2.68 1 2 1 C2.33 1.99 2.66 2.98 3 4 C2.67 4.33 2.34 4.66 2 5 C1.95907063 7.33297433 1.95758277 9.66705225 2 12 C1.01 12.495 1.01 12.495 0 13 C0 8.71 0 4.42 0 0 Z " fill="#494949" transform="translate(50,196)"/>
<path d="M0 0 C1.98 0 3.96 0 6 0 C6.66 1.32 7.32 2.64 8 4 C5.69 3.67 3.38 3.34 1 3 C0.67 2.01 0.34 1.02 0 0 Z " fill="#FBF7EE" transform="translate(121,164)"/>
<path d="M0 0 C-0.8125 2.4375 -0.8125 2.4375 -2 5 C-2.99 5.33 -3.98 5.66 -5 6 C-5.99 5.01 -6.98 4.02 -8 3 C-2.25 0 -2.25 0 0 0 Z " fill="#F6AC2E" transform="translate(144,136)"/>
<path d="M0 0 C0.66 0.33 1.32 0.66 2 1 C1.50168276 4.68754757 0.89932357 6.60490662 -2 9 C-2 6.36 -2 3.72 -2 1 C-1.34 0.67 -0.68 0.34 0 0 Z " fill="#FBF6EC" transform="translate(155,119)"/>
<path d="M0 0 C1.32 0 2.64 0 4 0 C4 0.66 4 1.32 4 2 C5.32 2.33 6.64 2.66 8 3 C8 3.33 8 3.66 8 4 C4.7 4 1.4 4 -2 4 C-1.01 3.34 -0.02 2.68 1 2 C0.67 1.34 0.34 0.68 0 0 Z " fill="#F49D39" transform="translate(124,118)"/>
<path d="M0 0 C1.32 0.33 2.64 0.66 4 1 C3.67 3.64 3.34 6.28 3 9 C2.34 9 1.68 9 1 9 C0.67 6.03 0.34 3.06 0 0 Z " fill="#FAF8EF" transform="translate(52,63)"/>
<path d="M0 0 C3.24208567 0.35049575 4.61527704 0.56221181 6.8125 3.0625 C7.204375 3.701875 7.59625 4.34125 8 5 C5.39417629 5.93065133 4.35801776 6.14917407 1.75 5.0625 C1.1725 4.711875 0.595 4.36125 0 4 C0 2.68 0 1.36 0 0 Z " fill="#FAF6ED" transform="translate(48,24)"/>
<path d="M0 0 C0.99 0.33 1.98 0.66 3 1 C3.8125 2.8125 3.8125 2.8125 4 5 C3.0625 7.25 3.0625 7.25 2 9 C0.93347808 6.69631264 -0.06421005 4.35981813 -1 2 C-0.67 1.34 -0.34 0.68 0 0 Z " fill="#FAF0E9" transform="translate(131,8)"/>
<path d="M0 0 C-0.94875 0.20625 -1.8975 0.4125 -2.875 0.625 C-6.29166667 1.70833333 -6.29166667 1.70833333 -7.375 5.125 C-7.58125 6.07375 -7.7875 7.0225 -8 8 C-8.66 7.34 -9.32 6.68 -10 6 C-10 2 -10 2 -8 0 C-2.51428571 -1.25714286 -2.51428571 -1.25714286 0 0 Z " fill="#F55525" transform="translate(119,7)"/>
<path d="M0 0 C0.33 0.99 0.66 1.98 1 3 C2.65 3 4.3 3 6 3 C6 3.33 6 3.66 6 4 C2.04 4 -1.92 4 -6 4 C-2 1 -2 1 0 0 Z " fill="#E1E1E1" transform="translate(93,223)"/>
<path d="M0 0 C-0.66 1.32 -1.32 2.64 -2 4 C-3.32 4 -4.64 4 -6 4 C-6.33 2.68 -6.66 1.36 -7 0 C-3.98968256 -0.93423645 -3.13349732 -1.04449911 0 0 Z " fill="#5C5C5C" transform="translate(68,198)"/>
<path d="M0 0 C2 0.3125 2 0.3125 4 1 C4.33 1.66 4.66 2.32 5 3 C4.01 3.495 4.01 3.495 3 4 C3.33 4.66 3.66 5.32 4 6 C2.68 5.67 1.36 5.34 0 5 C-0.5625 3.0625 -0.5625 3.0625 -1 1 C-0.67 0.67 -0.34 0.34 0 0 Z " fill="#F4A11C" transform="translate(89,128)"/>
<path d="M0 0 C0.33 0 0.66 0 1 0 C0.979375 1.0725 0.95875 2.145 0.9375 3.25 C0.9857984 6.14790424 1.13155885 8.28612141 2 11 C1.01 11.33 0.02 11.66 -1 12 C-2.45606519 7.47907032 -1.27032841 4.48351204 0 0 Z " fill="#F09B34" transform="translate(161,109)"/>
<path d="M0 0 C0 0.66 0 1.32 0 2 C-2.97 2 -5.94 2 -9 2 C-9.33 1.34 -9.66 0.68 -10 0 C-6.7169902 -1.6415049 -3.57454967 -0.51888624 0 0 Z " fill="#F8F4EB" transform="translate(134,115)"/>
<path d="M0 0 C0.33 0.66 0.66 1.32 1 2 C3.02463255 2.65213292 3.02463255 2.65213292 5 3 C1.91190305 4.76462683 0.76687864 5 -3 5 C-1.125 1.125 -1.125 1.125 0 0 Z " fill="#EC6133" transform="translate(133,17)"/>
<path d="M0 0 C1.32 0 2.64 0 4 0 C4 1.98 4 3.96 4 6 C3.34 6 2.68 6 2 6 C2 5.34 2 4.68 2 4 C1.34 4 0.68 4 0 4 C0 2.68 0 1.36 0 0 Z " fill="#4C4C4C" transform="translate(161,196)"/>
<path d="M0 0 C2.475 0.495 2.475 0.495 5 1 C5 1.99 5 2.98 5 4 C3.02 4.99 3.02 4.99 1 6 C0.67 4.02 0.34 2.04 0 0 Z " fill="#515151" transform="translate(29,183)"/>
<path d="M0 0 C2.00720923 0.28674418 4.0085944 0.61866701 6 1 C2.78817851 2.90608098 0.46117397 3.22266247 -3.25 3.125 C-4.14203125 3.10695312 -5.0340625 3.08890625 -5.953125 3.0703125 C-6.96632813 3.03550781 -6.96632813 3.03550781 -8 3 C-8 2.67 -8 2.34 -8 2 C-6.865625 1.855625 -5.73125 1.71125 -4.5625 1.5625 C-1.19222799 1.38828522 -1.19222799 1.38828522 0 0 Z " fill="#FCCB59" transform="translate(125,161)"/>
<path d="M0 0 C0.66 0.66 1.32 1.32 2 2 C1.34 3.32 0.68 4.64 0 6 C-0.66 5.67 -1.32 5.34 -2 5 C-2 5.66 -2 6.32 -2 7 C-2.66 6.67 -3.32 6.34 -4 6 C-4 4.68 -4 3.36 -4 2 C-2.68 2.33 -1.36 2.66 0 3 C0 2.01 0 1.02 0 0 Z " fill="#FBF1E4" transform="translate(30,105)"/>
<path d="M0 0 C0.99 0 1.98 0 3 0 C3 1.98 3 3.96 3 6 C2.01 6 1.02 6 0 6 C-1.125 2.25 -1.125 2.25 0 0 Z " fill="#F68521" transform="translate(103,98)"/>
<path d="M0 0 C0.33 1.32 0.66 2.64 1 4 C-1.64 5.65 -4.28 7.3 -7 9 C-6.67 7.68 -6.34 6.36 -6 5 C-4.35 4.67 -2.7 4.34 -1 4 C-0.67 2.68 -0.34 1.36 0 0 Z " fill="#FCE2CD" transform="translate(52,80)"/>
<path d="M0 0 C0.66 0.66 1.32 1.32 2 2 C2.66 1.67 3.32 1.34 4 1 C4 1.99 4 2.98 4 4 C2.68 4 1.36 4 0 4 C0 4.66 0 5.32 0 6 C-0.99 6 -1.98 6 -3 6 C-1.125 1.125 -1.125 1.125 0 0 Z " fill="#EB7E3C" transform="translate(107,76)"/>
<path d="M0 0 C0 0.66 0 1.32 0 2 C-1.093125 1.979375 -2.18625 1.95875 -3.3125 1.9375 C-6.94384191 1.81455548 -6.94384191 1.81455548 -10 3 C-10 2.34 -10 1.68 -10 1 C-6.21812119 -0.83691257 -4.05431692 -1.15837626 0 0 Z " fill="#ED5A26" transform="translate(58,30)"/>
<path d="M0 0 C0.66 0 1.32 0 2 0 C2.66 1.65 3.32 3.3 4 5 C3.01 5.33 2.02 5.66 1 6 C0.34 4.35 -0.32 2.7 -1 1 C-0.67 0.67 -0.34 0.34 0 0 Z M3 1 C5 2 5 2 5 2 Z " fill="#4E4E4E" transform="translate(193,215)"/>
<path d="M0 0 C1.9375 0.375 1.9375 0.375 4 1 C4.33 1.66 4.66 2.32 5 3 C4.0625 5.125 4.0625 5.125 3 7 C0 3.375 0 3.375 0 0 Z " fill="#F1F1F1" transform="translate(90,193)"/>
<path d="M0 0 C0.33 0.66 0.66 1.32 1 2 C1.99 1.67 2.98 1.34 4 1 C3.34 3.31 2.68 5.62 2 8 C1.34 8 0.68 8 0 8 C0 5.36 0 2.72 0 0 Z " fill="#F5BC22" transform="translate(152,157)"/>
<path d="M0 0 C0.66 0 1.32 0 2 0 C5.3203125 5.078125 5.3203125 5.078125 6 7 C5.34 8.32 4.68 9.64 4 11 C2.68 7.37 1.36 3.74 0 0 Z " fill="#FBEFE7" transform="translate(184,53)"/>
<path d="M0 0 C0.99 0.99 1.98 1.98 3 3 C2.34 4.32 1.68 5.64 1 7 C-1.1385485 4.8614515 -1.42655063 3.86724686 -2 1 C-1.34 0.67 -0.68 0.34 0 0 Z " fill="#FCF5E7" transform="translate(188,117)"/>
<path d="M0 0 C0.33 0 0.66 0 1 0 C1 2.31 1 4.62 1 7 C0.01 7 -0.98 7 -2 7 C-2.33 5.68 -2.66 4.36 -3 3 C-2.01 2.67 -1.02 2.34 0 2 C0 1.34 0 0.68 0 0 Z " fill="#F28A4F" transform="translate(191,78)"/>
<path d="M0 0 C2.0625 2.3125 2.0625 2.3125 4 5 C3.67 5.99 3.34 6.98 3 8 C2.34 8 1.68 8 1 8 C1.33 6.68 1.66 5.36 2 4 C1.01 4.33 0.02 4.66 -1 5 C-0.67 3.35 -0.34 1.7 0 0 Z " fill="#FAEADF" transform="translate(180,64)"/>
<path d="M0 0 C0.66 0.66 1.32 1.32 2 2 C0.02 2.99 0.02 2.99 -2 4 C-2 4.99 -2 5.98 -2 7 C-2.66 6.34 -3.32 5.68 -4 5 C-3.8125 2.9375 -3.8125 2.9375 -3 1 C-2.01 0.67 -1.02 0.34 0 0 Z " fill="#636363" transform="translate(130,217)"/>
<path d="M0 0 C1.65 0.33 3.3 0.66 5 1 C3.68 1.33 2.36 1.66 1 2 C1.33 3.32 1.66 4.64 2 6 C0.68 5.34 -0.64 4.68 -2 4 C-1.34 2.68 -0.68 1.36 0 0 Z " fill="#4E4E4E" transform="translate(199,197)"/>
<path d="M0 0 C2.97 0 5.94 0 9 0 C8.34 1.32 7.68 2.64 7 4 C7 3.34 7 2.68 7 2 C5.02 2 3.04 2 1 2 C0.67 1.34 0.34 0.68 0 0 Z " fill="#474747" transform="translate(114,184)"/>
<path d="M0 0 C0.33 0.66 0.66 1.32 1 2 C2.98 2 4.96 2 7 2 C6.34 3.32 5.68 4.64 5 6 C3.02 4.68 1.04 3.36 -1 2 C-0.67 1.34 -0.34 0.68 0 0 Z " fill="#FAF2E8" transform="translate(97,130)"/>
<path d="M0 0 C0.99 0 1.98 0 3 0 C3.66 1.32 4.32 2.64 5 4 C2.69 3.67 0.38 3.34 -2 3 C-1.34 2.01 -0.68 1.02 0 0 Z " fill="#F9F4EA" transform="translate(59,128)"/>
<path d="M0 0 C0.66 0.33 1.32 0.66 2 1 C2 1.99 2 2.98 2 4 C0 5.6875 0 5.6875 -2 7 C-2.66 5.35 -3.32 3.7 -4 2 C-2.68 2.33 -1.36 2.66 0 3 C0 2.01 0 1.02 0 0 Z " fill="#FCF4EA" transform="translate(86,113)"/>
<path d="M0 0 C0.33 0 0.66 0 1 0 C1 1.98 1 3.96 1 6 C-0.65 5.67 -2.3 5.34 -4 5 C-3.67 4.34 -3.34 3.68 -3 3 C-2.34 3 -1.68 3 -1 3 C-0.67 2.01 -0.34 1.02 0 0 Z " fill="#EA5E34" transform="translate(103,18)"/>
<path d="M0 0 C0.66 0.33 1.32 0.66 2 1 C1.67 3.31 1.34 5.62 1 8 C-0.32 6.35 -1.64 4.7 -3 3 C-2.01 2.01 -1.02 1.02 0 0 Z " fill="#FBEADF" transform="translate(171,16)"/>
</svg>
