<?xml version="1.0" encoding="UTF-8"?>
<svg version="1.1" xmlns="http://www.w3.org/2000/svg" width="225" height="225">
<path d="M0 0 C74.25 0 148.5 0 225 0 C225 74.25 225 148.5 225 225 C150.75 225 76.5 225 0 225 C0 150.75 0 76.5 0 0 Z " fill="#FDFDFD" transform="translate(0,0)"/>
<path d="M0 0 C2.25 0 2.25 0 5 1 C10.34464569 8.52469853 10.49422564 17.09244487 10 26 C9.51287492 28.77449501 8.83039707 31.30120951 8 34 C9.010625 33.96777344 10.02125 33.93554688 11.0625 33.90234375 C23.21789057 34.20381673 34.34541837 39.6198141 45 45 C45.25652344 44.39414062 45.51304687 43.78828125 45.77734375 43.1640625 C49.7353975 34.50165531 55.36335726 26.46674158 64 22 C66.6875 21.6875 66.6875 21.6875 69 22 C71 24 71 24 71.15234375 25.8125 C70.01795453 37.36264481 63.91146948 44.89893103 56 53 C57.98156242 57.66313331 61.45639581 60.84137677 64.90625 64.46484375 C67 67 67 67 69 72 C65.7 73.98 62.4 75.96 59 78 C56.43152645 75.43152645 54.11965433 73.00719184 51.8125 70.25 C40.63403048 57.56854298 25.81212168 48.15747959 8.60058594 46.8125 C-11.80220745 45.61891794 -28.58360389 49.78452211 -44.375 63.4375 C-48.45703698 67.26934762 -51.8852093 71.35313746 -55 76 C-58.21852831 75.36934243 -60.50801069 74.21979305 -63.25 72.4375 C-63.95640625 71.98246094 -64.6628125 71.52742188 -65.390625 71.05859375 C-66.18726563 70.53458984 -66.18726563 70.53458984 -67 70 C-63.02596587 63.49703507 -58.57437425 58.19237399 -53 53 C-53.86625 52.05125 -54.7325 51.1025 -55.625 50.125 C-62.02825347 42.65959548 -67.76343493 34.11551277 -67 24 C-65 22 -65 22 -61.9375 21.875 C-55.29936424 23.08946143 -50.67647268 28.71138408 -46.87109375 33.90625 C-42 41.38510101 -42 41.38510101 -42 44 C-40.82566406 43.45730469 -39.65132812 42.91460937 -38.44140625 42.35546875 C-27.69640007 37.53250913 -17.68936108 34.43684848 -6 33 C-6.01571045 32.44127197 -6.0314209 31.88254395 -6.04760742 31.30688477 C-6.11074924 28.7255301 -6.14923704 26.1443387 -6.1875 23.5625 C-6.21263672 22.68400391 -6.23777344 21.80550781 -6.26367188 20.90039062 C-6.34744211 13.33314636 -5.29633208 5.80074466 0 0 Z " fill="#030303" transform="translate(111,0)"/>
<path d="M0 0 C1.54296875 1.6015625 1.54296875 1.6015625 3.1875 3.625 C9.04689138 10.42867346 14.81384211 15.17133233 22.8125 19.25 C23.45179443 19.57935547 24.09108887 19.90871094 24.74975586 20.24804688 C33.97803581 24.75110677 43.08197227 26.54770161 53.3125 26.4375 C54.31651855 26.42920166 55.32053711 26.42090332 56.35498047 26.41235352 C74.2893862 26.00652585 89.46445619 18.85175572 102 6 C104.08844453 3.71903353 106.05430256 1.40652052 108 -1 C111.15330554 -0.39305845 113.18888867 0.6416665 115.75 2.5625 C116.36359375 3.01753906 116.9771875 3.47257813 117.609375 3.94140625 C118.06828125 4.29074219 118.5271875 4.64007813 119 5 C117.54718935 10.32697239 113.91888622 13.36402802 110 17 C112.04080294 21.50457022 115.06534006 25.2175541 118.02734375 29.1484375 C120.99925584 33.44446884 123.2722184 37.44035831 123.8125 42.6875 C123.90144531 43.43386719 123.99039063 44.18023437 124.08203125 44.94921875 C124 47 124 47 122 50 C116.58339152 49.60366279 112.875877 47.69786178 109 44 C104.53007259 38.67015915 100.95309042 33.73171773 99 27 C98.49251221 27.25692627 97.98502441 27.51385254 97.4621582 27.77856445 C74.42729808 39.33892631 74.42729808 39.33892631 62 39 C62.15855469 39.68835938 62.31710938 40.37671875 62.48046875 41.0859375 C64.21515953 50.81585719 63.49727362 60.13676002 59 69 C58.34 69.66 57.68 70.32 57 71 C54.04533971 70.84847896 52.49917854 70.46220235 50.3125 68.4375 C46.07131343 60.56101066 46.55603086 51.7038602 47 43 C47.33 42.01 47.66 41.02 48 40 C47.16082031 39.96132812 47.16082031 39.96132812 46.3046875 39.921875 C33.59138828 39.02254194 22.29689004 34.62967942 11 29 C10.5875 29.70125 10.175 30.4025 9.75 31.125 C0.23570191 46.75563258 0.23570191 46.75563258 -8 50 C-10.75 49.625 -10.75 49.625 -13 49 C-14.4213665 42.9268886 -13.77515982 38.60334817 -11 33 C-8.50141651 29.19603411 -5.7801392 25.60060491 -3 22 C-2.34 21.01 -1.68 20.02 -1 19 C-1.68835938 18.32904297 -1.68835938 18.32904297 -2.390625 17.64453125 C-9.71428571 10.42857143 -9.71428571 10.42857143 -12 7 C-10.84625061 3.53875184 -10.12298029 3.11687417 -7.125 1.25 C-6.42632812 0.80140625 -5.72765625 0.3528125 -5.0078125 -0.109375 C-3 -1 -3 -1 0 0 Z " fill="#030303" transform="translate(58,153)"/>
<path d="M0 0 C5.28 0 10.56 0 16 0 C17.65500902 4.18407907 19.2992416 8.37186629 20.9375 12.5625 C21.40607422 13.74392578 21.87464844 14.92535156 22.35742188 16.14257812 C22.80537109 17.29306641 23.25332031 18.44355469 23.71484375 19.62890625 C24.12855225 20.68150635 24.54226074 21.73410645 24.96850586 22.81860352 C26.06880495 26.21221237 26.59253911 29.46152383 27 33 C27.66 33 28.32 33 29 33 C29.11786865 32.14390137 29.2357373 31.28780273 29.35717773 30.40576172 C30.01740504 26.90778568 31.03262181 23.83733443 32.28515625 20.5078125 C32.73310547 19.30898437 33.18105469 18.11015625 33.64257812 16.875 C34.11576723 15.62495526 34.589076 14.3749558 35.0625 13.125 C35.54021196 11.85174939 36.01743034 10.57831348 36.49414062 9.3046875 C37.65791024 6.20130186 38.82831086 3.10040428 40 0 C45.28 0 50.56 0 56 0 C56 19.14 56 38.28 56 58 C51.38 58 46.76 58 42 58 C41.97276101 54.06245231 41.95304607 50.12509743 41.9375 46.1875 C41.92912109 45.08728516 41.92074219 43.98707031 41.91210938 42.85351562 C41.89142843 35.84267366 42.22322023 28.96824874 43 22 C42.32904297 23.84851563 42.32904297 23.84851563 41.64453125 25.734375 C38.29636415 34.91561171 34.88530638 44.02977651 31 53 C29.02 53 27.04 53 25 53 C21.7629299 46.81748774 19.18415129 40.53614699 16.75 34 C16.38648438 33.03449219 16.02296875 32.06898437 15.6484375 31.07421875 C14.76177374 28.71755982 13.87905628 26.35950476 13 24 C13.16371094 25.21558594 13.32742187 26.43117188 13.49609375 27.68359375 C14.17664287 33.80853587 14.10867296 39.90728979 14.0625 46.0625 C14.05798828 47.21427734 14.05347656 48.36605469 14.04882812 49.55273438 C14.0371444 52.36851238 14.01921276 55.1842633 14 58 C9.38 58 4.76 58 0 58 C0 38.86 0 19.72 0 0 Z " fill="#020202" transform="translate(164,85)"/>
<path d="M0 0 C4.95 0 9.9 0 15 0 C15 7.26 15 14.52 15 22 C20.94 22 26.88 22 33 22 C33 14.74 33 7.48 33 0 C37.95 0 42.9 0 48 0 C48 19.14 48 38.28 48 58 C43.05 58 38.1 58 33 58 C33 50.41 33 42.82 33 35 C27.06 35 21.12 35 15 35 C15 42.59 15 50.18 15 58 C10.05 58 5.1 58 0 58 C0 38.86 0 19.72 0 0 Z " fill="#000000" transform="translate(5,85)"/>
<path d="M0 0 C12.54 0 25.08 0 38 0 C38 4.29 38 8.58 38 13 C30.41 13 22.82 13 15 13 C15 15.97 15 18.94 15 22 C21.27 22 27.54 22 34 22 C34 26.29 34 30.58 34 35 C27.73 35 21.46 35 15 35 C15 38.3 15 41.6 15 45 C22.92 45 30.84 45 39 45 C39 49.29 39 53.58 39 58 C26.13 58 13.26 58 0 58 C0 38.86 0 19.72 0 0 Z " fill="#040404" transform="translate(66,85)"/>
<path d="M0 0 C4.95 0 9.9 0 15 0 C15 15.18 15 30.36 15 46 C22.26 46 29.52 46 37 46 C37 49.96 37 53.92 37 58 C24.79 58 12.58 58 0 58 C0 38.86 0 19.72 0 0 Z " fill="#000000" transform="translate(116,85)"/>
</svg>
