<?xml version="1.0" encoding="UTF-8"?>
<svg version="1.1" xmlns="http://www.w3.org/2000/svg" width="319" height="158">
<path d="M0 0 C105.27 0 210.54 0 319 0 C319 52.14 319 104.28 319 158 C213.73 158 108.46 158 0 158 C0 105.86 0 53.72 0 0 Z " fill="#FEFEFD" transform="translate(0,0)"/>
<path d="M0 0 C3.06046153 1.90244906 4.70975224 3.92495318 5.96484375 7.23828125 C6.19189453 10.35449219 6.19189453 10.35449219 6.16015625 13.97265625 C6.15371094 15.26816406 6.14726562 16.56367187 6.140625 17.8984375 C6.12391568 19.26172144 6.10698581 20.62500269 6.08984375 21.98828125 C6.07980715 23.3671811 6.07068248 24.7460879 6.0625 26.125 C6.03892468 29.49627007 6.00601645 32.86718761 5.96484375 36.23828125 C3.98484375 36.23828125 2.00484375 36.23828125 -0.03515625 36.23828125 C-0.03515625 34.91828125 -0.03515625 33.59828125 -0.03515625 32.23828125 C-0.98390625 32.89828125 -1.93265625 33.55828125 -2.91015625 34.23828125 C-7.513763 36.85822005 -11.85911547 37.07030134 -17.03515625 36.23828125 C-20.09765625 34.80078125 -20.09765625 34.80078125 -22.03515625 32.23828125 C-23.29906141 27.97756953 -23.53832086 24.52414638 -21.91015625 20.36328125 C-18.54440465 16.54876277 -15.0560581 14.82210705 -10.03515625 14.23828125 C-7.36219675 14.16846514 -4.7101717 14.19294201 -2.03515625 14.23828125 C-2.29909126 10.80597677 -2.29909126 10.80597677 -3.03515625 7.23828125 C-7.63735331 4.17014988 -12.26291874 4.98510446 -17.53515625 5.73828125 C-18.36015625 5.90328125 -19.18515625 6.06828125 -20.03515625 6.23828125 C-20.36515625 4.91828125 -20.69515625 3.59828125 -21.03515625 2.23828125 C-14.65953831 -1.23932853 -7.00054485 -2.62016554 0 0 Z " fill="#5A85A2" transform="translate(235.03515625,106.76171875)"/>
<path d="M0 0 C2.4375 1.6875 2.4375 1.6875 4.4375 4.6875 C4.66455078 7.8737793 4.66455078 7.8737793 4.6328125 11.76171875 C4.6299826 12.4455513 4.62715271 13.12938385 4.62423706 13.8339386 C4.61305684 16.01447165 4.58795691 18.19459145 4.5625 20.375 C4.55246738 21.85481177 4.54334202 23.33462999 4.53515625 24.81445312 C4.51312481 28.438936 4.47861002 32.06317766 4.4375 35.6875 C2.0625 35.875 2.0625 35.875 -0.5625 35.6875 C-1.2225 34.6975 -1.8825 33.7075 -2.5625 32.6875 C-3.34625 33.1825 -4.13 33.6775 -4.9375 34.1875 C-9.60605495 36.11931584 -13.5802006 36.69059189 -18.5625 35.6875 C-21.39029581 33.96814976 -21.90950355 32.77309337 -23.5625 29.6875 C-24.44000463 25.63200565 -24.04289052 22.55220293 -22 18.875 C-16.46878975 13.91109337 -11.68479266 13.35729412 -4.50390625 13.58203125 C-3.86324219 13.61683594 -3.22257812 13.65164062 -2.5625 13.6875 C-2.8172514 12.37178397 -3.09184141 11.05989624 -3.375 9.75 C-3.52582031 9.01910156 -3.67664063 8.28820312 -3.83203125 7.53515625 C-4.19361328 6.62056641 -4.19361328 6.62056641 -4.5625 5.6875 C-9.90675837 3.90608054 -15.11030241 4.62365657 -20.5625 5.6875 C-20.8925 4.3675 -21.2225 3.0475 -21.5625 1.6875 C-14.57883485 -2.03712141 -7.50973795 -2.76674556 0 0 Z " fill="#5784A1" transform="translate(168.5625,107.3125)"/>
<path d="M0 0 C8.25 0 16.5 0 25 0 C25 1.98 25 3.96 25 6 C19.39 6 13.78 6 8 6 C8 11.28 8 16.56 8 22 C12.62 22 17.24 22 22 22 C22 23.65 22 25.3 22 27 C17.38 27 12.76 27 8 27 C8 32.61 8 38.22 8 44 C13.61 44 19.22 44 25 44 C25 45.98 25 47.96 25 50 C16.75 50 8.5 50 0 50 C0 33.5 0 17 0 0 Z " fill="#F89B24" transform="translate(251,93)"/>
<path d="M0 0 C7.92 0 15.84 0 24 0 C24 1.65 24 3.3 24 5 C18.39 5 12.78 5 7 5 C7 10.28 7 15.56 7 21 C11.62 21 16.24 21 21 21 C21 22.65 21 24.3 21 26 C16.71 26 12.42 26 8 26 C8 31.61 8 37.22 8 43 C13.61 43 19.22 43 25 43 C25 44.98 25 46.96 25 49 C16.75 49 8.5 49 0 49 C0 32.83 0 16.66 0 0 Z " fill="#F79614" transform="translate(287,94)"/>
<path d="M0 0 C2 1 2 1 2.625 2.5625 C3.81395907 10.29073397 2.82662808 16.16225474 -1 23 C-4.71811325 28.05196554 -9.21266824 32.29803189 -13.81640625 36.53125 C-14.48502686 37.14645508 -15.15364746 37.76166016 -15.8425293 38.39550781 C-17.17181224 39.60838869 -18.5102322 40.81134981 -19.85864258 42.00292969 C-24.29116235 46.0039754 -27.27640969 49.54983752 -28.5390625 55.5703125 C-28.87185348 65.46328064 -23.84334349 72.39466371 -18 80 C-18.33 80.66 -18.66 81.32 -19 82 C-37.10752602 64.94728132 -37.10752602 64.94728132 -37.625 54.75 C-36.99061919 46.07113058 -30.14440531 40.52286142 -24 35 C-21.80454518 33.24606653 -19.56231465 31.55836061 -17.3125 29.875 C-8.45483257 23.20193631 -2.69162295 16.79928241 -0.53515625 5.58203125 C-0.29563881 3.72823192 -0.13808159 1.8641014 0 0 Z " fill="#F69832" transform="translate(75,3)"/>
<path d="M0 0 C2.64 0 5.28 0 8 0 C9.1483058 3.41584072 10.29321208 6.83281142 11.4375 10.25 C11.76298828 11.21808594 12.08847656 12.18617187 12.42382812 13.18359375 C12.73642578 14.11816406 13.04902344 15.05273438 13.37109375 16.015625 C13.65911865 16.87446289 13.94714355 17.73330078 14.24389648 18.61816406 C14.91538891 20.73346278 15.49077539 22.84071282 16 25 C18.22507607 19.38949301 19.87659624 13.88631493 21.1875 8 C21.36474609 7.22527344 21.54199219 6.45054688 21.72460938 5.65234375 C22.1546759 3.76934979 22.578055 1.88483046 23 0 C25.64 0 28.28 0 31 0 C30.1267165 7.61004196 27.92080372 14.70484519 25.5 21.9375 C25.19118896 22.86135498 24.88237793 23.78520996 24.56420898 24.73706055 C23.22519023 28.66770527 21.86423906 32.27152189 20 36 C17.03 36 14.06 36 11 36 C8.25239973 28.97931792 6.01920688 21.83171362 3.8125 14.625 C3.44447266 13.43777344 3.07644531 12.25054687 2.69726562 11.02734375 C2.34986328 9.89683594 2.00246094 8.76632813 1.64453125 7.6015625 C1.32846924 6.57369629 1.01240723 5.54583008 0.68676758 4.48681641 C0 2 0 2 0 0 Z " fill="#5884A2" transform="translate(178,107)"/>
<path d="M0 0 C1.85625 0.0309375 1.85625 0.0309375 3.75 0.0625 C3.75 0.3925 3.75 0.7225 3.75 1.0625 C2.81027344 1.36994141 2.81027344 1.36994141 1.8515625 1.68359375 C1.03429687 1.95300781 0.21703125 2.22242188 -0.625 2.5 C-1.43710937 2.76683594 -2.24921875 3.03367188 -3.0859375 3.30859375 C-5.26031799 4.01429729 -5.26031799 4.01429729 -7.25 5.0625 C-7.25 5.7225 -7.25 6.3825 -7.25 7.0625 C6.94381943 11.75442784 22.01059577 11.29783767 36.8125 11.3125 C38.02215927 11.31450912 38.02215927 11.31450912 39.2562561 11.31655884 C64.09807967 11.62455504 64.09807967 11.62455504 87.75 5.0625 C89.06506367 3.05543812 89.06506367 3.05543812 89.75 1.0625 C90.245 3.5375 90.245 3.5375 90.75 6.0625 C64.19060893 21.23073011 17.73135003 19.93821041 -11.6484375 13.1171875 C-15.25 12.0625 -15.25 12.0625 -18.25 10.0625 C-18.01953125 8.23046875 -18.01953125 8.23046875 -17.25 6.0625 C-15.32421875 4.61328125 -15.32421875 4.61328125 -12.9375 3.375 C-11.76767578 2.75044922 -11.76767578 2.75044922 -10.57421875 2.11328125 C-6.96502291 0.48156078 -3.94789314 -0.06579822 0 0 Z " fill="#52809F" transform="translate(18.25,133.9375)"/>
<path d="M0 0 C-0.60585937 0.3403125 -1.21171875 0.680625 -1.8359375 1.03125 C-14.99907158 8.41116276 -14.99907158 8.41116276 -24 20 C-24.28867308 25.77346154 -22.89110405 28.42327268 -19.4375 33 C-17.11815218 36.11155305 -15.4776693 38.31596757 -15.3125 42.25 C-16.51447087 48.80620477 -20.26734824 52.53027334 -25 57 C-25.66 56.67 -26.32 56.34 -27 56 C-26.34 55.01 -25.68 54.02 -25 53 C-24.17240197 48.9654596 -24.20382474 45.39208559 -26.2734375 41.7734375 C-27.30766337 40.42642137 -28.37902637 39.10677397 -29.4921875 37.82421875 C-33.21404617 33.32134828 -33.44489951 29.45772792 -33.30078125 23.74609375 C-32.62571844 17.58285798 -29.65958683 14.31907959 -25 10.4375 C-19.71498666 6.55249019 -13.96521031 3.69100968 -8 1 C-7.11828125 0.59394531 -6.2365625 0.18789063 -5.328125 -0.23046875 C-3 -1 -3 -1 0 0 Z " fill="#F69833" transform="translate(92,34)"/>
<path d="M0 0 C2.31 0 4.62 0 7 0 C7.07618093 7.010834 7.12865495 14.02156089 7.16479492 21.03271484 C7.179864 23.41687001 7.20032291 25.80099753 7.22631836 28.18505859 C7.26278337 31.61562937 7.27974552 35.045833 7.29296875 38.4765625 C7.30845261 39.53928375 7.32393646 40.602005 7.33988953 41.69692993 C7.34133562 48.08255368 6.84042663 52.67480722 2.53515625 57.71484375 C-1.42172524 61 -1.42172524 61 -4.25 61 C-6 60 -6 60 -8 57 C-7.21625 56.46375 -6.4325 55.9275 -5.625 55.375 C-2.1057283 52.19089703 -1.20968096 49.37809194 -0.79266357 44.64849854 C-0.67290841 41.80891803 -0.61886048 38.97472261 -0.5859375 36.1328125 C-0.56657135 35.09808807 -0.5472052 34.06336365 -0.5272522 32.99728394 C-0.46768158 29.70660533 -0.42116095 26.41589132 -0.375 23.125 C-0.33679952 20.88800595 -0.29774659 18.65102628 -0.2578125 16.4140625 C-0.16199862 10.94283642 -0.07688569 5.47152305 0 0 Z " fill="#52809E" transform="translate(132,94)"/>
<path d="M0 0 C-3.61787915 1.85447352 -7.32621744 3.42964266 -11.07421875 5 C-13.16900731 5.84827053 -13.16900731 5.84827053 -14 8 C-8.01203647 9.29131735 -2.03395106 9.23207569 4.0625 9.25 C5.23176025 9.25394775 6.40102051 9.25789551 7.60571289 9.26196289 C18.07803137 9.19463241 28.3150214 8.24251327 38.70532227 6.97949219 C39.86346436 6.8405957 41.02160645 6.70169922 42.21484375 6.55859375 C43.23698975 6.42767334 44.25913574 6.29675293 45.31225586 6.16186523 C47.8402421 6.00962117 49.61089379 6.2200072 52 7 C47.97554075 9.78138303 44.12642563 10.82245594 39.375 11.625 C38.72660156 11.74617188 38.07820313 11.86734375 37.41015625 11.9921875 C26.83934397 13.88056562 16.28011379 14.181915 5.5625 14.1875 C4.32951172 14.19974609 3.09652344 14.21199219 1.82617188 14.22460938 C-17.37977076 14.25504669 -17.37977076 14.25504669 -25 10 C-24.890625 8.16796875 -24.890625 8.16796875 -24 6 C-21.234375 4.55078125 -21.234375 4.55078125 -17.75 3.3125 C-16.04070313 2.68794922 -16.04070313 2.68794922 -14.296875 2.05078125 C-9.37029632 0.48058022 -5.17138678 -0.12026481 0 0 Z " fill="#5D88A4" transform="translate(38,87)"/>
<path d="M0 0 C0.433125 0.474375 0.86625 0.94875 1.3125 1.4375 C5.25573034 5.0886392 11.89618129 4.15588985 17 4.125 C17.73968018 4.1252417 18.47936035 4.1254834 19.24145508 4.12573242 C25.19808254 4.09317557 31.03158364 3.62739308 36.94921875 2.92578125 C40.63346815 3.01541088 42.84718784 4.16125348 46 6 C42.04202196 10.74160456 35.86017556 11.31703245 30 12 C26.3941503 12.22922951 22.80013722 12.29888055 19.1875 12.3125 C17.86322998 12.32059692 17.86322998 12.32059692 16.51220703 12.32885742 C8.85401536 12.24597656 1.6036346 11.18767072 -5 7 C-6.0625 5 -6.0625 5 -6 3 C-4.04862098 0.26806937 -3.44686768 0 0 0 Z " fill="#5784A1" transform="translate(36,123)"/>
<path d="M0 0 C0 1.32 0 2.64 0 4 C13.13821131 5.72304411 27.88160468 6.54841488 40.84375 3.4375 C43.32231834 2.93460208 45.47713524 2.80245105 48 3 C50.8125 5 50.8125 5 53 7 C43.57941166 11.39627456 33.39653783 11.34536163 23.21362305 11.31567383 C20.93815713 11.31250092 18.66397923 11.33609321 16.38867188 11.36132812 C8.828679 11.3959326 1.93585505 11.36537107 -5 8 C-6.22290039 5.8918457 -6.22290039 5.8918457 -7 4 C-3.375 0 -3.375 0 0 0 Z " fill="#5985A2" transform="translate(32,106)"/>
<path d="M0 0 C0 0.99 0 1.98 0 3 C-16.44476472 17.69722841 -47.90672701 14.88839698 -68.24121094 13.83154297 C-71.41402102 13.62615379 -74.58141534 13.3873333 -77.75 13.125 C-79.22315674 13.00741333 -79.22315674 13.00741333 -80.72607422 12.88745117 C-81.63631348 12.80342041 -82.54655273 12.71938965 -83.484375 12.6328125 C-84.68658691 12.52283936 -84.68658691 12.52283936 -85.91308594 12.41064453 C-88 12 -88 12 -91 10 C-90.39295227 10.00666183 -89.78590454 10.01332367 -89.16046143 10.02018738 C-82.73430789 10.0875309 -76.30825744 10.13220217 -69.88183594 10.16479492 C-67.49637773 10.17970804 -65.11094608 10.20004569 -62.72558594 10.22631836 C-30.15038908 10.95704574 -30.15038908 10.95704574 0 0 Z " fill="#648DA8" transform="translate(115,144)"/>
<path d="M0 0 C0.66 0.99 1.32 1.98 2 3 C1.38511719 3.12117188 0.77023438 3.24234375 0.13671875 3.3671875 C-0.67152344 3.53476563 -1.47976562 3.70234375 -2.3125 3.875 C-3.11300781 4.03742188 -3.91351563 4.19984375 -4.73828125 4.3671875 C-7.25301118 4.94478999 -7.25301118 4.94478999 -10 7 C-10.33338596 10.54187831 -10.33338596 10.54187831 -10 14 C-8.8963377 15.32890384 -8.8963377 15.32890384 -6.125 15.125 C-2.96787587 15.14376866 -2.96787587 15.14376866 0 14 C0.33 14.66 0.66 15.32 1 16 C-0.47169811 19.73584906 -0.47169811 19.73584906 -3 21 C-7.71707604 21.50927724 -11.72792821 21.59709492 -16.0625 19.5625 C-18.83898253 15.89037795 -19.27678744 12.55071118 -19 8 C-17.77362364 4.86592708 -16.46911355 3.42513416 -14 1.1875 C-9.49696362 -0.5949519 -4.77955153 -0.78504711 0 0 Z " fill="#5884A1" transform="translate(231,122)"/>
<path d="M0 0 C0.85722656 -0.01675781 1.71445313 -0.03351563 2.59765625 -0.05078125 C4.9375 0.3125 4.9375 0.3125 7.9375 3.3125 C3.9775 4.3025 0.0175 5.2925 -4.0625 6.3125 C-4.73923447 9.71570934 -4.73923447 9.71570934 -5.0625 13.3125 C-3.18605493 15.62936366 -3.18605493 15.62936366 -0.125 15.5 C2.97843079 15.44200232 2.97843079 15.44200232 5.9375 14.3125 C5.9375 18.3125 5.9375 18.3125 4.9375 20.3125 C0.57155003 21.76781666 -3.51000425 22.0591673 -8.0625 21.3125 C-10.90064034 19.61087161 -11.4114452 18.39446897 -13.0625 15.3125 C-13.96116752 11.15919878 -13.55696911 8.12484211 -11.3125 4.4375 C-7.71178189 1.03682179 -4.94389857 0.02237058 0 0 Z " fill="#5582A0" transform="translate(158.0625,121.6875)"/>
<path d="M0 0 C1.85625 0.0309375 1.85625 0.0309375 3.75 0.0625 C3.75 0.3925 3.75 0.7225 3.75 1.0625 C2.81027344 1.36994141 2.81027344 1.36994141 1.8515625 1.68359375 C1.03429687 1.95300781 0.21703125 2.22242188 -0.625 2.5 C-1.43710937 2.76683594 -2.24921875 3.03367188 -3.0859375 3.30859375 C-5.26031799 4.01429729 -5.26031799 4.01429729 -7.25 5.0625 C-7.25 5.7225 -7.25 6.3825 -7.25 7.0625 C1.45349911 9.93954025 9.6511942 10.70640639 18.75 11.0625 C18.75 11.3925 18.75 11.7225 18.75 12.0625 C16.76432292 12.2578125 14.77864583 12.453125 12.79296875 12.6484375 C10.45011858 12.98915391 10.45011858 12.98915391 7.75 15.0625 C-0.84026075 15.18478129 -10.93790257 14.93723162 -18.25 10.0625 C-18.01953125 8.23046875 -18.01953125 8.23046875 -17.25 6.0625 C-15.32421875 4.61328125 -15.32421875 4.61328125 -12.9375 3.375 C-11.76767578 2.75044922 -11.76767578 2.75044922 -10.57421875 2.11328125 C-6.96502291 0.48156078 -3.94789314 -0.06579822 0 0 Z " fill="#5885A2" transform="translate(18.25,133.9375)"/>
<path d="M0 0 C11.82511526 -0.86105208 11.82511526 -0.86105208 15.6875 2.375 C18.37261588 5.42296937 18.92566498 6.2269158 19.3125 10.25 C18.88152072 15.42175132 17.10470541 18.13277241 13.234375 21.56640625 C8.98659325 24.90275452 4.21630696 28.41099893 -1 30 C-3.234375 29.59765625 -3.234375 29.59765625 -5 29 C-4.25234375 28.55269531 -3.5046875 28.10539062 -2.734375 27.64453125 C-1.74953125 27.03996094 -0.7646875 26.43539062 0.25 25.8125 C1.22453125 25.22082031 2.1990625 24.62914063 3.203125 24.01953125 C7.04974139 21.24201634 10.51573624 17.58772436 12 13 C11.80748318 8.35783552 11.80748318 8.35783552 9.7421875 4.328125 C7.54665493 2.65440062 6.04627887 2.51059992 3.3125 2.3125 C2.50425781 2.24675781 1.69601563 2.18101563 0.86328125 2.11328125 C0.24839844 2.07589844 -0.36648437 2.03851563 -1 2 C-0.67 1.34 -0.34 0.68 0 0 Z " fill="#5884A2" transform="translate(97,86)"/>
<path d="M0 0 C0.90105469 0.01804687 1.80210937 0.03609375 2.73046875 0.0546875 C3.41753906 0.07789062 4.10460937 0.10109375 4.8125 0.125 C5.10030552 3.17573847 5.23856559 6.08321528 4.8125 9.125 C2.12870612 11.72985876 0.37004977 12.05809403 -3.3125 12.5 C-6.1875 12.125 -6.1875 12.125 -8.125 11.0625 C-9.85415678 7.90933176 -9.0465699 5.49991745 -8.1875 2.125 C-4.87379 -0.08414 -3.8428979 -0.09981553 0 0 Z " fill="#F7F9FA" transform="translate(161.1875,125.875)"/>
<path d="M0 0 C0.28780552 3.05073847 0.42606559 5.95821528 0 9 C-2.71756344 11.6376351 -4.44654343 11.94573955 -8.1875 12.3125 C-11 12 -11 12 -13 10 C-13.66574776 3.8973122 -13.66574776 3.8973122 -11.5625 1.0625 C-7.74098146 -0.52203208 -4.08137509 -0.23546395 0 0 Z " fill="#FBFCFC" transform="translate(233,126)"/>
<path d="M0 0 C0.33 0 0.66 0 1 0 C1 5.61 1 11.22 1 17 C6.61 17 12.22 17 18 17 C18 18.98 18 20.96 18 23 C9.75 23 1.5 23 -7 23 C-6.67 22.34 -6.34 21.68 -6 21 C1.26 21 8.52 21 16 21 C16 20.34 16 19.68 16 19 C14.39318359 19.01740234 14.39318359 19.01740234 12.75390625 19.03515625 C11.35677257 19.04453299 9.95963701 19.05363331 8.5625 19.0625 C7.85544922 19.07087891 7.14839844 19.07925781 6.41992188 19.08789062 C4.61306441 19.09653588 2.80612397 19.05220011 1 19 C0 18 0 18 -0.11352539 16.23413086 C-0.10567017 15.11083374 -0.10567017 15.11083374 -0.09765625 13.96484375 C-0.09443359 13.15595703 -0.09121094 12.34707031 -0.08789062 11.51367188 C-0.07951172 10.66353516 -0.07113281 9.81339844 -0.0625 8.9375 C-0.05798828 8.08349609 -0.05347656 7.22949219 -0.04882812 6.34960938 C-0.03700373 4.23304337 -0.01906769 2.11651315 0 0 Z " fill="#F8A23A" transform="translate(294,120)"/>
<path d="M0 0 C-10.11404091 6.72417005 -21.68641915 5.03425382 -33 3 C-33 2.67 -33 2.34 -33 2 C-28.94414984 1.54541251 -24.88739586 1.10012453 -20.82958984 0.66333008 C-19.45008011 0.5135242 -18.07084082 0.36120537 -16.69189453 0.20629883 C-14.70678933 -0.01625623 -12.7205865 -0.22895079 -10.734375 -0.44140625 C-9.54038086 -0.57232666 -8.34638672 -0.70324707 -7.11621094 -0.83813477 C-4.39876821 -0.9792868 -2.54819401 -0.86318693 0 0 Z " fill="#658DA8" transform="translate(90,94)"/>
<path d="M0 0 C0.66 0.33 1.32 0.66 2 1 C2 10.57 2 20.14 2 30 C0.02 30 -1.96 30 -4 30 C-3.67 28.68 -3.34 27.36 -3 26 C-3 26.66 -3 27.32 -3 28 C-2.01 28 -1.02 28 0 28 C0 18.76 0 9.52 0 0 Z " fill="#6F95AE" transform="translate(239,113)"/>
<path d="M0 0 C0.66 0.33 1.32 0.66 2 1 C1.84765625 3.328125 1.84765625 3.328125 1 6 C-4.84617171 9.7041344 -12.07592841 12 -19 12 C-21.21875 10.5 -21.21875 10.5 -23 9 C-22.40461426 8.88406494 -21.80922852 8.76812988 -21.19580078 8.64868164 C-18.50493604 8.12296202 -15.8149682 7.59278705 -13.125 7.0625 C-12.18785156 6.88009766 -11.25070313 6.69769531 -10.28515625 6.50976562 C-9.38925781 6.33251953 -8.49335937 6.15527344 -7.5703125 5.97265625 C-6.32918701 5.72914429 -6.32918701 5.72914429 -5.06298828 5.48071289 C-2.95281634 5.07331058 -2.95281634 5.07331058 -1 4 C-0.34786708 1.97536745 -0.34786708 1.97536745 0 0 Z " fill="#638CA8" transform="translate(107,135)"/>
<path d="M0 0 C-1.62445619 0.98006859 -3.24958261 1.95902636 -4.875 2.9375 C-5.77992187 3.48277344 -6.68484375 4.02804688 -7.6171875 4.58984375 C-9.05201636 5.43898017 -10.50875448 6.25437724 -12 7 C-12.33 5.68 -12.66 4.36 -13 3 C-11.40084119 2.30093058 -9.79544955 1.61610532 -8.1875 0.9375 C-7.29417969 0.55464844 -6.40085937 0.17179687 -5.48046875 -0.22265625 C-3 -1 -3 -1 0 0 Z " fill="#F7A247" transform="translate(92,34)"/>
<path d="M0 0 C0.90105469 0.00902344 1.80210938 0.01804688 2.73046875 0.02734375 C3.41753906 0.03894531 4.10460937 0.05054688 4.8125 0.0625 C4.8125 0.3925 4.8125 0.7225 4.8125 1.0625 C1.83398438 1.35546875 1.83398438 1.35546875 -1.14453125 1.6484375 C-3.48738142 1.98915391 -3.48738142 1.98915391 -6.1875 4.0625 C-8.51949388 4.14155064 -10.85582622 4.15048769 -13.1875 4.0625 C-13.1875 3.7325 -13.1875 3.4025 -13.1875 3.0625 C-11.5375 3.0625 -9.8875 3.0625 -8.1875 3.0625 C-8.1875 2.4025 -8.1875 1.7425 -8.1875 1.0625 C-5.17259443 0.05753148 -3.14568308 -0.04085303 0 0 Z " fill="#7D9FB5" transform="translate(32.1875,144.9375)"/>
<path d="M0 0 C1.98 0 3.96 0 6 0 C6 1.32 6 2.64 6 4 C4.02 4 2.04 4 0 4 C0 2.68 0 1.36 0 0 Z " fill="#C3D1DC" transform="translate(313,93)"/>
<path d="M0 0 C0 0.33 0 0.66 0 1 C-4.95 2.485 -4.95 2.485 -10 4 C-10.66 3.01 -11.32 2.02 -12 1 C-8.0186217 -0.3271261 -4.14954773 -0.06915913 0 0 Z " fill="#648DA8" transform="translate(22,134)"/>
<path d="M0 0 C-4.75 3 -4.75 3 -7 3 C-7 2.34 -7 1.68 -7 1 C-8.32 0.67 -9.64 0.34 -11 0 C-3.57142857 -1.28571429 -3.57142857 -1.28571429 0 0 Z " fill="#7397B0" transform="translate(90,94)"/>
</svg>
