<?xml version="1.0" encoding="UTF-8"?>
<svg version="1.1" xmlns="http://www.w3.org/2000/svg" width="373" height="135">
<path d="M0 0 C123.09 0 246.18 0 373 0 C373 44.55 373 89.1 373 135 C249.91 135 126.82 135 0 135 C0 90.45 0 45.9 0 0 Z " fill="#FEFDFD" transform="translate(0,0)"/>
<path d="M0 0 C13.2 0 26.4 0 40 0 C40 2.64 40 5.28 40 8 C41.10859375 7.95359375 42.2171875 7.9071875 43.359375 7.859375 C44.82288968 7.82184898 46.28643356 7.78544971 47.75 7.75 C48.84441406 7.69972656 48.84441406 7.69972656 49.9609375 7.6484375 C53.19351142 7.58966343 55.46630497 7.65196813 58.21081543 9.44171143 C60.89583571 13.28092221 60.55929375 16.74090477 60.51757812 21.32324219 C60.5245874 22.26682587 60.53159668 23.21040955 60.53881836 24.18258667 C60.55643323 27.30431494 60.54475918 30.42513735 60.53125 33.546875 C60.5339448 35.71917901 60.53782713 37.89148185 60.54284668 40.06378174 C60.54874723 44.62011176 60.54016398 49.17612829 60.52148438 53.73242188 C60.49874904 59.56098925 60.51178038 65.38881767 60.53577423 71.21735764 C60.55026337 75.70592767 60.54561094 80.19432407 60.53526306 84.68289948 C60.53260158 86.83100726 60.53584511 88.97913101 60.54518127 91.12722015 C60.55539182 94.13829439 60.53977989 97.14819253 60.51757812 100.15917969 C60.52567505 101.04050568 60.53377197 101.92183167 60.54211426 102.8298645 C60.44766404 109.77844866 58.62986077 115.05718075 53.96484375 120.27734375 C52.96130859 121.09912109 52.96130859 121.09912109 51.9375 121.9375 C51.26589844 122.50339844 50.59429687 123.06929688 49.90234375 123.65234375 C43.97655208 127.85028652 34.00056352 126.74569823 27 126 C21.81067368 124.45650807 18.91988923 122.07694349 15.4375 118 C13.97768776 114.95343532 13.35620524 113.31094447 14 110 C17.55329599 107.63113601 18.20958424 107.95912142 22.25 108.625 C27.96228715 109.26810518 30.49315857 108.547939 35 105 C38.32040332 100.00262531 37.57037861 93.73230506 37 88 C35.26339347 84.1260316 33.81803132 82.5985595 30.4375 80.125 C24.11851562 78.05696875 17.6830203 77.87320468 11.5625 80.6875 C5.70281093 84.10764505 3.39277524 88.89842313 1 95 C0.67 95 0.34 95 0 95 C0 63.65 0 32.3 0 0 Z " fill="#FDFEFD" transform="translate(0,0)"/>
<path d="M0 0 C21.45 0 42.9 0 65 0 C65 2.64 65 5.28 65 8 C60.38 8.33 55.76 8.66 51 9 C49.72379031 12.82862907 49.84739741 16.43780683 49.84228516 20.42773438 C49.83720444 21.28832458 49.83212372 22.14891479 49.82688904 23.0355835 C49.81618342 24.90658041 49.80756399 26.77759014 49.80076981 28.64860535 C49.78896781 31.61757038 49.76950819 34.58639079 49.74765015 37.55529785 C49.6861017 45.99775312 49.63213526 54.44019573 49.59863281 62.8828125 C49.57758663 68.04760678 49.5421972 73.21214064 49.49787521 78.37678528 C49.48378593 80.33816951 49.47500889 82.29959986 49.47182083 84.2610321 C49.44437602 99.53917591 49.16108333 111.75409182 37.890625 123.12890625 C26.4886533 133.80351079 14.81462377 135.34111391 -0.44921875 135.1953125 C-1.58784866 135.1924826 -2.72647858 135.18965271 -3.89961243 135.18673706 C-7.49568707 135.17564393 -11.09150209 135.15055997 -14.6875 135.125 C-17.1425745 135.11495615 -19.59765295 135.10583277 -22.05273438 135.09765625 C-28.03524312 135.07574032 -34.017603 135.04237281 -40 135 C-40.12452146 129.48657268 -40.21476997 123.97398153 -40.2746582 118.45947266 C-40.29964898 116.58758263 -40.33365373 114.71578865 -40.37719727 112.84423828 C-40.86291674 91.41543786 -40.86291674 91.41543786 -33.52075195 83.38134766 C-28.18431801 78.53409396 -22.77269121 77.4853169 -15.79296875 77.6171875 C-11.43943038 78.21389626 -8.16642788 79.97546393 -5 83 C-0.85368462 88.57310751 -1.25222488 94.32043576 -2 101 C-3.73645011 104.87361947 -5.22212923 106.41185381 -8.5625 108.9375 C-12.85831777 110.26529822 -16.20026933 109.84094608 -20.609375 109.2265625 C-23.01304541 108.78585332 -23.01304541 108.78585332 -25 110 C-24.75582562 114.15096454 -24.43455006 116.45370849 -21.8125 119.75 C-15.93029819 124.45576145 -11.31279632 125.48360589 -4 125.375 C-3.21882813 125.38660156 -2.43765625 125.39820312 -1.6328125 125.41015625 C4.16021648 125.38089853 8.39048961 124.35302005 12.828125 120.3515625 C13.29734375 119.78179687 13.7665625 119.21203125 14.25 118.625 C14.72953125 118.06039062 15.2090625 117.49578125 15.703125 116.9140625 C19.30690149 111.59523576 19.29188839 106.69936309 19.2746582 100.48388672 C19.27976913 99.53212555 19.28488007 98.58036438 19.29014587 97.59976196 C19.30402552 94.45967288 19.30308685 91.31980357 19.30078125 88.1796875 C19.30466797 85.99683551 19.30900259 83.81398428 19.31376648 81.63113403 C19.32122438 77.05989121 19.3209397 72.48872563 19.31567383 67.91748047 C19.30986803 62.05158918 19.32683918 56.1860125 19.3500185 50.32017326 C19.36472548 45.81468855 19.36563189 41.30928025 19.36250877 36.80377579 C19.36302313 34.6403656 19.36828216 32.47695126 19.37832069 30.3135643 C19.39061412 27.294607 19.38393701 24.27627107 19.37231445 21.25732422 C19.37995819 20.3595929 19.38760193 19.46186157 19.39547729 18.53692627 C19.38495583 17.30469833 19.38495583 17.30469833 19.3742218 16.0475769 C19.37447341 14.97743756 19.37447341 14.97743756 19.37473011 13.88567924 C18.87787109 11.38543515 18.02771638 10.51339796 16 9 C13.20748417 8.62325482 10.61220799 8.39808059 7.8125 8.3125 C7.06291016 8.27833984 6.31332031 8.24417969 5.54101562 8.20898438 C3.69453162 8.12665706 1.84729006 8.06164719 0 8 C0 5.36 0 2.72 0 0 Z " fill="#539B0E" transform="translate(40,0)"/>
<path d="M0 0 C19.47 0 38.94 0 59 0 C59 2.31 59 4.62 59 7 C58.01257813 7.04898437 57.02515625 7.09796875 56.0078125 7.1484375 C54.72648437 7.22320313 53.44515625 7.29796875 52.125 7.375 C50.21074219 7.47941406 50.21074219 7.47941406 48.2578125 7.5859375 C44.91938301 7.67241106 44.91938301 7.67241106 43 10 C42.79655839 12.42163984 42.71674959 14.72942712 42.7253418 17.15258789 C42.72023087 17.88944824 42.71511993 18.62630859 42.70985413 19.38549805 C42.69591142 21.83129929 42.69691964 24.27681988 42.69921875 26.72265625 C42.69533177 28.42459722 42.69099709 30.12653721 42.68623352 31.82847595 C42.67875938 35.4038303 42.67906929 38.97908597 42.68432617 42.55444336 C42.6900946 47.11838183 42.6732597 51.681911 42.6499815 56.2457819 C42.63518064 59.76586744 42.63438154 63.28585618 42.63749123 66.80596733 C42.63698028 68.48714439 42.63178536 70.16832719 42.62167931 71.84947395 C42.39198125 87.91063897 42.39198125 87.91063897 50.2421875 101.4921875 C57.90104827 108.06178807 67.23396382 108.01177775 76.87939453 107.27490234 C83.07012801 106.47237346 88.66581173 103.82863593 92.9375 99.25 C98.77449651 90.05230854 99.5874115 82.22453905 99.49609375 71.4921875 C99.49624903 69.99724253 99.49774281 68.50229716 99.50050354 67.00735474 C99.50188109 63.88899732 99.48943572 60.77110347 99.46655273 57.65283203 C99.43812002 53.67062079 99.44092726 49.68917566 99.45364285 45.70690727 C99.46062001 42.62522925 99.45278845 39.54372614 99.44038582 36.46207047 C99.43589455 34.99416908 99.43551403 33.52624877 99.43945122 32.05834579 C99.442385 30.00319066 99.42575782 27.94906714 99.40405273 25.89404297 C99.39594826 24.14605911 99.39594826 24.14605911 99.38768005 22.36276245 C98.85621195 17.75277293 97.53447643 13.7115314 94.375 10.1875 C90.76262474 8.38131237 86.95473369 7.71827428 83 7 C83 4.69 83 2.38 83 0 C97.85 0 112.7 0 128 0 C128 2.31 128 4.62 128 7 C127.18015625 7.14695312 126.3603125 7.29390625 125.515625 7.4453125 C118.47202939 8.59099161 118.47202939 8.59099161 113.3125 13 C111.36338953 17.45510964 110.87592453 20.62621467 110.87402344 25.46826172 C110.8721553 26.12081436 110.87028717 26.773367 110.86836243 27.44569397 C110.86436048 28.86324545 110.86228378 30.28080337 110.86190033 31.69836044 C110.8584698 34.72949918 110.83707575 37.76042634 110.81666946 40.79149055 C110.77879212 46.42905408 110.74736794 52.06639614 110.74951172 57.70410156 C110.75030627 61.63067618 110.72661569 65.55648017 110.6876297 69.48285294 C110.67727287 70.96809535 110.67556832 72.45342788 110.68328094 73.93868637 C110.74196702 86.50655672 108.86088382 98.0609621 99.73828125 107.359375 C99.16464844 107.90078125 98.59101563 108.4421875 98 109 C97.0925 109.9075 96.185 110.815 95.25 111.75 C81.87418056 121.01018269 63.13509673 120.7374041 47.60791016 118.68359375 C43.8559611 117.91472879 40.45215383 116.63494863 37 115 C36.16984375 114.63777344 35.3396875 114.27554688 34.484375 113.90234375 C27.61013908 110.54489409 22.30087893 105.32080975 19.125 98.3125 C17.28295046 92.88868748 16.84380361 87.91538862 16.81054688 82.2121582 C16.79810692 81.06008377 16.79810692 81.06008377 16.78541565 79.88473511 C16.76807249 78.22384464 16.75289025 76.56293049 16.73963928 74.90200233 C16.7185478 72.27560285 16.69153346 69.6493231 16.66296387 67.022995 C16.59326394 60.50448598 16.53364807 53.98589202 16.47393799 47.46728516 C16.42305103 41.95061712 16.36825956 36.43401559 16.30812073 30.91744041 C16.28150926 28.32602779 16.26072256 25.73460901 16.2401123 23.1431427 C16.22351525 21.56197814 16.20664394 19.98081642 16.18945312 18.3996582 C16.18526871 17.67599564 16.18108429 16.95233307 16.17677307 16.20674133 C16.18212885 12.47847224 16.18212885 12.47847224 15 9 C12.45975996 8.52425562 9.99948536 8.15992453 7.4375 7.875 C6.72658203 7.78863281 6.01566406 7.70226562 5.28320312 7.61328125 C3.52310688 7.40065217 1.76165836 7.19927303 0 7 C0 4.69 0 2.38 0 0 Z " fill="#C61515" transform="translate(97,15)"/>
<path d="M0 0 C0.99 3.63 1.98 7.26 3 11 C3.70125 10.0925 4.4025 9.185 5.125 8.25 C8.50056931 4.20505435 12.61012836 0.63410255 18 0 C24.10717569 -0.41404581 29.50404358 0.10567975 35 3 C40.20123145 9.0014209 41.28997882 15.4761988 41.37890625 23.20703125 C41.39590073 23.97303146 41.4128952 24.73903168 41.43040466 25.52824402 C41.48321193 27.95624736 41.52371906 30.38423536 41.5625 32.8125 C41.60642353 35.25853656 41.65303094 37.70444165 41.70530701 40.15031433 C41.73728687 41.66820824 41.76416995 43.18621954 41.78553772 44.70429993 C41.54912634 48.1427418 41.54912634 48.1427418 43 51 C44.34747084 51.23075082 45.70377565 51.41153063 47.0625 51.5625 C48.361875 51.706875 49.66125 51.85125 51 52 C50.67 53.65 50.34 55.3 50 57 C40.43 57 30.86 57 21 57 C21 55.35 21 53.7 21 52 C23.05078125 51.77213542 25.1015625 51.54427083 27.15234375 51.31640625 C29.01140229 51.18113386 29.01140229 51.18113386 30 50 C30.13823201 47.47655079 30.21312614 44.98243582 30.23828125 42.45703125 C30.246353 41.69581467 30.25442474 40.93459808 30.26274109 40.15031433 C30.27660085 38.53374521 30.28731451 36.91714658 30.29516602 35.30053711 C30.31231011 32.83975639 30.35616777 30.38034338 30.40039062 27.91992188 C30.41052348 26.34896821 30.41903773 24.77800312 30.42578125 23.20703125 C30.44328934 22.47555374 30.46079742 21.74407623 30.47883606 20.99043274 C30.4572368 15.84419545 29.22140863 12.97220377 26 9 C22.57874433 6.40456466 19.17543415 6.57537958 15 7 C9.90326883 8.78065712 7.51512103 11.26295709 4.86042786 16.02238464 C3.46368799 19.23266449 3.53523858 22.17984847 3.57421875 25.6484375 C3.57915092 26.6954332 3.57915092 26.6954332 3.58418274 27.76358032 C3.59452873 29.2241564 3.61434996 30.68469395 3.64331055 32.14501953 C3.68779479 34.38987606 3.70481506 36.63366135 3.71679688 38.87890625 C3.12454336 45.44029938 3.12454336 45.44029938 5 51 C7.32817964 51.36760731 9.6618385 51.70241581 12 52 C12 53.65 12 55.3 12 57 C2.43 57 -7.14 57 -17 57 C-17 55.35 -17 53.7 -17 52 C-12.545 51.505 -12.545 51.505 -8 51 C-7.95060299 45.07349874 -7.91428183 39.14711703 -7.89013672 33.22045898 C-7.88007227 31.20383619 -7.86641953 29.18722801 -7.84912109 27.1706543 C-7.82489231 24.27388911 -7.81352141 21.37731669 -7.8046875 18.48046875 C-7.79436493 17.57725388 -7.78404236 16.674039 -7.77340698 15.74345398 C-7.77318039 14.4824865 -7.77318039 14.4824865 -7.77294922 13.19604492 C-7.768508 12.45658127 -7.76406677 11.71711761 -7.75949097 10.95524597 C-7.89124013 8.67675749 -7.89124013 8.67675749 -10 6 C-13.56769552 5.26393501 -13.56769552 5.26393501 -17 5 C-17.33 3.68 -17.66 2.36 -18 1 C-11.95210034 -0.07518216 -6.14252407 -0.07583363 0 0 Z " fill="#C61415" transform="translate(233,76)"/>
<path d="M0 0 C4.44512253 2.30804439 6.87012434 4.49042232 9 9 C9.2752583 11.77153525 9.39800638 14.30856824 9.36328125 17.07421875 C9.36377975 17.83926224 9.36427826 18.60430573 9.36479187 19.39253235 C9.36245993 21.00203055 9.35278351 22.611533 9.33618164 24.22094727 C9.31247653 26.68994492 9.31564084 29.15786972 9.32226562 31.62695312 C9.3166921 33.19271479 9.30958426 34.75847191 9.30078125 36.32421875 C9.30214836 37.4335804 9.30214836 37.4335804 9.30354309 38.56535339 C9.23107399 43.76892601 9.23107399 43.76892601 7 46 C4.31160615 46.26991906 1.70858064 46.08737357 -1 46 C-0.67 48.31 -0.34 50.62 0 53 C-3.63 53 -7.26 53 -11 53 C-10.67 50.69 -10.34 48.38 -10 46 C-11.11375 46.04125 -12.2275 46.0825 -13.375 46.125 C-17 46 -17 46 -19 44 C-19.42513998 39.53174303 -19.3715881 35.04797927 -19.37060547 30.56176758 C-19.37495036 28.33790886 -19.41117636 26.11608165 -19.44921875 23.89257812 C-19.45509282 22.46615258 -19.45905826 21.03971765 -19.4609375 19.61328125 C-19.46915527 18.32204346 -19.47737305 17.03080566 -19.48583984 15.70043945 C-18.75605143 10.14194551 -16.59503957 6.47832936 -12.4375 2.625 C-8.28110563 -0.14592958 -4.91952986 -0.41690931 0 0 Z " fill="#FEFDFD" transform="translate(255,82)"/>
<path d="M0 0 C0.99 0 1.98 0 3 0 C3 7.26 3 14.52 3 22 C8.94 22 14.88 22 21 22 C21 23.65 21 25.3 21 27 C15.06 27 9.12 27 3 27 C3.11992076 32.62351839 3.24258353 38.24683633 3.37231445 43.87011719 C3.41560857 45.78284146 3.45728756 47.695603 3.49731445 49.60839844 C3.5551508 52.35883818 3.61880676 55.10909128 3.68359375 57.859375 C3.70030624 58.71368103 3.71701874 59.56798706 3.73423767 60.44818115 C3.75418289 61.24870911 3.77412811 62.04923706 3.79467773 62.87402344 C3.81799416 63.92659332 3.81799416 63.92659332 3.84178162 65.00042725 C4.00726836 67.09185797 4.43584497 68.98256308 5 71 C6.76949095 71.10815225 8.54087487 71.18566083 10.3125 71.25 C11.29863281 71.29640625 12.28476562 71.3428125 13.30078125 71.390625 C16.0737931 71.25749141 16.0737931 71.25749141 17.75 69.3125 C19.09809117 66.81853134 19.93282119 64.48121856 20.6875 61.75 C20.93886719 60.85796875 21.19023437 59.9659375 21.44921875 59.046875 C21.63097656 58.37140625 21.81273437 57.6959375 22 57 C23.32 57 24.64 57 26 57 C25.40804794 63.95543666 23.59914527 70.40085473 18.5625 75.4375 C13.23161674 78.68803858 9.64910496 79.39183893 3.44140625 78.60546875 C-0.52250114 77.62241972 -2.253054 76.0216406 -5 73 C-7.56353773 68.33738112 -7.25661597 63.71575568 -7.1953125 58.54296875 C-7.1924826 57.64000565 -7.18965271 56.73704254 -7.18673706 55.80671692 C-7.17557607 52.93350766 -7.15047897 50.06061445 -7.125 47.1875 C-7.11496493 45.23503056 -7.10584 43.28255621 -7.09765625 41.33007812 C-7.07565008 36.55326434 -7.04114831 31.77668569 -7 27 C-9.97 27 -12.94 27 -16 27 C-15.9375 24.6875 -15.9375 24.6875 -15 22 C-12.69631264 20.93347808 -10.35981813 19.93578995 -8 19 C-4.78477616 15.68807769 -3.66082164 11.55974106 -2.3125 7.25 C-2.08755859 6.55261719 -1.86261719 5.85523438 -1.63085938 5.13671875 C-1.08036634 3.42667656 -0.53923763 1.71362471 0 0 Z " fill="#C51011" transform="translate(345,55)"/>
<path d="M0 0 C7.26 0 14.52 0 22 0 C22.33 16.5 22.66 33 23 50 C25.97 50.33 28.94 50.66 32 51 C32 52.65 32 54.3 32 56 C21.77 56 11.54 56 1 56 C1 54.35 1 52.7 1 51 C1.63808594 50.93941406 2.27617187 50.87882812 2.93359375 50.81640625 C3.75988281 50.73261719 4.58617187 50.64882812 5.4375 50.5625 C6.26121094 50.48128906 7.08492188 50.40007812 7.93359375 50.31640625 C9.98662025 50.21069185 9.98662025 50.21069185 11 49 C11.09268999 47.64905018 11.11747326 46.29332909 11.11352539 44.93920898 C11.11344986 44.07839218 11.11337433 43.21757538 11.11329651 42.33067322 C11.10555458 40.92755638 11.10555458 40.92755638 11.09765625 39.49609375 C11.09553383 38.06657127 11.09553383 38.06657127 11.09336853 36.60816956 C11.08775152 33.55124835 11.07519616 30.49439923 11.0625 27.4375 C11.05748719 25.37044376 11.05292391 23.30338638 11.04882812 21.23632812 C11.03777656 16.15752412 11.02050055 11.0787743 11 6 C7.37 5.34 3.74 4.68 0 4 C0 2.68 0 1.36 0 0 Z " fill="#C71516" transform="translate(290,77)"/>
<path d="M0 0 C0.33 0 0.66 0 1 0 C1.17015625 0.72445312 1.3403125 1.44890625 1.515625 2.1953125 C4.08718256 12.45418573 8.46687523 18.70698234 17 25 C22.15510468 27.86316347 27.17441363 30.00462103 33 31 C33 31.33 33 31.66 33 32 C22.11 32 11.22 32 0 32 C0 21.44 0 10.88 0 0 Z " fill="#FAFCF8" transform="translate(0,103)"/>
<path d="M0 0 C2.9375 1 2.9375 1 4.875 2.6875 C6.35075591 5.89943934 6.00194212 7.66474802 4.9375 11 C3.1875 12.9375 3.1875 12.9375 0.9375 14 C-1.88150839 13.8624874 -3.52019347 13.35530428 -5.875 11.8125 C-7.67222017 9.06937448 -7.52024125 7.20418874 -7.0625 4 C-4.88642935 0.73589403 -3.96077619 0 0 0 Z " fill="#C71919" transform="translate(306.0625,43)"/>
<path d="M0 0 C14.85 0 29.7 0 45 0 C45 2.31 45 4.62 45 7 C42.03 7 39.06 7 36 7 C36 6.67 36 6.34 36 6 C38.31 6 40.62 6 43 6 C43 4.68 43 3.36 43 2 C29.14 2 15.28 2 1 2 C1 3.32 1 4.64 1 6 C2.98 6 4.96 6 7 6 C7 6.33 7 6.66 7 7 C4.69 7 2.38 7 0 7 C0 4.69 0 2.38 0 0 Z " fill="#CE3738" transform="translate(180,15)"/>
<path d="M0 0 C1.32 0 2.64 0 4 0 C3.43533141 6.63485594 1.80372246 13.42992108 -3.25 18.0625 C-4.11625 18.5265625 -4.11625 18.5265625 -5 19 C-5.66 18.34 -6.32 17.68 -7 17 C-6.66226562 16.35933594 -6.32453125 15.71867187 -5.9765625 15.05859375 C-3.41356739 10.08816104 -1.30136816 5.44208502 0 0 Z " fill="#C81D1E" transform="translate(367,112)"/>
<path d="M0 0 C0.66 0.33 1.32 0.66 2 1 C1.67 1.33 1.34 1.66 1 2 C1.66 2.66 2.32 3.32 3 4 C1.02 4.99 1.02 4.99 -1 6 C-1.99 5.34 -2.98 4.68 -4 4 C-2.68 2.68 -1.36 1.36 0 0 Z " fill="#CA2324" transform="translate(241,81)"/>
</svg>
