<?xml version="1.0" encoding="UTF-8"?>
<svg version="1.1" xmlns="http://www.w3.org/2000/svg" width="212" height="237">
<path d="M0 0 C69.96 0 139.92 0 212 0 C212 78.21 212 156.42 212 237 C142.04 237 72.08 237 0 237 C0 158.79 0 80.58 0 0 Z " fill="#FDFDFD" transform="translate(0,0)"/>
<path d="M0 0 C1.02770508 0.00483398 1.02770508 0.00483398 2.07617188 0.00976562 C2.75744141 -0.00634766 3.43871094 -0.02246094 4.140625 -0.0390625 C6.99302096 -0.04185623 9.13103439 0.01282923 11.59960938 1.51757812 C13.00542916 3.95926512 12.93521296 5.71104451 12.82617188 8.50976562 C12.78556641 9.86134766 12.78556641 9.86134766 12.74414062 11.24023438 C12.70933594 11.92730469 12.67453125 12.614375 12.63867188 13.32226562 C15.96867143 14.35548683 19.14540735 15.17562184 22.63867188 15.32226562 C24.51101368 14.38014861 24.51101368 14.38014861 25.95117188 12.88476562 C27.28148437 11.61632812 27.28148437 11.61632812 28.63867188 10.32226562 C33.94874478 10.56441879 36.53450167 13.50723661 40.01367188 17.19726562 C41.63867188 19.32226562 41.63867188 19.32226562 42.45117188 22.50976562 C41.39872782 26.1528412 39.28597619 27.67496131 36.63867188 30.32226562 C36.65533516 32.82550894 36.65533516 32.82550894 37.63867188 35.32226562 C37.97811983 37.32123691 38.31288803 39.32102201 38.63867188 41.32226562 C39.79496094 41.28746094 39.79496094 41.28746094 40.97460938 41.25195312 C41.9775 41.23390625 42.98039062 41.21585938 44.01367188 41.19726562 C45.01140625 41.1740625 46.00914062 41.15085938 47.03710938 41.12695312 C49.63867188 41.32226562 49.63867188 41.32226562 51.63867188 43.32226562 C51.93945312 46.47460937 51.93945312 46.47460937 51.95117188 50.25976562 C51.96792969 51.50628906 51.9846875 52.7528125 52.00195312 54.03710938 C51.63867188 57.32226562 51.63867188 57.32226562 50.44335938 59.22070312 C48.07567622 60.66591233 46.20901571 60.83068486 43.45117188 61.00976562 C42.55011719 61.07550781 41.6490625 61.14125 40.72070312 61.20898438 C39.69009766 61.26505859 39.69009766 61.26505859 38.63867188 61.32226562 C37.64867187 64.29226562 36.65867187 67.26226562 35.63867188 70.32226562 C36.46367187 71.02351563 37.28867188 71.72476563 38.13867188 72.44726562 C40.63867188 75.32226562 40.63867188 75.32226562 41.05664062 78.19726562 C40.52802108 82.1495613 39.2888429 83.44754852 36.45117188 86.19726562 C35.67386719 86.9784375 34.8965625 87.75960937 34.09570312 88.56445312 C31.63867188 90.32226562 31.63867188 90.32226562 29.04492188 90.76757812 C26.18328873 90.23799017 25.24763341 89.46715292 23.32617188 87.32226562 C22.81441406 86.76539063 22.30265625 86.20851563 21.77539062 85.63476562 C21.40027344 85.20164062 21.02515625 84.76851563 20.63867188 84.32226562 C19.27742188 84.81726563 19.27742188 84.81726563 17.88867188 85.32226562 C14.63867188 86.32226562 14.63867188 86.32226562 10.63867188 86.32226562 C10.661875 87.00933594 10.68507812 87.69640625 10.70898438 88.40429688 C10.72703125 89.30535156 10.74507812 90.20640625 10.76367188 91.13476562 C10.786875 92.02808594 10.81007812 92.92140625 10.83398438 93.84179688 C10.63867188 96.32226562 10.63867188 96.32226562 8.63867188 99.32226562 C6.06056889 99.62697768 3.77467769 99.74084333 1.20117188 99.69726562 C0.51990234 99.70886719 -0.16136719 99.72046875 -0.86328125 99.73242188 C-3.71284269 99.71567617 -5.8601278 99.62877658 -8.32226562 98.12304688 C-9.72971341 95.68382345 -9.65781008 93.93196924 -9.54882812 91.13476562 C-9.52175781 90.23371094 -9.4946875 89.33265625 -9.46679688 88.40429688 C-9.43199219 87.71722656 -9.3971875 87.03015625 -9.36132812 86.32226562 C-12.69132768 85.28904442 -15.8680636 84.46890941 -19.36132812 84.32226562 C-21.23366993 85.26438264 -21.23366993 85.26438264 -22.67382812 86.75976562 C-24.00414062 88.02820313 -24.00414062 88.02820313 -25.36132812 89.32226562 C-29.87806536 89.18041768 -32.10988605 87.16795581 -35.23632812 84.07226562 C-36.038125 83.30398437 -36.83992188 82.53570312 -37.66601562 81.74414062 C-39.36132812 79.32226562 -39.36132812 79.32226562 -39.28320312 76.68164062 C-38.36132812 74.32226562 -38.36132812 74.32226562 -35.73632812 71.82226562 C-34.95257813 70.99726563 -34.16882813 70.17226562 -33.36132812 69.32226562 C-33.37799141 66.81902231 -33.37799141 66.81902231 -34.36132812 64.32226562 C-34.70077608 62.32329434 -35.03554428 60.32350924 -35.36132812 58.32226562 C-36.51761719 58.37447266 -36.51761719 58.37447266 -37.69726562 58.42773438 C-38.70015625 58.45480469 -39.70304687 58.481875 -40.73632812 58.50976562 C-42.23292969 58.56197266 -42.23292969 58.56197266 -43.75976562 58.61523438 C-44.61828125 58.51855469 -45.47679687 58.421875 -46.36132812 58.32226562 C-48.73316954 54.7645035 -48.65957206 53.04205955 -48.67382812 48.82226562 C-48.69058594 47.67757812 -48.70734375 46.53289062 -48.72460938 45.35351562 C-48.36132812 42.32226562 -48.36132812 42.32226562 -47.16601562 40.45898438 C-44.79917261 38.96818066 -42.95360505 38.81527062 -40.17382812 38.63476562 C-39.27277344 38.56902344 -38.37171875 38.50328125 -37.44335938 38.43554688 C-36.41275391 38.37947266 -36.41275391 38.37947266 -35.36132812 38.32226562 C-34.37132813 35.35226563 -33.38132812 32.38226563 -32.36132812 29.32226562 C-33.18632813 28.62101562 -34.01132813 27.91976562 -34.86132812 27.19726562 C-37.36132812 24.32226562 -37.36132812 24.32226562 -37.77929688 21.44726562 C-37.25067733 17.49496995 -36.01149915 16.19698273 -33.17382812 13.44726562 C-32.39652344 12.66609375 -31.61921875 11.88492188 -30.81835938 11.08007812 C-28.36132812 9.32226562 -28.36132812 9.32226562 -25.79882812 8.87695312 C-22.8882929 9.40868552 -21.68811624 10.30881799 -19.54882812 12.32226562 C-18.94425781 12.87914063 -18.3396875 13.43601562 -17.71679688 14.00976562 C-17.26949219 14.44289063 -16.8221875 14.87601563 -16.36132812 15.32226562 C-15.61882812 14.99226563 -14.87632813 14.66226563 -14.11132812 14.32226562 C-11.36132812 13.32226562 -11.36132812 13.32226562 -7.36132812 13.32226562 C-7.38453125 12.55140625 -7.40773437 11.78054687 -7.43164062 10.98632812 C-7.4496875 9.9834375 -7.46773437 8.98054688 -7.48632812 7.94726562 C-7.50953125 6.94953125 -7.53273437 5.95179687 -7.55664062 4.92382812 C-7.18014734 -0.09106243 -4.40231193 0.0475225 0 0 Z " fill="#020202" transform="translate(104.361328125,68.677734375)"/>
<path d="M0 0 C4.96039785 3.59628844 9.54686956 7.85705309 11.5 13.8125 C11.81774644 17.83728827 11.73807658 21.78503789 11.5 25.8125 C12.26699219 26.10898438 13.03398438 26.40546875 13.82421875 26.7109375 C16.57457175 27.84319961 18.98539389 29.23189045 21.5 30.8125 C20.84 34.4425 20.18 38.0725 19.5 41.8125 C18.68015625 41.28398438 17.8603125 40.75546875 17.015625 40.2109375 C15.93796875 39.54320312 14.8603125 38.87546875 13.75 38.1875 C12.14898437 37.17816406 12.14898437 37.17816406 10.515625 36.1484375 C7.68048253 34.50033626 7.68048253 34.50033626 5.328125 35.46875 C4.42320313 36.13390625 4.42320313 36.13390625 3.5 36.8125 C-3.0043393 40.86292948 -8.83892488 42.12294706 -16.5 40.8125 C-22.2988283 38.41961001 -26.6189372 34.51002277 -29.62109375 29.0078125 C-32.02653508 22.9995546 -32.11812165 17.66929228 -30 11.5625 C-24.52359846 -0.53122007 -12.23734676 -4.15195694 0 0 Z " fill="#040404" transform="translate(31.5,50.1875)"/>
<path d="M0 0 C0.74765625 0.42152344 1.4953125 0.84304687 2.265625 1.27734375 C3.74289063 2.09912109 3.74289063 2.09912109 5.25 2.9375 C6.22453125 3.48277344 7.1990625 4.02804688 8.203125 4.58984375 C11.46964389 6.2829235 11.46964389 6.2829235 15 7 C16.79179402 6.02068425 16.79179402 6.02068425 18.5 4.5625 C23.77081952 1.04206457 28.8563875 1.11525365 35 2 C41.68662369 3.97183796 45.49848046 7.948243 49.109375 13.796875 C51.26065094 19.11845232 50.78346297 25.93061025 49.3828125 31.41796875 C46.76800216 37.39963665 41.73953889 41.13023055 36 44 C28.81447095 44.71244622 22.59265756 44.94017602 16.6484375 40.48828125 C12.29679771 36.55943111 9.32521694 32.85304148 8 27 C7.98195312 26.12601563 7.96390625 25.25203125 7.9453125 24.3515625 C8.008528 18.72245614 8.008528 18.72245614 5.16015625 14.1796875 C2.71722186 12.61584861 2.71722186 12.61584861 -1 11 C-0.67 7.37 -0.34 3.74 0 0 Z " fill="#030303" transform="translate(161,144)"/>
<path d="M0 0 C0.495 5.445 0.495 5.445 1 11 C-0.98 11.8971875 -0.98 11.8971875 -3 12.8125 C-5.28477501 14.09656359 -5.28477501 14.09656359 -7 16 C-7.48395222 18.84155429 -7.30985686 21.35111056 -7.11328125 24.22265625 C-6.90143306 29.41658954 -8.3073307 33.1461241 -11.8046875 36.9765625 C-18.1167731 42.7646259 -23.35264244 44.59305789 -31.921875 44.4453125 C-37.58549977 43.62595562 -41.70934861 40.65333786 -45.40625 36.37109375 C-49.80041289 30.10941163 -49.77668767 23.38289626 -49 16 C-46.74499141 10.0303092 -42.6165418 6.17465259 -37.20703125 2.921875 C-32.22020638 0.83888266 -25.61700291 0.97632783 -20.61328125 2.93359375 C-18.5625 4.0625 -18.5625 4.0625 -16.81640625 5.22265625 C-14.20203114 6.34149635 -12.68944548 5.81622018 -10 5 C-7.56167838 3.83809844 -7.56167838 3.83809844 -5.25 2.4375 C-1.07932011 0 -1.07932011 0 0 0 Z " fill="#030303" transform="translate(50,144)"/>
<path d="M0 0 C4.89685507 2.87092127 8.43019968 7.10036237 10.5625 12.375 C11.32065573 19.03971777 11.46895603 25.7559027 7.96875 31.65625 C3.65022149 36.93445151 -1.2189253 39.91645927 -7.953125 40.6484375 C-14.14532969 40.87843367 -17.7882066 40.27260101 -22.68359375 36.37109375 C-24.37887021 35.18519591 -24.37887021 35.18519591 -26.33203125 35.5625 C-28.87239442 36.54282568 -31.26471809 37.69423033 -33.6875 38.9375 C-35.255 39.741875 -36.8225 40.54625 -38.4375 41.375 C-39.4275 35.93 -39.4275 35.93 -40.4375 30.375 C-35.9825 27.9 -35.9825 27.9 -31.4375 25.375 C-31.50710937 24.62476562 -31.57671875 23.87453125 -31.6484375 23.1015625 C-32.07884651 14.96478264 -30.69506064 9.68168839 -25.4375 3.375 C-18.70487674 -2.71180808 -8.20070675 -3.7716991 0 0 Z " fill="#030303" transform="translate(200.4375,50.625)"/>
<path d="M0 0 C3.3 0 6.6 0 10 0 C10 3.63 10 7.26 10 11 C10.86625 11.226875 11.7325 11.45375 12.625 11.6875 C18.85110412 14.10876271 22.59321501 17.73626131 25.30859375 23.7578125 C27.0096458 29.27421858 26.53420354 34.31304146 24.8125 39.75 C21.52447961 45.6457607 18.35597235 49.48409428 12 52 C5.54666921 53.82017022 -0.11256919 53.61421676 -6.00390625 50.41015625 C-10.44233254 47.27459482 -14.2739295 43.1782115 -16 38 C-16.63583951 30.28653714 -16.9265776 24.18980262 -12 18 C-8.02646862 13.86639745 -5.7913523 12.15827046 0 11 C0 7.37 0 3.74 0 0 Z " fill="#030303" transform="translate(101,184)"/>
<path d="M0 0 C4.92582251 4.21698464 8.18175925 9.00352532 8.8046875 15.484375 C8.95148056 22.37141585 7.33195082 26.93919666 3.2890625 32.62109375 C0.51272405 35.46199821 -1.7167709 36.9304416 -5.3984375 38.37109375 C-6.3884375 38.37109375 -7.3784375 38.37109375 -8.3984375 38.37109375 C-8.3984375 42.00109375 -8.3984375 45.63109375 -8.3984375 49.37109375 C-11.3684375 49.37109375 -14.3384375 49.37109375 -17.3984375 49.37109375 C-17.3984375 45.74109375 -17.3984375 42.11109375 -17.3984375 38.37109375 C-19.0484375 38.04109375 -20.6984375 37.71109375 -22.3984375 37.37109375 C-24.53125 35.953125 -24.53125 35.953125 -26.5234375 34.18359375 C-27.18601562 33.61253906 -27.84859375 33.04148438 -28.53125 32.453125 C-33.7245914 26.6622234 -33.93055414 21.1242206 -33.7421875 13.65234375 C-33.12755914 7.78543665 -30.16902494 4.98347376 -26.0859375 1.12109375 C-18.59142934 -4.92849864 -8.11359871 -5.24884466 0 0 Z " fill="#030303" transform="translate(118.3984375,3.62890625)"/>
<path d="M0 0 C5.06000536 2.69196753 8.35431044 6.71280291 11.14453125 11.62890625 C12.78765621 18.05203109 12.43774486 23.63209623 9.17578125 29.45703125 C6.20554806 33.56700508 2.65021282 36.71034573 -2.16796875 38.31640625 C-9.6266494 38.98158099 -15.15346241 38.98071729 -21.16796875 34.31640625 C-25.99544391 29.60510028 -28.21698545 25.20013153 -28.60546875 18.50390625 C-28.46524439 12.22185502 -25.9691714 8.13161492 -21.60546875 3.74609375 C-15.64140878 -1.47245873 -7.55413378 -2.38193407 0 0 Z " fill="#FBFBFB" transform="translate(114.16796875,99.68359375)"/>
<path d="M0 0 C3.85190568 3.19626216 5.83162034 5.24885153 6.3125 10.25 C5.94328153 14.68062166 4.83161153 16.61779734 2 20 C-1.41550511 22.59107284 -4.83325464 22.50288306 -9 22 C-11.97239241 20.21523759 -14.42604027 18.14791945 -16 15 C-16.54399285 10.460781 -16.62289461 7.0455731 -14.25 3.0625 C-9.72337966 -1.08690198 -6.02496845 -1.88877979 0 0 Z " fill="#F7F7F7" transform="translate(111,205)"/>
<path d="M0 0 C3.57545703 0.02280993 5.54438404 0.46007439 8.3125 2.75 C11.20828193 5.79057102 11.72714716 6.48733041 12.125 10.625 C11.7574614 15.03546321 10.57969254 16.97530631 7.8125 20.375 C4.09456323 22.85362452 1.11970653 22.90602546 -3.1875 22.375 C-6.69063626 20.9737455 -7.93476213 19.74568221 -10.0625 16.625 C-11.45192204 12.61111411 -11.37232882 10.44784906 -10.1875 6.375 C-7.6875 3.5 -7.6875 3.5 -5.1875 1.375 C-3.63766739 -0.17483261 -2.15081622 0.09367039 0 0 Z " fill="#F7F7F7" transform="translate(21.1875,155.625)"/>
<path d="M0 0 C3.03522895 1.63435405 5.28352297 3.055553 7.375 5.8125 C8.58825516 10.05889305 8.54873781 13.6586409 6.875 17.75 C4.46294353 20.64446777 2.56347797 21.76648839 -1 23 C-6.3122988 22.90680178 -9.19765092 21.69051529 -13 18 C-14.74348951 14.51302098 -14.58082725 10.80409937 -14 7 C-10.83699299 1.08920699 -6.51331125 -0.63855993 0 0 Z " fill="#F8F8F8" transform="translate(109,10)"/>
<path d="M0 0 C3.57545703 0.02280993 5.54438404 0.46007439 8.3125 2.75 C11.68489412 6.29101383 12.20776955 8.34300422 12.171875 13.26953125 C11.53668186 16.99093453 9.47270984 18.77812849 6.8125 21.375 C3.62126226 22.97061887 0.28504909 22.7549142 -3.1875 22.375 C-6.77302881 20.73812815 -7.98065055 19.68527417 -10.1875 16.375 C-10.73343928 12.98442974 -10.73900778 9.76515077 -10.1875 6.375 C-7.75 3.3125 -7.75 3.3125 -5.1875 1.375 C-3.63766739 -0.17483261 -2.15081622 0.09367039 0 0 Z " fill="#F9F9F9" transform="translate(21.1875,58.625)"/>
<path d="M0 0 C3.58552881 1.63687185 4.79315055 2.68972583 7 6 C7.54602034 9.39107371 7.54627924 12.60874176 7 16 C4.80977082 18.82424288 3.16982793 20.41508603 0 22 C-6.81283762 22.68128376 -6.81283762 22.68128376 -9.82421875 20.953125 C-13.62752744 17.82207185 -14.88663367 16.13366332 -15.375 11.25 C-15.35058775 7.89941932 -14.75601354 6.15105468 -12.625 3.5625 C-8.64438664 -0.32333685 -5.42496726 -0.59351849 0 0 Z " fill="#F9F9F9" transform="translate(194,156)"/>
<path d="M0 0 C3 2.4375 3 2.4375 5 5 C5.33 5.33 5.66 5.66 6 6 C6.43839055 9.38186995 6.48172213 12.62270898 6 16 C3.80977082 18.82424288 2.16982793 20.41508603 -1 22 C-8.0505676 22.57791538 -8.0505676 22.57791538 -11.875 20.25 C-14.99497149 16.94650078 -15.84963004 15.1599968 -16.4375 10.625 C-15.85694294 5.8146701 -14.38607407 4.38607407 -11 1 C-7.53003768 -0.73498116 -3.78492805 -0.60794181 0 0 Z " fill="#F9F9F9" transform="translate(195,59)"/>
</svg>
