<?xml version="1.0" encoding="UTF-8"?>
<svg version="1.1" xmlns="http://www.w3.org/2000/svg" width="318" height="159">
<path d="M0 0 C104.94 0 209.88 0 318 0 C318 52.47 318 104.94 318 159 C213.06 159 108.12 159 0 159 C0 106.53 0 54.06 0 0 Z " fill="#FDFDFD" transform="translate(0,0)"/>
<path d="M0 0 C0.34833144 4.87664009 -0.58314288 7.77050005 -3 12 C-3.66 12 -4.32 12 -5 12 C-5 12.66 -5 13.32 -5 14 C-6.32 14 -7.64 14 -9 14 C-9 15.98 -9 17.96 -9 20 C-10.134375 20.474375 -11.26875 20.94875 -12.4375 21.4375 C-15.75740166 22.63622083 -15.75740166 22.63622083 -17 24 C-17.37595337 26.62579933 -17.7066951 29.2398388 -18 31.875 C-18.87002653 39.61007958 -18.87002653 39.61007958 -20 43 C-20.22325814 45.05893621 -20.40705759 47.12233653 -20.5625 49.1875 C-20.64628906 50.27417969 -20.73007813 51.36085937 -20.81640625 52.48046875 C-20.90728516 53.72763672 -20.90728516 53.72763672 -21 55 C-20.01 55 -19.02 55 -18 55 C-18 54.34 -18 53.68 -18 53 C-17.34 53 -16.68 53 -16 53 C-15.90912109 51.95199219 -15.90912109 51.95199219 -15.81640625 50.8828125 C-15.73261719 49.97273438 -15.64882812 49.06265625 -15.5625 48.125 C-15.48128906 47.22007813 -15.40007812 46.31515625 -15.31640625 45.3828125 C-15 43 -15 43 -14 41 C-11.4374282 40.97289877 -8.87514635 40.95311229 -6.3125 40.9375 C-5.59126953 40.92912109 -4.87003906 40.92074219 -4.12695312 40.91210938 C-0.28444618 40.89456368 3.26639526 41.06475779 7 42 C7.10449463 41.45472656 7.20898926 40.90945312 7.31665039 40.34765625 C8.48944541 34.62730117 10.23084146 29.39717758 12.4375 24 C14.59201776 18.66235601 16.61100881 13.32987575 18.37133789 7.84765625 C19 6 19 6 20 4 C20.99 4 21.98 4 23 4 C22.34 7.63 21.68 11.26 21 15 C22.65 15.33 24.3 15.66 26 16 C26 15.34 26 14.68 26 14 C26.97753644 12.97803008 27.9805881 11.98020375 29 11 C29.66 10.01 30.32 9.02 31 8 C31.66 8 32.32 8 33 8 C32.83242188 8.73605469 32.66484375 9.47210938 32.4921875 10.23046875 C32.28851563 11.20628906 32.08484375 12.18210937 31.875 13.1875 C31.66617188 14.15042969 31.45734375 15.11335938 31.2421875 16.10546875 C30.97108988 19.34552253 31.57618825 21.11546285 33 24 C32.34 24 31.68 24 31 24 C31.15597656 24.92296875 31.31195313 25.8459375 31.47265625 26.796875 C32.67469761 34.85294025 33.15094111 42.54277489 32.75 50.6875 C32.69211304 51.96028809 32.69211304 51.96028809 32.63305664 53.25878906 C32.37186429 57.54594625 31.94355348 61.08899689 30 65 C28.68 65 27.36 65 26 65 C25.67 65.66 25.34 66.32 25 67 C22.67843403 67.40729228 20.3431213 67.74438677 18 68 C18 69.32 18 70.64 18 72 C18.66 72 19.32 72 20 72 C20.25 74.3125 20.25 74.3125 20 77 C18 78.8125 18 78.8125 16 80 C16.66 77.69 17.32 75.38 18 73 C13.38 73.33 8.76 73.66 4 74 C3.505 75.485 3.505 75.485 3 77 C2.34 77 1.68 77 1 77 C1 78.98 1 80.96 1 83 C2.65 83.33 4.3 83.66 6 84 C2.77208445 86.1519437 1.71599191 86.20086443 -2 86 C-2 85.34 -2 84.68 -2 84 C-2.66 83.773125 -3.32 83.54625 -4 83.3125 C-7.88658628 81.6121185 -11.63679817 79.60376916 -15 77 C-15 76.34 -15 75.68 -15 75 C-16.485 74.505 -16.485 74.505 -18 74 C-17.93039063 74.88751953 -17.93039063 74.88751953 -17.859375 75.79296875 C-17.67391078 79.85331039 -17.58967753 82.30093209 -19.6875 85.875 C-24.31876098 90.13075333 -27.52433119 91.52450645 -33.7890625 91.28515625 C-38.42088009 90.68776635 -41.1897649 88.87592984 -44.3125 85.5 C-47.89279437 80.19586019 -47.96207973 74.18703306 -47 68 C-44.67269067 63.81084321 -41.59535436 61.04957524 -37.625 58.4375 C-31.99850271 57.49975045 -27.01777667 58.38888917 -22 61 C-22.00785522 59.93471069 -22.00785522 59.93471069 -22.01586914 58.84790039 C-22.03683761 55.5861095 -22.04972281 52.32433286 -22.0625 49.0625 C-22.07087891 47.94552734 -22.07925781 46.82855469 -22.08789062 45.67773438 C-22.10641749 39.36007333 -21.84339417 33.26236773 -21 27 C-21.66 27.33 -22.32 27.66 -23 28 C-24.99960012 28.039992 -27.00047242 28.04346799 -29 28 C-28.79962011 23.40128146 -28.56605886 19.92456281 -26.125 15.9375 C-24 14 -24 14 -21 14 C-21.33 11.69 -21.66 9.38 -22 7 C-21.26136719 7.06058594 -20.52273437 7.12117188 -19.76171875 7.18359375 C-16.47261669 6.96494057 -15.32790379 6.13028842 -12.8125 4.0625 C-8.23872532 0.36325203 -6.01076078 -0.11131038 0 0 Z " fill="#7DA166" transform="translate(255,21)"/>
<path d="M0 0 C1.98 0 3.96 0 6 0 C6 7.92 6 15.84 6 24 C10.455 20.535 10.455 20.535 15 17 C22.34564528 11.8899859 22.34564528 11.8899859 25.23046875 12.375 C25.81441406 12.58125 26.39835937 12.7875 27 13 C26.64701919 15.9008605 26.11271704 16.89516676 23.93359375 18.921875 C23.10988281 19.52515625 22.28617188 20.1284375 21.4375 20.75 C20.61121094 21.36359375 19.78492188 21.9771875 18.93359375 22.609375 C18.29550781 23.06828125 17.65742188 23.5271875 17 24 C17.69112877 29.33704997 21.87375059 33.02328726 25.1640625 37.02734375 C27 40 27 40 26.7734375 42.87890625 C26.51820313 43.57886719 26.26296875 44.27882812 26 45 C23.56706256 44.61501271 22.28577433 44.29096937 20.53613281 42.50952148 C20.09624023 41.88634033 19.65634766 41.26315918 19.203125 40.62109375 C18.71972656 39.94755859 18.23632812 39.27402344 17.73828125 38.58007812 C17.24714844 37.87302734 16.75601563 37.16597656 16.25 36.4375 C15.74339844 35.72658203 15.23679688 35.01566406 14.71484375 34.28320312 C13.46687697 32.52898568 12.23214503 30.76536641 11 29 C9.35 29.33 7.7 29.66 6 30 C6 34.95 6 39.9 6 45 C4.35 45 2.7 45 1 45 C0.34 44.34 -0.32 43.68 -1 43 C-1.763125 43.309375 -2.52625 43.61875 -3.3125 43.9375 C-5.18789677 44.67893593 -7.08684652 45.36228217 -9 46 C-9.33 46.66 -9.66 47.32 -10 48 C-8.02 48.33 -6.04 48.66 -4 49 C-4 50.32 -4 51.64 -4 53 C-5.485 52.7525 -5.485 52.7525 -7 52.5 C-15.16355921 51.31667983 -15.16355921 51.31667983 -23 53 C-24.28436734 54.9837767 -24.28436734 54.9837767 -25 57 C-25.33 56.34 -25.66 55.68 -26 55 C-25.67 54.34 -25.34 53.68 -25 53 C-26.485 53.495 -26.485 53.495 -28 54 C-27.67 52.68 -27.34 51.36 -27 50 C-26.34 50 -25.68 50 -25 50 C-25 49.34 -25 48.68 -25 48 C-23.35 47.34 -21.7 46.68 -20 46 C-20.70125 45.690625 -21.4025 45.38125 -22.125 45.0625 C-27.00918359 41.55862916 -30.41519475 37.17905412 -31.51953125 31.17578125 C-31.73526381 25.31904179 -31.04523535 21.48255809 -27 17 C-26.34 16.21625 -25.68 15.4325 -25 14.625 C-19.672411 11.73922263 -13.12685164 12.0786955 -7.375 13.7734375 C-5 15 -5 15 -1 19 C-0.67 12.73 -0.34 6.46 0 0 Z " fill="#F7FAF1" transform="translate(143,67)"/>
<path d="M0 0 C0.99 0 1.98 0 3 0 C2.34 3.63 1.68 7.26 1 11 C3.475 11.495 3.475 11.495 6 12 C6 11.34 6 10.68 6 10 C6.97753644 8.97803008 7.9805881 7.98020375 9 7 C9.66 6.01 10.32 5.02 11 4 C11.66 4 12.32 4 13 4 C12.83242188 4.73605469 12.66484375 5.47210938 12.4921875 6.23046875 C12.28851563 7.20628906 12.08484375 8.18210937 11.875 9.1875 C11.66617188 10.15042969 11.45734375 11.11335938 11.2421875 12.10546875 C10.97108988 15.34552253 11.57618825 17.11546285 13 20 C12.34 20 11.68 20 11 20 C11.15597656 20.92296875 11.31195313 21.8459375 11.47265625 22.796875 C12.67469761 30.85294025 13.15094111 38.54277489 12.75 46.6875 C12.69211304 47.96028809 12.69211304 47.96028809 12.63305664 49.25878906 C12.37186429 53.54594625 11.94355348 57.08899689 10 61 C8.68 61 7.36 61 6 61 C5.505 61.99 5.505 61.99 5 63 C2.67843403 63.40729228 0.3431213 63.74438677 -2 64 C-2 65.32 -2 66.64 -2 68 C-1.34 68 -0.68 68 0 68 C0.25 70.3125 0.25 70.3125 0 73 C-2 74.8125 -2 74.8125 -4 76 C-3.34 73.69 -2.68 71.38 -2 69 C-6.62 69.33 -11.24 69.66 -16 70 C-16.33 70.99 -16.66 71.98 -17 73 C-17.66 73 -18.32 73 -19 73 C-18.0113007 70.33811726 -17.03251061 68.0481157 -15.4375 65.6875 C-14.01942037 63.03630764 -13.7832257 61.72397705 -13.5625 58.8125 C-13.376875 57.554375 -13.19125 56.29625 -13 55 C-11.68 54.34 -10.36 53.68 -9 53 C-9 49.04 -9 45.08 -9 41 C-14.26070452 44.17249627 -14.26070452 44.17249627 -19.1875 47.8125 C-21.55214556 49.36175054 -23.22533581 49.08628252 -26 49 C-26.09087891 47.95199219 -26.09087891 47.95199219 -26.18359375 46.8828125 C-26.26738281 45.97273438 -26.35117188 45.06265625 -26.4375 44.125 C-26.51871094 43.22007813 -26.59992188 42.31515625 -26.68359375 41.3828125 C-26.86989285 38.98889139 -26.86989285 38.98889139 -28 37 C-17.44191344 36.81548975 -17.44191344 36.81548975 -13 38 C-12.89550537 37.45472656 -12.79101074 36.90945312 -12.68334961 36.34765625 C-11.51055459 30.62730117 -9.76915854 25.39717758 -7.5625 20 C-5.40798224 14.66235601 -3.38899119 9.32987575 -1.62866211 3.84765625 C-1 2 -1 2 0 0 Z " fill="#D7E4DD" transform="translate(275,25)"/>
<path d="M0 0 C1.04820586 3.24126068 0.9198747 5.44114166 0.1875 8.75 C-0.09673828 10.05324219 -0.09673828 10.05324219 -0.38671875 11.3828125 C-1.21869009 14.93326345 -2.08481228 18.46999023 -3 22 C-3.66 22 -4.32 22 -5 22 C-4.93683594 22.73863281 -4.87367188 23.47726563 -4.80859375 24.23828125 C-5.04062024 27.58609209 -5.86848899 28.69452486 -8.0625 31.1875 C-8.63097656 31.86167969 -9.19945312 32.53585938 -9.78515625 33.23046875 C-16.51408454 38.60649082 -25.90761967 37.35478077 -34 37 C-35.00804687 36.96648437 -36.01609375 36.93296875 -37.0546875 36.8984375 C-39.76041552 36.61742717 -41.62816243 36.34039718 -44 35 C-45.49772384 32.47070269 -46.3350077 30.15117969 -47.0859375 27.3125 C-47.80028963 24.83548693 -47.80028963 24.83548693 -50.1015625 23.6875 C-50.72804687 23.460625 -51.35453125 23.23375 -52 23 C-51.26330078 22.41798828 -51.26330078 22.41798828 -50.51171875 21.82421875 C-48.49274247 19.38788304 -48.69101195 17.93069328 -48.8125 14.8125 C-48.83957031 13.91144531 -48.86664063 13.01039062 -48.89453125 12.08203125 C-48.94673828 11.05142578 -48.94673828 11.05142578 -49 10 C-45.125 11.75 -45.125 11.75 -44 14 C-41.68254757 15.38155818 -39.36672106 16.7095142 -37 18 C-34.0625 19.625 -34.0625 19.625 -32 21 C-32 21.66 -32 22.32 -32 23 C-29.69 22.34 -27.38 21.68 -25 21 C-26.32 20.67 -27.64 20.34 -29 20 C-29 18.02 -29 16.04 -29 14 C-28.34 14 -27.68 14 -27 14 C-26.67 12.68 -26.34 11.36 -26 10 C-21.38 10 -16.76 10 -12 10 C-12.33 11.98 -12.66 13.96 -13 16 C-10.64046906 13.64046906 -10.50858587 12.22104383 -10 9 C-10.66 9 -11.32 9 -12 9 C-12 7.68 -12 6.36 -12 5 C-10.75336669 4.49166409 -9.50250613 3.99368855 -8.25 3.5 C-7.55390625 3.2215625 -6.8578125 2.943125 -6.140625 2.65625 C-4 2 -4 2 0 2 C0 1.34 0 0.68 0 0 Z " fill="#CBDEDB" transform="translate(285,84)"/>
<path d="M0 0 C0.33 0 0.66 0 1 0 C1.042721 1.66611905 1.04063832 3.33382885 1 5 C0.67 5.33 0.34 5.66 0 6 C5.94 6.33 11.88 6.66 18 7 C15.2451606 16.88501198 11.58661929 26.3905672 8 36 C1.07 35.67 -5.86 35.34 -13 35 C-13.33 38.3 -13.66 41.6 -14 45 C-14.33 45.66 -14.66 46.32 -15 47 C-15.66 47 -16.32 47 -17 47 C-17 47.66 -17 48.32 -17 49 C-17.99 49 -18.98 49 -20 49 C-20.22085413 41.96947678 -19.93442949 35.4401056 -18.5 28.546875 C-18.03685161 26.18771289 -17.77206393 23.89252149 -17.5625 21.5 C-17 18 -17 18 -15.75 16.0625 C-13.54461398 14.72351563 -11.54110939 14.34339316 -9 14 C-8.67 12.02 -8.34 10.04 -8 8 C-6.68 8 -5.36 8 -4 8 C-4 7.34 -4 6.68 -4 6 C-3.34 5.67 -2.68 5.34 -2 5 C-1.27840576 3.35636866 -0.60648579 1.68949614 0 0 Z " fill="#F4F4F6" transform="translate(254,27)"/>
<path d="M0 0 C3.6871772 3.33601746 6.25483146 5.87447372 7.0078125 10.9609375 C7.2682003 17.29704063 6.59523818 21.38675204 2.625 26.375 C-2.07703946 30.04259078 -5.97151208 31.14504971 -11.94140625 30.890625 C-17.41122868 29.73168991 -20.35557796 25.92057535 -23.3125 21.4375 C-25.1414471 16.16582894 -24.97806418 12.20054977 -22.625 7.1875 C-17.75588725 -1.69045823 -9.29191499 -4.473885 0 0 Z " fill="#86A357" transform="translate(101.375,81.625)"/>
<path d="M0 0 C3.0306888 3.16752592 3.58468722 6.18990288 4.2109375 10.37890625 C4.33984375 11.08208984 4.46875 11.78527344 4.6015625 12.50976562 C5.25667624 16.39313427 5.58654395 19.67599334 4.3359375 23.44140625 C-1.57998697 30.13574184 -1.57998697 30.13574184 -5.71484375 30.7421875 C-10.78626637 30.7684643 -14.33184371 30.3631352 -18.6640625 27.44140625 C-23.5646611 22.14346182 -24.18716702 17.56615123 -24.14453125 10.53125 C-23.34939485 5.41781188 -20.59460219 2.61066247 -16.6640625 -0.55859375 C-11.58864613 -3.89768347 -5.06442962 -2.9629141 0 0 Z " fill="#101011" transform="translate(231.6640625,81.55859375)"/>
<path d="M0 0 C1.32 0 2.64 0 4 0 C4 0.66 4 1.32 4 2 C4.99 2 5.98 2 7 2 C7 1.34 7 0.68 7 0 C15.8770556 -0.51213782 15.8770556 -0.51213782 20 3 C23.06711564 2.72117131 24.36370706 1.75752863 27 0 C30.7411579 -0.67697143 34.43405275 -0.82922523 37.8515625 0.98046875 C40.7352836 3.28886618 42.65239308 5.59429999 44 9 C44.22705078 11.47363281 44.22705078 11.47363281 44.1953125 14.203125 C44.18886719 15.1828125 44.18242188 16.1625 44.17578125 17.171875 C44.15902344 18.18765625 44.14226562 19.2034375 44.125 20.25 C44.11597656 21.28125 44.10695312 22.3125 44.09765625 23.375 C44.07412011 25.91690287 44.04124023 28.4583328 44 31 C42.35 31.33 40.7 31.66 39 32 C38.67 24.08 38.34 16.16 38 8 C29.65850618 6.09646826 29.65850618 6.09646826 26 9 C25.49156938 11.31753588 25.49156938 11.31753588 25.48828125 14.0078125 C25.45283203 14.99394531 25.41738281 15.98007813 25.38085938 16.99609375 C25.35830078 18.02863281 25.33574219 19.06117187 25.3125 20.125 C25.27833984 21.16527344 25.24417969 22.20554687 25.20898438 23.27734375 C25.12632942 25.85145507 25.05723845 28.42521829 25 31 C23.34385343 31.38218767 21.67542976 31.71395102 20 32 C18.35676701 30.35676701 18.83303421 28.42268237 18.7890625 26.16015625 C18.76070312 25.17982422 18.73234375 24.19949219 18.703125 23.18945312 C18.65114372 21.1089023 18.60684205 19.02814509 18.5703125 16.94726562 C18.539375 15.96564453 18.5084375 14.98402344 18.4765625 13.97265625 C18.45674316 13.06781494 18.43692383 12.16297363 18.41650391 11.23071289 C18.27905762 10.49457764 18.14161133 9.75844238 18 9 C14.32003497 6.54668998 12.34586828 6.60492107 8 7 C5.84250216 10.23624676 5.71639512 11.34394066 5.5859375 15.10546875 C5.54726563 16.08837891 5.50859375 17.07128906 5.46875 18.08398438 C5.42234375 19.62022461 5.42234375 19.62022461 5.375 21.1875 C5.33632813 22.22326172 5.29765625 23.25902344 5.2578125 24.32617188 C5.16351704 26.88393622 5.07791798 29.44169287 5 32 C3.35 32 1.7 32 0 32 C-1.42917743 29.14164514 -1.12980809 26.68742281 -1.1328125 23.49609375 C-1.13410156 22.19865234 -1.13539062 20.90121094 -1.13671875 19.56445312 C-1.13462402 18.88777588 -1.1325293 18.21109863 -1.13037109 17.51391602 C-1.12501202 15.44214585 -1.13032518 13.37059161 -1.13671875 11.29882812 C-1.13542969 10.00267578 -1.13414063 8.70652344 -1.1328125 7.37109375 C-1.13168457 6.17411865 -1.13055664 4.97714355 -1.12939453 3.74389648 C-1 1 -1 1 0 0 Z " fill="#88A757" transform="translate(29,80)"/>
<path d="M0 0 C0.34833144 4.87664009 -0.58314288 7.77050005 -3 12 C-3.66 12 -4.32 12 -5 12 C-5 12.66 -5 13.32 -5 14 C-6.32 14 -7.64 14 -9 14 C-9 15.98 -9 17.96 -9 20 C-10.134375 20.474375 -11.26875 20.94875 -12.4375 21.4375 C-15.75740166 22.63622083 -15.75740166 22.63622083 -17 24 C-17.37595337 26.62579933 -17.7066951 29.2398388 -18 31.875 C-18.87002653 39.61007958 -18.87002653 39.61007958 -20 43 C-20.22325814 45.05893621 -20.40705759 47.12233653 -20.5625 49.1875 C-20.64628906 50.27417969 -20.73007813 51.36085937 -20.81640625 52.48046875 C-20.87699219 53.31191406 -20.93757812 54.14335938 -21 55 C-20.01 55 -19.02 55 -18 55 C-18 54.34 -18 53.68 -18 53 C-17.34 53 -16.68 53 -16 53 C-15.93941406 52.30132812 -15.87882813 51.60265625 -15.81640625 50.8828125 C-15.73261719 49.97273438 -15.64882812 49.06265625 -15.5625 48.125 C-15.48128906 47.22007813 -15.40007812 46.31515625 -15.31640625 45.3828125 C-15 43 -15 43 -14 41 C-11.125 40.875 -11.125 40.875 -8 41 C-7.34 41.66 -6.68 42.32 -6 43 C-6.0234375 45.3828125 -6.0234375 45.3828125 -6.375 48.125 C-6.54128906 49.49011719 -6.54128906 49.49011719 -6.7109375 50.8828125 C-6.80632812 51.58148438 -6.90171875 52.28015625 -7 53 C-7.66 53 -8.32 53 -9 53 C-9 53.99 -9 54.98 -9 56 C-9.99 56 -10.98 56 -12 56 C-12 56.99 -12 57.98 -12 59 C-14.70879335 60.35439668 -17.00933268 60.06501451 -20 60 C-20 62.64 -20 65.28 -20 68 C-20.33 68 -20.66 68 -21 68 C-23.43686139 61.48302969 -23.06462821 55.50252096 -22.6875 48.625 C-22.63916016 47.53960937 -22.59082031 46.45421875 -22.54101562 45.3359375 C-22.24770543 39.18756174 -21.75235955 33.10890237 -21 27 C-21.66 27.33 -22.32 27.66 -23 28 C-24.99960012 28.039992 -27.00047242 28.04346799 -29 28 C-28.79962011 23.40128146 -28.56605886 19.92456281 -26.125 15.9375 C-24 14 -24 14 -21 14 C-21.33 11.69 -21.66 9.38 -22 7 C-21.26136719 7.06058594 -20.52273437 7.12117188 -19.76171875 7.18359375 C-16.47261669 6.96494057 -15.32790379 6.13028842 -12.8125 4.0625 C-8.23872532 0.36325203 -6.01076078 -0.11131038 0 0 Z " fill="#7B955D" transform="translate(255,21)"/>
<path d="M0 0 C1.65 0 3.3 0 5 0 C5 7.92 5 15.84 5 24 C9.455 20.535 9.455 20.535 14 17 C21.34564528 11.8899859 21.34564528 11.8899859 24.23046875 12.375 C24.81441406 12.58125 25.39835937 12.7875 26 13 C25.64701919 15.9008605 25.11271704 16.89516676 22.93359375 18.921875 C22.10988281 19.52515625 21.28617188 20.1284375 20.4375 20.75 C19.61121094 21.36359375 18.78492188 21.9771875 17.93359375 22.609375 C17.29550781 23.06828125 16.65742188 23.5271875 16 24 C16.69112877 29.33704997 20.87375059 33.02328726 24.1640625 37.02734375 C26 40 26 40 25.7734375 42.87890625 C25.51820313 43.57886719 25.26296875 44.27882812 25 45 C22.56706256 44.61501271 21.28577433 44.29096937 19.53613281 42.50952148 C19.09624023 41.88634033 18.65634766 41.26315918 18.203125 40.62109375 C17.71972656 39.94755859 17.23632812 39.27402344 16.73828125 38.58007812 C16.24714844 37.87302734 15.75601563 37.16597656 15.25 36.4375 C14.74339844 35.72658203 14.23679688 35.01566406 13.71484375 34.28320312 C12.46687697 32.52898568 11.23214503 30.76536641 10 29 C8.35 29.33 6.7 29.66 5 30 C5 34.95 5 39.9 5 45 C3.35 45 1.7 45 0 45 C0 30.15 0 15.3 0 0 Z " fill="#81A24E" transform="translate(144,67)"/>
<path d="M0 0 C2.82421875 0.859375 2.82421875 0.859375 5 2 C5.8125 4.625 5.8125 4.625 6 7 C3.6875 7.625 3.6875 7.625 1 8 C0.01 7.34 -0.98 6.68 -2 6 C-3.95379499 5.72214568 -3.95379499 5.72214568 -6 5.8125 C-7.0209375 5.82216797 -7.0209375 5.82216797 -8.0625 5.83203125 C-10.21758209 5.94302254 -10.21758209 5.94302254 -13 7 C-15.43527855 10.89644568 -15.17777129 14.52134523 -14.52734375 18.90625 C-14.06517196 21.17782398 -14.06517196 21.17782398 -12.4375 23.5625 C-8.75459913 25.73446718 -6.25150937 25.40490565 -2 25 C-1.01 24.34 -0.02 23.68 1 23 C3.6875 23.375 3.6875 23.375 6 24 C6 25.32 6 26.64 6 28 C2.28211523 31.6174014 -0.46048531 32.27820856 -5.625 32.375 C-9.2981261 32.32355566 -11.89977417 32.03006419 -15 30 C-19.15190153 25.66716698 -21.41078432 21.34349532 -21.625 15.3125 C-21.33726789 10.52142582 -20.27745158 7.63177066 -17 4 C-16.34 3.21625 -15.68 2.4325 -15 1.625 C-10.24808532 -0.94895378 -5.2919783 -0.60519965 0 0 Z " fill="#84A250" transform="translate(133,80)"/>
<path d="M0 0 C2.8100346 1.79363911 4.50940468 3.01880935 6 6 C6.50866466 12.10397596 6.05703618 15.10769166 2 20 C-1.21694364 21.60847182 -4.52137222 21.61309149 -8 21 C-10.69105198 18.82425584 -12.45532928 17.08934144 -14 14 C-14.5811138 6.91041162 -14.5811138 6.91041162 -12.125 3.0625 C-8.49059499 -0.46501074 -4.90782663 -0.7051475 0 0 Z " fill="#F4F4F4" transform="translate(227,85)"/>
<path d="M0 0 C0.92247401 4.30487872 1.16635883 7.72335094 0 12 C-0.99 12.66 -1.98 13.32 -3 14 C-3.54386797 16.05352387 -3.54386797 16.05352387 -3.75 18.4375 C-4.83441228 24.78640948 -7.82859496 30.11323151 -12 35 C-12.99 35 -13.98 35 -15 35 C-14.39254603 30.14036821 -12.27241033 26.2594482 -10 22 C-13.96 22.495 -13.96 22.495 -18 23 C-18 22.34 -18 21.68 -18 21 C-20.31 21 -22.62 21 -25 21 C-25 20.34 -25 19.68 -25 19 C-24.01 18.67 -23.02 18.34 -22 18 C-21.87625 17.38125 -21.7525 16.7625 -21.625 16.125 C-21 14 -21 14 -18.625 12.25 C-16 11 -16 11 -13 11 C-13 10.34 -13 9.68 -13 9 C-4.94736842 0 -4.94736842 0 0 0 Z " fill="#56813E" transform="translate(266,66)"/>
<path d="M0 0 C2.92937654 1.81310142 5.43647949 3.87295899 7 7 C7.54724071 12.69130337 6.59333707 15.56117185 3 20 C-0.45031261 21.72515631 -4.22716304 21.49677924 -8 21 C-11.03215675 18.80168636 -11.81654398 17.55036806 -13 14 C-13.6914329 6.85519333 -13.6914329 6.85519333 -10.625 3.0625 C-6.84598336 0.09327264 -4.82619179 -0.55686828 0 0 Z " fill="#F8FBF2" transform="translate(96,85)"/>
<path d="M0 0 C0.66 0 1.32 0 2 0 C2 0.99 2 1.98 2 3 C2.66 3 3.32 3 4 3 C4 3.99 4 4.98 4 6 C4.61875 6.28875 5.2375 6.5775 5.875 6.875 C8 8 8 8 10 10 C12.57061311 10.64767793 12.57061311 10.64767793 15 11 C14.67 11.99 14.34 12.98 14 14 C12.68 13.67 11.36 13.34 10 13 C10 13.66 10 14.32 10 15 C10.66 15 11.32 15 12 15 C11.67 16.32 11.34 17.64 11 19 C9.02 19.33 7.04 19.66 5 20 C5 21.32 5 22.64 5 24 C5.66 24 6.32 24 7 24 C7.25 26.3125 7.25 26.3125 7 29 C5 30.8125 5 30.8125 3 32 C3.99 28.535 3.99 28.535 5 25 C0.38 25.33 -4.24 25.66 -9 26 C-9.33 26.99 -9.66 27.98 -10 29 C-10.66 29 -11.32 29 -12 29 C-11.0113007 26.33811726 -10.03251061 24.0481157 -8.4375 21.6875 C-7.01942037 19.03630764 -6.7832257 17.72397705 -6.5625 14.8125 C-6.376875 13.554375 -6.19125 12.29625 -6 11 C-3.9375 9.5 -3.9375 9.5 -2 9 C-2.04125 8.071875 -2.0825 7.14375 -2.125 6.1875 C-2 3 -2 3 0 0 Z " fill="#92B574" transform="translate(268,69)"/>
<path d="M0 0 C2.52775351 3.79163027 2.22443035 6.80874031 2.125 11.1875 C2.11597656 11.93708984 2.10695312 12.68667969 2.09765625 13.45898438 C2.07412578 15.30612654 2.03825561 17.15310412 2 19 C4.31 19 6.62 19 9 19 C9 19.66 9 20.32 9 21 C12.62885324 21.15149298 12.62885324 21.15149298 16 20 C16 20.99 16 21.98 16 23 C9.07 22.67 2.14 22.34 -5 22 C-5.33 25.3 -5.66 28.6 -6 32 C-6.33 32.66 -6.66 33.32 -7 34 C-7.66 34 -8.32 34 -9 34 C-9 34.66 -9 35.32 -9 36 C-9.99 36 -10.98 36 -12 36 C-12.22085413 28.96947678 -11.93442949 22.4401056 -10.5 15.546875 C-10.03685161 13.18771289 -9.77206393 10.89252149 -9.5625 8.5 C-9 5 -9 5 -7.8125 3.125 C-5.33788502 1.58903208 -2.78726483 0.80520984 0 0 Z " fill="#EAEEF2" transform="translate(246,40)"/>
<path d="M0 0 C1.65 0.33 3.3 0.66 5 1 C5 4.63 5 8.26 5 12 C7.31 12 9.62 12 12 12 C11.67 13.65 11.34 15.3 11 17 C9.02 17 7.04 17 5 17 C5.33 23.6 5.66 30.2 6 37 C8.31 37.66 10.62 38.32 13 39 C12.67 40.65 12.34 42.3 12 44 C5.64096386 44.48915663 5.64096386 44.48915663 2.625 42.1875 C0.18250746 38.89952927 -0.12296685 36.30579531 -0.09765625 32.33203125 C-0.09443359 31.43935547 -0.09121094 30.54667969 -0.08789062 29.62695312 C-0.07951172 28.69818359 -0.07113281 27.76941406 -0.0625 26.8125 C-0.05798828 25.87212891 -0.05347656 24.93175781 -0.04882812 23.96289062 C-0.03704626 21.64186288 -0.02059558 19.32096356 0 17 C-1.65 17 -3.3 17 -5 17 C-5.5625 15.0625 -5.5625 15.0625 -6 13 C-5.67 12.67 -5.34 12.34 -5 12 C-3.35 12 -1.7 12 0 12 C0 8.04 0 4.08 0 0 Z " fill="#070707" transform="translate(192,68)"/>
<path d="M0 0 C0.34833144 4.87664009 -0.58314288 7.77050005 -3 12 C-3.66 12 -4.32 12 -5 12 C-5 12.66 -5 13.32 -5 14 C-6.32 14 -7.64 14 -9 14 C-9 15.98 -9 17.96 -9 20 C-10.6396875 20.556875 -10.6396875 20.556875 -12.3125 21.125 C-15.54588489 22.4798799 -15.98576455 22.97658038 -17.9375 26.1875 C-18.288125 27.115625 -18.63875 28.04375 -19 29 C-19.33 28.01 -19.66 27.02 -20 26 C-21.65 26 -23.3 26 -25 26 C-25.93423645 22.98968256 -26.04449911 22.13349732 -25 19 C-23.35 18.67 -21.7 18.34 -20 18 C-20 18.99 -20 19.98 -20 21 C-19.34 20.01 -18.68 19.02 -18 18 C-19.32 17.34 -20.64 16.68 -22 16 C-21.34 16 -20.68 16 -20 16 C-20 15.34 -20 14.68 -20 14 C-19.34 14 -18.68 14 -18 14 C-17.67 12.35 -17.34 10.7 -17 9 C-16.34 9 -15.68 9 -15 9 C-15 7.68 -15 6.36 -15 5 C-10.60592411 0.66299003 -5.98257231 -0.62318462 0 0 Z " fill="#627E44" transform="translate(255,21)"/>
<path d="M0 0 C0.99 0 1.98 0 3 0 C2.34 3.63 1.68 7.26 1 11 C2.65 11.33 4.3 11.66 6 12 C6 11.34 6 10.68 6 10 C6.97753644 8.97803008 7.9805881 7.98020375 9 7 C9.66 6.01 10.32 5.02 11 4 C11.66 4 12.32 4 13 4 C12.7689866 5.56541977 12.5142025 7.1273387 12.25 8.6875 C12.11078125 9.55761719 11.9715625 10.42773438 11.828125 11.32421875 C10.81933909 14.58373926 9.15226424 16.3578835 7 19 C5.5013691 21.6489143 4.18954395 24.38095197 2.875 27.125 C2.1866811 28.54513751 1.49664022 29.96444199 0.8046875 31.3828125 C0.50546387 32.00559082 0.20624023 32.62836914 -0.10205078 33.27001953 C-1 35 -1 35 -3 38 C-3.66 38 -4.32 38 -5 38 C-4.45451991 33.41114876 -3.20990283 30.10513474 -1 26.0625 C1.34654596 21.5546617 2.76982954 18.06375022 3 13 C1.68 13 0.36 13 -1 13 C-0.938125 13.763125 -0.87625 14.52625 -0.8125 15.3125 C-1 18 -1 18 -2.40625 19.3125 C-4.55055821 21.58294399 -4.94355879 23.6763094 -5.6875 26.6875 C-5.93886719 27.68136719 -6.19023437 28.67523438 -6.44921875 29.69921875 C-6.63097656 30.45847656 -6.81273437 31.21773437 -7 32 C-8.98 32.495 -8.98 32.495 -11 33 C-10.45315731 27.81166328 -9.18200924 23.43050778 -7.125 18.625 C-4.84904358 13.14167488 -2.81978723 7.65091824 -1 2 C-0.67 1.34 -0.34 0.68 0 0 Z " fill="#CDCDD4" transform="translate(275,25)"/>
<path d="M0 0 C0.53625 0.20496094 1.0725 0.40992187 1.625 0.62109375 C13.52895014 4.71307661 26.55307059 4.19181912 39 4 C38.34 5.98 37.68 7.96 37 10 C36.37351562 10.06058594 35.74703125 10.12117188 35.1015625 10.18359375 C34.28429687 10.26738281 33.46703125 10.35117188 32.625 10.4375 C31.81289063 10.51871094 31.00078125 10.59992188 30.1640625 10.68359375 C27.95727195 10.89090114 27.95727195 10.89090114 26 12 C24.0018949 12.09649939 22.0004282 12.12980872 20 12.125 C18.39125 12.12886719 18.39125 12.12886719 16.75 12.1328125 C14 12 14 12 12 11 C12 11.66 12 12.32 12 13 C11.01 13 10.02 13 9 13 C9 12.01 9 11.02 9 10 C6.69 9.34 4.38 8.68 2 8 C1.34 5.36 0.68 2.72 0 0 Z " fill="#E1F1F2" transform="translate(238,105)"/>
<path d="M0 0 C3.875 1.75 3.875 1.75 5 4 C6.61995892 5.04500851 6.61995892 5.04500851 8.5 6 C11.88888889 7.77777778 11.88888889 7.77777778 13 10 C10.69 9.67 8.38 9.34 6 9 C6.33 8.01 6.66 7.02 7 6 C6.01 6.495 6.01 6.495 5 7 C5 7.99 5 8.98 5 10 C4.34 10 3.68 10 3 10 C3.66 12.97 4.32 15.94 5 19 C5.969375 19.12375 6.93875 19.2475 7.9375 19.375 C9.4534375 19.684375 9.4534375 19.684375 11 20 C11.33 20.66 11.66 21.32 12 22 C11.67 22.66 11.34 23.32 11 24 C11.99 24 12.98 24 14 24 C14 23.34 14 22.68 14 22 C14.90621094 22.02320312 15.81242187 22.04640625 16.74609375 22.0703125 C23.89687185 22.17624995 30.07919034 21.73020242 37 20 C37.66 20.33 38.32 20.66 39 21 C39.495 19.515 39.495 19.515 40 18 C40.495 19.485 40.495 19.485 41 21 C37.72915091 24.92501891 34.92172154 25.8579989 30 27 C24.98425022 27.36872539 20.02173977 27.22015978 15 27 C13.99195313 26.96648437 12.98390625 26.93296875 11.9453125 26.8984375 C9.23958448 26.61742717 7.37183757 26.34039718 5 25 C3.50227616 22.47070269 2.6649923 20.15117969 1.9140625 17.3125 C1.19971037 14.83548693 1.19971037 14.83548693 -1.1015625 13.6875 C-1.72804687 13.460625 -2.35453125 13.23375 -3 13 C-2.26330078 12.41798828 -2.26330078 12.41798828 -1.51171875 11.82421875 C0.50725753 9.38788304 0.30898805 7.93069328 0.1875 4.8125 C0.16042969 3.91144531 0.13335937 3.01039062 0.10546875 2.08203125 C0.05326172 1.05142578 0.05326172 1.05142578 0 0 Z " fill="#DBE4E6" transform="translate(236,94)"/>
<path d="M0 0 C1.5 1.375 1.5 1.375 3 3 C3 3.66 3 4.32 3 5 C2.34 5 1.68 5 1 5 C1.66 11.27 2.32 17.54 3 24 C-1.29 23.67 -5.58 23.34 -10 23 C-10 16.24437781 -10 16.24437781 -8.3203125 12.94921875 C-7.96839844 12.25119141 -7.61648438 11.55316406 -7.25390625 10.83398438 C-6.88136719 10.12564453 -6.50882812 9.41730469 -6.125 8.6875 C-5.76019531 7.95982422 -5.39539063 7.23214844 -5.01953125 6.48242188 C-2.28148496 1.14074248 -2.28148496 1.14074248 0 0 Z " fill="#E3E5ED" transform="translate(285,40)"/>
<path d="M0 0 C1.04820586 3.24126068 0.9198747 5.44114166 0.1875 8.75 C-0.00199219 9.61882812 -0.19148438 10.48765625 -0.38671875 11.3828125 C-1.21869009 14.93326345 -2.08481228 18.46999023 -3 22 C-3.66 21.01 -4.32 20.02 -5 19 C-6.11375 19.350625 -7.2275 19.70125 -8.375 20.0625 C-12 21 -12 21 -14 20 C-13.71125 19.29875 -13.4225 18.5975 -13.125 17.875 C-11.97866412 14.94547497 -10.97374346 11.99078347 -10 9 C-10.66 9 -11.32 9 -12 9 C-12 7.68 -12 6.36 -12 5 C-10.75336669 4.49166409 -9.50250613 3.99368855 -8.25 3.5 C-7.55390625 3.2215625 -6.8578125 2.943125 -6.140625 2.65625 C-4 2 -4 2 0 2 C0 1.34 0 0.68 0 0 Z " fill="#DDEAE4" transform="translate(285,84)"/>
<path d="M0 0 C0.99 0.66 1.98 1.32 3 2 C2.071875 2.4021875 2.071875 2.4021875 1.125 2.8125 C-1.2995233 3.95556848 -1.2995233 3.95556848 -3 7 C-3.436657 12.41454674 -3.38281119 15.53468924 0 20 C1.03406673 21.25949049 1.03406673 21.25949049 3.28515625 21.09765625 C4.20167969 21.08605469 5.11820313 21.07445313 6.0625 21.0625 C6.98160156 21.05347656 7.90070313 21.04445313 8.84765625 21.03515625 C9.55792969 21.02355469 10.26820312 21.01195313 11 21 C10.34 22.32 9.68 23.64 9 25 C8.030625 24.979375 7.06125 24.95875 6.0625 24.9375 C3.12534105 24.64381501 3.12534105 24.64381501 2 26 C2.66 26.66 3.32 27.32 4 28 C0.87258646 27.92553777 -1.28435344 27.63837017 -3.6640625 25.515625 C-7.16980798 21.47451937 -9.80886713 18.06423501 -10.3125 12.625 C-9.96267127 8.56698668 -9.4246719 6.28503935 -7 3 C-3.3125 2.125 -3.3125 2.125 0 2 C0 1.34 0 0.68 0 0 Z " fill="#83A24E" transform="translate(87,84)"/>
<path d="M0 0 C1.98 0.495 1.98 0.495 4 1 C4 11.23 4 21.46 4 32 C2.02 32.495 2.02 32.495 0 33 C-1.90849948 31.09150052 -1.13059633 27.68521226 -1.1328125 25.15625 C-1.13376923 24.47195923 -1.13472595 23.78766846 -1.13571167 23.0826416 C-1.1363933 21.63338123 -1.13454023 20.18411782 -1.13037109 18.73486328 C-1.12502252 16.50937072 -1.1303166 14.28407999 -1.13671875 12.05859375 C-1.13605797 10.65364539 -1.1347768 9.24869715 -1.1328125 7.84375 C-1.13168457 6.55662109 -1.13055664 5.26949219 -1.12939453 3.94335938 C-1 1 -1 1 0 0 Z " fill="#060606" transform="translate(177,79)"/>
<path d="M0 0 C2.875 -0.125 2.875 -0.125 6 0 C6.66 0.66 7.32 1.32 8 2 C7.9765625 4.3828125 7.9765625 4.3828125 7.625 7.125 C7.45871094 8.49011719 7.45871094 8.49011719 7.2890625 9.8828125 C7.14597656 10.93082031 7.14597656 10.93082031 7 12 C6.34 12 5.68 12 5 12 C5 12.99 5 13.98 5 15 C4.01 15 3.02 15 2 15 C2 15.99 2 16.98 2 18 C-1.13349732 19.04449911 -1.98968256 18.93423645 -5 18 C-5.33 16.68 -5.66 15.36 -6 14 C-5.34 14 -4.68 14 -4 14 C-4 13.34 -4 12.68 -4 12 C-3.34 12 -2.68 12 -2 12 C-1.93941406 11.30132812 -1.87882813 10.60265625 -1.81640625 9.8828125 C-1.73261719 8.97273438 -1.64882812 8.06265625 -1.5625 7.125 C-1.48128906 6.22007813 -1.40007812 5.31515625 -1.31640625 4.3828125 C-1 2 -1 2 0 0 Z " fill="#6F9842" transform="translate(241,62)"/>
<path d="M0 0 C0.66 0 1.32 0 2 0 C2 0.99 2 1.98 2 3 C2.66 3 3.32 3 4 3 C4 3.99 4 4.98 4 6 C4.61875 6.28875 5.2375 6.5775 5.875 6.875 C8 8 8 8 10 10 C12.57061311 10.64767793 12.57061311 10.64767793 15 11 C14.67 11.99 14.34 12.98 14 14 C12.68 13.67 11.36 13.34 10 13 C10 13.66 10 14.32 10 15 C10.66 15 11.32 15 12 15 C11.67 16.32 11.34 17.64 11 19 C7.62496331 17.8141763 5.35277269 16.72426311 3 14 C3.66 14 4.32 14 5 14 C4.67 13.34 4.34 12.68 4 12 C3.01 12.66 2.02 13.32 1 14 C-0.32 14 -1.64 14 -3 14 C-3 13.34 -3 12.68 -3 12 C-3.66 12 -4.32 12 -5 12 C-4.67 11.01 -4.34 10.02 -4 9 C-3.34 9 -2.68 9 -2 9 C-2.04125 8.071875 -2.0825 7.14375 -2.125 6.1875 C-2 3 -2 3 0 0 Z " fill="#A4C288" transform="translate(268,69)"/>
<path d="M0 0 C-0.33 1.010625 -0.66 2.02125 -1 3.0625 C-2.2547852 7.62369002 -3.14595385 11.73282513 -0.9140625 16.1484375 C0.33341666 18.14584632 1.64839893 20.07230666 3 22 C3.33 22.66 3.66 23.32 4 24 C2.35 23.67 0.7 23.34 -1 23 C-1 22.34 -1 21.68 -1 21 C-1.99 20.67 -2.98 20.34 -4 20 C-4.12375 20.969375 -4.2475 21.93875 -4.375 22.9375 C-4.58125 23.948125 -4.7875 24.95875 -5 26 C-5.66 26.33 -6.32 26.66 -7 27 C-7.40729228 29.32156597 -7.74438677 31.6568787 -8 34 C-9.485 34.495 -9.485 34.495 -11 35 C-11 32.03 -11 29.06 -11 26 C-10.01 25.67 -9.02 25.34 -8 25 C-7.98541748 24.34926514 -7.97083496 23.69853027 -7.95581055 23.02807617 C-7.88135451 20.08061694 -7.78468734 17.13429358 -7.6875 14.1875 C-7.66494141 13.16333984 -7.64238281 12.13917969 -7.61914062 11.08398438 C-7.58369141 10.10107422 -7.54824219 9.11816406 -7.51171875 8.10546875 C-7.48553467 7.19949951 -7.45935059 6.29353027 -7.43237305 5.36010742 C-7 3 -7 3 -5.71801758 1.1809082 C-4 0 -4 0 0 0 Z " fill="#F1F8E2" transform="translate(80,86)"/>
<path d="M0 0 C4.62 0 9.24 0 14 0 C13.73914918 5.30396666 13.73914918 5.30396666 13 8 C10.12566775 10.42049032 8.75818619 11 5 11 C4.34 10.01 3.68 9.02 3 8 C2.67 9.32 2.34 10.64 2 12 C-0.475 11.01 -0.475 11.01 -3 10 C-3 8.02 -3 6.04 -3 4 C-2.34 4 -1.68 4 -1 4 C-0.67 2.68 -0.34 1.36 0 0 Z " fill="#CCDDCB" transform="translate(259,94)"/>
<path d="M0 0 C2.4375 0.1875 2.4375 0.1875 5 1 C7.04263581 4.07046999 7.23755794 6.57001724 7.1953125 10.203125 C7.18564453 11.67265625 7.18564453 11.67265625 7.17578125 13.171875 C7.15902344 14.18765625 7.14226562 15.2034375 7.125 16.25 C7.11597656 17.28125 7.10695313 18.3125 7.09765625 19.375 C7.07412011 21.91690287 7.04124023 24.4583328 7 27 C5.35 27.33 3.7 27.66 2 28 C1.98018066 27.35973877 1.96036133 26.71947754 1.93994141 26.05981445 C1.84436399 23.1436472 1.73481786 20.22816428 1.625 17.3125 C1.5940625 16.30509766 1.563125 15.29769531 1.53125 14.25976562 C1.49257812 13.28330078 1.45390625 12.30683594 1.4140625 11.30078125 C1.3826416 10.40528564 1.3512207 9.50979004 1.31884766 8.5871582 C0.97338887 5.78407493 0.15318532 3.56735469 -1 1 C-0.67 0.67 -0.34 0.34 0 0 Z " fill="#80A24D" transform="translate(66,84)"/>
<path d="M0 0 C2.64 0 5.28 0 8 0 C8 0.66 8 1.32 8 2 C6.7934375 2.4021875 6.7934375 2.4021875 5.5625 2.8125 C4.716875 3.204375 3.87125 3.59625 3 4 C2.67 4.99 2.34 5.98 2 7 C2.99 7 3.98 7 5 7 C5 7.99 5 8.98 5 10 C4.34 10 3.68 10 3 10 C3.495 10.45375 3.99 10.9075 4.5 11.375 C6 13 6 13 6 15 C8.31 15 10.62 15 13 15 C13.433125 15.94875 13.86625 16.8975 14.3125 17.875 C15.79302201 21.20041937 15.79302201 21.20041937 19 23 C19.33 21.02 19.66 19.04 20 17 C20.33 17 20.66 17 21 17 C21 18.98 21 20.96 21 23 C22.65 23.33 24.3 23.66 26 24 C22.77208445 26.1519437 21.71599191 26.20086443 18 26 C18 25.34 18 24.68 18 24 C17.34 23.773125 16.68 23.54625 16 23.3125 C12.11341372 21.6121185 8.36320183 19.60376916 5 17 C5 16.34 5 15.68 5 15 C3.68 15 2.36 15 1 15 C0.67 15 0.34 15 0 15 C0 10.05 0 5.1 0 0 Z " fill="#93AC9C" transform="translate(235,81)"/>
<path d="M0 0 C1.98 0 3.96 0 6 0 C6 0.66 6 1.32 6 2 C8.31 2 10.62 2 13 2 C13 2.66 13 3.32 13 4 C13.99 4 14.98 4 16 4 C16.02698189 5.62490954 16.04638757 7.24994633 16.0625 8.875 C16.07410156 9.77992187 16.08570313 10.68484375 16.09765625 11.6171875 C16 14 16 14 15 16 C13.68 16 12.36 16 11 16 C10.67 16.66 10.34 17.32 10 18 C9.67 17.34 9.34 16.68 9 16 C9.33 15.34 9.66 14.68 10 14 C9.34 14 8.68 14 8 14 C8 13.34 8 12.68 8 12 C9.32 12 10.64 12 12 12 C12.33 11.34 12.66 10.68 13 10 C12.29875 10.103125 11.5975 10.20625 10.875 10.3125 C6.6058022 9.84845676 5.01880055 8.01880055 2 5 C2 4.01 2 3.02 2 2 C1.34 2 0.68 2 0 2 C0 1.34 0 0.68 0 0 Z " fill="#C6D5C2" transform="translate(270,70)"/>
<path d="M0 0 C2.2353122 0.98297766 4.43526581 2.00959967 6.62109375 3.09765625 C6.62109375 4.41765625 6.62109375 5.73765625 6.62109375 7.09765625 C5.63109375 6.93265625 4.64109375 6.76765625 3.62109375 6.59765625 C-4.54246546 5.41433608 -4.54246546 5.41433608 -12.37890625 7.09765625 C-13.66327359 9.08143295 -13.66327359 9.08143295 -14.37890625 11.09765625 C-14.70890625 10.43765625 -15.03890625 9.77765625 -15.37890625 9.09765625 C-15.04890625 8.43765625 -14.71890625 7.77765625 -14.37890625 7.09765625 C-15.36890625 7.42765625 -16.35890625 7.75765625 -17.37890625 8.09765625 C-17.04890625 6.77765625 -16.71890625 5.45765625 -16.37890625 4.09765625 C-15.71890625 4.09765625 -15.05890625 4.09765625 -14.37890625 4.09765625 C-14.37890625 3.43765625 -14.37890625 2.77765625 -14.37890625 2.09765625 C-9.27423067 -0.81930123 -5.66769838 -2.14981663 0 0 Z " fill="#DDDEDC" transform="translate(132.37890625,112.90234375)"/>
<path d="M0 0 C0.763125 0.20625 1.52625 0.4125 2.3125 0.625 C2.3125 1.945 2.3125 3.265 2.3125 4.625 C-1.40538477 8.2424014 -4.14798531 8.90320856 -9.3125 9 C-13.01079828 8.94820311 -15.48593146 8.50385478 -18.6875 6.625 C-18.6875 5.965 -18.6875 5.305 -18.6875 4.625 C-18.0275 4.625 -17.3675 4.625 -16.6875 4.625 C-16.6875 3.305 -16.6875 1.985 -16.6875 0.625 C-15.6975 0.955 -14.7075 1.285 -13.6875 1.625 C-11.73163253 1.81959037 -11.73163253 1.81959037 -9.6875 1.8125 C-8.6665625 1.83376953 -8.6665625 1.83376953 -7.625 1.85546875 C-4.34506513 1.46531521 -3.49612582 -0.48783151 0 0 Z " fill="#7F994B" transform="translate(136.6875,103.375)"/>
<path d="M0 0 C1.32 0 2.64 0 4 0 C4.43173825 5.92869126 3.16896812 9.68715537 0.5 14.9375 C0.16613281 15.62134766 -0.16773438 16.30519531 -0.51171875 17.00976562 C-1.32893039 18.67921227 -2.1627747 20.34049985 -3 22 C-3.66 22 -4.32 22 -5 22 C-5.33 22.99 -5.66 23.98 -6 25 C-6.99 24.67 -7.98 24.34 -9 24 C-8.24069694 21.39195905 -7.46821306 18.78913119 -6.6875 16.1875 C-6.47416016 15.44951172 -6.26082031 14.71152344 -6.04101562 13.95117188 C-5.71713867 12.88286133 -5.71713867 12.88286133 -5.38671875 11.79296875 C-5.19295654 11.1383667 -4.99919434 10.48376465 -4.79956055 9.80932617 C-3.87207177 7.71051111 -2.62393246 6.59561914 -1 5 C-0.27802838 2.39388923 -0.27802838 2.39388923 0 0 Z " fill="#ECEDF4" transform="translate(274,38)"/>
<path d="M0 0 C0.99 0.99 1.98 1.98 3 3 C3.33 3 3.66 3 4 3 C4.02895976 6.12498063 4.04678483 9.2499269 4.0625 12.375 C4.07087891 13.26445313 4.07925781 14.15390625 4.08789062 15.0703125 C4.09111328 15.92109375 4.09433594 16.771875 4.09765625 17.6484375 C4.10289307 18.43395996 4.10812988 19.21948242 4.11352539 20.02880859 C4 22 4 22 3 24 C4.32 23.67 5.64 23.34 7 23 C6.01 23.8971875 6.01 23.8971875 5 24.8125 C2.09545619 29.44161669 2.66412755 33.67268974 3 39 C2.34 39 1.68 39 1 39 C0.67 39.66 0.34 40.32 0 41 C0 27.47 0 13.94 0 0 Z " fill="#7B9C43" transform="translate(144,69)"/>
<path d="M0 0 C0.33 0 0.66 0 1 0 C1 6.93 1 13.86 1 21 C-0.65 21.33 -2.3 21.66 -4 22 C-5 21 -5 21 -5.11352539 19.14233398 C-5.10828857 18.35157471 -5.10305176 17.56081543 -5.09765625 16.74609375 C-5.09443359 15.89208984 -5.09121094 15.03808594 -5.08789062 14.15820312 C-5.07951172 13.26037109 -5.07113281 12.36253906 -5.0625 11.4375 C-5.05798828 10.53580078 -5.05347656 9.63410156 -5.04882812 8.70507812 C-5.03700225 6.46998686 -5.0205222 4.23502563 -5 2 C-4.01 2 -3.02 2 -2 2 C-2 2.99 -2 3.98 -2 5 C-1.34 5 -0.68 5 0 5 C0 3.35 0 1.7 0 0 Z " fill="#90AD5F" transform="translate(53,90)"/>
<path d="M0 0 C0.9075 0.165 1.815 0.33 2.75 0.5 C5.91372977 0.98672766 7.94173339 0.80954116 11 0 C11.66 1.32 12.32 2.64 13 4 C12.34 4 11.68 4 11 4 C10.67 5.65 10.34 7.3 10 9 C7.36 9.33 4.72 9.66 2 10 C2 9.34 2 8.68 2 8 C-0.31 8 -2.62 8 -5 8 C-5 7.34 -5 6.68 -5 6 C-4.01 5.67 -3.02 5.34 -2 5 C-1.33820153 3.01954441 -1.33820153 3.01954441 -1 1 C-0.67 0.67 -0.34 0.34 0 0 Z " fill="#618C42" transform="translate(246,79)"/>
<path d="M0 0 C0.33 0.66 0.66 1.32 1 2 C1.66 2.33 2.32 2.66 3 3 C2.67 3.99 2.34 4.98 2 6 C6.455 6.99 6.455 6.99 11 8 C11 8.33 11 8.66 11 9 C9.02 9 7.04 9 5 9 C4.93941406 9.69867188 4.87882813 10.39734375 4.81640625 11.1171875 C4.73261719 12.02726562 4.64882812 12.93734375 4.5625 13.875 C4.48128906 14.77992187 4.40007812 15.68484375 4.31640625 16.6171875 C4 19 4 19 3 21 C2.34 21 1.68 21 1 21 C1 21.66 1 22.32 1 23 C0.01 23 -0.98 23 -2 23 C-2.24923458 15.06603268 -1.70994772 7.7558343 0 0 Z " fill="#B9CDBC" transform="translate(236,53)"/>
<path d="M0 0 C8.19256018 -0.63019694 8.19256018 -0.63019694 11.5625 2 C12.036875 2.66 12.51125 3.32 13 4 C12.34 5.32 11.68 6.64 11 8 C10.01 7.67 9.02 7.34 8 7 C4.45812169 6.66661404 4.45812169 6.66661404 1 7 C-1.15749784 10.23624676 -1.28360488 11.34394066 -1.4140625 15.10546875 C-1.45273437 16.08837891 -1.49140625 17.07128906 -1.53125 18.08398438 C-1.57765625 19.62022461 -1.57765625 19.62022461 -1.625 21.1875 C-1.66367187 22.22326172 -1.70234375 23.25902344 -1.7421875 24.32617188 C-1.83648296 26.88393622 -1.92208202 29.44169287 -2 32 C-2.33 32 -2.66 32 -3 32 C-3.33 24.41 -3.66 16.82 -4 9 C-4.33 10.65 -4.66 12.3 -5 14 C-5.33 14 -5.66 14 -6 14 C-6 10.37 -6 6.74 -6 3 C-5.34 3 -4.68 3 -4 3 C-4 3.66 -4 4.32 -4 5 C-2.68 5.33 -1.36 5.66 0 6 C0.33 5.01 0.66 4.02 1 3 C1 3.66 1 4.32 1 5 C2.98 4.67 4.96 4.34 7 4 C6.67 3.34 6.34 2.68 6 2 C2.97065509 1.34227572 2.97065509 1.34227572 0 1 C0 0.67 0 0.34 0 0 Z " fill="#92AD61" transform="translate(36,80)"/>
<path d="M0 0 C2 3 2 3 2 6 C4.31 5.01 6.62 4.02 9 3 C9 3.66 9 4.32 9 5 C14.1693489 4.59443869 14.1693489 4.59443869 19 3 C18.91253716 4.43861294 18.80434652 5.87597508 18.6875 7.3125 C18.62949219 8.11300781 18.57148438 8.91351563 18.51171875 9.73828125 C17.91793306 12.36272334 17.04219706 13.30820672 15 15 C14.67 14.01 14.34 13.02 14 12 C14.33 11.34 14.66 10.68 15 10 C14.01 10.33 13.02 10.66 12 11 C10.27204648 11.06802967 8.54164635 11.08495645 6.8125 11.0625 C5.91144531 11.05347656 5.01039063 11.04445313 4.08203125 11.03515625 C3.39496094 11.02355469 2.70789063 11.01195313 2 11 C2 10.67 2 10.34 2 10 C4.64 10 7.28 10 10 10 C10 9.01 10 8.02 10 7 C5.545 7.495 5.545 7.495 1 8 C-1.125 3.375 -1.125 3.375 0 0 Z " fill="#DAE9E9" transform="translate(262,99)"/>
<path d="M0 0 C6.6 0 13.2 0 20 0 C20.33 0.99 20.66 1.98 21 3 C15.06 2.01 15.06 2.01 9 1 C9 1.66 9 2.32 9 3 C8.01 3 7.02 3 6 3 C6 2.34 6 1.68 6 1 C4.68 1.33 3.36 1.66 2 2 C2 12.23 2 22.46 2 33 C1.34 33 0.68 33 0 33 C-1.12059395 27.33956389 -1.40287876 21.68684913 -1.6875 15.9375 C-1.74744141 14.95716797 -1.80738281 13.97683594 -1.86914062 12.96679688 C-1.91619141 12.01740234 -1.96324219 11.06800781 -2.01171875 10.08984375 C-2.05772217 9.23253662 -2.10372559 8.37522949 -2.15112305 7.49194336 C-2 5 -2 5 0 0 Z " fill="#F5FEE7" transform="translate(27,79)"/>
<path d="M0 0 C0.763125 0.165 1.52625 0.33 2.3125 0.5 C5.03596236 1.09145396 5.03596236 1.09145396 8 1 C7.67 1.66 7.34 2.32 7 3 C6.84579395 4.74766859 6.72550036 6.49842223 6.625 8.25 C6.23865958 12.78504215 5.64728136 16.17614914 3 20 C0.488616 21.70126013 -2.04859701 22.3675565 -5 23 C-4.67 22.34 -4.34 21.68 -4 21 C-3.34 21 -2.68 21 -2 21 C0.22958051 16.68947768 1.13808169 13.36638904 1.125 8.5 C1.12886719 7.06140625 1.12886719 7.06140625 1.1328125 5.59375 C1.10992972 2.88428848 1.10992972 2.88428848 0 0 Z " fill="#EFF7E7" transform="translate(106,87)"/>
<path d="M0 0 C0.99 0.33 1.98 0.66 3 1 C3.40214229 7.16618181 1.96818336 12.17745757 0 18 C-0.66 17.01 -1.32 16.02 -2 15 C-3.11375 15.350625 -4.2275 15.70125 -5.375 16.0625 C-9 17 -9 17 -11 16 C-10.67 15.01 -10.34 14.02 -10 13 C-8.1875 12.26171875 -8.1875 12.26171875 -6 11.6875 C-3.82743315 11.0331118 -3.82743315 11.0331118 -2 10 C-0.85968434 6.92202417 -0.85968434 6.92202417 -1 4 C-1.66 4 -2.32 4 -3 4 C-2 2 -2 2 0 0 Z " fill="#E8F0F7" transform="translate(282,88)"/>
<path d="M0 0 C3.875 1.75 3.875 1.75 5 4 C6.61995892 5.04500851 6.61995892 5.04500851 8.5 6 C11.88888889 7.77777778 11.88888889 7.77777778 13 10 C10.69 9.67 8.38 9.34 6 9 C6.33 8.01 6.66 7.02 7 6 C6.01 6.495 6.01 6.495 5 7 C5 7.99 5 8.98 5 10 C4.34 10 3.68 10 3 10 C3.66 12.97 4.32 15.94 5 19 C6.32 19.33 7.64 19.66 9 20 C8.67 20.99 8.34 21.98 8 23 C3.68149011 21.51085866 2.96167019 18.92334037 1 15 C-1.05093145 13.59533047 -1.05093145 13.59533047 -3 13 C-2.26330078 12.41798828 -2.26330078 12.41798828 -1.51171875 11.82421875 C0.50725753 9.38788304 0.30898805 7.93069328 0.1875 4.8125 C0.16042969 3.91144531 0.13335937 3.01039062 0.10546875 2.08203125 C0.05326172 1.05142578 0.05326172 1.05142578 0 0 Z " fill="#CAD7D5" transform="translate(236,94)"/>
<path d="M0 0 C1.32 0 2.64 0 4 0 C4 0.99 4 1.98 4 3 C3.34 3 2.68 3 2 3 C2 4.32 2 5.64 2 7 C2.66 7.33 3.32 7.66 4 8 C3.54625 8.556875 3.0925 9.11375 2.625 9.6875 C0.96266232 12.05313439 -0.02144543 14.29015658 -1 17 C-1.33 16.01 -1.66 15.02 -2 14 C-3.65 14 -5.3 14 -7 14 C-7.93423645 10.98968256 -8.04449911 10.13349732 -7 7 C-5.35 6.67 -3.7 6.34 -2 6 C-2 6.99 -2 7.98 -2 9 C-1.34 8.01 -0.68 7.02 0 6 C-1.32 5.34 -2.64 4.68 -4 4 C-3.34 4 -2.68 4 -2 4 C-2 3.34 -2 2.68 -2 2 C-1.34 2 -0.68 2 0 2 C0 1.34 0 0.68 0 0 Z " fill="#5F8634" transform="translate(237,33)"/>
<path d="M0 0 C4.62 0 9.24 0 14 0 C14 0.66 14 1.32 14 2 C12.03501678 3.38442 10.02951535 4.71203834 8 6 C7.319375 6.5775 6.63875 7.155 5.9375 7.75 C3.49369216 9.32665022 1.8523274 9.23769395 -1 9 C-0.67 6.03 -0.34 3.06 0 0 Z " fill="#CBE1CA" transform="translate(250,65)"/>
<path d="M0 0 C5.25278515 -0.65659814 8.1524079 0.92650156 12.4609375 3.61328125 C12.96882813 4.07089844 13.47671875 4.52851562 14 5 C14 5.99 14 6.98 14 8 C12.00045254 8.04254356 9.99958364 8.04080783 8 8 C7.67 7.67 7.34 7.34 7 7 C5.31816052 6.76712992 3.6287584 6.58735834 1.9375 6.4375 C1.01839844 6.35371094 0.09929687 6.26992187 -0.84765625 6.18359375 C-1.91306641 6.09271484 -1.91306641 6.09271484 -3 6 C-3 5.01 -3 4.02 -3 3 C-2.01 2.67 -1.02 2.34 0 2 C0 1.34 0 0.68 0 0 Z " fill="#DADCD7" transform="translate(90,112)"/>
<path d="M0 0 C0.66 0 1.32 0 2 0 C4 2 4 2 4.01171875 4.71484375 C3.90472656 5.77832031 3.79773438 6.84179688 3.6875 7.9375 C3.58824219 8.99839844 3.48898438 10.05929688 3.38671875 11.15234375 C3 14 3 14 2 17 C1.88095125 19.01829161 1.82478288 21.04073771 1.8125 23.0625 C1.79832031 24.12597656 1.78414062 25.18945312 1.76953125 26.28515625 C1.71877688 29.14861681 1.71877688 29.14861681 4 31 C3.67 31.66 3.34 32.32 3 33 C4.32 33.33 5.64 33.66 7 34 C5.35 34 3.7 34 2 34 C2 36.64 2 39.28 2 42 C1.67 42 1.34 42 1 42 C-0.79173213 36.67066706 -1.22338346 32.25222991 -0.9765625 26.66015625 C-0.95153656 25.89319931 -0.92651062 25.12624237 -0.90072632 24.33604431 C-0.81922603 21.91103192 -0.72237214 19.48692162 -0.625 17.0625 C-0.56668863 15.40823875 -0.50938701 13.75394159 -0.453125 12.09960938 C-0.31375301 8.06589706 -0.16061846 4.03291991 0 0 Z " fill="#78866F" transform="translate(233,47)"/>
<path d="M0 0 C0.66 0.33 1.32 0.66 2 1 C0.47096948 6.0307481 -1.60914369 10.61733745 -3.9375 15.3125 C-4.28490234 16.04017578 -4.63230469 16.76785156 -4.99023438 17.51757812 C-5.91489304 19.38605034 -6.95071786 21.19855917 -8 23 C-8.99 23.33 -9.98 23.66 -11 24 C-10.49093041 18.30023866 -8.2081574 14.1049437 -5.5 9.1875 C-5.08363281 8.41212891 -4.66726563 7.63675781 -4.23828125 6.83789062 C-1.17816964 1.17816964 -1.17816964 1.17816964 0 0 Z " fill="#545763" transform="translate(281,39)"/>
<path d="M0 0 C0.33 0 0.66 0 1 0 C1.33 6.6 1.66 13.2 2 20 C4.31 20.66 6.62 21.32 9 22 C8.67 23.65 8.34 25.3 8 27 C1.6 27.49230769 1.6 27.49230769 -1.4375 25 C-1.953125 24.34 -2.46875 23.68 -3 23 C-2.01 21.515 -2.01 21.515 -1 20 C-0.6349209 17.77868577 -0.6349209 17.77868577 -0.5859375 15.33203125 C-0.54726562 14.43935547 -0.50859375 13.54667969 -0.46875 12.62695312 C-0.4378125 11.69818359 -0.406875 10.76941406 -0.375 9.8125 C-0.33632812 8.87212891 -0.29765625 7.93175781 -0.2578125 6.96289062 C-0.16356813 4.6421229 -0.07795975 2.32136252 0 0 Z " fill="#1C1C1C" transform="translate(196,85)"/>
<path d="M0 0 C1.32 0 2.64 0 4 0 C3.814375 0.639375 3.62875 1.27875 3.4375 1.9375 C3.293125 2.618125 3.14875 3.29875 3 4 C3.33 4.33 3.66 4.66 4 5 C4.14115161 7.67058851 4.04247107 10.32432238 4 13 C3.67 13 3.34 13 3 13 C3 11.35 3 9.7 3 8 C-2.28 7.67 -7.56 7.34 -13 7 C-13 8.65 -13 10.3 -13 12 C-13.33 12 -13.66 12 -14 12 C-14.66 9.36 -15.32 6.72 -16 4 C-5.44191344 3.81548975 -5.44191344 3.81548975 -1 5 C-0.67 3.35 -0.34 1.7 0 0 Z " fill="#ADC1AD" transform="translate(263,58)"/>
<path d="M0 0 C0.33 2.64 0.66 5.28 1 8 C-3.29 7.67 -7.58 7.34 -12 7 C-11.67 5.35 -11.34 3.7 -11 2 C-3.57142857 0 -3.57142857 0 0 0 Z " fill="#E9ECF3" transform="translate(287,56)"/>
<path d="M0 0 C2.3125 0.1875 2.3125 0.1875 4 1 C3.9375 2.75 3.9375 2.75 3 5 C-1.3616075 8.07878177 -4.52276247 9.8713787 -10 9 C-11.875 7.5 -11.875 7.5 -13 6 C-11 5 -11 5 -8.1875 5.25 C-3.93233233 4.91626136 -2.89672347 2.97295303 0 0 Z " fill="#829F4B" transform="translate(101,103)"/>
<path d="M0 0 C0.66 0.66 1.32 1.32 2 2 C1.52339675 6.19864765 0.1108627 10.26250618 -1.0625 14.3125 C-1.42472656 15.56675781 -1.78695313 16.82101563 -2.16015625 18.11328125 C-2.57587891 19.54220703 -2.57587891 19.54220703 -3 21 C-4.32 21.33 -5.64 21.66 -7 22 C-6.44147333 16.5632024 -5.06042383 12.0816633 -2.9375 7.0625 C-2.65583984 6.37865234 -2.37417969 5.69480469 -2.08398438 4.99023438 C-1.3964595 3.32386054 -0.69923825 1.66149273 0 0 Z " fill="#51525B" transform="translate(271,36)"/>
<path d="M0 0 C1.32 0.33 2.64 0.66 4 1 C4.33 1.99 4.66 2.98 5 4 C6.65 4 8.3 4 10 4 C10 5.32 10 6.64 10 8 C5.71 8 1.42 8 -3 8 C-2.01 5.36 -1.02 2.72 0 0 Z " fill="#6E934E" transform="translate(262,85)"/>
<path d="M0 0 C0 0.33 0 0.66 0 1 C-1.65 1 -3.3 1 -5 1 C-4.67 2.32 -4.34 3.64 -4 5 C-2.35 5.33 -0.7 5.66 1 6 C0.67 7.65 0.34 9.3 0 11 C0.99 11 1.98 11 3 11 C3 11.99 3 12.98 3 14 C1.125 13.375 1.125 13.375 -1 12 C-2.25 8.875 -2.25 8.875 -3 6 C-3.99 6.33 -4.98 6.66 -6 7 C-8.1875 6.5625 -8.1875 6.5625 -10 6 C-10 5.34 -10 4.68 -10 4 C-10.99 3.67 -11.98 3.34 -13 3 C-13 2.34 -13 1.68 -13 1 C-12.34 1 -11.68 1 -11 1 C-11 1.66 -11 2.32 -11 3 C-10.484375 2.505 -9.96875 2.01 -9.4375 1.5 C-6.19319983 -0.49649241 -3.73782666 -0.21564385 0 0 Z " fill="#85A97D" transform="translate(251,90)"/>
<path d="M0 0 C2 3 2 3 1.5 5.625 C-0.46915551 10.0555999 -2.79734329 14.33283583 -6 18 C-6.99 18 -7.98 18 -9 18 C-8.46968862 13.4923533 -6.74778884 10.58045212 -4 7 C-3.34 7 -2.68 7 -2 7 C-1.855625 6.21625 -1.71125 5.4325 -1.5625 4.625 C-1 2 -1 2 0 0 Z " fill="#2E3943" transform="translate(260,83)"/>
<path d="M0 0 C2.64 0 5.28 0 8 0 C8 0.66 8 1.32 8 2 C6.7934375 2.4021875 6.7934375 2.4021875 5.5625 2.8125 C4.716875 3.204375 3.87125 3.59625 3 4 C2.67 4.99 2.34 5.98 2 7 C2.99 7 3.98 7 5 7 C5 7.99 5 8.98 5 10 C4.34 10 3.68 10 3 10 C3.66 11.65 4.32 13.3 5 15 C3.33333333 15 1.66666667 15 0 15 C0 10.05 0 5.1 0 0 Z " fill="#9EB997" transform="translate(235,81)"/>
<path d="M0 0 C1.32 0.33 2.64 0.66 4 1 C3.67 4.3 3.34 7.6 3 11 C2.34 11 1.68 11 1 11 C1 11.99 1 12.98 1 14 C0.01 14 -0.98 14 -2 14 C-2 14.99 -2 15.98 -2 17 C-5.13349732 18.04449911 -5.98968256 17.93423645 -9 17 C-9 16.34 -9 15.68 -9 15 C-7.35 14.67 -5.7 14.34 -4 14 C-4.33 12.68 -4.66 11.36 -5 10 C-3.02 9.34 -1.04 8.68 1 8 C1.6878236 5.64632287 1.6878236 5.64632287 2 3 C1.34 2.01 0.68 1.02 0 0 Z " fill="#699042" transform="translate(245,63)"/>
<path d="M0 0 C0 1.98 0 3.96 0 6 C-2.97 5.505 -2.97 5.505 -6 5 C-6.33 5.66 -6.66 6.32 -7 7 C-9.66666667 6.33333333 -12.33333333 5.66666667 -15 5 C-9.83783423 1.24569762 -6.43985624 -0.67081836 0 0 Z " fill="#769354" transform="translate(255,21)"/>
<path d="M0 0 C0.5625 1.9375 0.5625 1.9375 1 4 C0 5 0 5 -3.0625 5.0625 C-4.031875 5.041875 -5.00125 5.02125 -6 5 C-6.33 5.99 -6.66 6.98 -7 8 C-7.33 7.34 -7.66 6.68 -8 6 C-9.98 6.99 -9.98 6.99 -12 8 C-11.8125 5.6875 -11.8125 5.6875 -11 3 C-7.38920743 0.00820044 -4.60388896 -0.32120156 0 0 Z " fill="#D9D9D9" transform="translate(204,112)"/>
<path d="M0 0 C0.66 0 1.32 0 2 0 C2 0.66 2 1.32 2 2 C4.64 2.66 7.28 3.32 10 4 C10 5.65 10 7.3 10 9 C8.58194169 8.71517632 7.16559621 8.42181856 5.75 8.125 C4.96109375 7.96257812 4.1721875 7.80015625 3.359375 7.6328125 C1.03168856 7.00849925 -0.89031952 6.15161458 -3 5 C-2 3 -2 3 0 0 Z " fill="#D6E5E6" transform="translate(241,100)"/>
<path d="M0 0 C0.99 0 1.98 0 3 0 C3.05434116 2.5419589 3.0938339 5.08273682 3.125 7.625 C3.15013672 8.69427734 3.15013672 8.69427734 3.17578125 9.78515625 C3.21684602 14.2612164 2.69086567 17.77949278 1 22 C1.66 22.33 2.32 22.66 3 23 C2.01 23.33 1.02 23.66 0 24 C0 16.08 0 8.16 0 0 Z " fill="#EAF4D3" transform="translate(149,67)"/>
<path d="M0 0 C0.33 1.32 0.66 2.64 1 4 C4.63 4 8.26 4 12 4 C11.67 4.99 11.34 5.98 11 7 C5.39 6.67 -0.22 6.34 -6 6 C-5.67 4.35 -5.34 2.7 -5 1 C-4.67 1.99 -4.34 2.98 -4 4 C-2.68 2.68 -1.36 1.36 0 0 Z " fill="#C3CBCD" transform="translate(274,59)"/>
<path d="M0 0 C1.8871875 0.0309375 1.8871875 0.0309375 3.8125 0.0625 C3.8125 0.7225 3.8125 1.3825 3.8125 2.0625 C4.4725 1.7325 5.1325 1.4025 5.8125 1.0625 C8.8125 0.0625 8.8125 0.0625 11.8125 1.0625 C8.62891663 3.9006946 6.55178226 4.47243914 2.3125 4.4375 C0.90484375 4.44910156 0.90484375 4.44910156 -0.53125 4.4609375 C-3.55066774 4.00802484 -4.93452018 3.07105276 -7.1875 1.0625 C-4.43671116 0.14557039 -2.82801087 -0.04636083 0 0 Z " fill="#88A856" transform="translate(125.1875,107.9375)"/>
<path d="M0 0 C1.65 0 3.3 0 5 0 C5 7.92 5 15.84 5 24 C4.67 24 4.34 24 4 24 C3.67 21.36 3.34 18.72 3 16 C2.67 16 2.34 16 2 16 C1.93941406 15.26394531 1.87882813 14.52789062 1.81640625 13.76953125 C1.73261719 12.79371094 1.64882812 11.81789063 1.5625 10.8125 C1.48128906 9.84957031 1.40007812 8.88664062 1.31640625 7.89453125 C1.02333849 5.21350398 0.57296246 2.6337014 0 0 Z " fill="#89A35C" transform="translate(144,67)"/>
<path d="M0 0 C0.99 0.66 1.98 1.32 3 2 C2.525625 2.86625 2.05125 3.7325 1.5625 4.625 C0.06765105 7.85387374 -0.58218313 10.49033826 -1 14 C1.64 13.67 4.28 13.34 7 13 C7 15.97 7 18.94 7 22 C6.67 22 6.34 22 6 22 C5.855625 21.21625 5.71125 20.4325 5.5625 19.625 C5.12201075 17.03578982 5.12201075 17.03578982 4 15 C2.02 15 0.04 15 -2 15 C-3.18347782 9.08261088 -2.68005454 5.36010907 0 0 Z " fill="#F0F9E3" transform="translate(227,35)"/>
<path d="M0 0 C-0.59861742 2.35171131 -1.26924352 4.6859378 -2 7 C-2.99 7.495 -2.99 7.495 -4 8 C-4.66 7.67 -5.32 7.34 -6 7 C-6 12.94 -6 18.88 -6 25 C-6.33 25 -6.66 25 -7 25 C-7.08701039 21.39598519 -7.14039388 17.79223988 -7.1875 14.1875 C-7.21263672 13.16333984 -7.23777344 12.13917969 -7.26367188 11.08398438 C-7.27333984 10.10107422 -7.28300781 9.11816406 -7.29296875 8.10546875 C-7.3086792 7.19949951 -7.32438965 6.29353027 -7.34057617 5.36010742 C-7 3 -7 3 -5.73168945 1.1809082 C-4 0 -4 0 0 0 Z " fill="#E8F5D6" transform="translate(80,86)"/>
<path d="M0 0 C5.61 0 11.22 0 17 0 C17 0.99 17 1.98 17 3 C15.04174127 3.02694851 13.08337774 3.04637218 11.125 3.0625 C10.03445313 3.07410156 8.94390625 3.08570312 7.8203125 3.09765625 C5 3 5 3 3 2 C3 2.66 3 3.32 3 4 C2.01 4 1.02 4 0 4 C0 2.68 0 1.36 0 0 Z " fill="#EEFAFA" transform="translate(247,114)"/>
<path d="M0 0 C0.80824219 0.11085938 1.61648437 0.22171875 2.44921875 0.3359375 C3.37154297 0.47902344 3.37154297 0.47902344 4.3125 0.625 C3.631875 1.2025 2.95125 1.78 2.25 2.375 C1.610625 3.1175 0.97125 3.86 0.3125 4.625 C0.39821661 6.71791157 0.39821661 6.71791157 1.3125 8.625 C1.6425 9.615 1.9725 10.605 2.3125 11.625 C1.3225 11.295 0.3325 10.965 -0.6875 10.625 C-1.161875 9.635 -1.63625 8.645 -2.125 7.625 C-3.34545597 4.48610939 -3.34545597 4.48610939 -5.875 3.75 C-6.473125 3.70875 -7.07125 3.6675 -7.6875 3.625 C-7.6875 2.965 -7.6875 2.305 -7.6875 1.625 C-4.33422361 -0.61051759 -3.78006343 -0.54783528 0 0 Z " fill="#8DAA5F" transform="translate(159.6875,86.375)"/>
<path d="M0 0 C1.98 0.99 3.96 1.98 6 3 C6 3.66 6 4.32 6 5 C6.66 5 7.32 5 8 5 C8 5.66 8 6.32 8 7 C7.05125 6.855625 6.1025 6.71125 5.125 6.5625 C0.43259653 5.88802722 -4.28134412 5.44623104 -9 5 C-5.5647952 2.70986347 -4.014669 2.82157027 0 3 C0 2.01 0 1.02 0 0 Z " fill="#E2E2E2" transform="translate(227,113)"/>
<path d="M0 0 C0.99 0.33 1.98 0.66 3 1 C3 1.99 3 2.98 3 4 C3.99 3.67 4.98 3.34 6 3 C5.67 5.64 5.34 8.28 5 11 C3.68 10.67 2.36 10.34 1 10 C-1.125 3.375 -1.125 3.375 0 0 Z " fill="#799E42" transform="translate(48,84)"/>
<path d="M0 0 C0.33 0.99 0.66 1.98 1 3 C-2.14494785 6.77393742 -5.2000409 8.35890957 -10 9 C-14.33922092 9.1520755 -18.66030307 9.11746548 -23 9 C-23 8.67 -23 8.34 -23 8 C-21.89591797 7.92652344 -21.89591797 7.92652344 -20.76953125 7.8515625 C-19.79371094 7.77679688 -18.81789063 7.70203125 -17.8125 7.625 C-16.84957031 7.55539063 -15.88664062 7.48578125 -14.89453125 7.4140625 C-11.97779768 6.99682396 -9.70857949 6.11984967 -7 5 C-6.01 5 -5.02 5 -4 5 C-3.67 4.01 -3.34 3.02 -3 2 C-2.34 2.33 -1.68 2.66 -1 3 C-0.67 2.01 -0.34 1.02 0 0 Z " fill="#C0C9C8" transform="translate(276,112)"/>
<path d="M0 0 C1.98 0 3.96 0 6 0 C5.360625 0.165 4.72125 0.33 4.0625 0.5 C1.55325818 1.96146285 1.55325818 1.96146285 1.3125 5.8125 C1.20572999 7.20813661 1.10143273 8.60396533 1 10 C0.68676972 11.67056149 0.36321485 13.33958925 0 15 C-1.875 15.625 -1.875 15.625 -4 16 C-4.66 15.34 -5.32 14.68 -6 14 C-5.34 14 -4.68 14 -4 14 C-4 13.34 -4 12.68 -4 12 C-3.34 12 -2.68 12 -2 12 C-1.93941406 11.30132812 -1.87882813 10.60265625 -1.81640625 9.8828125 C-1.73261719 8.97273438 -1.64882812 8.06265625 -1.5625 7.125 C-1.48128906 6.22007813 -1.40007812 5.31515625 -1.31640625 4.3828125 C-1 2 -1 2 0 0 Z " fill="#7D9F5E" transform="translate(241,62)"/>
<path d="M0 0 C2.97 0.33 5.94 0.66 9 1 C9 3.31 9 5.62 9 8 C8.67 8 8.34 8 8 8 C8 6.35 8 4.7 8 3 C2.79459302 3.96396425 -1.59913433 4.87680501 -6 8 C-5.67 6.35 -5.34 4.7 -5 3 C-3.35 2.67 -1.7 2.34 0 2 C0 1.34 0 0.68 0 0 Z " fill="#E3EED3" transform="translate(247,18)"/>
<path d="M0 0 C2.5625 2.1875 2.5625 2.1875 5 5 C4.8125 7.8125 4.8125 7.8125 4 10 C2.1875 9.8125 2.1875 9.8125 0 9 C-1.75 6.4375 -1.75 6.4375 -3 4 C-2.01 3.34 -1.02 2.68 0 2 C0 1.34 0 0.68 0 0 Z " fill="#8CA75E" transform="translate(165,102)"/>
<path d="M0 0 C0.33 1.32 0.66 2.64 1 4 C1.66 4 2.32 4 3 4 C3.25 6.3125 3.25 6.3125 3 9 C1 10.8125 1 10.8125 -1 12 C-0.34 9.69 0.32 7.38 1 5 C-3.62 5.33 -8.24 5.66 -13 6 C-13.33 6.99 -13.66 7.98 -14 9 C-14.66 9 -15.32 9 -16 9 C-15.34 7.35 -14.68 5.7 -14 4 C-9.38 4 -4.76 4 0 4 C0 2.68 0 1.36 0 0 Z " fill="#A2B89F" transform="translate(272,89)"/>
<path d="M0 0 C0.91996675 4.29317818 1.25564319 7.75013074 0 12 C-2.0625 13.375 -2.0625 13.375 -4 14 C-3.33333333 11.33333333 -2.66666667 8.66666667 -2 6 C-4.49064888 5.31292445 -6.37886292 5 -9 5 C-2.87096774 0 -2.87096774 0 0 0 Z " fill="#6D8E5B" transform="translate(266,66)"/>
<path d="M0 0 C0.33 0 0.66 0 1 0 C1 4.95 1 9.9 1 15 C-0.65 15 -2.3 15 -4 15 C-3.67 13.68 -3.34 12.36 -3 11 C-2.34 11 -1.68 11 -1 11 C-1.20625 9.9275 -1.4125 8.855 -1.625 7.75 C-1.9876191 4.12380904 -1.98362069 2.91708924 0 0 Z " fill="#89A45C" transform="translate(148,97)"/>
<path d="M0 0 C0.66 0 1.32 0 2 0 C4 2 4 2 4.01171875 4.71484375 C3.90472656 5.77832031 3.79773438 6.84179688 3.6875 7.9375 C3.58824219 8.99839844 3.48898438 10.05929688 3.38671875 11.15234375 C3 14 3 14 2 17 C1.34 17 0.68 17 0 17 C0 11.39 0 5.78 0 0 Z " fill="#878F91" transform="translate(233,47)"/>
<path d="M0 0 C0.99 0.33 1.98 0.66 3 1 C2.34 1.433125 1.68 1.86625 1 2.3125 C-2.12953609 6.51781411 -1.31484528 10.92749266 -1 16 C-1.66 16 -2.32 16 -3 16 C-3.33 16.66 -3.66 17.32 -4 18 C-4.10864945 15.93867858 -4.18588321 13.87568679 -4.25 11.8125 C-4.29640625 10.66394531 -4.3428125 9.51539062 -4.390625 8.33203125 C-3.92924572 4.39646601 -2.70028512 2.82254213 0 0 Z " fill="#769E39" transform="translate(148,92)"/>
<path d="M0 0 C0.99 0 1.98 0 3 0 C3 0.99 3 1.98 3 3 C3.99 3.33 4.98 3.66 6 4 C6 5.65 6 7.3 6 9 C3.28071483 8.62492618 2.15781339 8.15781339 0.1875 6.1875 C-1 4 -1 4 -0.6875 1.75 C-0.460625 1.1725 -0.23375 0.595 0 0 Z " fill="#809F45" transform="translate(114,99)"/>
<path d="M0 0 C1.96301592 3.50538557 2.95902388 7.13351728 4 11 C5.32 11.33 6.64 11.66 8 12 C7.67 12.99 7.34 13.98 7 15 C2.68149011 13.51085866 1.96167019 10.92334037 0 7 C-2.05093145 5.59533047 -2.05093145 5.59533047 -4 5 C-2.68 3.35 -1.36 1.7 0 0 Z " fill="#B0B9BB" transform="translate(237,102)"/>
<path d="M0 0 C-0.66 1.98 -1.32 3.96 -2 6 C-4.97 5.505 -4.97 5.505 -8 5 C-8.33 3.68 -8.66 2.36 -9 1 C-5.846632 0.29925156 -3.27275026 0 0 0 Z " fill="#AEC6B6" transform="translate(255,90)"/>
<path d="M0 0 C1.1446875 0.2475 1.1446875 0.2475 2.3125 0.5 C5.03596236 1.09145396 5.03596236 1.09145396 8 1 C7.67 1.66 7.34 2.32 7 3 C6.77377919 4.70363822 6.59111527 6.41328701 6.4375 8.125 C6.35371094 9.03507812 6.26992187 9.94515625 6.18359375 10.8828125 C6.12300781 11.58148438 6.06242187 12.28015625 6 13 C3.69649577 10.18675674 2.38367283 7.71855963 1.3125 4.25 C1.06113281 3.45078125 0.80976562 2.6515625 0.55078125 1.828125 C0.36902344 1.22484375 0.18726562 0.6215625 0 0 Z " fill="#F0F9E5" transform="translate(106,87)"/>
<path d="M0 0 C2.875 2.5 2.875 2.5 5 5 C4.38511719 4.83242187 3.77023438 4.66484375 3.13671875 4.4921875 C2.32847656 4.28851563 1.52023438 4.08484375 0.6875 3.875 C-0.51326172 3.56175781 -0.51326172 3.56175781 -1.73828125 3.2421875 C-4.28207233 2.72572666 -4.28207233 2.72572666 -7 5 C-8.32 5 -9.64 5 -11 5 C-10 2 -10 2 -8.3125 0.8125 C-5.25643926 -0.26125107 -3.22269723 -0.46038532 0 0 Z " fill="#EAF7D1" transform="translate(96,85)"/>
<path d="M0 0 C0.99 0 1.98 0 3 0 C2.01 3.63 1.02 7.26 0 11 C-0.99 11 -1.98 11 -3 11 C-2.53199289 6.94393835 -2.12046792 3.53411321 0 0 Z " fill="#3C3C43" transform="translate(275,25)"/>
<path d="M0 0 C1.67542976 0.28604898 3.34385343 0.61781233 5 1 C5.33 1.99 5.66 2.98 6 4 C5.67 4.66 5.34 5.32 5 6 C4.34 6 3.68 6 3 6 C3 7.98 3 9.96 3 12 C2.67 12 2.34 12 2 12 C1.51171875 10.01432292 1.0234375 8.02864583 0.53515625 6.04296875 C0.08989295 4.34316798 -0.44433985 2.66698046 -1 1 C-0.67 0.67 -0.34 0.34 0 0 Z " fill="#82A24D" transform="translate(66,84)"/>
<path d="M0 0 C2.97 0 5.94 0 9 0 C8.67 0.99 8.34 1.98 8 3 C6.68 2.67 5.36 2.34 4 2 C4 2.66 4 3.32 4 4 C4.66 4 5.32 4 6 4 C5.67 5.32 5.34 6.64 5 8 C2.78918279 6.8945914 1.56012405 5.9146977 0 4 C0 2.68 0 1.36 0 0 Z " fill="#B1CB98" transform="translate(274,80)"/>
<path d="M0 0 C-1.32 0.33 -2.64 0.66 -4 1 C-4 1.66 -4 2.32 -4 3 C-3.34 3.33 -2.68 3.66 -2 4 C-2.33 4.66 -2.66 5.32 -3 6 C-3.66 6 -4.32 6 -5 6 C-5.66 7.32 -6.32 8.64 -7 10 C-7.33 10 -7.66 10 -8 10 C-8.36272727 3.59181818 -8.36272727 3.59181818 -6.8125 1.0625 C-4.43958382 -0.32851983 -2.70313576 -0.21917317 0 0 Z " fill="#D8DDE0" transform="translate(245,42)"/>
<path d="M0 0 C0.66 0 1.32 0 2 0 C2.95261487 4.76307437 3.08333357 9.1666528 3 14 C2.01 14.33 1.02 14.66 0 15 C0 10.05 0 5.1 0 0 Z " fill="#ECF5DB" transform="translate(149,97)"/>
<path d="M0 0 C0.99 0.33 1.98 0.66 3 1 C3 3.97 3 6.94 3 10 C2.01 10 1.02 10 0 10 C-0.19412181 8.52168779 -0.38012131 7.04230684 -0.5625 5.5625 C-0.66691406 4.73878906 -0.77132812 3.91507812 -0.87890625 3.06640625 C-0.91886719 2.38449219 -0.95882812 1.70257813 -1 1 C-0.67 0.67 -0.34 0.34 0 0 Z " fill="#7E9F44" transform="translate(105,91)"/>
<path d="M0 0 C2 1.5 2 1.5 3 3 C1.68 3 0.36 3 -1 3 C-1 2.34 -1 1.68 -1 1 C-5.23039958 2.74192924 -9.1273638 4.53559514 -13 7 C-10.64752882 0.12354578 -6.79528336 -0.97682198 0 0 Z " fill="#EAF5D7" transform="translate(131,85)"/>
<path d="M0 0 C-1 1.5 -1 1.5 -3 3 C-5.71846235 3.27345479 -8.25677199 3.13491285 -11 3 C-11.33 2.01 -11.66 1.02 -12 0 C-7.91556885 -1.53166168 -4.20544343 -0.63081652 0 0 Z " fill="#8CB06B" transform="translate(278,86)"/>
<path d="M0 0 C-0.7109375 1.953125 -0.7109375 1.953125 -2 4 C-4.1640625 4.609375 -4.1640625 4.609375 -6.625 4.75 C-7.44226562 4.80671875 -8.25953125 4.8634375 -9.1015625 4.921875 C-9.72804687 4.94765625 -10.35453125 4.9734375 -11 5 C-11 4.01 -11 3.02 -11 2 C-7.36576791 -0.32590854 -4.22911669 -0.16265833 0 0 Z " fill="#7B9D42" transform="translate(64,81)"/>
<path d="M0 0 C3.3 0 6.6 0 10 0 C10 0.66 10 1.32 10 2 C6.5980513 4.09350689 3.94727588 4.17942163 0 4 C0 2.68 0 1.36 0 0 Z " fill="#DCF0DE" transform="translate(254,65)"/>
<path d="M0 0 C0.33 0.66 0.66 1.32 1 2 C-1 4 -1 4 -4.0625 4.0625 C-5.031875 4.041875 -6.00125 4.02125 -7 4 C-7.33 4.33 -7.66 4.66 -8 5 C-7.34 5.66 -6.68 6.32 -6 7 C-8.9375 6.625 -8.9375 6.625 -12 6 C-12.33 5.34 -12.66 4.68 -13 4 C-11.35 3.67 -9.7 3.34 -8 3 C-8 2.34 -8 1.68 -8 1 C-5.36 0.67 -2.72 0.34 0 0 Z " fill="#97B36A" transform="translate(97,105)"/>
<path d="M0 0 C0.33 0.66 0.66 1.32 1 2 C0.04738281 1.96519531 -0.90523437 1.93039063 -1.88671875 1.89453125 C-3.14097656 1.86746094 -4.39523438 1.84039062 -5.6875 1.8125 C-6.92886719 1.77769531 -8.17023438 1.74289063 -9.44921875 1.70703125 C-13.18564321 2.0153171 -15.00629483 2.81911727 -18 5 C-18 3.68 -18 2.36 -18 1 C-11.84811243 -0.93670535 -6.35401129 -1.53586238 0 0 Z " fill="#DCE7CC" transform="translate(134,79)"/>
<path d="M0 0 C1.33333333 0 2.66666667 0 4 0 C4 2.64 4 5.28 4 8 C3.01 8 2.02 8 1 8 C0.67 9.32 0.34 10.64 0 12 C-0.66 11.67 -1.32 11.34 -2 11 C-2 8.69 -2 6.38 -2 4 C-1.34 3.67 -0.68 3.34 0 3 C0 2.01 0 1.02 0 0 Z " fill="#507340" transform="translate(258,78)"/>
<path d="M0 0 C1.32 0 2.64 0 4 0 C4 0.99 4 1.98 4 3 C3.34 3 2.68 3 2 3 C2 4.32 2 5.64 2 7 C2.66 7.33 3.32 7.66 4 8 C3.67 8.66 3.34 9.32 3 10 C2.34 10 1.68 10 1 10 C0.87625 9.071875 0.87625 9.071875 0.75 8.125 C0.18741541 5.81562433 0.18741541 5.81562433 -2.0625 4.75 C-2.701875 4.5025 -3.34125 4.255 -4 4 C-3.34 4 -2.68 4 -2 4 C-2 3.34 -2 2.68 -2 2 C-1.34 2 -0.68 2 0 2 C0 1.34 0 0.68 0 0 Z " fill="#4C6B2E" transform="translate(237,33)"/>
<path d="M0 0 C0.33 0.66 0.66 1.32 1 2 C3.31 2 5.62 2 8 2 C8 3.98 8 5.96 8 8 C5.36 6.68 2.72 5.36 0 4 C0 2.68 0 1.36 0 0 Z " fill="#90B48C" transform="translate(240,94)"/>
<path d="M0 0 C1.3271261 3.9813783 1.06915913 7.85045227 1 12 C0.01 12.495 0.01 12.495 -1 13 C-1.13277344 12.38511719 -1.26554688 11.77023438 -1.40234375 11.13671875 C-1.57894531 10.32847656 -1.75554687 9.52023438 -1.9375 8.6875 C-2.11152344 7.88699219 -2.28554687 7.08648437 -2.46484375 6.26171875 C-2.99886159 3.854599 -2.99886159 3.854599 -4 1 C-2 0 -2 0 0 0 Z " fill="#070C09" transform="translate(234,85)"/>
<path d="M0 0 C0.66 0.33 1.32 0.66 2 1 C0.8905928 4.48670834 -0.26337666 7.77484237 -2 11 C-2.66 11 -3.32 11 -4 11 C-3.56179109 6.44262737 -3.14958831 3.42346555 0 0 Z " fill="#3D3D48" transform="translate(281,39)"/>
<path d="M0 0 C0.33 0.99 0.66 1.98 1 3 C0.34 3 -0.32 3 -1 3 C-0.67 4.32 -0.34 5.64 0 7 C-1.32 7.33 -2.64 7.66 -4 8 C-5.4606285 5.35261084 -6 4.10551666 -6 1 C-4.7934375 1.0309375 -4.7934375 1.0309375 -3.5625 1.0625 C-1.06645115 1.29633621 -1.06645115 1.29633621 0 0 Z " fill="#799267" transform="translate(239,27)"/>
<path d="M0 0 C0.66 0.33 1.32 0.66 2 1 C2 1.66 2 2.32 2 3 C1.34 3 0.68 3 0 3 C-0.33 3.99 -0.66 4.98 -1 6 C-2.32 5.67 -3.64 5.34 -5 5 C-4.67 3.68 -4.34 2.36 -4 1 C-4.66 0.67 -5.32 0.34 -6 0 C-3.4832097 -1.25839515 -2.62168527 -0.81927665 0 0 Z " fill="#63873C" transform="translate(248,27)"/>
<path d="M0 0 C0.66 0.99 1.32 1.98 2 3 C1.375 6.0625 1.375 6.0625 0 9 C-2.125 10.375 -2.125 10.375 -4 11 C-4 9.68 -4 8.36 -4 7 C-3.34 7 -2.68 7 -2 7 C-1.855625 6.21625 -1.71125 5.4325 -1.5625 4.625 C-1 2 -1 2 0 0 Z " fill="#1A2D1B" transform="translate(260,83)"/>
<path d="M0 0 C3.465 1.98 3.465 1.98 7 4 C6.67 5.65 6.34 7.3 6 9 C5.67 8.34 5.34 7.68 5 7 C5.33 6.34 5.66 5.68 6 5 C4.02 6.32 2.04 7.64 0 9 C0 6.03 0 3.06 0 0 Z " fill="#EBEEE4" transform="translate(163,109)"/>
<path d="M0 0 C2.64 0 5.28 0 8 0 C8.33 0.66 8.66 1.32 9 2 C4.545 3.485 4.545 3.485 0 5 C-0.33 4.34 -0.66 3.68 -1 3 C-0.67 2.01 -0.34 1.02 0 0 Z " fill="#E7F3FA" transform="translate(245,109)"/>
<path d="M0 0 C0.99 0.33 1.98 0.66 3 1 C4.72795352 1.06802967 6.45835365 1.08495645 8.1875 1.0625 C9.08855469 1.05347656 9.98960937 1.04445313 10.91796875 1.03515625 C11.94857422 1.01775391 11.94857422 1.01775391 13 1 C12.67 1.66 12.34 2.32 12 3 C9.66255706 3.46806645 7.30260921 3.82669794 4.9375 4.125 C3.00197266 4.37636719 3.00197266 4.37636719 1.02734375 4.6328125 C-0.47119141 4.81457031 -0.47119141 4.81457031 -2 5 C-1.34 4.67 -0.68 4.34 0 4 C0 2.68 0 1.36 0 0 Z " fill="#93AB66" transform="translate(120,104)"/>
<path d="M0 0 C0.33 0.66 0.66 1.32 1 2 C-0.65 2.66 -2.3 3.32 -4 4 C-4 3.34 -4 2.68 -4 2 C-6.31 2 -8.62 2 -11 2 C-11 1.34 -11 0.68 -11 0 C-7.17907588 -1.37553268 -3.91765889 -0.81309902 0 0 Z " fill="#6C9746" transform="translate(252,85)"/>
<path d="M0 0 C1.32 0 2.64 0 4 0 C3.814375 0.639375 3.62875 1.27875 3.4375 1.9375 C3.293125 2.618125 3.14875 3.29875 3 4 C3.33 4.33 3.66 4.66 4 5 C4.14115161 7.67058851 4.04247107 10.32432238 4 13 C3.67 13 3.34 13 3 13 C3 10.69 3 8.38 3 6 C1.68 5.67 0.36 5.34 -1 5 C-0.67 3.35 -0.34 1.7 0 0 Z " fill="#97A49F" transform="translate(263,58)"/>
<path d="M0 0 C0.66 0.66 1.32 1.32 2 2 C1.61233695 5.58588324 0.41433748 8.69987921 -1 12 C-1.66 12 -2.32 12 -3 12 C-2.49202991 7.6822542 -1.80317221 3.96697886 0 0 Z " fill="#383940" transform="translate(271,36)"/>
<path d="M0 0 C0 0.99 0 1.98 0 3 C-1.99954746 3.04254356 -4.00041636 3.04080783 -6 3 C-6.33 2.67 -6.66 2.34 -7 2 C-8.34747084 1.76924918 -9.70377565 1.58846937 -11.0625 1.4375 C-12.361875 1.293125 -13.66125 1.14875 -15 1 C-15 0.67 -15 0.34 -15 0 C-13.06325815 -0.19517554 -11.12555991 -0.38087873 -9.1875 -0.5625 C-8.10855469 -0.66691406 -7.02960938 -0.77132812 -5.91796875 -0.87890625 C-3 -1 -3 -1 0 0 Z " fill="#E3E3E3" transform="translate(104,117)"/>
<path d="M0 0 C2 1.1875 2 1.1875 4 3 C4.25 5.6875 4.25 5.6875 4 8 C3.67 6.68 3.34 5.36 3 4 C2.484375 4.350625 1.96875 4.70125 1.4375 5.0625 C-1.94006667 6.3615641 -4.50468057 5.67217681 -8 5 C-8 4.67 -8 4.34 -8 4 C-4.535 3.505 -4.535 3.505 -1 3 C-0.67 2.01 -0.34 1.02 0 0 Z " fill="#F4FAE5" transform="translate(139,84)"/>
<path d="M0 0 C0.33 1.32 0.66 2.64 1 4 C4.465 3.505 4.465 3.505 8 3 C7.67 3.66 7.34 4.32 7 5 C6.34 5 5.68 5 5 5 C5 5.66 5 6.32 5 7 C3.02 7.33 1.04 7.66 -1 8 C-0.67 5.36 -0.34 2.72 0 0 Z " fill="#9DBE8F" transform="translate(248,70)"/>
<path d="M0 0 C0.66 0 1.32 0 2 0 C1.56802365 4.7517398 0.67230705 6.92000054 -3 10 C-4 7 -4 7 -3.22265625 5.17578125 C-2.1484375 3.45052083 -1.07421875 1.72526042 0 0 Z " fill="#313139" transform="translate(286,29)"/>
<path d="M0 0 C0.99 0.66 1.98 1.32 3 2 C3.1875 4.625 3.1875 4.625 3 7 C2.01 7.33 1.02 7.66 0 8 C-1.65 6.35 -3.3 4.7 -5 3 C-3.35 3 -1.7 3 0 3 C0 2.01 0 1.02 0 0 Z " fill="#8AA456" transform="translate(102,83)"/>
<path d="M0 0 C1.53445094 3.06890187 0.54984289 5.70094266 0 9 C-0.99 9.33 -1.98 9.66 -3 10 C-3 7.03 -3 4.06 -3 1 C-2.01 0.67 -1.02 0.34 0 0 Z " fill="#DCDED9" transform="translate(72,111)"/>
<path d="M0 0 C0.33 0.66 0.66 1.32 1 2 C0.67 2.66 0.34 3.32 0 4 C-2.3431213 3.74438677 -4.67843403 3.40729228 -7 3 C-7.33 2.34 -7.66 1.68 -8 1 C-5.29120665 -0.35439668 -2.99066732 -0.06501451 0 0 Z " fill="#799F41" transform="translate(96,108)"/>
<path d="M0 0 C0.33 0 0.66 0 1 0 C1.12117188 0.67546875 1.24234375 1.3509375 1.3671875 2.046875 C1.53476563 2.93890625 1.70234375 3.8309375 1.875 4.75 C2.03742188 5.63171875 2.19984375 6.5134375 2.3671875 7.421875 C2.96796264 9.86947744 3.77997117 11.80599857 5 14 C2.13275314 13.42655063 1.1385485 13.1385485 -1 11 C-0.67 10.01 -0.34 9.02 0 8 C0.06665376 6.60560336 0.08538199 5.20830125 0.0625 3.8125 C0.041875 2.554375 0.02125 1.29625 0 0 Z " fill="#91AE65" transform="translate(82,92)"/>
<path d="M0 0 C0.33 0.66 0.66 1.32 1 2 C1.66 2 2.32 2 3 2 C3 2.99 3 3.98 3 5 C3.5775 5.2475 4.155 5.495 4.75 5.75 C7.3002997 7.16683317 9.01785701 8.87627537 11 11 C8.15301606 10.91626518 6.448839 10.40889548 4.33203125 8.48046875 C0 3.59278504 0 3.59278504 0 0 Z " fill="#96A985" transform="translate(269,70)"/>
<path d="M0 0 C0.66 0.33 1.32 0.66 2 1 C2.5625 2.75 2.5625 2.75 3 5 C3.185625 5.9075 3.37125 6.815 3.5625 7.75 C3.706875 8.4925 3.85125 9.235 4 10 C3.34 10 2.68 10 2 10 C2 9.34 2 8.68 2 8 C1.01 8 0.02 8 -1 8 C-1.125 2.25 -1.125 2.25 0 0 Z " fill="#BACFAC" transform="translate(268,69)"/>
<path d="M0 0 C0.33 0.66 0.66 1.32 1 2 C1.66 2.33 2.32 2.66 3 3 C2.67 3.99 2.34 4.98 2 6 C6.455 6.99 6.455 6.99 11 8 C11 8.33 11 8.66 11 9 C9.54257537 9.08096803 8.08387193 9.13917774 6.625 9.1875 C5.81289062 9.22230469 5.00078125 9.25710937 4.1640625 9.29296875 C3.44992188 9.19628906 2.73578125 9.09960938 2 9 C-0.29013653 5.5647952 -0.17842973 4.014669 0 0 Z " fill="#C8D5D1" transform="translate(236,53)"/>
<path d="M0 0 C1.98 0.495 1.98 0.495 4 1 C3.67 2.65 3.34 4.3 3 6 C1.68 5.67 0.36 5.34 -1 5 C-0.67 3.35 -0.34 1.7 0 0 Z " fill="#2A2A2A" transform="translate(177,71)"/>
<path d="M0 0 C0.99 0 1.98 0 3 0 C3 2.64 3 5.28 3 8 C2.34 7.34 1.68 6.68 1 6 C0.34 6.66 -0.32 7.32 -1 8 C-1.125 2.25 -1.125 2.25 0 0 Z " fill="#D9DAD7" transform="translate(145,112)"/>
<path d="M0 0 C1.65 0 3.3 0 5 0 C4.67 1.65 4.34 3.3 4 5 C2.35 5 0.7 5 -1 5 C-0.67 3.35 -0.34 1.7 0 0 Z " fill="#0C0C0C" transform="translate(200,107)"/>
<path d="M0 0 C0.33 0.99 0.66 1.98 1 3 C1.515625 2.835 2.03125 2.67 2.5625 2.5 C5.73363876 1.84951 8.77218334 1.9379266 12 2 C12 2.33 12 2.66 12 3 C7.42545172 4.19988152 3.72836662 5 -1 5 C-1.33 3.68 -1.66 2.36 -2 1 C-1.34 0.67 -0.68 0.34 0 0 Z " fill="#97B16B" transform="translate(52,83)"/>
<path d="M0 0 C4.95 0 9.9 0 15 0 C15.33 0.99 15.66 1.98 16 3 C10.06 2.01 10.06 2.01 4 1 C4 1.66 4 2.32 4 3 C3.01 3 2.02 3 1 3 C0.67 2.01 0.34 1.02 0 0 Z " fill="#E6F4D5" transform="translate(32,79)"/>
<path d="M0 0 C1.58473048 0.08015255 3.16906283 0.1767325 4.75 0.3125 C4.75 0.6425 4.75 0.9725 4.75 1.3125 C3.59371094 1.45945312 3.59371094 1.45945312 2.4140625 1.609375 C1.41117188 1.75890625 0.40828125 1.9084375 -0.625 2.0625 C-1.62273437 2.20171875 -2.62046875 2.3409375 -3.6484375 2.484375 C-6.39561047 3.05636889 -6.39561047 3.05636889 -7.6015625 5.390625 C-7.81554687 6.02484375 -8.02953125 6.6590625 -8.25 7.3125 C-8.58 6.6525 -8.91 5.9925 -9.25 5.3125 C-6.77450837 0.81160612 -4.94506959 -0.03502174 0 0 Z " fill="#EAEAEA" transform="translate(126.25,116.6875)"/>
<path d="M0 0 C2.05078125 0.03255208 4.1015625 0.06510417 6.15234375 0.09765625 C4.1781424 2.62024686 3.18488733 3.09063705 -0.03515625 3.78515625 C-1.42734375 3.93984375 -1.42734375 3.93984375 -2.84765625 4.09765625 C-2.84765625 0.15051037 -2.84765625 0.15051037 0 0 Z " fill="#D3D3D3" transform="translate(89.84765625,113.90234375)"/>
<path d="M0 0 C2.875 -0.125 2.875 -0.125 6 0 C6.66 0.66 7.32 1.32 8 2 C1.25 4.125 1.25 4.125 -1 3 C-0.67 2.01 -0.34 1.02 0 0 Z " fill="#83A14D" transform="translate(158,84)"/>
<path d="M0 0 C0.66 0 1.32 0 2 0 C3 3 3 3 1.5625 6.1875 C0.7890625 7.5796875 0.7890625 7.5796875 0 9 C-0.33 8.01 -0.66 7.02 -1 6 C-1.66 5.67 -2.32 5.34 -3 5 C-1.625 2.5 -1.625 2.5 0 0 Z " fill="#5D7450" transform="translate(236,41)"/>
<path d="M0 0 C0.33 1.32 0.66 2.64 1 4 C-1.31 4.66 -3.62 5.32 -6 6 C-5.8125 4.125 -5.8125 4.125 -5 2 C-2.4375 0.75 -2.4375 0.75 0 0 Z " fill="#D0D9E2" transform="translate(280,102)"/>
<path d="M0 0 C1.79068573 2.6860286 2.66055791 4.6626589 3.625 7.6875 C3.88539062 8.49574219 4.14578125 9.30398437 4.4140625 10.13671875 C4.60742188 10.75160156 4.80078125 11.36648437 5 12 C2 11 2 11 0.8125 8.8125 C-0.07334979 5.74609689 -0.14770318 3.17561845 0 0 Z " fill="#E8F3D2" transform="translate(117,92)"/>
<path d="M0 0 C0.33 0.99 0.66 1.98 1 3 C-0.1875 4.5625 -0.1875 4.5625 -2 6 C-4.6875 5.6875 -4.6875 5.6875 -7 5 C-6.67 4.01 -6.34 3.02 -6 2 C-4.02 2.495 -4.02 2.495 -2 3 C-1.67 2.34 -1.34 1.68 -1 1 C-0.67 0.67 -0.34 0.34 0 0 Z " fill="#F7FCEC" transform="translate(240,23)"/>
<path d="M0 0 C2.00943169 4.01886337 2.36963693 5.65676602 2 10 C1.01 11.485 1.01 11.485 0 13 C-0.66 12.67 -1.32 12.34 -2 12 C-1.34 8.04 -0.68 4.08 0 0 Z " fill="#E5F2CC" transform="translate(108,92)"/>
<path d="M0 0 C-4.95 2.97 -4.95 2.97 -10 6 C-9.67 4.68 -9.34 3.36 -9 2 C-8.01 2 -7.02 2 -6 2 C-6 1.34 -6 0.68 -6 0 C-4 -1 -4 -1 0 0 Z " fill="#ECF8E0" transform="translate(166,80)"/>
<path d="M0 0 C0.33 0 0.66 0 1 0 C0.67 2.31 0.34 4.62 0 7 C-0.66 7 -1.32 7 -2 7 C-2 7.66 -2 8.32 -2 9 C-2.99 9 -3.98 9 -5 9 C-5 7.68 -5 6.36 -5 5 C-3.68 4.67 -2.36 4.34 -1 4 C-0.67 2.68 -0.34 1.36 0 0 Z " fill="#9EB68B" transform="translate(239,67)"/>
<path d="M0 0 C2.97 0 5.94 0 9 0 C9 2.97 9 5.94 9 9 C8.67 9 8.34 9 8 9 C7.855625 8.21625 7.71125 7.4325 7.5625 6.625 C7.12201075 4.03578982 7.12201075 4.03578982 6 2 C4.02 2 2.04 2 0 2 C0 1.34 0 0.68 0 0 Z " fill="#E1E7E2" transform="translate(225,48)"/>
<path d="M0 0 C0.66 0 1.32 0 2 0 C2.04254356 1.99954746 2.04080783 4.00041636 2 6 C1 7 1 7 -1.5625 7.0625 C-2.7690625 7.0315625 -2.7690625 7.0315625 -4 7 C-3.34 5.68 -2.68 4.36 -2 3 C-1.34 3 -0.68 3 0 3 C0 2.01 0 1.02 0 0 Z " fill="#97A884" transform="translate(244,35)"/>
<path d="M0 0 C0.99 0.33 1.98 0.66 3 1 C3 2.98 3 4.96 3 7 C2.01 7 1.02 7 0 7 C0 4.69 0 2.38 0 0 Z " fill="#F6FEF7" transform="translate(74,93)"/>
<path d="M0 0 C0.33 1.32 0.66 2.64 1 4 C1.66 4 2.32 4 3 4 C3.25 6.3125 3.25 6.3125 3 9 C1 10.8125 1 10.8125 -1 12 C-0.835 10.948125 -0.67 9.89625 -0.5 8.8125 C-0.10430322 5.79531204 0.09178971 3.02906028 0 0 Z " fill="#97AA91" transform="translate(272,89)"/>
<path d="M0 0 C0.33 1.32 0.66 2.64 1 4 C0.01 4.33 -0.98 4.66 -2 5 C-2.33 5.99 -2.66 6.98 -3 8 C-4.32 7.67 -5.64 7.34 -7 7 C-5.47005208 5.76302083 -3.94010417 4.52604167 -2.41015625 3.2890625 C-0.86733563 2.0333609 -0.86733563 2.0333609 0 0 Z " fill="#E8F3D1" transform="translate(170,81)"/>
<path d="M0 0 C0 4 0 4 -1 6 C-3.31 6 -5.62 6 -8 6 C-7.01 5.67 -6.02 5.34 -5 5 C-5 4.34 -5 3.68 -5 3 C-2.46153846 0 -2.46153846 0 0 0 Z " fill="#5E8745" transform="translate(258,72)"/>
<path d="M0 0 C2.97 0 5.94 0 9 0 C7.02 0.99 7.02 0.99 5 2 C4.67 2.66 4.34 3.32 4 4 C2.68 4 1.36 4 0 4 C0 2.68 0 1.36 0 0 Z " fill="#EDF5EA" transform="translate(246,35)"/>
<path d="M0 0 C1.32 0 2.64 0 4 0 C3.25 4.75 3.25 4.75 1 7 C0.67 6.01 0.34 5.02 0 4 C0.33 3.34 0.66 2.68 1 2 C0.34 1.67 -0.32 1.34 -1 1 C-0.67 0.67 -0.34 0.34 0 0 Z " fill="#E4EEEC" transform="translate(276,107)"/>
<path d="M0 0 C1.32 0 2.64 0 4 0 C4 1.65 4 3.3 4 5 C2.68 5 1.36 5 0 5 C0 3.35 0 1.7 0 0 Z " fill="#DEECE5" transform="translate(256,98)"/>
<path d="M0 0 C0.66 0.33 1.32 0.66 2 1 C1.34 2.32 0.68 3.64 0 5 C0.99 5.33 1.98 5.66 3 6 C2.67 6.99 2.34 7.98 2 9 C-0.0625 7.25 -0.0625 7.25 -2 5 C-1.80984746 2.78155374 -1.58477845 1.58477845 0 0 Z " fill="#EDF6D7" transform="translate(161,89)"/>
<path d="M0 0 C2 3 2 3 3 6 C0.69 6 -1.62 6 -4 6 C-3.67 5.01 -3.34 4.02 -3 3 C-2.01 3 -1.02 3 0 3 C0 2.01 0 1.02 0 0 Z " fill="#829D6B" transform="translate(263,87)"/>
<path d="M0 0 C1.67542976 0.28604898 3.34385343 0.61781233 5 1 C5 2.32 5 3.64 5 5 C2.53199953 3.84826645 0.95216435 2.95216435 -1 1 C-0.67 0.67 -0.34 0.34 0 0 Z " fill="#9FAE75" transform="translate(134,103)"/>
<path d="M0 0 C0.66 0.99 1.32 1.98 2 3 C-2.625 6 -2.625 6 -6 6 C-5.34 4.68 -4.68 3.36 -4 2 C-4 2.66 -4 3.32 -4 4 C-3.34 4 -2.68 4 -2 4 C-1.34 2.68 -0.68 1.36 0 0 Z " fill="#C2D2C8" transform="translate(270,99)"/>
<path d="M0 0 C2.6875 0.3125 2.6875 0.3125 5 1 C4.67 1.99 4.34 2.98 4 4 C1.69 3.67 -0.62 3.34 -3 3 C-1.8125 1.4375 -1.8125 1.4375 0 0 Z " fill="#7AA13F" transform="translate(92,80)"/>
<path d="M0 0 C0.99 0 1.98 0 3 0 C3 1.65 3 3.3 3 5 C1.68 5 0.36 5 -1 5 C-0.67 3.35 -0.34 1.7 0 0 Z " fill="#DCDEDA" transform="translate(49,112)"/>
<path d="M0 0 C1.32 0.33 2.64 0.66 4 1 C3.67 4.3 3.34 7.6 3 11 C2.34 10.01 1.68 9.02 1 8 C1.33333333 6.33333333 1.66666667 4.66666667 2 3 C1.34 2.01 0.68 1.02 0 0 Z " fill="#6E8E52" transform="translate(245,63)"/>
<path d="M0 0 C0.99 0.33 1.98 0.66 3 1 C3 2.65 3 4.3 3 6 C2.34 5.67 1.68 5.34 1 5 C0.01 5.33 -0.98 5.66 -2 6 C-1.34 4.02 -0.68 2.04 0 0 Z " fill="#CDCDD7" transform="translate(282,42)"/>
<path d="M0 0 C2.0625 0.4375 2.0625 0.4375 4 1 C4 2.32 4 3.64 4 5 C2.0625 4.6875 2.0625 4.6875 0 4 C-0.33 3.01 -0.66 2.02 -1 1 C-0.67 0.67 -0.34 0.34 0 0 Z " fill="#C4D0D1" transform="translate(244,114)"/>
<path d="M0 0 C2.97 1.98 2.97 1.98 6 4 C4.1875 4.625 4.1875 4.625 2 5 C1.01 4.34 0.02 3.68 -1 3 C-0.67 2.01 -0.34 1.02 0 0 Z " fill="#C3DACB" transform="translate(243,99)"/>
<path d="M0 0 C0.99 0.33 1.98 0.66 3 1 C3 1.99 3 2.98 3 4 C3.99 4 4.98 4 6 4 C6 4.99 6 5.98 6 7 C3.00675737 5.9024777 2.15389099 5.32317108 0.75 2.375 C0.5025 1.59125 0.255 0.8075 0 0 Z " fill="#59765E" transform="translate(248,97)"/>
<path d="M0 0 C1.32 0.66 2.64 1.32 4 2 C3.67 3.65 3.34 5.3 3 7 C1.68 6.67 0.36 6.34 -1 6 C-0.34 5.67 0.32 5.34 1 5 C0.67 3.35 0.34 1.7 0 0 Z " fill="#A6B682" transform="translate(135,81)"/>
<path d="M0 0 C0.66 0 1.32 0 2 0 C1.67 1.65 1.34 3.3 1 5 C-0.65 5.33 -2.3 5.66 -4 6 C-4 5.34 -4 4.68 -4 4 C-2.68 3.67 -1.36 3.34 0 3 C0 2.01 0 1.02 0 0 Z " fill="#678955" transform="translate(255,83)"/>
<path d="M0 0 C0.66 0 1.32 0 2 0 C4 2 4 2 4 5 C2.68 5 1.36 5 0 5 C0 3.35 0 1.7 0 0 Z " fill="#B7CAB0" transform="translate(234,67)"/>
<path d="M0 0 C1.32 0.33 2.64 0.66 4 1 C4 1.66 4 2.32 4 3 C3.34 3 2.68 3 2 3 C1.67 3.99 1.34 4.98 1 6 C0.01 5.67 -0.98 5.34 -2 5 C-1.34 3.35 -0.68 1.7 0 0 Z " fill="#E0E7EE" transform="translate(267,57)"/>
<path d="M0 0 C2.97 0.495 2.97 0.495 6 1 C6 1.66 6 2.32 6 3 C3.69 3 1.38 3 -1 3 C-0.67 2.01 -0.34 1.02 0 0 Z " fill="#506A36" transform="translate(243,32)"/>
</svg>
