<?xml version="1.0" encoding="UTF-8"?>
<svg version="1.1" xmlns="http://www.w3.org/2000/svg" width="225" height="225">
<path d="M0 0 C74.25 0 148.5 0 225 0 C225 74.25 225 148.5 225 225 C150.75 225 76.5 225 0 225 C0 150.75 0 76.5 0 0 Z " fill="#FDFDFD" transform="translate(0,0)"/>
<path d="M0 0 C0.51812256 0.18248291 1.03624512 0.36496582 1.57006836 0.55297852 C10.05262315 3.32958783 18.77250219 4.56960147 27.5625 5.9375 C36.83834886 7.38292228 46.06411373 8.89757177 55.21484375 11.01171875 C55.89575577 11.16648178 56.57666779 11.32124481 57.2782135 11.48069763 C71.35462908 14.85169739 84.36642954 22.23764242 93 34 C93 34.66 93 35.32 93 36 C92.34 36 91.68 36 91 36 C89.80859375 34.6796875 89.80859375 34.6796875 88.4375 32.875 C84.91873901 28.58787433 80.70732911 25.85577966 76 23 C73.04602299 26.63566401 70.23463648 30.35649031 67.46484375 34.1328125 C66.07822464 35.90028966 64.60030821 37.42826377 63 39 C64.19496094 38.7834375 65.38992187 38.566875 66.62109375 38.34375 C68.22649257 38.06210108 69.83196537 37.78087367 71.4375 37.5 C72.22060547 37.35691406 73.00371094 37.21382812 73.81054688 37.06640625 C79.28454005 36.12028397 84.44484438 35.86654281 90 36 C86.50412735 38.33058177 84.07394887 38.63758392 79.9375 39.3125 C52.9193462 44.09423108 22.70077917 53.14281745 -0.91015625 67.3203125 C-1.92980469 67.87460938 -2.94945313 68.42890625 -4 69 C-4.66 68.67 -5.32 68.34 -6 68 C-4.62328125 66.72769531 -4.62328125 66.72769531 -3.21875 65.4296875 C6.71163413 56.02145679 16.92705489 45.39234413 17.375 30.9375 C17.31673269 22.22653669 13.97008303 15.31123063 8 9 C5.89488527 7.15041943 3.7731127 5.33152158 1.609375 3.55078125 C1.07828125 3.03902344 0.5471875 2.52726562 0 2 C0 1.34 0 0.68 0 0 Z " fill="#AC2024" transform="translate(100,32)"/>
<path d="M0 0 C0 1.32 0 2.64 0 4 C0.66 4 1.32 4 2 4 C1.67 2.68 1.34 1.36 1 0 C2.72985242 0.11512153 4.45888751 0.24255677 6.1875 0.375 C7.15042969 0.44460937 8.11335938 0.51421875 9.10546875 0.5859375 C12.03371367 1.00482274 14.30355299 1.81265695 17 3 C17.99 3.33 18.98 3.66 20 4 C19.03603575 9.20540698 18.12319499 13.59913433 15 18 C13.35 17.67 11.7 17.34 10 17 C10.2475 17.5775 10.495 18.155 10.75 18.75 C10.87375 19.86375 10.87375 19.86375 11 21 C9.0625 23.25 9.0625 23.25 7 25 C7.99 24.67 8.98 24.34 10 24 C8.55183158 28.30515286 6.38004712 31.31997533 3.5 34.8125 C2.7059375 35.78832031 1.911875 36.76414063 1.09375 37.76953125 C0.4028125 38.50558594 -0.288125 39.24164063 -1 40 C-1.66 40 -2.32 40 -3 40 C-4.25 32.375 -4.25 32.375 -2 29 C-2 28.34 -2 27.68 -2 27 C-2.99 27.99 -3.98 28.98 -5 30 C-7 29 -9 28 -11 27 C-12.09506492 23.71480525 -12.09960608 21.26336585 -12.0625 17.8125 C-12.04896484 16.18248047 -12.04896484 16.18248047 -12.03515625 14.51953125 C-12.02355469 13.68808594 -12.01195313 12.85664062 -12 12 C-9.36 12 -6.72 12 -4 12 C-6.31 11.01 -8.62 10.02 -11 9 C-11 8.34 -11 7.68 -11 7 C-9.1015625 5.2734375 -9.1015625 5.2734375 -6.625 3.375 C-5.40683594 2.42753906 -5.40683594 2.42753906 -4.1640625 1.4609375 C-2 0 -2 0 0 0 Z " fill="#BB2727" transform="translate(131,42)"/>
<path d="M0 0 C3.81841541 2.11481469 6.35481895 4.96592591 8 9 C8.83868746 14.89259633 7.96210779 19.79077595 5 25 C2.76690387 27.56149261 1.22246246 28.78440207 -2.1484375 29.37890625 C-6.06668139 29.58067628 -8.41973013 29.32797862 -11.875 27.375 C-15.79457818 22.99429497 -17.60458201 19.08180582 -17.3515625 13.08984375 C-16.52815009 8.19511445 -14.44715998 4.28636443 -10.75 1 C-7.08306022 -0.33343265 -3.80905737 -0.80504539 0 0 Z " fill="#F8F8F8" transform="translate(45,158)"/>
<path d="M0 0 C0.66 0.33 1.32 0.66 2 1 C2 4.96 2 8.92 2 13 C2.66 13.33 3.32 13.66 4 14 C3.67 14.66 3.34 15.32 3 16 C3.61875 16.309375 4.2375 16.61875 4.875 16.9375 C6.25 17.625 7.625 18.3125 9 19 C9.495 17.515 9.495 17.515 10 16 C10.66 16 11.32 16 12 16 C12.495 17.485 12.495 17.485 13 19 C12.690625 19.598125 12.38125 20.19625 12.0625 20.8125 C10.69171739 23.6346995 10.85924331 25.9033529 11 29 C15.54109672 24.73412126 19.24735246 19.96387672 23 15 C22.34 14.67 21.68 14.34 21 14 C22 11 22 11 24 9 C23.6814823 6.89179203 23.6814823 6.89179203 23 5 C24.98 5.66 26.96 6.32 29 7 C29.28875 6.195625 29.5775 5.39125 29.875 4.5625 C31 2 31 2 33 1 C33 2.65 33 4.3 33 6 C33.81984375 5.69964844 34.6396875 5.39929687 35.484375 5.08984375 C36.56203125 4.70957031 37.6396875 4.32929687 38.75 3.9375 C39.81734375 3.55464844 40.8846875 3.17179687 41.984375 2.77734375 C45 2 45 2 49 3 C44.05 4.98 39.1 6.96 34 9 C33.81509993 11.32357511 33.81509993 11.32357511 36 14 C35.01 14.33 34.02 14.66 33 15 C30.3125 13.5625 30.3125 13.5625 28 12 C27.74089844 12.57621094 27.48179687 13.15242188 27.21484375 13.74609375 C25.90400618 16.17809787 24.40402166 18.00712421 22.5625 20.0625 C21.96566406 20.73410156 21.36882812 21.40570313 20.75390625 22.09765625 C19.20703058 23.7754479 17.62828434 25.40159243 16 27 C16.99 27.99 17.98 28.98 19 30 C18.25016846 30.29656494 17.50033691 30.59312988 16.7277832 30.89868164 C13.25273822 32.27849855 9.78127989 33.6670248 6.3125 35.0625 C5.69351837 35.31132935 5.07453674 35.56015869 4.4367981 35.81652832 C-3.6579975 39.0834542 -11.41112766 42.46810927 -18.91015625 46.953125 C-19.59980469 47.29859375 -20.28945312 47.6440625 -21 48 C-21.66 47.67 -22.32 47.34 -23 47 C-22.0821875 46.15179688 -21.164375 45.30359375 -20.21875 44.4296875 C-11.4247648 36.09810228 -3.90893867 27.72681602 0 16 C0.07051114 13.26134713 0.09357765 10.54972412 0.0625 7.8125 C0.05798828 7.06291016 0.05347656 6.31332031 0.04882812 5.54101562 C0.03706354 3.69397617 0.01912865 1.84697787 0 0 Z " fill="#A9151A" transform="translate(117,53)"/>
<path d="M0 0 C-0.433125 0.53109375 -0.86625 1.0621875 -1.3125 1.609375 C-1.869375 2.31578125 -2.42625 3.0221875 -3 3.75 C-3.556875 4.44609375 -4.11375 5.1421875 -4.6875 5.859375 C-6.34847198 8.14984749 -6.34847198 8.14984749 -6 12 C-8 14.25 -8 14.25 -10 16 C-8.80503906 15.7834375 -7.61007813 15.566875 -6.37890625 15.34375 C-4.77350743 15.06210108 -3.16803463 14.78087367 -1.5625 14.5 C-0.77939453 14.35691406 0.00371094 14.21382812 0.81054688 14.06640625 C6.28454005 13.12028397 11.44484438 12.86654281 17 13 C13.50412735 15.33058177 11.07394887 15.63758392 6.9375 16.3125 C0.88154318 17.3674578 -5.0212035 18.70626793 -10.9375 20.375 C-11.67895264 20.58294189 -12.42040527 20.79088379 -13.18432617 21.00512695 C-17.0730435 22.113485 -20.93139679 23.29032742 -24.77734375 24.5390625 C-25.93472046 24.90572021 -25.93472046 24.90572021 -27.11547852 25.27978516 C-28.5889395 25.74944587 -30.05733667 26.23539566 -31.51928711 26.73974609 C-33.5234375 27.375 -33.5234375 27.375 -37 28 C-39.4765625 26.625 -39.4765625 26.625 -41 25 C-40.39671875 24.41992188 -39.7934375 23.83984375 -39.171875 23.2421875 C-34.90045332 19.06721727 -31.03995788 15.1547112 -28 10 C-26.02 10.66 -24.04 11.32 -22 12 C-21.81509993 9.67642489 -21.81509993 9.67642489 -24 7 C-21.62586674 6.0394728 -19.25074481 5.08152647 -16.875 4.125 C-16.20984375 3.85558594 -15.5446875 3.58617187 -14.859375 3.30859375 C-3.6234375 -1.2078125 -3.6234375 -1.2078125 0 0 Z " fill="#AA191E" transform="translate(173,55)"/>
<path d="M0 0 C4.05509416 2.01894363 6.44021245 4.25173966 9 8 C11.0230037 14.2833691 11.08248942 21.53322791 8.1875 27.5 C6.08523362 31.30179974 4.18432455 33.60522515 0 35 C1.52708963 38.43595166 3.59927045 41.11912454 6 44 C3.4375 44.4375 3.4375 44.4375 0 44 C-1.640625 42.546875 -1.640625 42.546875 -3.3125 40.6875 C-5.95324259 37.75984746 -7.81804249 36.47289143 -11.625 35.4375 C-16.5099756 34.08102466 -18.21490835 32.21983584 -21 28 C-23.74482879 22.13207979 -24.13844107 15.89398594 -22.3125 9.6484375 C-17.90891758 -0.14953338 -10.01931012 -1.39191918 0 0 Z M-16 7 C-18.74992783 11.76654157 -20.13054133 16.53398825 -19 22 C-17.00963581 26.32389463 -14.97939347 29.34707102 -11 32 C-7.27099981 32.67477146 -3.59880978 32.78591283 -0.1484375 31.08984375 C3.5512061 28.25588031 5.13439993 25.50112037 6 21 C6.5526142 16.19916413 6.5075986 12.97894015 4.25 8.625 C0.80915949 4.61068607 -0.4722858 3.17248386 -5.875 2.5625 C-10.21302505 2.75637821 -12.74396796 4.04685466 -16 7 Z " fill="#221E1E" transform="translate(47,155)"/>
<path d="M0 0 C2.54696325 2.54696325 3.20835009 4.93138047 4.4375 8.3125 C5.96966682 12.524758 7.67850003 16.17595486 10 20 C10 20.66 10 21.32 10 22 C-21.53129346 18.10709318 -21.53129346 18.10709318 -26 13 C-18.41496027 6.59147191 -9.44266928 2.83280078 0 0 Z " fill="#DDDBDD" transform="translate(126,18)"/>
<path d="M0 0 C2.8367179 1.70705148 3.34742379 2.91519108 5 6 C5 8.64 5 11.28 5 14 C-0.61 14 -6.22 14 -12 14 C-10.45957252 18.80304035 -10.45957252 18.80304035 -8 21 C-3.82016197 21.20225023 -0.00952575 21.33650858 4 20 C4 21.32 4 22.64 4 24 C-0.1987363 26.09936815 -4.37297295 26.90548475 -9 26 C-12.49875745 24.00071003 -14.76861006 21.34708491 -17 18 C-17.74426249 12.97190111 -17.53541366 9.03390224 -15.1875 4.5 C-10.74285104 -0.57959881 -6.44446794 -1.14933186 0 0 Z " fill="#393535" transform="translate(195,165)"/>
<path d="M0 0 C2.57637471 1.88515223 3.59667428 3.19334857 5 6 C5 8.64 5 11.28 5 14 C-0.61 14 -6.22 14 -12 14 C-10.34922098 17.75170424 -10.34922098 17.75170424 -8 21 C-1.91531443 21.23376923 -1.91531443 21.23376923 4 20 C4 21.32 4 22.64 4 24 C0.28580284 26.47613144 -3.68973112 26.68798522 -8 26 C-11.75212276 23.98497111 -13.63644095 22.54533858 -16 19 C-16.30078125 16.2578125 -16.30078125 16.2578125 -16.3125 13.125 C-16.32925781 12.09632813 -16.34601563 11.06765625 -16.36328125 10.0078125 C-15.94933376 6.58050534 -15.04951391 4.75508428 -13 2 C-8.77845244 -0.81436504 -4.96024032 -0.68304949 0 0 Z " fill="#2B2828" transform="translate(130,165)"/>
<path d="M0 0 C0 1.65 0 3.3 0 5 C-0.69867188 4.90460938 -1.39734375 4.80921875 -2.1171875 4.7109375 C-3.02726562 4.60007813 -3.93734375 4.48921875 -4.875 4.375 C-5.77992187 4.25898438 -6.68484375 4.14296875 -7.6171875 4.0234375 C-8.40351562 4.01570312 -9.18984375 4.00796875 -10 4 C-12.27782988 5.87913703 -12.27782988 5.87913703 -12.421875 8.90234375 C-12.31459333 12.10732302 -12.31459333 12.10732302 -9.953125 13.94140625 C-9.06109375 14.47636719 -8.1690625 15.01132813 -7.25 15.5625 C0.05703717 20.29911842 0.05703717 20.29911842 2 24 C2 28.08367503 1.65876935 30.19247628 -0.9375 33.375 C-4.12451422 35.8859809 -5.93548342 36.13675335 -9.9375 36.125 C-10.81277344 36.12757813 -11.68804687 36.13015625 -12.58984375 36.1328125 C-15 36 -15 36 -18 35 C-18 33.35 -18 31.7 -18 30 C-17.15695313 30.08378906 -16.31390625 30.16757813 -15.4453125 30.25390625 C-14.34960938 30.35574219 -13.25390625 30.45757812 -12.125 30.5625 C-11.03445312 30.66691406 -9.94390625 30.77132812 -8.8203125 30.87890625 C-6.04847977 31.22639404 -6.04847977 31.22639404 -4 30 C-3.50813003 27.19824935 -3.50813003 27.19824935 -4 24 C-5.97179744 22.10960704 -7.62481105 20.77229077 -9.875 19.3125 C-15.81038136 15.28442797 -15.81038136 15.28442797 -18 12 C-18.61170745 8.06759497 -18.10355894 6.20711787 -16.3125 2.625 C-12.2680009 -1.91619197 -5.51529037 -0.43605517 0 0 Z " fill="#252121" transform="translate(109,155)"/>
<path d="M0 0 C0 1.65 0 3.3 0 5 C-0.68707031 4.89300781 -1.37414062 4.78601563 -2.08203125 4.67578125 C-2.98308594 4.55589844 -3.88414063 4.43601563 -4.8125 4.3125 C-5.70582031 4.18488281 -6.59914063 4.05726563 -7.51953125 3.92578125 C-10.01799738 3.7933624 -10.01799738 3.7933624 -11.88671875 5.16796875 C-13.21413396 6.99322272 -13.21413396 6.99322272 -12.9921875 9.4609375 C-11.69355708 12.78420432 -10.11397528 13.72765047 -7.125 15.625 C-0.74457793 19.73600081 -0.74457793 19.73600081 1 22 C1.6228087 25.04671283 1.50943248 27.93786782 1 31 C-1.19831364 34.03215675 -2.44963194 34.81654398 -6 36 C-7.49774018 36.09225211 -8.99942974 36.1300019 -10.5 36.125 C-11.2734375 36.12757813 -12.046875 36.13015625 -12.84375 36.1328125 C-15 36 -15 36 -18 35 C-18 33.35 -18 31.7 -18 30 C-17.44828125 30.16371094 -16.8965625 30.32742187 -16.328125 30.49609375 C-13.73385993 31.05760414 -11.40164589 31.09739008 -8.75 31.0625 C-7.41195313 31.04896484 -7.41195313 31.04896484 -6.046875 31.03515625 C-5.37140625 31.02355469 -4.6959375 31.01195312 -4 31 C-3.50868167 27.70010193 -3.50868167 27.70010193 -4 24 C-6.52403927 21.31664847 -6.52403927 21.31664847 -9.875 19.25 C-15.86800574 15.19799139 -15.86800574 15.19799139 -18 12 C-18.53586016 7.86622159 -18.40166788 5.69919964 -16.3125 2.0625 C-11.14836229 -1.1529065 -5.92751342 -0.39053895 0 0 Z " fill="#201D1D" transform="translate(19,155)"/>
<path d="M0 0 C2.56944095 1.12413042 3.46120692 2.56681038 5 4.875 C5.66 5.535 6.32 6.195 7 6.875 C7.125 9.5 7.125 9.5 7 11.875 C6.14535156 12.20113281 5.29070312 12.52726562 4.41015625 12.86328125 C2.75306641 13.51876953 2.75306641 13.51876953 1.0625 14.1875 C-0.03964844 14.61675781 -1.14179687 15.04601562 -2.27734375 15.48828125 C-5.30860265 16.63108861 -5.30860265 16.63108861 -6 19.875 C-8.58901934 21.37867903 -11.11933203 22.71349982 -13.8125 24 C-14.53759766 24.35964844 -15.26269531 24.71929687 -16.00976562 25.08984375 C-19.32705553 26.7105508 -22.3817742 28.07050344 -26 28.875 C-22.83846926 25.08116311 -19.67896728 21.55018011 -16.0625 18.1875 C-11.88860058 14.11754826 -9.27118206 9.53351266 -6.54296875 4.4140625 C-4.83282675 1.59990477 -3.50928821 -0.21933051 0 0 Z " fill="#AB1F23" transform="translate(120,72.125)"/>
<path d="M0 0 C1.43666724 2.87333447 1.00248384 5.18470535 0.8125 8.375 C0.75707031 9.51710938 0.70164063 10.65921875 0.64453125 11.8359375 C-0.13929923 15.6838326 -0.84777467 16.6890279 -4 19 C-6.80849031 20.45235439 -9.68766343 21.64692936 -12.625 22.8125 C-13.78902344 23.29879883 -13.78902344 23.29879883 -14.9765625 23.79492188 C-16.95806217 24.59818607 -18.97732181 25.30692911 -21 26 C-21.66 25.67 -22.32 25.34 -23 25 C-21.02 20.38 -19.04 15.76 -17 11 C-14 12 -11 13 -8 14 C-9.98 12.68 -11.96 11.36 -14 10 C-11.44928686 7.17071068 -8.53378728 5.32106736 -5.3125 3.3125 C-4.31863281 2.68988281 -3.32476562 2.06726563 -2.30078125 1.42578125 C-1.54152344 0.95527344 -0.78226563 0.48476562 0 0 Z " fill="#FDFDFD" transform="translate(147,92)"/>
<path d="M0 0 C2.475 0.99 2.475 0.99 5 2 C5 2.66 5 3.32 5 4 C5.7321875 4.14566406 6.464375 4.29132812 7.21875 4.44140625 C8.88666514 4.77639482 10.55367767 5.11599937 12.21875 5.46484375 C19.10986056 6.89262522 26.03877947 7.97436563 33 9 C33 10.65 33 12.3 33 14 C32.34 14 31.68 14 31 14 C31 12.68 31 11.36 31 10 C30.45730469 10.42152344 29.91460937 10.84304687 29.35546875 11.27734375 C28.64003906 11.82519531 27.92460938 12.37304688 27.1875 12.9375 C26.47980469 13.48277344 25.77210937 14.02804688 25.04296875 14.58984375 C23 16 23 16 20 17 C20 17.66 20 18.32 20 19 C22.97 19.66 25.94 20.32 29 21 C27 23 27 23 24.94140625 23.08203125 C24.15636719 22.99308594 23.37132813 22.90414062 22.5625 22.8125 C21.78003906 22.73644531 20.99757813 22.66039063 20.19140625 22.58203125 C16.44964247 21.58822946 15.18643298 19.2858639 13.125 16.125 C10.98909322 12.98396062 8.74537604 10.61464385 6 8 C3.94323374 6.04048038 1.96468697 4.05606776 0 2 C0 1.34 0 0.68 0 0 Z " fill="#B13134" transform="translate(100,32)"/>
<path d="M0 0 C0.66 0.33 1.32 0.66 2 1 C1.51789063 1.53109375 1.03578125 2.0621875 0.5390625 2.609375 C-0.09257813 3.31578125 -0.72421875 4.0221875 -1.375 4.75 C-2.00148438 5.44609375 -2.62796875 6.1421875 -3.2734375 6.859375 C-5.26295679 9.17019415 -5.26295679 9.17019415 -7 13 C-3.7 12.34 -0.4 11.68 3 11 C3 11.66 3 12.32 3 13 C-0.3 13.66 -3.6 14.32 -7 15 C-6.4225 16.27875 -5.845 17.5575 -5.25 18.875 C-4.92515625 19.59429687 -4.6003125 20.31359375 -4.265625 21.0546875 C-2.78070314 23.3370674 -1.49584592 24.00375898 1 25 C2.65 22.69 4.3 20.38 6 18 C6.33 18.66 6.66 19.32 7 20 C5.02 22.97 5.02 22.97 3 26 C3.60328125 25.84402344 4.2065625 25.68804687 4.828125 25.52734375 C5.62734375 25.33269531 6.4265625 25.13804688 7.25 24.9375 C8.43335938 24.64166016 8.43335938 24.64166016 9.640625 24.33984375 C12 24 12 24 16 25 C12.37 26.32 8.74 27.64 5 29 C9.74541763 31.53634391 13.57342622 33.45734262 19 34 C19 34.66 19 35.32 19 36 C19.66 36.33 20.32 36.66 21 37 C11.95803903 38.05139081 3.03719353 33.82881877 -4.125 28.5625 C-7.46613212 25.71885262 -9.74314718 23.30920965 -11 19 C-10.87195729 11.82960842 -7.62822327 7.54935305 -2.75 2.625 C-1.38875 1.325625 -1.38875 1.325625 0 0 Z " fill="#9EA8B3" transform="translate(92,101)"/>
<path d="M0 0 C0.58129865 22.02476004 -2.74243316 39.61289718 -11 60 C-9.35 60 -7.7 60 -6 60 C-6.66 61.32 -7.32 62.64 -8 64 C-8.66 64 -9.32 64 -10 64 C-10 63.01 -10 62.02 -10 61 C-10.66 61 -11.32 61 -12 61 C-13.54046762 56.89208635 -12.75996191 53.21433421 -12 49 C-11.01 48.505 -11.01 48.505 -10 48 C-9.22869282 45.57761339 -8.58239939 43.21869487 -8 40.75 C-7.82629883 40.03360352 -7.65259766 39.31720703 -7.47363281 38.57910156 C-5.64355163 30.8295833 -4 22.98380208 -4 15 C-4.77085937 15.51691406 -5.54171875 16.03382812 -6.3359375 16.56640625 C-7.33882812 17.22511719 -8.34171875 17.88382813 -9.375 18.5625 C-10.87160156 19.55443359 -10.87160156 19.55443359 -12.3984375 20.56640625 C-13.25695312 21.03949219 -14.11546875 21.51257813 -15 22 C-15.66 21.67 -16.32 21.34 -17 21 C-13 18.33333333 -9 15.66666667 -5 13 C-5.33 12.34 -5.66 11.68 -6 11 C-5.01 11 -4.02 11 -3 11 C-3.66 7.7 -4.32 4.4 -5 1 C-2 0 -2 0 0 0 Z " fill="#E9E8E9" transform="translate(151,78)"/>
<path d="M0 0 C1.32 0 2.64 0 4 0 C5.00605593 2.60197202 6.00502525 5.20629362 7 7.8125 C7.28617188 8.55048828 7.57234375 9.28847656 7.8671875 10.04882812 C8.13789063 10.76103516 8.40859375 11.47324219 8.6875 12.20703125 C9.06455078 13.18893433 9.06455078 13.18893433 9.44921875 14.19067383 C10 16 10 16 10 19 C10.66 19 11.32 19 12 19 C12.11214844 18.32582031 12.22429687 17.65164062 12.33984375 16.95703125 C13.12920501 13.42125328 14.31499849 10.08056434 15.5625 6.6875 C15.79646484 6.04232422 16.03042969 5.39714844 16.27148438 4.73242188 C16.84447007 3.15378781 17.42179464 1.57672974 18 0 C19.65 0 21.3 0 23 0 C21.63720405 3.99126803 20.22942867 7.96515957 18.8125 11.9375 C18.42513672 13.07380859 18.03777344 14.21011719 17.63867188 15.38085938 C17.24873047 16.46044922 16.85878906 17.54003906 16.45703125 18.65234375 C16.10616455 19.65257568 15.75529785 20.65280762 15.39379883 21.68334961 C14 24 14 24 11.34643555 24.83422852 C10.57211182 24.88893311 9.79778809 24.9436377 9 25 C0 5.54189944 0 5.54189944 0 0 Z " fill="#221E1E" transform="translate(155,165)"/>
<path d="M0 0 C1.32 0 2.64 0 4 0 C4 10.23 4 20.46 4 31 C8.62 31 13.24 31 18 31 C18 32.32 18 33.64 18 35 C12.06 35 6.12 35 0 35 C0 23.45 0 11.9 0 0 Z " fill="#080505" transform="translate(63,155)"/>
<path d="M0 0 C-9.41002278 12.66970387 -9.41002278 12.66970387 -14 18 C-17.59797911 14.5048203 -20.80927377 10.871772 -24 7 C-21.62586674 6.0394728 -19.25074481 5.08152647 -16.875 4.125 C-16.20984375 3.85558594 -15.5446875 3.58617187 -14.859375 3.30859375 C-3.6234375 -1.2078125 -3.6234375 -1.2078125 0 0 Z " fill="#F9F1F1" transform="translate(173,55)"/>
<path d="M0 0 C1.60189907 3.20379813 0.19457408 5.69831045 -0.75 9.0625 C-1.09546875 10.33222656 -1.4409375 11.60195312 -1.796875 12.91015625 C-2.19390625 13.92980469 -2.5909375 14.94945313 -3 16 C-6.97893268 17.32631089 -9.06442857 16.35756641 -13.0625 15.1875 C-14.31160156 14.83042969 -15.56070313 14.47335938 -16.84765625 14.10546875 C-20 13 -20 13 -22 11 C-14.66666667 7.33333333 -7.33333333 3.66666667 0 0 Z " fill="#FEFEFE" transform="translate(145,110)"/>
<path d="M0 0 C0.66 0.33 1.32 0.66 2 1 C2.4140625 3.50390625 2.4140625 3.50390625 2.625 6.5625 C2.69976562 7.57441406 2.77453125 8.58632812 2.8515625 9.62890625 C2.90054688 10.41136719 2.94953125 11.19382812 3 12 C0.5636811 12.67126129 -1.87388883 13.33716354 -4.3125 14 C-5.00279297 14.19078125 -5.69308594 14.3815625 -6.40429688 14.578125 C-9.35787949 15.37716184 -11.92559219 16 -15 16 C-13.69529517 10.05634465 -10.56124604 6.76468748 -6 3 C-2.6875 1 -2.6875 1 0 0 Z " fill="#FCFCFC" transform="translate(100,98)"/>
<path d="M0 0 C2.81505058 0.61495273 5.62664944 1.24137901 8.4375 1.875 C9.23994141 2.04902344 10.04238281 2.22304687 10.86914062 2.40234375 C12.9282378 2.87150513 14.96658343 3.42972759 17 4 C17.33 4.66 17.66 5.32 18 6 C14.06442471 7.17322847 10.12624273 8.33745371 6.1875 9.5 C5.06794922 9.83386719 3.94839844 10.16773438 2.79492188 10.51171875 C1.72177734 10.82753906 0.64863281 11.14335937 -0.45703125 11.46875 C-1.44678955 11.76201172 -2.43654785 12.05527344 -3.45629883 12.35742188 C-6 13 -6 13 -9 13 C-7.50923566 9.7173068 -5.61379679 7.06922559 -3.375 4.25 C-2.74335937 3.45078125 -2.11171875 2.6515625 -1.4609375 1.828125 C-0.97882813 1.22484375 -0.49671875 0.6215625 0 0 Z " fill="#FDFDFD" transform="translate(121,123)"/>
<path d="M0 0 C4.60139641 1.48868707 7.50227094 3.74629855 11 7 C11 7.66 11 8.32 11 9 C7.56744035 10.20213133 4.12828802 11.38414794 0.6875 12.5625 C-0.28896484 12.90474609 -1.26542969 13.24699219 -2.27148438 13.59960938 C-3.20927734 13.91865234 -4.14707031 14.23769531 -5.11328125 14.56640625 C-5.97735596 14.86490479 -6.84143066 15.16340332 -7.73168945 15.47094727 C-10 16 -10 16 -13 15 C-12.39671875 14.41992188 -11.7934375 13.83984375 -11.171875 13.2421875 C-6.90045332 9.06721727 -3.03995788 5.1547112 0 0 Z " fill="#F9F2F2" transform="translate(145,65)"/>
<path d="M0 0 C3.87642593 0.56473112 7.53286827 1.72439666 11.25 2.9375 C12.30703125 3.27652344 13.3640625 3.61554687 14.453125 3.96484375 C17 5 17 5 18 7 C10.74 9.31 3.48 11.62 -4 14 C-1.125 1.125 -1.125 1.125 0 0 Z " fill="#F9F1F1" transform="translate(153,46)"/>
<path d="M0 0 C3.95677402 1.67401978 6.84464213 4.13149285 10 7 C10 7.66 10 8.32 10 9 C7.06746654 10.03551045 4.12833062 11.05081838 1.1875 12.0625 C0.35412109 12.35705078 -0.47925781 12.65160156 -1.33789062 12.95507812 C-2.54155273 13.3659668 -2.54155273 13.3659668 -3.76953125 13.78515625 C-4.50792236 14.04176025 -5.24631348 14.29836426 -6.00708008 14.56274414 C-8 15 -8 15 -11 14 C-9.7260411 11.96166576 -8.38938077 9.96147874 -7 8 C-6.34 8 -5.68 8 -5 8 C-4.67 6.68 -4.34 5.36 -4 4 C-3.34 4 -2.68 4 -2 4 C-1.34 2.68 -0.68 1.36 0 0 Z " fill="#FDFDFD" transform="translate(105,113)"/>
<path d="M0 0 C1.32 0 2.64 0 4 0 C4.33 0.66 4.66 1.32 5 2 C5.66 1.34 6.32 0.68 7 0 C10.125 -0.125 10.125 -0.125 13 0 C12.67 1.32 12.34 2.64 12 4 C11.21625 4.103125 10.4325 4.20625 9.625 4.3125 C6.66954819 4.77595022 6.66954819 4.77595022 5 8 C4.6373883 9.92744369 4.6373883 9.92744369 4.5859375 12.01171875 C4.54726562 12.76904297 4.50859375 13.52636719 4.46875 14.30664062 C4.4378125 15.09232422 4.406875 15.87800781 4.375 16.6875 C4.33632812 17.48478516 4.29765625 18.28207031 4.2578125 19.10351562 C4.16367506 21.06863475 4.08075368 23.0342854 4 25 C2.68 25 1.36 25 0 25 C0 16.75 0 8.5 0 0 Z " fill="#161313" transform="translate(140,165)"/>
<path d="M0 0 C-4.95 6.93 -4.95 6.93 -10 14 C-14.41655069 11.79172465 -15.59930217 10.2012212 -18 6 C-18 5.01 -18 4.02 -18 3 C-15.565036 2.30215669 -13.12772895 1.61646178 -10.6875 0.9375 C-9.65206055 0.63875977 -9.65206055 0.63875977 -8.59570312 0.33398438 C-3.33984375 -1.11328125 -3.33984375 -1.11328125 0 0 Z " fill="#FCFCFC" transform="translate(103,113)"/>
<path d="M0 0 C1.32 0 2.64 0 4 0 C4.33 0.66 4.66 1.32 5 2 C5.66 1.34 6.32 0.68 7 0 C10.125 -0.125 10.125 -0.125 13 0 C12.67 1.32 12.34 2.64 12 4 C11.21625 4.103125 10.4325 4.20625 9.625 4.3125 C6.66954819 4.77595022 6.66954819 4.77595022 5 8 C4.6373883 9.92744369 4.6373883 9.92744369 4.5859375 12.01171875 C4.54726562 12.76904297 4.50859375 13.52636719 4.46875 14.30664062 C4.4378125 15.09232422 4.406875 15.87800781 4.375 16.6875 C4.33632812 17.48478516 4.29765625 18.28207031 4.2578125 19.10351562 C4.16367506 21.06863475 4.08075368 23.0342854 4 25 C2.68 25 1.36 25 0 25 C0 16.75 0 8.5 0 0 Z " fill="#1F1B1B" transform="translate(205,165)"/>
<path d="M0 0 C0.33 0.66 0.66 1.32 1 2 C-0.109375 4.78515625 -0.109375 4.78515625 -1.75 8.0625 C-2.28109375 9.14660156 -2.8121875 10.23070313 -3.359375 11.34765625 C-5 14 -5 14 -8 15 C-10.0078125 13.890625 -10.0078125 13.890625 -12.125 12.25 C-12.82882813 11.71890625 -13.53265625 11.1878125 -14.2578125 10.640625 C-16 9 -16 9 -17 6 C-11.39 4.02 -5.78 2.04 0 0 Z " fill="#FEFEFE" transform="translate(126,104)"/>
<path d="M0 0 C1.13643966 3.40931897 0.86747764 4.00335456 -0.4375 7.1875 C-0.86869141 8.26064453 -0.86869141 8.26064453 -1.30859375 9.35546875 C-1.65083984 10.16951172 -1.65083984 10.16951172 -2 11 C-8.79305224 11.22272302 -15.42860967 10.90100934 -22 9 C-22.33 8.34 -22.66 7.68 -23 7 C-21.75863281 6.66226563 -20.51726562 6.32453125 -19.23828125 5.9765625 C-17.5963124 5.5261939 -15.95438763 5.07566461 -14.3125 4.625 C-13.49587891 4.40328125 -12.67925781 4.1815625 -11.83789062 3.953125 C-7.7864424 2.83774654 -3.86170382 1.68310513 0 0 Z " fill="#FDFDFD" transform="translate(139,129)"/>
<path d="M0 0 C0 3.67034745 -1.0752892 5.0999431 -3 8.1875 C-3.556875 9.08855469 -4.11375 9.98960937 -4.6875 10.91796875 C-5.120625 11.60503906 -5.55375 12.29210937 -6 13 C-11.01508715 11.45941767 -15.6147081 9.97068161 -20 7 C-17.41866846 5.2791123 -15.87205794 4.5348737 -12.98828125 3.7109375 C-12.23095703 3.49179688 -11.47363281 3.27265625 -10.69335938 3.046875 C-9.51483398 2.71429688 -9.51483398 2.71429688 -8.3125 2.375 C-7.51521484 2.14554687 -6.71792969 1.91609375 -5.89648438 1.6796875 C-3.9323213 1.11513764 -1.96633153 0.55695012 0 0 Z " fill="#FBFBFC" transform="translate(116,123)"/>
<path d="M0 0 C0.66 0 1.32 0 2 0 C3.5078125 1.86328125 3.5078125 1.86328125 5.125 4.3125 C5.66382812 5.11300781 6.20265625 5.91351563 6.7578125 6.73828125 C8 9 8 9 8 12 C3.05 13.65 -1.9 15.3 -7 17 C-5.60863728 12.82591183 -4.20818227 9.08081438 -2.375 5.125 C-1.92898437 4.15820312 -1.48296875 3.19140625 -1.0234375 2.1953125 C-0.68570313 1.47085938 -0.34796875 0.74640625 0 0 Z " fill="#FEFEFE" transform="translate(118,90)"/>
<path d="M0 0 C1.66933058 0.6599679 3.3364521 1.32558869 5 2 C5 2.33 5 2.66 5 3 C3.35 3.33 1.7 3.66 0 4 C0.65391779 7.1108154 0.65391779 7.1108154 3 8.0625 C3.66 8.371875 4.32 8.68125 5 9 C5.33 9.66 5.66 10.32 6 11 C-0.04801071 10.45018084 -5.30601106 9.09570426 -11 7 C-11 6.01 -11 5.02 -11 4 C-9.35546875 2.578125 -9.35546875 2.578125 -7.1875 1.25 C-6.47980469 0.80140625 -5.77210937 0.3528125 -5.04296875 -0.109375 C-3 -1 -3 -1 0 0 Z " fill="#DFE0E2" transform="translate(112,26)"/>
<path d="M0 0 C1.20371769 3.61115306 0.71183147 4.24109758 -0.875 7.5625 C-1.24367187 8.34753906 -1.61234375 9.13257813 -1.9921875 9.94140625 C-2.65585155 11.29703011 -3.32499392 12.64998784 -4 14 C-7.95087809 12.83269511 -10.78425284 11.55162546 -14 9 C-12.41906946 7.87162591 -10.83515284 6.74743482 -9.25 5.625 C-8.36828125 4.99851562 -7.4865625 4.37203125 -6.578125 3.7265625 C-4.42585021 2.28519059 -2.34539477 1.08501907 0 0 Z " fill="#F9F1F1" transform="translate(150,46)"/>
<path d="M0 0 C0.73046875 2.06640625 0.73046875 2.06640625 1.1875 4.5625 C1.34605469 5.38878906 1.50460938 6.21507812 1.66796875 7.06640625 C1.77753906 7.70449219 1.88710937 8.34257812 2 9 C-0.62651431 8.71880143 -3.25069335 8.42556162 -5.875 8.125 C-6.99455078 8.00705078 -6.99455078 8.00705078 -8.13671875 7.88671875 C-13.7734375 7.2265625 -13.7734375 7.2265625 -16 5 C-13.90163996 3.96728358 -11.79609109 2.94916283 -9.6875 1.9375 C-8.51574219 1.36902344 -7.34398438 0.80054687 -6.13671875 0.21484375 C-3 -1 -3 -1 0 0 Z " fill="#FDFDFD" transform="translate(127,21)"/>
<path d="M0 0 C0.66 0 1.32 0 2 0 C2.33 9.9 2.66 19.8 3 30 C7.29 30.33 11.58 30.66 16 31 C16 31.66 16 32.32 16 33 C10.72 33 5.44 33 0 33 C0 22.11 0 11.22 0 0 Z " fill="#231F1F" transform="translate(64,156)"/>
<path d="M0 0 C11.11607143 0.80357143 11.11607143 0.80357143 16 3 C14.61346897 5.77306206 12.89021356 6.21996878 10.125 7.5625 C8.79855469 8.21412109 8.79855469 8.21412109 7.4453125 8.87890625 C5 10 5 10 2 11 C1.34 7.37 0.68 3.74 0 0 Z " fill="#F8EFEF" transform="translate(132,42)"/>
<path d="M0 0 C0.66 0 1.32 0 2 0 C2.474375 0.969375 2.94875 1.93875 3.4375 2.9375 C4.70193947 5.80477437 4.70193947 5.80477437 6 7 C12.08468557 7.23376923 12.08468557 7.23376923 18 6 C18 7.32 18 8.64 18 10 C14.28249152 12.47833899 10.31347919 12.68020249 6 12 C2.76762081 10.32395153 0.6809877 8.9079836 -1.5 6 C-2 4 -2 4 -1.125 1.75 C-0.75375 1.1725 -0.3825 0.595 0 0 Z " fill="#2A2727" transform="translate(116,179)"/>
<path d="M0 0 C3.07644715 -0.36193496 5.93249623 -0.48731247 9 0 C12.0625 2.5625 12.0625 2.5625 14 6 C14 8.31 14 10.62 14 13 C8.39 12.67 2.78 12.34 -3 12 C-3 11.67 -3 11.34 -3 11 C1.29 11 5.58 11 10 11 C8.91839859 8.0005907 8.91839859 8.0005907 7 5 C3.94570927 3.78715124 3.94570927 3.78715124 1 3 C0.67 2.01 0.34 1.02 0 0 Z " fill="#1E1919" transform="translate(186,165)"/>
<path d="M0 0 C0.99773438 0.02320313 1.99546875 0.04640625 3.0234375 0.0703125 C4.52777344 0.09738281 4.52777344 0.09738281 6.0625 0.125 C6.83335938 0.14820313 7.60421875 0.17140625 8.3984375 0.1953125 C8.3984375 0.8553125 8.3984375 1.5153125 8.3984375 2.1953125 C7.4084375 2.1953125 6.4184375 2.1953125 5.3984375 2.1953125 C5.3984375 4.5053125 5.3984375 6.8153125 5.3984375 9.1953125 C3.91936858 9.22220466 2.44016267 9.24165871 0.9609375 9.2578125 C-0.27462891 9.27521484 -0.27462891 9.27521484 -1.53515625 9.29296875 C-3.6015625 9.1953125 -3.6015625 9.1953125 -4.6015625 8.1953125 C-4.7890625 5.2578125 -4.7890625 5.2578125 -4.6015625 2.1953125 C-2.6015625 0.1953125 -2.6015625 0.1953125 0 0 Z " fill="#B1B1B1" transform="translate(26.6015625,141.8046875)"/>
<path d="M0 0 C0.99 0 1.98 0 3 0 C3.8353125 1.2375 3.8353125 1.2375 4.6875 2.5 C6.66118136 5.12811197 6.66118136 5.12811197 8.89453125 5.3671875 C12.36425234 5.38006216 15.68863105 5.10378965 19 4 C19 5.32 19 6.64 19 8 C14.79204419 10.10397791 10.63623216 10.88567398 6 10 C3.29248573 8.61476014 2.09145082 7.35288217 0 5 C-0.375 2.1875 -0.375 2.1875 0 0 Z " fill="#322F2F" transform="translate(180,181)"/>
<path d="M0 0 C-0.66 4.29 -1.32 8.58 -2 13 C-5 13 -5 13 -6.421875 11.609375 C-6.86015625 10.99578125 -7.2984375 10.3821875 -7.75 9.75 C-8.19859375 9.14671875 -8.6471875 8.5434375 -9.109375 7.921875 C-10 6 -10 6 -9.78515625 3.84375 C-9 2 -9 2 -6.6875 0.75 C-4 0 -4 0 0 0 Z " fill="#FBF9F9" transform="translate(132,85)"/>
<path d="M0 0 C1.3271261 3.9813783 1.06915913 7.85045227 1 12 C-4.94 10.515 -4.94 10.515 -11 9 C-11 8.34 -11 7.68 -11 7 C-9.1015625 5.2734375 -9.1015625 5.2734375 -6.625 3.375 C-5.40683594 2.42753906 -5.40683594 2.42753906 -4.1640625 1.4609375 C-2 0 -2 0 0 0 Z " fill="#F7EDED" transform="translate(131,42)"/>
<path d="M0 0 C7.78530433 0.77940617 15.50982302 1.91246673 23.2409668 3.10180664 C24.71730585 3.32743365 26.19421138 3.54938182 27.67163086 3.76782227 C29.82274472 4.08595308 31.97197961 4.41475589 34.12109375 4.74609375 C35.3939624 4.93872803 36.66683105 5.1313623 37.97827148 5.32983398 C41 6 41 6 43 8 C38.93198088 9.10608549 36.29094236 8.79195445 32.25 7.6875 C26.20423471 6.16746117 20.28589251 5.34566479 14.08886719 4.82299805 C8.96930517 4.32753685 4.75957453 2.96139242 0 1 C0 0.67 0 0.34 0 0 Z " fill="#AB191D" transform="translate(105,35)"/>
<path d="M0 0 C0.33 1.32 0.66 2.64 1 4 C4.3233768 4 7.36160587 2.60990848 10.4921875 1.55859375 C13 1 13 1 17 2 C12.05 3.98 7.1 5.96 2 8 C1.81509993 10.32357511 1.81509993 10.32357511 4 13 C1 14 1 14 -1.625 12.875 C-4 11 -4 11 -4.8125 8.3125 C-4.9053125 7.1678125 -4.9053125 7.1678125 -5 6 C-4.34 6 -3.68 6 -3 6 C-2.690625 5.195625 -2.38125 4.39125 -2.0625 3.5625 C-1 1 -1 1 0 0 Z " fill="#A81418" transform="translate(149,54)"/>
<path d="M0 0 C-2.64 4.62 -5.28 9.24 -8 14 C-8.66 13.67 -9.32 13.34 -10 13 C-10.51953125 11.0390625 -10.51953125 11.0390625 -10.8125 8.625 C-10.92207031 7.83351563 -11.03164062 7.04203125 -11.14453125 6.2265625 C-11 4 -11 4 -9.6328125 2.2890625 C-5.94615819 -0.62145406 -4.76364068 -1.19091017 0 0 Z " fill="#FAF7F7" transform="translate(115,93)"/>
<path d="M0 0 C0 4.23982678 -2.36213961 6.4927753 -4.875 9.6875 C-5.33519531 10.29400391 -5.79539063 10.90050781 -6.26953125 11.52539062 C-7.46018442 13.05943507 -8.72525403 14.53508701 -10 16 C-10.66 16 -11.32 16 -12 16 C-12.33 13.36 -12.66 10.72 -13 8 C-8.68958661 5.29395884 -4.37648119 2.5985357 0 0 Z " fill="#F7ECEC" transform="translate(140,66)"/>
<path d="M0 0 C0.99 0 1.98 0 3 0 C3.99 2.31 4.98 4.62 6 7 C7.74271938 4.702779 9.39911152 2.40133271 11 0 C11.66 0 12.32 0 13 0 C13 3.96 13 7.92 13 12 C12.34 12 11.68 12 11 12 C10.67 10.02 10.34 8.04 10 6 C9.01 7.98 8.02 9.96 7 12 C4.7522025 9.94766315 3.9977758 8.99332739 3 6 C2.67 7.98 2.34 9.96 2 12 C1.34 12 0.68 12 0 12 C0 8.04 0 4.08 0 0 Z " fill="#302D2D" transform="translate(2,139)"/>
<path d="M0 0 C1.9375 0.375 1.9375 0.375 4 1 C5.46127519 3.92255038 5.40097391 5.74938622 5 9 C3.24002671 11.3050721 1.6112629 13.18443441 -0.4375 15.1875 C-4.47366893 19.07607533 -4.47366893 19.07607533 -7 24 C-7.66 24 -8.32 24 -9 24 C-8.41827275 20.0479482 -6.44842259 17.77904947 -3.9375 14.75 C-3.20402344 13.85796875 -2.47054687 12.9659375 -1.71484375 12.046875 C-1.14894531 11.37140625 -0.58304688 10.6959375 0 10 C-0.66 9.67 -1.32 9.34 -2 9 C-1 6 -1 6 1 4 C0.6814823 1.89179203 0.6814823 1.89179203 0 0 Z " fill="#BE2121" transform="translate(140,58)"/>
<path d="M0 0 C0.33 2.97 0.66 5.94 1 9 C-4.70709064 8.53411505 -8.15939723 7.06242216 -13 4 C-8.68630028 1.12420019 -5.19265239 0 0 0 Z " fill="#FDFBFB" transform="translate(147,80)"/>
<path d="M0 0 C2.9375 0.8125 2.9375 0.8125 4.9375 3.8125 C4.9375 4.8025 4.9375 5.7925 4.9375 6.8125 C0.6475 6.8125 -3.6425 6.8125 -8.0625 6.8125 C-5.20991036 -0.3189741 -5.20991036 -0.3189741 0 0 Z " fill="#F3F3F3" transform="translate(126.0625,168.1875)"/>
<path d="M0 0 C2.45993028 0.2813059 4.91740248 0.57452731 7.375 0.875 C8.42300781 0.99294922 8.42300781 0.99294922 9.4921875 1.11328125 C14.7734375 1.7734375 14.7734375 1.7734375 17 4 C11.81374046 7.98015267 11.81374046 7.98015267 8.4375 8.0625 C4.63155409 6.40349794 1.85983783 3.71967567 0 0 Z " fill="#FCFCFD" transform="translate(111,29)"/>
<path d="M0 0 C2.5625 0.5 2.5625 0.5 4.875 2.875 C6.5625 5.5 6.5625 5.5 6.5625 7.5 C2.2725 7.5 -2.0175 7.5 -6.4375 7.5 C-5.30781235 2.98124938 -4.67985429 0.95997011 0 0 Z " fill="#F6F5F5" transform="translate(189.4375,167.5)"/>
<path d="M0 0 C2.5 0.25 2.5 0.25 4.5 2.25 C3.93181818 7.81818182 3.93181818 7.81818182 2.5 9.25 C0.0625 9.4375 0.0625 9.4375 -2.5 9.25 C-4.5 7.25 -4.5 7.25 -4.75 4.75 C-4.40058445 1.25584452 -3.49415548 0.34941555 0 0 Z " fill="#323030" transform="translate(57.5,141.75)"/>
<path d="M0 0 C2.4375 0.1875 2.4375 0.1875 3.4375 1.1875 C3.5625 4.6875 3.5625 4.6875 3.4375 8.1875 C2.4375 9.1875 2.4375 9.1875 -0.625 9.25 C-1.594375 9.229375 -2.56375 9.20875 -3.5625 9.1875 C-4.1875 5.8125 -4.1875 5.8125 -4.5625 2.1875 C-2.5625 0.1875 -2.5625 0.1875 0 0 Z " fill="#8C8B8B" transform="translate(40.5625,141.8125)"/>
<path d="M0 0 C1.41750563 0.11509661 2.83401169 0.24253658 4.25 0.375 C5.03890625 0.44460937 5.8278125 0.51421875 6.640625 0.5859375 C9.085877 1.01507113 10.84836903 1.78600638 13 3 C11.7391988 4.03319813 10.46596742 5.05124379 9.1875 6.0625 C8.12595703 6.91521484 8.12595703 6.91521484 7.04296875 7.78515625 C6.36878906 8.18605469 5.69460937 8.58695313 5 9 C4.01 8.67 3.02 8.34 2 8 C0.5522078 5.10441559 0 3.25811062 0 0 Z " fill="#F8EFEF" transform="translate(115,39)"/>
<path d="M0 0 C0.99 0.66 1.98 1.32 3 2 C3.1875 4.625 3.1875 4.625 3 7 C1.0848421 7.81604999 -0.83218834 8.62770632 -2.75 9.4375 C-3.81734375 9.88996094 -4.8846875 10.34242187 -5.984375 10.80859375 C-8.3413841 11.73979553 -10.52992835 12.4784072 -13 13 C-8.66666667 8.66666667 -4.33333333 4.33333333 0 0 Z " fill="#F9F2F2" transform="translate(124,77)"/>
<path d="M0 0 C3.46941546 0.45822468 6.67395049 0.89131683 10 2 C8.46116172 6.61651485 4.88101136 8.41265909 1 11 C0.67 7.37 0.34 3.74 0 0 Z " fill="#FAF3F3" transform="translate(119,54)"/>
<path d="M0 0 C0.33 0.66 0.66 1.32 1 2 C0.00390625 4.6015625 0.00390625 4.6015625 -1.4375 7.625 C-1.91058594 8.62789062 -2.38367188 9.63078125 -2.87109375 10.6640625 C-3.24363281 11.43492188 -3.61617188 12.20578125 -4 13 C-6 12 -8 11 -10 10 C-10 9.34 -10 8.68 -10 8 C-8.38542921 6.56418526 -6.70780925 5.19855217 -5 3.875 C-4.071875 3.15054688 -3.14375 2.42609375 -2.1875 1.6796875 C-1.465625 1.12539063 -0.74375 0.57109375 0 0 Z " fill="#F7EBEC" transform="translate(130,59)"/>
<path d="M0 0 C1.96048352 0.2548029 3.91840673 0.52936944 5.875 0.8125 C7.51082031 1.03873047 7.51082031 1.03873047 9.1796875 1.26953125 C12 2 12 2 14 5 C13 6 13 6 10.8203125 6.1328125 C9.93085937 6.13023437 9.04140625 6.12765625 8.125 6.125 C6.79855469 6.12886719 6.79855469 6.12886719 5.4453125 6.1328125 C3 6 3 6 0 5 C0 3.35 0 1.7 0 0 Z " fill="#2B2727" transform="translate(91,185)"/>
<path d="M0 0 C-0.66 2.31 -1.32 4.62 -2 7 C2.29 7 6.58 7 11 7 C11 7.33 11 7.66 11 8 C9.75283203 8.07347656 9.75283203 8.07347656 8.48046875 8.1484375 C7.39378906 8.22320312 6.30710937 8.29796875 5.1875 8.375 C4.10855469 8.44460937 3.02960938 8.51421875 1.91796875 8.5859375 C-1.18626186 8.81195733 -1.18626186 8.81195733 -4 11 C-4.66 11.99 -5.32 12.98 -6 14 C-6.10815225 12.23050905 -6.18566083 10.45912513 -6.25 8.6875 C-6.29640625 7.70136719 -6.3428125 6.71523437 -6.390625 5.69921875 C-6 3 -6 3 -4.109375 1.14453125 C-2 0 -2 0 0 0 Z " fill="#191515" transform="translate(120,169)"/>
<path d="M0 0 C5 1 5 1 9 4 C5.04 5.98 1.08 7.96 -3 10 C-2.01 6.7 -1.02 3.4 0 0 Z " fill="#F9F0F0" transform="translate(133,59)"/>
<path d="M0 0 C0.56203125 0.16371094 1.1240625 0.32742187 1.703125 0.49609375 C4.13059056 1.02864997 6.26889681 1.09898681 8.75 1.0625 C9.94882812 1.04896484 9.94882812 1.04896484 11.171875 1.03515625 C12.07679687 1.01775391 12.07679687 1.01775391 13 1 C12.67 2.65 12.34 4.3 12 6 C10.56260487 6.02712066 9.12506137 6.04645067 7.6875 6.0625 C6.48673828 6.07990234 6.48673828 6.07990234 5.26171875 6.09765625 C3 6 3 6 0 5 C0 3.35 0 1.7 0 0 Z " fill="#312D2D" transform="translate(1,185)"/>
<path d="M0 0 C0.33 0.66 0.66 1.32 1 2 C1.7425 1.649375 2.485 1.29875 3.25 0.9375 C6.1322726 -0.04509293 7.21176345 -0.0326802 10 1 C10 2.32 10 3.64 10 5 C7.36 4.67 4.72 4.34 2 4 C2 5.98 2 7.96 2 10 C2.66 10.33 3.32 10.66 4 11 C2.68 10.67 1.36 10.34 0 10 C-1.125 2.25 -1.125 2.25 0 0 Z " fill="#706F6F" transform="translate(70,140)"/>
<path d="M0 0 C-3.52977894 2.35318596 -6.78299147 2.8657526 -10.875 3.5625 C-12.28909191 3.81363654 -13.70315509 4.06493494 -15.1171875 4.31640625 C-17.03917969 4.65478516 -17.03917969 4.65478516 -19 5 C-20.66790463 5.3270826 -22.33524314 5.65725594 -24 6 C-24.33 5.01 -24.66 4.02 -25 3 C-8.29157175 -0.44419134 -8.29157175 -0.44419134 0 0 Z " fill="#AD2123" transform="translate(190,68)"/>
<path d="M0 0 C0.66 0.33 1.32 0.66 2 1 C2 4.96 2 8.92 2 13 C2.66 13.33 3.32 13.66 4 14 C3.67 14.66 3.34 15.32 3 16 C3.99 16.33 4.98 16.66 6 17 C5.67 17.99 5.34 18.98 5 20 C3.68 20 2.36 20 1 20 C0.34 20.66 -0.32 21.32 -1 22 C-0.83628906 21.18273437 -0.67257813 20.36546875 -0.50390625 19.5234375 C0.06974606 15.51231824 0.11001604 11.66751879 0.0625 7.625 C0.05798828 6.88894531 0.05347656 6.15289062 0.04882812 5.39453125 C0.03715142 3.59631842 0.01922011 1.79814803 0 0 Z " fill="#A60B0F" transform="translate(117,53)"/>
<path d="M0 0 C0.99 0 1.98 0 3 0 C3.61875 0.804375 4.2375 1.60875 4.875 2.4375 C6.77298325 5.210674 6.77298325 5.210674 9.75 5.8125 C10.86375 5.9053125 10.86375 5.9053125 12 6 C9.66785852 7.20628008 7.50357861 8.1654738 5 9 C2.3125 7.375 2.3125 7.375 0 5 C-0.3125 2.25 -0.3125 2.25 0 0 Z " fill="#262323" transform="translate(180,181)"/>
<path d="M0 0 C3.63 0 7.26 0 11 0 C11 1.65 11 3.3 11 5 C10.30132812 4.9278125 9.60265625 4.855625 8.8828125 4.78125 C7.97273438 4.6884375 7.06265625 4.595625 6.125 4.5 C5.22007813 4.4071875 4.31515625 4.314375 3.3828125 4.21875 C1.06686789 3.96952705 1.06686789 3.96952705 -1 4 C-0.67 2.68 -0.34 1.36 0 0 Z " fill="#171313" transform="translate(98,155)"/>
<path d="M0 0 C0.66 0 1.32 0 2 0 C2.33 0.99 2.66 1.98 3 3 C2.54625 3.433125 2.0925 3.86625 1.625 4.3125 C-0.20024334 6.10798342 -0.20024334 6.10798342 -2 9 C-2.66 9 -3.32 9 -4 9 C-4.33 6.69 -4.66 4.38 -5 2 C-3.68 2.33 -2.36 2.66 -1 3 C-0.67 2.01 -0.34 1.02 0 0 Z " fill="#AC2025" transform="translate(127,69)"/>
<path d="M0 0 C3.63 0 7.26 0 11 0 C11 1.65 11 3.3 11 5 C7.7 4.34 4.4 3.68 1 3 C0.67 2.01 0.34 1.02 0 0 Z " fill="#181414" transform="translate(8,155)"/>
<path d="M0 0 C0.99 0 1.98 0 3 0 C3.99 2.64 4.98 5.28 6 8 C5.01 8.495 5.01 8.495 4 9 C3.67 8.01 3.34 7.02 3 6 C2.67 7.98 2.34 9.96 2 12 C1.34 12 0.68 12 0 12 C0 8.04 0 4.08 0 0 Z " fill="#4F4D4D" transform="translate(2,139)"/>
<path d="M0 0 C0.99 0 1.98 0 3 0 C5.1875 3 5.1875 3 7 6 C4.36 6 1.72 6 -1 6 C-1.625 4.125 -1.625 4.125 -2 2 C-1.34 1.34 -0.68 0.68 0 0 Z " fill="#FAF7F7" transform="translate(106,29)"/>
<path d="M0 0 C0.680625 0.309375 1.36125 0.61875 2.0625 0.9375 C-0.73466804 4.22828593 -4.13278578 6.00055458 -7.9375 7.9375 C-8.5975 7.6075 -9.2575 7.2775 -9.9375 6.9375 C-3.86310175 -0.08219365 -3.86310175 -0.08219365 0 0 Z " fill="#AC2025" transform="translate(103.9375,93.0625)"/>
<path d="M0 0 C6.0018137 -0.21824777 11.19233704 0.4943096 17 2 C16.67 2.66 16.34 3.32 16 4 C10.43109483 3.52013969 5.32932432 2.70084819 0 1 C0 0.67 0 0.34 0 0 Z " fill="#A70E13" transform="translate(131,40)"/>
<path d="M0 0 C0.22036864 3.85645121 -0.39644899 6.49223216 -2 10 C-2.99 9.34 -3.98 8.68 -5 8 C-5.66 8 -6.32 8 -7 8 C-4.18918919 0 -4.18918919 0 0 0 Z " fill="#332F2F" transform="translate(98,155)"/>
<path d="M0 0 C0.66 0.33 1.32 0.66 2 1 C-1.82573388 4.92496041 -5.61997324 8.68179791 -10 12 C-10.66 11.67 -11.32 11.34 -12 11 C-8.42270128 6.33867137 -4.89132699 3.26088466 0 0 Z " fill="#EACECE" transform="translate(119,78)"/>
<path d="M0 0 C3.12290635 0.48578543 5.99580359 0.9986012 9 2 C8.67 3.32 8.34 4.64 8 6 C5.03 5.01 2.06 4.02 -1 3 C-0.67 2.01 -0.34 1.02 0 0 Z " fill="#B02C30" transform="translate(159,45)"/>
<path d="M0 0 C0.99 1.98 1.98 3.96 3 6 C-0.3 5.67 -3.6 5.34 -7 5 C-2.25 0 -2.25 0 0 0 Z " fill="#FAF8F8" transform="translate(131,33)"/>
<path d="M0 0 C2.0625 0.4375 2.0625 0.4375 4 1 C4 2.65 4 4.3 4 6 C2.0625 6.5625 2.0625 6.5625 0 7 C-1 6 -1 6 -1.125 3.5 C-1 1 -1 1 0 0 Z " fill="#F6F6F6" transform="translate(56,143)"/>
<path d="M0 0 C3.3 0 6.6 0 10 0 C8 3 8 3 5.8359375 3.51171875 C4.61777344 3.59873047 4.61777344 3.59873047 3.375 3.6875 C2.55773438 3.75324219 1.74046875 3.81898438 0.8984375 3.88671875 C0.27195313 3.92410156 -0.35453125 3.96148437 -1 4 C-0.67 2.68 -0.34 1.36 0 0 Z " fill="#141010" transform="translate(36,155)"/>
<path d="M0 0 C0.66 0.66 1.32 1.32 2 2 C1.24203125 2.61488281 1.24203125 2.61488281 0.46875 3.2421875 C-0.1809375 3.78101562 -0.830625 4.31984375 -1.5 4.875 C-2.1496875 5.40867187 -2.799375 5.94234375 -3.46875 6.4921875 C-4.22671875 7.23855469 -4.22671875 7.23855469 -5 8 C-5 8.66 -5 9.32 -5 10 C-6.96466413 11.06775224 -8.96855359 12.06553465 -11 13 C-11.66 12.67 -12.32 12.34 -13 12 C-12.31292969 11.38511719 -11.62585938 10.77023438 -10.91796875 10.13671875 C-10.01691406 9.32847656 -9.11585937 8.52023438 -8.1875 7.6875 C-7.29417969 6.88699219 -6.40085937 6.08648437 -5.48046875 5.26171875 C-3.60073214 3.54775419 -1.77407253 1.82122396 0 0 Z " fill="#F3E2E3" transform="translate(124,77)"/>
<path d="M0 0 C0.99 0.33 1.98 0.66 3 1 C2.34 1 1.68 1 1 1 C1.185625 1.495 1.37125 1.99 1.5625 2.5 C2.20139296 6.15081689 1.54905291 9.33964724 1 13 C0.34 13 -0.32 13 -1 13 C-1.2236337 11.58566794 -1.42826476 10.16832382 -1.625 8.75 C-1.74101563 7.96109375 -1.85703125 7.1721875 -1.9765625 6.359375 C-2.00319395 3.67847541 -1.36592084 2.27305911 0 0 Z " fill="#403E3E" transform="translate(65,138)"/>
<path d="M0 0 C2.50357192 1.25178596 4.06433379 2.99981158 6 5 C5.67 5.99 5.34 6.98 5 8 C2.69 7.01 0.38 6.02 -2 5 C-1.34 3.35 -0.68 1.7 0 0 Z " fill="#D5342F" transform="translate(135,54)"/>
<path d="M0 0 C1.65 0 3.3 0 5 0 C3.3619751 3.51005335 1.96865509 6.45543849 -1 9 C-1.66 8.67 -2.32 8.34 -3 8 C-2.01 5.36 -1.02 2.72 0 0 Z " fill="#282424" transform="translate(170,173)"/>
<path d="M0 0 C0.66 0.33 1.32 0.66 2 1 C1.67 2.32 1.34 3.64 1 5 C-1.31 5.66 -3.62 6.32 -6 7 C-4.19587357 3.73539027 -3.16605307 2.11070205 0 0 Z " fill="#2D2A2A" transform="translate(185,165)"/>
<path d="M0 0 C0.33 0.99 0.66 1.98 1 3 C-2.96 4.98 -2.96 4.98 -7 7 C-7.33 5.68 -7.66 4.36 -8 3 C-7.05125 2.690625 -6.1025 2.38125 -5.125 2.0625 C-2.13919592 1.12605258 -2.13919592 1.12605258 0 0 Z " fill="#CF3734" transform="translate(137,65)"/>
<path d="M0 0 C2.875 0.1875 2.875 0.1875 6 1 C7.4375 3.375 7.4375 3.375 8 6 C7.67 6.99 7.34 7.98 7 9 C5.83037314 7.69013727 4.66437056 6.3770374 3.5 5.0625 C2.8503125 4.33160156 2.200625 3.60070313 1.53125 2.84765625 C0 1 0 1 0 0 Z " fill="#F4E5E5" transform="translate(107,37)"/>
<path d="M0 0 C0.66 0.33 1.32 0.66 2 1 C1.50628906 1.55429688 1.01257813 2.10859375 0.50390625 2.6796875 C-0.45708984 3.76636719 -0.45708984 3.76636719 -1.4375 4.875 C-2.07558594 5.59429687 -2.71367188 6.31359375 -3.37109375 7.0546875 C-5.05014465 8.90750491 -5.05014465 8.90750491 -6 11 C-6.99 10.67 -7.98 10.34 -9 10 C-7.8758824 8.70756532 -6.75067408 7.41607925 -5.625 6.125 C-4.99851562 5.40570313 -4.37203125 4.68640625 -3.7265625 3.9453125 C-2.52573166 2.5923402 -1.2791655 1.2791655 0 0 Z " fill="#A99FA8" transform="translate(92,101)"/>
<path d="M0 0 C1.32 0.33 2.64 0.66 4 1 C2.9024777 3.99324263 2.32317108 4.84610901 -0.625 6.25 C-1.40875 6.4975 -2.1925 6.745 -3 7 C-2.01 4.69 -1.02 2.38 0 0 Z " fill="#F2E1E1" transform="translate(118,72)"/>
<path d="M0 0 C2.31 0.66 4.62 1.32 7 2 C6.01 2.495 6.01 2.495 5 3 C5 3.66 5 4.32 5 5 C3.35 5 1.7 5 0 5 C0 3.35 0 1.7 0 0 Z " fill="#191515" transform="translate(1,185)"/>
<path d="M0 0 C0.33 1.32 0.66 2.64 1 4 C-0.423125 4.4640625 -0.423125 4.4640625 -1.875 4.9375 C-4.86080408 5.87394742 -4.86080408 5.87394742 -7 7 C-4.60526316 0 -4.60526316 0 0 0 Z " fill="#252121" transform="translate(122,165)"/>
<path d="M0 0 C1.65 0 3.3 0 5 0 C5 0.66 5 1.32 5 2 C4.01 2 3.02 2 2 2 C2 4.31 2 6.62 2 9 C1.34 9 0.68 9 0 9 C0 6.03 0 3.06 0 0 Z " fill="#4F4D4D" transform="translate(30,142)"/>
<path d="M0 0 C3.17462943 2.40242227 5.85751741 4.61713276 8 8 C8 8.66 8 9.32 8 10 C7.34 10 6.68 10 6 10 C4.2734375 8.25 4.2734375 8.25 2.375 6 C1.74335938 5.2575 1.11171875 4.515 0.4609375 3.75 C-0.02117187 3.1725 -0.50328125 2.595 -1 2 C-0.67 1.34 -0.34 0.68 0 0 Z " fill="#A91519" transform="translate(185,58)"/>
<path d="M0 0 C1.98 0.495 1.98 0.495 4 1 C4 2.32 4 3.64 4 5 C2.35 5 0.7 5 -1 5 C-0.67 3.35 -0.34 1.7 0 0 Z " fill="#A5A4A4" transform="translate(220,164)"/>
<path d="M0 0 C0.99 0.33 1.98 0.66 3 1 C3 1.66 3 2.32 3 3 C5.46326712 4.6446674 5.46326712 4.6446674 8 6 C7.01 6.495 7.01 6.495 6 7 C3.8359375 6.00390625 3.8359375 6.00390625 1.375 4.5625 C0.55773437 4.08941406 -0.25953125 3.61632812 -1.1015625 3.12890625 C-1.72804687 2.75636719 -2.35453125 2.38382812 -3 2 C-2.01 1.34 -1.02 0.68 0 0 Z " fill="#EEE9EA" transform="translate(137,82)"/>
<path d="M0 0 C0.66 0.66 1.32 1.32 2 2 C1.67 2.99 1.34 3.98 1 5 C1.33 5.66 1.66 6.32 2 7 C0.02 7.99 0.02 7.99 -2 9 C-2.66 8.34 -3.32 7.68 -4 7 C-2.68 4.69 -1.36 2.38 0 0 Z " fill="#B13235" transform="translate(115,74)"/>
<path d="M0 0 C4.455 0.99 4.455 0.99 9 2 C8.34 2.66 7.68 3.32 7 4 C3.375 3.625 3.375 3.625 0 3 C0 2.01 0 1.02 0 0 Z " fill="#A71015" transform="translate(120,51)"/>
<path d="M0 0 C0.66 0.33 1.32 0.66 2 1 C1.67 2.65 1.34 4.3 1 6 C-0.32 5.34 -1.64 4.68 -3 4 C-3 3.01 -3 2.02 -3 1 C-2.01 0.67 -1.02 0.34 0 0 Z " fill="#E6E6E6" transform="translate(51,142)"/>
<path d="M0 0 C2.475 0.99 2.475 0.99 5 2 C5 2.66 5 3.32 5 4 C5.99 4.33 6.98 4.66 8 5 C7.01 5.66 6.02 6.32 5 7 C3.29115995 5.37660195 1.62553283 3.70680947 0 2 C0 1.34 0 0.68 0 0 Z " fill="#B53F41" transform="translate(100,32)"/>
<path d="M0 0 C0.33 0.99 0.66 1.98 1 3 C-0.4375 5.1875 -0.4375 5.1875 -2 7 C-2.99 6.01 -3.98 5.02 -5 4 C-3.35 2.68 -1.7 1.36 0 0 Z " fill="#BABBC2" transform="translate(105,27)"/>
<path d="M0 0 C0 0.66 0 1.32 0 2 C0.66 2.33 1.32 2.66 2 3 C-4.625 3.25 -4.625 3.25 -8 1 C-5.29120665 -0.35439668 -2.99066732 -0.06501451 0 0 Z " fill="#B4BAC2" transform="translate(111,135)"/>
<path d="M0 0 C0.33 0.66 0.66 1.32 1 2 C0.67 2.66 0.34 3.32 0 4 C-2.5625 4.625 -2.5625 4.625 -5 5 C-5.33 4.01 -5.66 3.02 -6 2 C-4.02 1.34 -2.04 0.68 0 0 Z " fill="#AF282E" transform="translate(156,73)"/>
<path d="M0 0 C-0.375 2.4375 -0.375 2.4375 -1 5 C-1.99 5.495 -1.99 5.495 -3 6 C-3.33 5.34 -3.66 4.68 -4 4 C-4.99 4 -5.98 4 -7 4 C-2.25 0 -2.25 0 0 0 Z " fill="#A8161A" transform="translate(123,75)"/>
<path d="M0 0 C0.33 0 0.66 0 1 0 C1.33 2.31 1.66 4.62 2 7 C3.32 6.67 4.64 6.34 6 6 C4.68 7.32 3.36 8.64 2 10 C1.34 9.67 0.68 9.34 0 9 C0 6.03 0 3.06 0 0 Z " fill="#BF5D5F" transform="translate(119,57)"/>
<path d="M0 0 C0.66 0.33 1.32 0.66 2 1 C0.37660195 2.70884005 -1.29319053 4.37446717 -3 6 C-3.66 6 -4.32 6 -5 6 C-5.33 6.66 -5.66 7.32 -6 8 C-6 5 -6 5 -4.6875 3.61328125 C-3.125 2.40885417 -1.5625 1.20442708 0 0 Z " fill="#AB1A1D" transform="translate(125,43)"/>
<path d="M0 0 C0 1.32 0 2.64 0 4 C-1.875 4.625 -1.875 4.625 -4 5 C-4.66 4.34 -5.32 3.68 -6 3 C-5.34 3 -4.68 3 -4 3 C-4 2.34 -4 1.68 -4 1 C-2 0 -2 0 0 0 Z " fill="#3A3838" transform="translate(199,185)"/>
<path d="M0 0 C-0.33 0.99 -0.66 1.98 -1 3 C-2.65 3.33 -4.3 3.66 -6 4 C-6.33 3.01 -6.66 2.02 -7 1 C-4.50935112 0.31292445 -2.62113708 0 0 0 Z " fill="#B3363B" transform="translate(172,70)"/>
<path d="M0 0 C4.875 2.75 4.875 2.75 6 5 C3.36 4.67 0.72 4.34 -2 4 C-1.34 2.68 -0.68 1.36 0 0 Z " fill="#DACACC" transform="translate(112,32)"/>
<path d="M0 0 C0 1.32 0 2.64 0 4 C-0.99 4.33 -1.98 4.66 -3 5 C-3.99 4.34 -4.98 3.68 -6 3 C-5.34 3 -4.68 3 -4 3 C-4 2.34 -4 1.68 -4 1 C-2 0 -2 0 0 0 Z " fill="#312D2D" transform="translate(134,185)"/>
<path d="M0 0 C0.33 0.66 0.66 1.32 1 2 C3.52733235 2.65555119 3.52733235 2.65555119 6 3 C6 3.66 6 4.32 6 5 C3.03 4.505 3.03 4.505 0 4 C0 2.68 0 1.36 0 0 Z " fill="#DADADA" transform="translate(44,145)"/>
</svg>
