<?xml version="1.0" encoding="UTF-8"?>
<svg version="1.1" xmlns="http://www.w3.org/2000/svg" width="216" height="234">
<path d="M0 0 C71.28 0 142.56 0 216 0 C216 77.22 216 154.44 216 234 C144.72 234 73.44 234 0 234 C0 156.78 0 79.56 0 0 Z " fill="#FDFDFD" transform="translate(0,0)"/>
<path d="M0 0 C0 5.28 0 10.56 0 16 C-2.60648438 17.50240234 -2.60648438 17.50240234 -5.265625 19.03515625 C-6.99350208 20.03147247 -8.7213778 21.02779105 -10.44921875 22.02416992 C-12.20040015 23.03390074 -13.95175998 24.04332207 -15.703125 25.05273438 C-17.42981975 26.04852709 -19.15660353 27.04487047 -20.85980225 28.08033752 C-23.70559256 29.79241866 -26.33913025 31.11469467 -29.49316406 32.18139648 C-33.40789615 33.67688925 -35.36464481 34.7046735 -38 38 C-40.16453628 46.03686618 -39.44566249 54.6994143 -39.25 62.9375 C-39.23802031 65.26625433 -39.2314506 67.59504319 -39.23046875 69.92382812 C-39.21629034 75.61777738 -39.13432569 81.30768543 -39 87 C-38.28013916 87.27239502 -37.56027832 87.54479004 -36.81860352 87.82543945 C-34.04321665 88.98199088 -31.51477289 90.30745066 -28.90234375 91.79296875 C-27.94126709 92.33808105 -26.98019043 92.88319336 -25.98999023 93.44482422 C-24.98266846 94.01990723 -23.97534668 94.59499023 -22.9375 95.1875 C-21.90633057 95.77031738 -20.87516113 96.35313477 -19.81274414 96.95361328 C-15.51261183 99.39056982 -11.22158739 101.82688583 -7.03125 104.44921875 C-6.0103125 105.08472656 -4.989375 105.72023438 -3.9375 106.375 C-3.10089844 106.91898437 -2.26429687 107.46296875 -1.40234375 108.0234375 C1.83081416 109.33772934 3.61747619 108.79735132 7 108 C9.97101421 106.62550704 9.97101421 106.62550704 12.921875 104.83203125 C14.03046875 104.18556641 15.1390625 103.53910156 16.28125 102.87304688 C17.43760711 102.18637827 18.59385664 101.49952845 19.75 100.8125 C20.87921875 100.15185547 22.0084375 99.49121094 23.171875 98.81054688 C27.46235461 96.29535252 31.74363891 93.76848379 35.98632812 91.17333984 C36.88287109 90.62500488 37.77941406 90.07666992 38.703125 89.51171875 C39.48848633 89.02533936 40.27384766 88.53895996 41.08300781 88.0378418 C43 87 43 87 45 87 C44.97335266 86.43925278 44.94670532 85.87850555 44.91925049 85.30076599 C44.65301856 79.44518214 44.47251828 73.59132176 44.34082031 67.73120117 C44.28059942 65.54722252 44.19879503 63.3637253 44.09472656 61.18139648 C43.2704063 43.44638841 43.2704063 43.44638841 46.20043945 39.30206299 C49.28166443 36.552124 53.74113398 34 58 34 C58 54.13 58 74.26 58 95 C49.42 99.95 40.84 104.9 32 110 C29.33164063 111.55460937 26.66328125 113.10921875 23.9140625 114.7109375 C22.84285156 115.33484375 21.77164063 115.95875 20.66796875 116.6015625 C18.55138004 117.83510714 16.43695179 119.07236321 14.32421875 120.3125 C13.28136719 120.91835937 12.23851563 121.52421875 11.1640625 122.1484375 C10.26123535 122.67614746 9.3584082 123.20385742 8.42822266 123.74755859 C4.44101939 125.80409919 4.44101939 125.80409919 2 126 C-0.44750977 125.00292969 -0.44750977 125.00292969 -3.19140625 123.421875 C-4.20968506 122.84308594 -5.22796387 122.26429687 -6.27709961 121.66796875 C-7.36128174 121.03503906 -8.44546387 120.40210937 -9.5625 119.75 C-10.6769751 119.11191406 -11.7914502 118.47382812 -12.93969727 117.81640625 C-16.2998675 115.88902703 -19.65030153 113.94550649 -23 112 C-24.84053502 110.94164539 -26.68163118 109.88426568 -28.5234375 108.828125 C-37.04904473 103.92723618 -37.04904473 103.92723618 -39.68159485 102.31369019 C-41.98905336 100.94175555 -41.98905336 100.94175555 -44.55252075 99.95394897 C-47.53722279 98.5860372 -49.65514262 97.31308353 -52 95 C-53.54372024 90.21663876 -53.4836268 85.45687033 -53.43359375 80.4765625 C-53.44796911 79.04695986 -53.46486175 77.61738054 -53.48414612 76.18783569 C-53.51236728 73.19614352 -53.50308529 70.20742178 -53.46850586 67.21582031 C-53.42835657 63.3971659 -53.492152 59.58844431 -53.58582973 55.77102089 C-53.64476544 52.81911302 -53.64245859 49.86955366 -53.62278938 46.91721725 C-53.62166929 45.5114099 -53.64041905 44.1054303 -53.68014336 42.70018387 C-53.78949749 38.17275048 -53.60868771 34.2533694 -52 30 C-48.04911828 26.34268137 -43.89531551 24.26410308 -39 22 C-37.69413 21.25681331 -36.39551117 20.50032984 -35.11254883 19.71826172 C-34.07122803 19.12803223 -33.02990723 18.53780273 -31.95703125 17.9296875 C-31.37765305 17.6001004 -30.79827484 17.27051331 -30.20133972 16.93093872 C-28.40627535 15.910133 -26.60954848 14.89230804 -24.8125 13.875 C-17.42001188 9.68349614 -10.04423688 5.48018602 -2.79956055 1.03564453 C-1 0 -1 0 0 0 Z " fill="#1A1D28" transform="translate(105,1)"/>
<path d="M0 0 C7.59021331 3.59767336 14.83721659 7.58819003 22.04833984 11.88183594 C28.18104596 15.53170377 34.3623934 19.09093398 40.5625 22.625 C41.96520142 23.42478271 41.96520142 23.42478271 43.39624023 24.24072266 C45.59699003 25.49470293 47.79820647 26.74785354 50 28 C46.49922714 31.63071421 43.57348548 33.87096365 39 36 C34.08857451 35.69279657 30.67839903 33.96039226 26.46484375 31.5078125 C25.86370255 31.16120575 25.26256134 30.814599 24.64320374 30.45748901 C22.73619023 29.35520898 20.83688857 28.24035688 18.9375 27.125 C17.65868742 26.38327898 16.37939444 25.64238556 15.09960938 24.90234375 C11.72562239 22.94746976 8.35929404 20.98005087 5 19 C3.57953369 18.25858765 3.57953369 18.25858765 2.13037109 17.50219727 C1.42734863 17.00647217 0.72432617 16.51074707 0 16 C-0.37859559 13.05906948 -0.47775614 10.72355042 -0.3125 7.8125 C-0.27866211 6.68811523 -0.27866211 6.68811523 -0.24414062 5.54101562 C-0.18529157 3.6931553 -0.09560938 1.84632333 0 0 Z " fill="#1ABA73" transform="translate(111,1)"/>
<path d="M0 0 C1.65 0 3.3 0 5 0 C5.33 0.99 5.66 1.98 6 3 C6.515625 2.505 7.03125 2.01 7.5625 1.5 C10.87832303 -0.54050648 13.16691031 -0.34224015 17 0 C19.91966564 0.89212006 20.79623448 1.71643468 22.5859375 4.20703125 C24.19932413 7.39369268 24.40218057 9.44840521 24.375 13 C24.38273437 14.010625 24.39046875 15.02125 24.3984375 16.0625 C23.94217323 19.42633069 23.0090766 21.28350206 21 24 C17.877998 26.08133467 17.06733011 26.2737822 13.5 26.25 C12.33984375 26.25773437 12.33984375 26.25773437 11.15625 26.265625 C9 26 9 26 6 24 C5.67 27.96 5.34 31.92 5 36 C3.35 36 1.7 36 0 36 C0 24.12 0 12.24 0 0 Z " fill="#16B971" transform="translate(43,197)"/>
<path d="M0 0 C3.45211024 2.30140683 4.9826251 4.1448704 6.8125 7.875 C7.4764638 12.05797192 7.79726362 14.31378939 5.53125 17.90625 C0.68507371 23.70265693 0.68507371 23.70265693 -3.39453125 24.078125 C-12.35903858 24.23940549 -12.35903858 24.23940549 -16.1875 20.875 C-19.05500374 17.41421963 -19.72596895 14.36993388 -19.5390625 9.8671875 C-18.76245417 5.46640698 -16.24367353 2.73135692 -12.875 0 C-8.27350314 -1.92620799 -4.65699118 -1.64364395 0 0 Z " fill="#1CBB76" transform="translate(165.1875,199.125)"/>
<path d="M0 0 C3.42484369 2.28322912 4.97163392 4.19326784 6.8125 7.875 C7.4322472 12.21323043 7.1467226 14.25430088 5.0625 18.125 C2.46845689 21.29549713 0.55505076 23.58599158 -3.58984375 24.2734375 C-12.54023973 24.19069116 -12.54023973 24.19069116 -16.1875 20.875 C-19.07152967 16.49923085 -19.83737517 13.07400136 -19.1875 7.875 C-14.90138553 -0.37973899 -8.93720649 -3.15430817 0 0 Z " fill="#1EBB76" transform="translate(89.1875,199.125)"/>
<path d="M0 0 C2.70552388 2.19823815 4.44778333 3.89556667 6 7 C6 9.31 6 11.62 6 14 C-0.6 14 -7.2 14 -14 14 C-10.86824314 19.77260299 -10.86824314 19.77260299 -8 21 C-3.77853434 21.28143104 -0.82708507 20.80098121 3 19 C3.33 20.32 3.66 21.64 4 23 C-0.78213636 25.79519238 -5.60497921 25.77294799 -11 25 C-14.25818977 23.38697114 -16.22918506 21.05111128 -18.375 18.125 C-19.32425152 14.89754484 -19.3465354 12.34984219 -19 9 C-14.27895931 0.53468566 -9.57548158 -2.50306448 0 0 Z " fill="#1BBB75" transform="translate(33,198)"/>
<path d="M0 0 C0 2.97 0 5.94 0 9 C-0.63808594 9.13277344 -1.27617188 9.26554687 -1.93359375 9.40234375 C-3.17302734 9.66724609 -3.17302734 9.66724609 -4.4375 9.9375 C-5.26121094 10.11152344 -6.08492187 10.28554688 -6.93359375 10.46484375 C-8.97661204 10.80752994 -8.97661204 10.80752994 -10 12 C-10.15740605 13.70563778 -10.25093392 15.41727244 -10.31640625 17.12890625 C-10.35830078 18.16337891 -10.40019531 19.19785156 -10.44335938 20.26367188 C-10.48267578 21.35228516 -10.52199219 22.44089844 -10.5625 23.5625 C-10.60568359 24.65498047 -10.64886719 25.74746094 -10.69335938 26.87304688 C-10.79982068 29.58189564 -10.90183516 32.29083992 -11 35 C-13.97 35 -16.94 35 -20 35 C-20 23.78 -20 12.56 -20 1 C-17.03 1 -14.06 1 -11 1 C-10.67 1.99 -10.34 2.98 -10 4 C-8.63875 3.01 -8.63875 3.01 -7.25 2 C-4 0 -4 0 0 0 Z " fill="#1DBB76" transform="translate(121,47)"/>
<path d="M0 0 C3.47485838 2.07012839 5.74352278 4.11634312 7 8 C7 9.98 7 11.96 7 14 C0.4 14 -6.2 14 -13 14 C-10.83333333 19.83333333 -10.83333333 19.83333333 -8 21 C-1.91483944 21.23333287 -1.91483944 21.23333287 4 20 C4 21.32 4 22.64 4 24 C-0.3336094 26.45113654 -4.1102161 26.69490863 -9 26 C-13.08416772 23.92078734 -15.33264053 22.24761712 -17 18 C-17.65408074 12.8966491 -17.83420134 8.45985235 -15.25 3.9375 C-10.50560586 -0.14795051 -6.13136906 -0.89780761 0 0 Z " fill="#191C28" transform="translate(88,152)"/>
<path d="M0 0 C1.65 0 3.3 0 5 0 C5.49371094 1.21558594 5.98742187 2.43117187 6.49609375 3.68359375 C7.14309709 5.2682831 7.7902397 6.85291559 8.4375 8.4375 C8.76298828 9.23994141 9.08847656 10.04238281 9.42382812 10.86914062 C9.73642578 11.63291016 10.04902344 12.39667969 10.37109375 13.18359375 C10.65911865 13.89056396 10.94714355 14.59753418 11.24389648 15.32592773 C11.88053845 16.99832767 11.88053845 16.99832767 13 18 C13.44730469 16.78441406 13.89460937 15.56882813 14.35546875 14.31640625 C14.96509893 12.73136778 15.57583365 11.14675383 16.1875 9.5625 C16.47947266 8.76005859 16.77144531 7.95761719 17.07226562 7.13085938 C17.92556091 4.95633268 18.74363455 2.97035295 20 1 C22.73828125 -0.03515625 22.73828125 -0.03515625 25 0 C24.01215608 5.87739916 21.71935124 11.188523 19.49951172 16.69311523 C18.75289572 18.55527768 18.02685772 20.42467277 17.30078125 22.29492188 C16.82511719 23.47763672 16.34945312 24.66035156 15.859375 25.87890625 C15.43108398 26.9572876 15.00279297 28.03566895 14.56152344 29.14672852 C12.78651563 32.39008628 11.09300389 34.00221099 8 36 C4.6875 36.25 4.6875 36.25 2 36 C2.33 34.35 2.66 32.7 3 31 C4.65 30.67 6.3 30.34 8 30 C9.95977816 22.96843414 7.43438796 18.09626447 4.5625 11.625 C3.70874539 9.63840309 2.85583234 7.65144423 2.00390625 5.6640625 C1.62049072 4.79217285 1.2370752 3.9202832 0.84204102 3.02197266 C0 1 0 1 0 0 Z " fill="#18BA73" transform="translate(191,197)"/>
<path d="M0 0 C1.65 0 3.3 0 5 0 C5.02505615 0.60062256 5.0501123 1.20124512 5.07592773 1.82006836 C5.1915528 4.52611437 5.31442936 7.23178283 5.4375 9.9375 C5.47681641 10.88302734 5.51613281 11.82855469 5.55664062 12.80273438 C5.59853516 13.70185547 5.64042969 14.60097656 5.68359375 15.52734375 C5.72025146 16.35999756 5.75690918 17.19265137 5.79467773 18.05053711 C5.79367103 20.00338858 5.79367103 20.00338858 7 21 C12.32673036 21.33856828 12.32673036 21.33856828 17 19 C17.50621513 16.97723319 17.50621513 16.97723319 17.51171875 14.6484375 C17.54716797 13.79765625 17.58261719 12.946875 17.61914062 12.0703125 C17.64169922 11.18085938 17.66425781 10.29140625 17.6875 9.375 C17.72166016 8.4778125 17.75582031 7.580625 17.79101562 6.65625 C17.87362402 4.43762462 17.94272719 2.2194006 18 0 C19.32 0 20.64 0 22 0 C22 8.25 22 16.5 22 25 C20.68 25 19.36 25 18 25 C17.67 24.34 17.34 23.68 17 23 C16.34 23.495 15.68 23.99 15 24.5 C10.85314682 26.57342659 8.61882953 26.58651804 4 26 C1.3557836 23.80034538 0.14069062 22.06374768 -0.31469727 18.62060547 C-0.39396771 15.79898544 -0.34851422 13.00841675 -0.25 10.1875 C-0.23195313 9.20845703 -0.21390625 8.22941406 -0.1953125 7.22070312 C-0.14832887 4.81279229 -0.08265694 2.40690665 0 0 Z " fill="#1F212B" transform="translate(122,152)"/>
<path d="M0 0 C3.0625 1.5 3.0625 1.5 5 3 C4.34 4.32 3.68 5.64 3 7 C2.01 6.34 1.02 5.68 0 5 C-2.05709596 4.75944532 -2.05709596 4.75944532 -4.1875 4.875 C-5.445625 4.91625 -6.70375 4.9575 -8 5 C-8 6.32 -8 7.64 -8 9 C-7.15695313 9.26554688 -6.31390625 9.53109375 -5.4453125 9.8046875 C-3.80175781 10.33449219 -3.80175781 10.33449219 -2.125 10.875 C-0.48917969 11.39707031 -0.48917969 11.39707031 1.1796875 11.9296875 C4 13 4 13 6 15 C6.67736758 21.09630819 6.67736758 21.09630819 4.3515625 24.19921875 C1.37719367 26.47693309 -0.28880699 26.50708487 -4 26.4375 C-5.546875 26.43556641 -5.546875 26.43556641 -7.125 26.43359375 C-10.27182056 25.95900532 -11.67018047 25.11139895 -14 23 C-13.505 21.515 -13.505 21.515 -13 20 C-12.13375 20.33 -11.2675 20.66 -10.375 21 C-6.40716321 22.17565535 -2.80955639 22.90477819 1 21 C0.8760595 19.02052502 0.8760595 19.02052502 0 17 C-2.18538275 16.00072004 -2.18538275 16.00072004 -4.8125 15.5 C-11.90619688 13.58937677 -11.90619688 13.58937677 -14 10 C-14 6.31263994 -13.78378446 4.01238826 -11.5 1.0625 C-7.68082506 -0.56064935 -4.08571151 -0.56705605 0 0 Z " fill="#1EBB76" transform="translate(112,197)"/>
<path d="M0 0 C0.845625 0.00386719 1.69125 0.00773438 2.5625 0.01171875 C5.11537729 0.32673726 6.79013935 1.02853004 9 2.3125 C8.67 3.6325 8.34 4.9525 8 6.3125 C7.29875 5.9825 6.5975 5.6525 5.875 5.3125 C2.73996884 4.22205438 0.29436818 4.15927357 -3 4.3125 C-3.33 5.6325 -3.66 6.9525 -4 8.3125 C-2.1746875 8.9621875 -2.1746875 8.9621875 -0.3125 9.625 C3.38709177 11.00906713 7.15801938 12.47051938 10 15.3125 C10.46889952 21.64264354 10.46889952 21.64264354 8.6875 24.1875 C4.52808134 26.96044577 -0.19101984 26.81782191 -5 26.3125 C-8.0625 24.8125 -8.0625 24.8125 -10 23.3125 C-9.67 21.9925 -9.34 20.6725 -9 19.3125 C-8.43796875 19.63992187 -7.8759375 19.96734375 -7.296875 20.3046875 C-4.73140036 21.43035494 -3.03157723 21.5193111 -0.25 21.4375 C0.94882813 21.41042969 0.94882813 21.41042969 2.171875 21.3828125 C2.77515625 21.35960937 3.3784375 21.33640625 4 21.3125 C4.33 19.9925 4.66 18.6725 5 17.3125 C4.16855469 17.07015625 3.33710938 16.8278125 2.48046875 16.578125 C0.85044922 16.07539063 0.85044922 16.07539063 -0.8125 15.5625 C-1.89144531 15.23765625 -2.97039062 14.9128125 -4.08203125 14.578125 C-7.2180541 13.21792232 -8.38888848 12.29078714 -10 9.3125 C-9.9375 6.25 -9.9375 6.25 -9 3.3125 C-6.05874539 0.50942514 -4.01993752 -0.0796634 0 0 Z " fill="#191C26" transform="translate(158,151.6875)"/>
<path d="M0 0 C2.29296875 -0.25 2.29296875 -0.25 5 0 C6.80078125 1.75 6.80078125 1.75 8.3125 4 C8.82425781 4.7425 9.33601563 5.485 9.86328125 6.25 C10.23839844 6.8275 10.61351563 7.405 11 8 C13.64752004 5.42215154 15.94432065 3.08351902 18 0 C20.625 -0.1875 20.625 -0.1875 23 0 C21.46096383 3.49780948 19.30911521 6.26475861 16.92578125 9.21875 C15.83288388 10.94194746 15.83288388 10.94194746 16.1328125 12.859375 C17.29429658 15.72646183 18.86889787 18.16340765 20.5625 20.75 C21.20316406 21.73484375 21.84382813 22.7196875 22.50390625 23.734375 C22.99761719 24.48203125 23.49132812 25.2296875 24 26 C21.73828125 26.28125 21.73828125 26.28125 19 26 C16.98046875 24.03125 16.98046875 24.03125 15.1875 21.5 C14.58292969 20.6646875 13.97835937 19.829375 13.35546875 18.96875 C12.90816406 18.3190625 12.46085937 17.669375 12 17 C9.93101199 19.01398424 8.12150764 20.80981413 6.5625 23.25 C5 25 5 25 2.3125 25.25 C1.549375 25.1675 0.78625 25.085 0 25 C2.50328066 20.52985596 5.1108544 16.23053463 8 12 C7.4225 11.21753906 6.845 10.43507812 6.25 9.62890625 C5.5075 8.61699219 4.765 7.60507813 4 6.5625 C3.2575 5.55316406 2.515 4.54382813 1.75 3.50390625 C0 1 0 1 0 0 Z " fill="#20232D" transform="translate(96,152)"/>
<path d="M0 0 C1.32 0 2.64 0 4 0 C4 0.99 4 1.98 4 3 C4.639375 2.505 5.27875 2.01 5.9375 1.5 C9.909834 -0.44563298 13.63671353 -0.83343674 18 0 C20.25078403 1.68357146 20.93427731 2.54455822 21.34057617 5.36010742 C21.32486572 6.26607666 21.30915527 7.1720459 21.29296875 8.10546875 C21.28330078 9.08837891 21.27363281 10.07128906 21.26367188 11.08398438 C21.23853516 12.10814453 21.21339844 13.13230469 21.1875 14.1875 C21.16719727 15.74114258 21.16719727 15.74114258 21.14648438 17.32617188 C21.11111389 19.88463699 21.06175544 22.4420578 21 25 C19.68 25 18.36 25 17 25 C16.93941406 23.72382813 16.87882812 22.44765625 16.81640625 21.1328125 C16.73200432 19.46352984 16.64735614 17.79425963 16.5625 16.125 C16.52318359 15.28324219 16.48386719 14.44148437 16.44335938 13.57421875 C16.40146484 12.76855469 16.35957031 11.96289062 16.31640625 11.1328125 C16.27974854 10.38918457 16.24309082 9.64555664 16.20532227 8.87939453 C16.10044135 6.91135688 16.10044135 6.91135688 15 5 C10.9899066 4.82135369 10.9899066 4.82135369 7 5 C4.64641749 7.35358251 4.72128096 7.92968394 4.5859375 11.1328125 C4.54726563 11.93847656 4.50859375 12.74414062 4.46875 13.57421875 C4.4378125 14.41597656 4.406875 15.25773438 4.375 16.125 C4.33632813 16.97449219 4.29765625 17.82398438 4.2578125 18.69921875 C4.16343506 20.79911684 4.08062414 22.89952891 4 25 C2.68 25 1.36 25 0 25 C0 16.75 0 8.5 0 0 Z " fill="#111420" transform="translate(46,152)"/>
<path d="M0 0 C4.14182881 0.862881 5.56226471 2.18349135 8 5.625 C8.97383359 9.8251866 8.41597124 12.79305752 6.5 16.625 C3.47078078 19.04837538 1.71222167 19.37138885 -2.09375 19.1015625 C-4 18.625 -4 18.625 -6.5 16.625 C-8.41597124 12.79305752 -8.97383359 9.8251866 -8 5.625 C-5.56226471 2.18349135 -4.14182881 0.862881 0 0 Z " fill="#F8FCFA" transform="translate(159,200.375)"/>
<path d="M0 0 C3.43469938 0.78711861 5.00706791 2.05905112 7.08203125 4.90625 C8.67808702 8.00327736 8.55354193 10.30474377 8 13.6875 C6.5 16.625 6.5 16.625 4 18.6875 C1.1733192 19.39996258 -1.17255933 19.39436017 -4 18.6875 C-6.63683762 16.5780299 -7.7081633 15.06608099 -8.41015625 11.75 C-8.70661131 7.73645461 -8.25523966 6.04783834 -5.875 2.6875 C-3 0.6875 -3 0.6875 0 0 Z " fill="#F8FCFA" transform="translate(83,200.3125)"/>
<path d="M0 0 C2.30275556 1.8670991 3.67823871 3.35647741 5 6 C4.984375 8.05859375 4.984375 8.05859375 4.75 10.4375 C4.68296875 11.21996094 4.6159375 12.00242188 4.546875 12.80859375 C3.89032555 15.43948117 3.18448237 16.41174103 1 18 C-0.9375 18.3984375 -0.9375 18.3984375 -3 18.375 C-3.680625 18.38273437 -4.36125 18.39046875 -5.0625 18.3984375 C-7.66188574 17.8638864 -8.49190343 17.18604824 -10 15 C-10.43359375 12.1875 -10.43359375 12.1875 -10.4375 9 C-10.45683594 7.948125 -10.47617187 6.89625 -10.49609375 5.8125 C-10 3 -10 3 -8.16015625 1.15234375 C-5.19824878 -0.42769731 -3.31014183 -0.48272902 0 0 Z " fill="#F9FCFB" transform="translate(58,201)"/>
<path d="M0 0 C7.92682927 -0.30487805 7.92682927 -0.30487805 11 2 C13.69927831 5.75638485 14.41024004 8.3953019 14.375 13 C14.38273437 14.010625 14.39046875 15.02125 14.3984375 16.0625 C13.94217323 19.42633069 13.0090766 21.28350206 11 24 C6.97239992 26.68506672 3.72890707 26.5633716 -1 26 C-3.5625 24.6875 -3.5625 24.6875 -5 23 C-5 22.01 -5 21.02 -5 20 C-4.01 20.33 -3.02 20.66 -2 21 C0.73439144 21.38590202 3.27587736 21.49942248 6 21 C8.52060621 18.32185591 8.94157727 16.57254275 9.3125 12.9375 C9.00773148 10.07267596 8.58715807 8.3807371 7 6 C6.34 5.67 5.68 5.34 5 5 C5 4.34 5 3.68 5 3 C3.02 3 1.04 3 -1 3 C-0.67 2.01 -0.34 1.02 0 0 Z " fill="#18BA73" transform="translate(53,197)"/>
<path d="M0 0 C1.32 0 2.64 0 4 0 C4 2.31 4 4.62 4 7 C5.65 7 7.3 7 9 7 C9 8.32 9 9.64 9 11 C7.35 11 5.7 11 4 11 C4.33 16.28 4.66 21.56 5 27 C6.65 27.33 8.3 27.66 10 28 C10 29.32 10 30.64 10 32 C3.9453125 32.1953125 3.9453125 32.1953125 2 32 C0 30 0 30 -0.22705078 27.93701172 C-0.21657715 27.10959473 -0.20610352 26.28217773 -0.1953125 25.4296875 C-0.18886719 24.53378906 -0.18242187 23.63789063 -0.17578125 22.71484375 C-0.15902344 21.77769531 -0.14226562 20.84054688 -0.125 19.875 C-0.11597656 18.93011719 -0.10695312 17.98523438 -0.09765625 17.01171875 C-0.07404522 14.67422708 -0.04111516 12.33723877 0 10 C-1.32 10 -2.64 10 -4 10 C-4 9.01 -4 8.02 -4 7 C-2.68 7 -1.36 7 0 7 C0 4.69 0 2.38 0 0 Z " fill="#13B971" transform="translate(134,191)"/>
<path d="M0 0 C1.65 0 3.3 0 5 0 C5 0.99 5 1.98 5 3 C5.763125 2.505 6.52625 2.01 7.3125 1.5 C10 0 10 0 13 0 C13 1.65 13 3.3 13 5 C10.69 5.66 8.38 6.32 6 7 C5.67 13.27 5.34 19.54 5 26 C3.35 26 1.7 26 0 26 C0 17.42 0 8.84 0 0 Z " fill="#26BD7A" transform="translate(0,197)"/>
<path d="M0 0 C0 1.65 0 3.3 0 5 C-1.134375 5.309375 -2.26875 5.61875 -3.4375 5.9375 C-6.78775099 6.62924531 -6.78775099 6.62924531 -8 8 C-8.15582303 9.34015221 -8.25044142 10.68758903 -8.31640625 12.03515625 C-8.35830078 12.84404297 -8.40019531 13.65292969 -8.44335938 14.48632812 C-8.48267578 15.33646484 -8.52199219 16.18660156 -8.5625 17.0625 C-8.60568359 17.91650391 -8.64886719 18.77050781 -8.69335938 19.65039062 C-8.79976702 21.76672037 -8.90041731 23.88333813 -9 26 C-10.32 26 -11.64 26 -13 26 C-13 17.75 -13 9.5 -13 1 C-11.68 1 -10.36 1 -9 1 C-8.67 1.66 -8.34 2.32 -8 3 C-7.236875 2.505 -6.47375 2.01 -5.6875 1.5 C-3 0 -3 0 0 0 Z " fill="#10B86F" transform="translate(188,197)"/>
<path d="M0 0 C1.65 0 3.3 0 5 0 C5 8.58 5 17.16 5 26 C3.35 26 1.7 26 0 26 C0 17.42 0 8.84 0 0 Z " fill="#27BE7C" transform="translate(122,197)"/>
<path d="M0 0 C1.32 0 2.64 0 4 0 C4 8.25 4 16.5 4 25 C2.68 25 1.36 25 0 25 C-0.33 24.34 -0.66 23.68 -1 23 C-1.66 23.33 -2.32 23.66 -3 24 C-2.68289062 23.37738281 -2.36578125 22.75476563 -2.0390625 22.11328125 C-0.60509912 17.81678194 -0.53616014 13.68991152 -0.375 9.1875 C-0.33632812 8.30384766 -0.29765625 7.42019531 -0.2578125 6.50976562 C-0.16399216 4.34017028 -0.08092674 2.17011453 0 0 Z " fill="#10131E" transform="translate(140,152)"/>
<path d="M0 0 C1.65 0 3.3 0 5 0 C4.67 0.99 4.34 1.98 4 3 C3.34 2.67 2.68 2.34 2 2 C2 12.56 2 23.12 2 34 C2.66 34 3.32 34 4 34 C4 30.37 4 26.74 4 23 C4.33 23 4.66 23 5 23 C5 27.29 5 31.58 5 36 C3.35 36 1.7 36 0 36 C0 24.12 0 12.24 0 0 Z " fill="#32C080" transform="translate(43,197)"/>
<path d="M0 0 C3.3128205 1.12776868 4.82106066 2.23234856 6.9375 5 C6.9375 5.99 6.9375 6.98 6.9375 8 C1.6575 8 -3.6225 8 -9.0625 8 C-8.0625 4 -8.0625 4 -5.875 1.6875 C-3.0625 0 -3.0625 0 0 0 Z " fill="#F5F5F5" transform="translate(84.0625,155)"/>
<path d="M0 0 C3.71323768 0.3201067 5.16622284 0.55866958 7.625 3.3125 C7.625 4.6325 7.625 5.9525 7.625 7.3125 C2.675 7.3125 -2.275 7.3125 -7.375 7.3125 C-4.62115385 0.42788462 -4.62115385 0.42788462 0 0 Z " fill="#FAFDFB" transform="translate(26.375,200.6875)"/>
<path d="M0 0 C3.875 3.75 3.875 3.75 5 6 C5 7.98 5 9.96 5 12 C-1.6 12 -8.2 12 -15 12 C-14.67 11.34 -14.34 10.68 -14 10 C-9.05 10 -4.1 10 1 10 C0.67 8.02 0.34 6.04 0 4 C0 2.66666667 0 1.33333333 0 0 Z " fill="#0E0F1D" transform="translate(90,154)"/>
<path d="M0 0 C2.2421875 -0.36328125 2.2421875 -0.36328125 4.875 -0.3125 C6.17050781 -0.30669922 6.17050781 -0.30669922 7.4921875 -0.30078125 C10.0852226 0.0102214 11.75999753 0.69246367 14 2 C13.67 3.32 13.34 4.64 13 6 C12.29875 5.67 11.5975 5.34 10.875 5 C7.65839846 3.88118207 5.38169345 3.63242462 2 4 C0.2488427 5.4166747 0.2488427 5.4166747 -1 7 C-1.66 7 -2.32 7 -3 7 C-2.38722388 4.03824877 -1.74627478 2.61941217 0 0 Z " fill="#151724" transform="translate(153,152)"/>
<path d="M0 0 C3.40764153 1.61414599 4.77707783 2.51362436 6.375 6 C7 9 7 9 6 12 C-0.27 11.67 -6.54 11.34 -13 11 C-13 10.67 -13 10.34 -13 10 C-8.05 10 -3.1 10 2 10 C1.34 6.7 0.68 3.4 0 0 Z " fill="#50C891" transform="translate(32,198)"/>
<path d="M0 0 C0.33 0 0.66 0 1 0 C1.3125 2.75 1.3125 2.75 1 6 C-1.73486967 9.05661905 -3.20163153 9.93974578 -7.3125 10.25 C-8.199375 10.1675 -9.08625 10.085 -10 10 C-9.67 8.35 -9.34 6.7 -9 5 C-8.2575 4.9175 -7.515 4.835 -6.75 4.75 C-3.48204091 3.85873843 -2.23604609 2.47562245 0 0 Z " fill="#2BBF7D" transform="translate(203,223)"/>
<path d="M0 0 C1.98260599 0.42164019 3.96107245 0.86278778 5.9375 1.3125 C7.03964844 1.55613281 8.14179687 1.79976562 9.27734375 2.05078125 C10.62505859 2.52064453 10.62505859 2.52064453 12 3 C12.33 3.99 12.66 4.98 13 6 C11.41753293 6.08153933 9.83383727 6.13943557 8.25 6.1875 C6.92742187 6.23970703 6.92742187 6.23970703 5.578125 6.29296875 C2.55328417 5.94923684 1.24416398 4.99772541 -1 3 C-0.67 2.01 -0.34 1.02 0 0 Z " fill="#11B971" transform="translate(99,217)"/>
<path d="M0 0 C0.99 0 1.98 0 3 0 C2.47755558 3.76159981 1.7772785 6.32191002 -1 9 C-3.6875 9.25 -3.6875 9.25 -6 9 C-2.25 2.25 -2.25 2.25 0 0 Z " fill="#191B25" transform="translate(102,168)"/>
<path d="M0 0 C0 1.32 0 2.64 0 4 C-2.375 6.0625 -2.375 6.0625 -5 8 C-5.66 8.99 -6.32 9.98 -7 11 C-7.33 10.67 -7.66 10.34 -8 10 C-7.64833006 3.66994106 -7.64833006 3.66994106 -5.125 1.0625 C-3 0 -3 0 0 0 Z " fill="#27BE7C" transform="translate(106,197)"/>
<path d="M0 0 C0 3 0 3 -1 6 C-0.01 5.67 0.98 5.34 2 5 C4 8 4 8 4 11 C2.68 11.33 1.36 11.66 0 12 C-1.5625 10.375 -1.5625 10.375 -3 8 C-2.77962372 4.32706204 -2.63033454 2.63033454 0 0 Z " fill="#282B35" transform="translate(151,153)"/>
<path d="M0 0 C-0.7109375 1.953125 -0.7109375 1.953125 -2 4 C-4.1640625 4.609375 -4.1640625 4.609375 -6.625 4.75 C-7.44226563 4.80671875 -8.25953125 4.8634375 -9.1015625 4.921875 C-9.72804688 4.94765625 -10.35453125 4.9734375 -11 5 C-11 4.01 -11 3.02 -11 2 C-9.73392393 1.46770674 -8.46189588 0.94955456 -7.1875 0.4375 C-6.47980469 0.14746094 -5.77210937 -0.14257812 -5.04296875 -0.44140625 C-3 -1 -3 -1 0 0 Z " fill="#171A24" transform="translate(93,173)"/>
<path d="M0 0 C2.46800047 1.15173355 4.04783565 2.04783565 6 4 C5.67 4.66 5.34 5.32 5 6 C7.31 6 9.62 6 12 6 C12 6.33 12 6.66 12 7 C6.60550707 7.27429625 3.48074195 7.36055646 -1 4 C-0.67 2.68 -0.34 1.36 0 0 Z " fill="#181A23" transform="translate(149,171)"/>
<path d="M0 0 C0 1.33333333 0 2.66666667 0 4 C0.66 4.33 1.32 4.66 2 5 C-1.20380017 7.13586678 -2.01939967 7.23132175 -5.6875 7.125 C-6.89986328 7.09792969 -6.89986328 7.09792969 -8.13671875 7.0703125 C-9.05904297 7.03550781 -9.05904297 7.03550781 -10 7 C-7.31623205 4.12338645 -4.54937346 2.69752644 -1 1 C-0.67 0.67 -0.34 0.34 0 0 Z " fill="#0FB970" transform="translate(89,216)"/>
<path d="M0 0 C0.66 0.33 1.32 0.66 2 1 C2 1.99 2 2.98 2 4 C-1.06246747 5.78409802 -3.22079273 6.22880021 -6.75 6.125 C-7.54921875 6.10695312 -8.3484375 6.08890625 -9.171875 6.0703125 C-9.77515625 6.04710937 -10.3784375 6.02390625 -11 6 C-11 5.67 -11 5.34 -11 5 C-8.36 5 -5.72 5 -3 5 C-2.87625 4.360625 -2.7525 3.72125 -2.625 3.0625 C-2.41875 2.381875 -2.2125 1.70125 -2 1 C-1.34 0.67 -0.68 0.34 0 0 Z " fill="#13BA72" transform="translate(35,217)"/>
<path d="M0 0 C0 1.65 0 3.3 0 5 C-1.98 5 -3.96 5 -6 5 C-5.625 3.0625 -5.625 3.0625 -5 1 C-3 0 -3 0 0 0 Z " fill="#29BE7C" transform="translate(188,197)"/>
<path d="M0 0 C1.98 0.495 1.98 0.495 4 1 C3.67 2.65 3.34 4.3 3 6 C1.68 5.67 0.36 5.34 -1 5 C-0.67 3.35 -0.34 1.7 0 0 Z " fill="#1ABB75" transform="translate(123,187)"/>
<path d="M0 0 C1.875 0.125 1.875 0.125 4 1 C5.25 4.0625 5.25 4.0625 6 7 C3.13275314 6.42655063 2.1385485 6.1385485 0 4 C0 2.68 0 1.36 0 0 Z " fill="#252732" transform="translate(86,152)"/>
<path d="M0 0 C1.98 0 3.96 0 6 0 C6.33 1.32 6.66 2.64 7 4 C4.36 3.67 1.72 3.34 -1 3 C-0.67 2.01 -0.34 1.02 0 0 Z " fill="#2F323C" transform="translate(155,174)"/>
<path d="M0 0 C2.79872437 2.52788007 4.45773019 4.20411134 5 8 C3.68 8.33 2.36 8.66 1 9 C0.3485953 5.90582767 0 3.15153624 0 0 Z " fill="#141724" transform="translate(90,154)"/>
<path d="M0 0 C3 1 3 1 7 3 C3.7 3.66 0.4 4.32 -3 5 C-1 1 -1 1 0 0 Z " fill="#0AB76D" transform="translate(51,198)"/>
<path d="M0 0 C2.97 0.495 2.97 0.495 6 1 C5.01 1.495 5.01 1.495 4 2 C4 2.66 4 3.32 4 4 C2.68 4 1.36 4 0 4 C0 2.68 0 1.36 0 0 Z " fill="#0EB86F" transform="translate(107,208)"/>
<path d="M0 0 C1.32 0.66 2.64 1.32 4 2 C2.6875 3.5 2.6875 3.5 1 5 C0.01 5 -0.98 5 -2 5 C-1.125 1.125 -1.125 1.125 0 0 Z " fill="#282A36" transform="translate(75,154)"/>
<path d="M0 0 C0.33 0 0.66 0 1 0 C1.36666667 5.5 1.36666667 5.5 -0.375 7.875 C-2 9 -2 9 -4 9 C-3.34 7.68 -2.68 6.36 -2 5 C-1.34 5 -0.68 5 0 5 C0 3.35 0 1.7 0 0 Z " fill="#13B971" transform="translate(117,213)"/>
<path d="M0 0 C0.66 0.33 1.32 0.66 2 1 C1.67 2.65 1.34 4.3 1 6 C0.01 6 -0.98 6 -2 6 C-2 4.35 -2 2.7 -2 1 C-1.34 0.67 -0.68 0.34 0 0 Z " fill="#1ABB75" transform="translate(37,204)"/>
</svg>
