<?xml version="1.0" encoding="UTF-8"?>
<svg version="1.1" xmlns="http://www.w3.org/2000/svg" width="206" height="244">
<path d="M0 0 C67.98 0 135.96 0 206 0 C206 80.52 206 161.04 206 244 C138.02 244 70.04 244 0 244 C0 163.48 0 82.96 0 0 Z " fill="#E8E9E7" transform="translate(0,0)"/>
<path d="M0 0 C59.4 0 118.8 0 180 0 C180 19.47 180 38.94 180 59 C176.27407491 62.72592509 175.18846765 62.37640105 170.05371094 62.38095093 C169.34272625 62.3856309 168.63174156 62.39031087 167.89921188 62.39513266 C165.5107446 62.40712312 163.1228468 62.39760998 160.734375 62.38818359 C159.02453272 62.39224751 157.31469306 62.39758837 155.6048584 62.40411377 C150.9561573 62.41781464 146.30765548 62.41247732 141.65895081 62.40297651 C136.79964654 62.39539424 131.94035961 62.40242153 127.08105469 62.40713501 C118.91989063 62.41259675 110.75880796 62.40538999 102.59765625 62.39111328 C93.1551041 62.37478597 83.71274626 62.38007418 74.27019882 62.3965925 C66.17077849 62.41019546 58.07141674 62.41213286 49.97198868 62.40427649 C45.13115503 62.39959342 40.29041278 62.39899249 35.44958496 62.40888596 C30.89906189 62.41753606 26.34878994 62.41156965 21.79829407 62.39420319 C20.12572141 62.39022785 18.45312771 62.39139021 16.78056335 62.39799118 C14.50218417 62.40615574 12.22461617 62.39594774 9.94628906 62.38095093 C8.66981506 62.37981985 7.39334106 62.37868877 6.07818604 62.37752342 C3 62 3 62 0 59 C0 39.53 0 20.06 0 0 Z " fill="#2477BB" transform="translate(9,178)"/>
<path d="M0 0 C3.96 0 7.92 0 12 0 C11.01 1.485 11.01 1.485 10 3 C9.70190966 4.91085136 9.70190966 4.91085136 9.74831772 7.01802158 C9.74310222 7.8378759 9.73788673 8.65773021 9.73251319 9.50242859 C9.73920535 10.8529973 9.73920535 10.8529973 9.74603271 12.23085022 C9.74291273 13.18755361 9.73979275 14.14425701 9.73657823 15.12995142 C9.72857289 18.34979835 9.73493174 21.56945815 9.74121094 24.78930664 C9.73850222 27.09189464 9.73494196 29.39448178 9.73059082 31.69706726 C9.72145088 37.96130843 9.72501756 44.22548394 9.73134899 50.48972631 C9.73640007 57.03379705 9.73172009 63.57786203 9.72857666 70.12193298 C9.7243008 81.81660885 9.7309296 93.51125701 9.74109533 105.20592808 C9.7500332 115.81674359 9.74847738 126.42751535 9.73925781 137.03833008 C9.72856348 149.35226885 9.72456595 161.66617972 9.73048234 173.98012251 C9.73360713 180.50155561 9.73399741 187.02295854 9.72740936 193.54438972 C9.72165076 199.67319948 9.72560547 205.80192625 9.73719788 211.93072701 C9.73985232 214.18585573 9.7390661 216.44099139 9.73467255 218.6961174 C9.72924658 221.76288513 9.73601516 224.82938311 9.74603271 227.89613342 C9.74157127 228.79874328 9.73710983 229.70135314 9.73251319 230.63131481 C9.53710953 235.29749373 9.53710953 235.29749373 12 239 C15.10664198 239.30614249 15.10664198 239.30614249 18.83276367 239.25396729 C19.5435995 239.25708727 20.25443533 239.26020725 20.98681164 239.26342177 C23.38061379 239.27143093 25.77416449 239.26506691 28.16796875 239.25878906 C29.87928415 239.26149763 31.59059839 239.26505781 33.3019104 239.26940918 C37.95883144 239.27855139 42.61566418 239.27498141 47.27258682 239.26865101 C52.13770034 239.26360047 57.00280612 239.26827982 61.86791992 239.27142334 C70.03923912 239.27506575 78.21052221 239.27025668 86.38183594 239.26074219 C95.83968722 239.24985711 105.29745228 239.2533825 114.75530148 239.264395 C122.86401834 239.27346004 130.97270919 239.27475699 139.08142948 239.26951766 C143.92949398 239.26639364 148.77751791 239.26600041 153.62557983 239.27259064 C158.18260119 239.27835212 162.73951098 239.27438928 167.29652023 239.26280212 C168.97273956 239.2601491 170.64896821 239.26093151 172.32518387 239.26532745 C174.6059964 239.27075917 176.88644711 239.26397806 179.16723633 239.25396729 C181.08527824 239.25283621 181.08527824 239.25283621 183.04206848 239.25168228 C186.1198521 239.30988908 186.1198521 239.30988908 188 237 C188.29711582 234.61784872 188.47058024 232.33760324 188.56350708 229.94528198 C188.61687109 228.84195768 188.61687109 228.84195768 188.67131317 227.716344 C188.78751609 225.23686546 188.88860622 222.75703063 188.98876953 220.27685547 C189.06676879 218.50224036 189.14494904 216.72763319 189.22329712 214.95303345 C189.92183713 198.57078223 190.32598755 182.17970852 190.65124702 165.78625298 C190.87471966 154.7923616 191.18698704 143.81659193 191.73095703 132.83349609 C196.38860936 77.13471188 196.38860936 77.13471188 173.89699364 28.67096901 C164.34537419 18.58935385 153.36134969 9.94400547 141.80123711 2.29063606 C140.90962474 1.65177121 140.90962474 1.65177121 140 1 C140 0.67 140 0.34 140 0 C161.78 0 183.56 0 206 0 C206 80.52 206 161.04 206 244 C138.02 244 70.04 244 0 244 C0 163.48 0 82.96 0 0 Z " fill="#FDFDFE" transform="translate(0,0)"/>
<path d="M0 0 C0.7734375 0.00644531 1.546875 0.01289062 2.34375 0.01953125 C4.5 0.1875 4.5 0.1875 7.5 1.1875 C7.5501123 1.83299805 7.60022461 2.47849609 7.65185547 3.14355469 C7.88433333 6.07562245 8.12952814 9.0064927 8.375 11.9375 C8.45363281 12.95328125 8.53226563 13.9690625 8.61328125 15.015625 C8.69707031 15.9953125 8.78085938 16.975 8.8671875 17.984375 C8.94050293 18.88510742 9.01381836 19.78583984 9.08935547 20.71386719 C9.6724796 24.22647935 10.78552522 26.44750827 13.25 29 C16.48628785 30.70804081 17.94386202 30.10767582 21.5 29.1875 C25.65042647 27.21236403 29.61561856 24.89342652 33.59960938 22.60546875 C34.41365234 22.15558594 35.22769531 21.70570312 36.06640625 21.2421875 C36.79802979 20.82437012 37.52965332 20.40655273 38.28344727 19.97607422 C41.09522722 18.97573836 42.67701337 19.31342013 45.5 20.1875 C47.88084805 21.9242145 50.01928266 23.82967786 52.21875 25.7890625 C54.38734668 27.40361319 54.38734668 27.40361319 56.84375 27.125 C60.89726083 25.69434912 64.5884372 23.63264841 68.328125 21.5390625 C70.93229111 20.15772222 73.02533503 19.19789955 75.99609375 19.1328125 C79.70771511 20.69620995 82.50260591 23.10203278 85.5625 25.6875 C86.78065693 26.70020065 88.00077895 27.7105413 89.22265625 28.71875 C89.87024902 29.28021729 90.5178418 29.84168457 91.18505859 30.42016602 C93.54289588 32.32337914 93.54289588 32.32337914 96.66259766 33.84350586 C100.42478075 36.0008784 102.83883599 37.74028482 105.5 41.1875 C107.34511127 48.15947865 106.30051925 55.65396008 105.75 62.75 C105.641475 64.73212006 105.53855463 66.71455541 105.44140625 68.69726562 C105.19226747 73.53340237 104.86705566 78.35894 104.5 83.1875 C54.73794212 85.60550643 54.73794212 85.60550643 30.5 85.1875 C30.5 84.8575 30.5 84.5275 30.5 84.1875 C80.62541746 81.88651865 80.62541746 81.88651865 103.5 82.1875 C103.17 69.6475 102.84 57.1075 102.5 44.1875 C95.6755518 48.78988975 95.6755518 48.78988975 88.85791016 53.40234375 C88.01019043 53.97082031 87.1624707 54.53929687 86.2890625 55.125 C84.98509521 56.00478516 84.98509521 56.00478516 83.65478516 56.90234375 C81.5 58.1875 81.5 58.1875 79.5 58.1875 C78.32823482 56.06517021 77.16245215 53.93992209 76 51.8125 C75.66613281 51.20921875 75.33226562 50.6059375 74.98828125 49.984375 C72.5 45.4140625 72.5 45.4140625 72.5 43.1875 C70.35154359 44.45405727 68.20578476 45.7247296 66.0625 47 C65.39959961 47.39437256 64.73669922 47.78874512 64.05371094 48.19506836 C57.93638714 51.8656051 51.96672557 55.7478583 46.04907227 59.73168945 C45.36772217 60.1824585 44.68637207 60.63322754 43.984375 61.09765625 C43.38334961 61.50121338 42.78232422 61.90477051 42.16308594 62.32055664 C40.5 63.1875 40.5 63.1875 37.5 63.1875 C33.54 53.7825 33.54 53.7825 29.5 44.1875 C25.53941402 44.9796172 23.86572235 45.31951257 20.6796875 47.26171875 C19.98431885 47.67953613 19.2889502 48.09735352 18.57250977 48.52783203 C17.84733154 48.97239746 17.12215332 49.41696289 16.375 49.875 C14.86140945 50.78377298 13.34708516 51.691325 11.83203125 52.59765625 C11.09549316 53.03996582 10.35895508 53.48227539 9.60009766 53.93798828 C6.78094537 55.61532162 3.93411554 57.22645539 1.0625 58.8125 C0.21816406 59.27914062 -0.62617187 59.74578125 -1.49609375 60.2265625 C-3.5 61.1875 -3.5 61.1875 -5.5 61.1875 C-5.5 69.1075 -5.5 77.0275 -5.5 85.1875 C6.05 85.1875 17.6 85.1875 29.5 85.1875 C29.5 85.5175 29.5 85.8475 29.5 86.1875 C24.04768566 86.52265873 18.59633839 86.80297885 13.13916016 87.04541016 C10.65167894 87.17933375 8.18016734 87.38387247 5.69921875 87.60546875 C4.21626066 87.69718827 2.7331904 87.7871171 1.25 87.875 C0.23401733 87.99488281 0.23401733 87.99488281 -0.80249023 88.1171875 C-2.765625 88.19921875 -2.765625 88.19921875 -6.5 87.1875 C-9.38080169 84.18841217 -11.39126263 80.75511414 -13.5 77.1875 C-14.1084375 76.20982666 -14.716875 75.23215332 -15.34375 74.22485352 C-17.21542347 71.20761212 -19.04966653 68.17046576 -20.875 65.125 C-22.11076763 63.07088523 -23.34768189 61.01745969 -24.5859375 58.96484375 C-25.3910376 57.62280884 -25.3910376 57.62280884 -26.21240234 56.25366211 C-27.33774846 54.27437377 -27.33774846 54.27437377 -28.5 53.1875 C-29.81983286 47.59269631 -30.94440319 41.60152946 -28.5 36.1875 C-25.49098832 33.68300229 -22.09704388 32.14585398 -18.5625 30.5 C-11.66574585 27.45605776 -11.66574585 27.45605776 -7.50292969 21.56689453 C-6.61839934 15.76927026 -6.91172101 10.0502465 -7.61499023 4.24365234 C-7.57704346 3.56512207 -7.53909668 2.8865918 -7.5 2.1875 C-4.35388747 0.09009164 -3.58811922 -0.06578219 0 0 Z " fill="#1A43C3" transform="translate(59.5,72.8125)"/>
<path d="M0 0 C5.86970122 4.87336087 11.26604835 10.12056808 16.65234375 15.51953125 C18.00254356 16.86829597 18.00254356 16.86829597 19.38002014 18.24430847 C21.26964342 20.13325439 23.15823816 22.02316308 25.04516602 23.91479492 C27.46847733 26.34385209 29.89631743 28.76832574 32.32547665 31.19153309 C34.64518724 33.50677961 36.961105 35.82581218 39.27734375 38.14453125 C40.15220932 39.01737259 41.02707489 39.89021393 41.92845154 40.789505 C42.72670853 41.59091415 43.52496552 42.3923233 44.34741211 43.21801758 C45.40828285 44.28008171 45.40828285 44.28008171 46.49058533 45.36360168 C48 47 48 47 48 48 C41.64631803 48.07597749 35.29275291 48.12856897 28.9387207 48.16479492 C26.77656679 48.17989444 24.61444357 48.20037571 22.45239258 48.22631836 C19.347091 48.26265017 16.24219386 48.27971462 13.13671875 48.29296875 C12.16788254 48.30845261 11.19904633 48.32393646 10.20085144 48.33988953 C8.84979057 48.34022942 8.84979057 48.34022942 7.47143555 48.34057617 C6.28229805 48.35056892 6.28229805 48.35056892 5.06913757 48.36076355 C2.41108647 47.89732025 1.54945361 47.19372656 0 45 C-0.36076355 42.93086243 -0.36076355 42.93086243 -0.34057617 40.52856445 C-0.34034958 39.62785721 -0.34012299 38.72714996 -0.33988953 37.79914856 C-0.32440567 36.83031235 -0.30892181 35.86147614 -0.29296875 34.86328125 C-0.28872391 33.86870407 -0.28447906 32.87412689 -0.28010559 31.84941101 C-0.26330153 28.67016625 -0.22564576 25.49155344 -0.1875 22.3125 C-0.17245541 20.15821227 -0.15876662 18.00391462 -0.14648438 15.84960938 C-0.11339244 10.56619033 -0.06317592 5.28314031 0 0 Z " fill="#B7B7B7" transform="translate(140,1)"/>
<path d="M0 0 C5.21939127 1.15147511 9.33300117 5.1370461 13.4375 8.375 C14.91399135 9.53040284 16.39183105 10.68408495 17.87109375 11.8359375 C18.57089355 12.38217773 19.27069336 12.92841797 19.99169922 13.49121094 C21.79697064 14.84746883 23.62877207 16.08155529 25.53515625 17.2890625 C26.75525391 18.13597656 26.75525391 18.13597656 28 19 C28 19.66 28 20.32 28 21 C23.25271257 25.52159672 17.8533405 28.5594686 12.125 31.6875 C11.26519531 32.17283203 10.40539062 32.65816406 9.51953125 33.15820312 C4.38385488 35.98321479 -0.24629554 37.85860387 -6 39 C-17.47958197 26.63447328 -17.47958197 26.63447328 -22.1875 21.375 C-22.71730469 20.78460938 -23.24710938 20.19421875 -23.79296875 19.5859375 C-25 18 -25 18 -26 15 C-25.31897217 14.61666504 -24.63794434 14.23333008 -23.9362793 13.83837891 C-20.85267067 12.10179406 -17.77007527 10.36341842 -14.6875 8.625 C-13.61564453 8.02171875 -12.54378906 7.4184375 -11.43945312 6.796875 C-10.41142578 6.21679688 -9.38339844 5.63671875 -8.32421875 5.0390625 C-7.37635498 4.50490723 -6.42849121 3.97075195 -5.4519043 3.42041016 C-3.59555928 2.34501283 -1.78503321 1.19002214 0 0 Z " fill="#BF1E1E" transform="translate(59,94)"/>
<path d="M0 0 C1.88490214 1.23878512 3.72078514 2.49252313 5.52001953 3.85302734 C6.51582031 4.60277832 6.51582031 4.60277832 7.53173828 5.36767578 C8.22525391 5.89522461 8.91876953 6.42277344 9.63330078 6.96630859 C10.34357422 7.50288086 11.05384766 8.03945312 11.78564453 8.59228516 C16.87367291 12.44312416 21.93596413 16.32660413 26.94580078 20.27880859 C24.03794087 23.39498512 21.06361028 25.63686725 17.44580078 27.88037109 C16.39392578 28.53521484 15.34205078 29.19005859 14.25830078 29.86474609 C13.16517578 30.53763672 12.07205078 31.21052734 10.94580078 31.90380859 C9.30611328 32.92474609 9.30611328 32.92474609 7.63330078 33.96630859 C-1.15153266 39.41376659 -1.15153266 39.41376659 -5.05419922 41.27880859 C-5.27446777 40.68455078 -5.49473633 40.09029297 -5.72167969 39.47802734 C-11.48985811 23.27749241 -11.48985811 23.27749241 -24.05419922 12.27880859 C-20.5373245 8.4479895 -16.15647852 6.39046259 -11.61669922 3.96630859 C-10.75753906 3.48613281 -9.89837891 3.00595703 -9.01318359 2.51123047 C-8.18238281 2.06714844 -7.35158203 1.62306641 -6.49560547 1.16552734 C-5.73965088 0.75520264 -4.98369629 0.34487793 -4.20483398 -0.07788086 C-2.05419922 -0.72119141 -2.05419922 -0.72119141 0 0 Z " fill="#ECB720" transform="translate(103.05419921875,93.72119140625)"/>
<path d="M0 0 C0.7734375 0.00644531 1.546875 0.01289062 2.34375 0.01953125 C4.5 0.1875 4.5 0.1875 7.5 1.1875 C7.5501123 1.83299805 7.60022461 2.47849609 7.65185547 3.14355469 C7.88433333 6.07562245 8.12952814 9.0064927 8.375 11.9375 C8.45363281 12.95328125 8.53226563 13.9690625 8.61328125 15.015625 C8.69707031 15.9953125 8.78085938 16.975 8.8671875 17.984375 C8.94050293 18.88510742 9.01381836 19.78583984 9.08935547 20.71386719 C9.95852932 25.94958032 12.71028289 28.59724168 16.5 32.1875 C11.85622999 30.13331468 8.18015535 26.83908567 4.25390625 23.671875 C3.34511719 23.18203125 2.43632813 22.6921875 1.5 22.1875 C-2.11099808 23.30645345 -5.25981255 25.10409046 -8.51171875 27.0078125 C-9.89520508 27.81025391 -9.89520508 27.81025391 -11.30664062 28.62890625 C-13.23935236 29.75839609 -15.17163905 30.88861355 -17.10351562 32.01953125 C-18.02197266 32.55191406 -18.94042969 33.08429688 -19.88671875 33.6328125 C-21.14295044 34.36781982 -21.14295044 34.36781982 -22.42456055 35.11767578 C-24.5 36.1875 -24.5 36.1875 -26.5 36.1875 C-25.95085938 36.81011719 -25.95085938 36.81011719 -25.390625 37.4453125 C-24.84921875 38.06148437 -24.3078125 38.67765625 -23.75 39.3125 C-23.1209375 40.02792969 -22.491875 40.74335937 -21.84375 41.48046875 C-20.03226954 43.57272868 -18.24466368 45.67863066 -16.46875 47.80078125 C-15.93862305 48.43032715 -15.40849609 49.05987305 -14.86230469 49.70849609 C-13.7953884 50.97671125 -12.73344613 52.24912918 -11.67675781 53.52587891 C-8.66886556 57.15404164 -8.66886556 57.15404164 -4.5 59.1875 C-2.35744207 58.79817144 -2.35744207 58.79817144 -0.5 58.1875 C-1.875 59.6875 -1.875 59.6875 -3.5 61.1875 C-4.16 61.1875 -4.82 61.1875 -5.5 61.1875 C-5.5 69.1075 -5.5 77.0275 -5.5 85.1875 C6.05 85.1875 17.6 85.1875 29.5 85.1875 C29.5 85.5175 29.5 85.8475 29.5 86.1875 C24.04768566 86.52265873 18.59633839 86.80297885 13.13916016 87.04541016 C10.65167894 87.17933375 8.18016734 87.38387247 5.69921875 87.60546875 C4.21626066 87.69718827 2.7331904 87.7871171 1.25 87.875 C0.23401733 87.99488281 0.23401733 87.99488281 -0.80249023 88.1171875 C-2.765625 88.19921875 -2.765625 88.19921875 -6.5 87.1875 C-9.38080169 84.18841217 -11.39126263 80.75511414 -13.5 77.1875 C-14.1084375 76.20982666 -14.716875 75.23215332 -15.34375 74.22485352 C-17.21542347 71.20761212 -19.04966653 68.17046576 -20.875 65.125 C-22.11076763 63.07088523 -23.34768189 61.01745969 -24.5859375 58.96484375 C-25.3910376 57.62280884 -25.3910376 57.62280884 -26.21240234 56.25366211 C-27.33774846 54.27437377 -27.33774846 54.27437377 -28.5 53.1875 C-29.81983286 47.59269631 -30.94440319 41.60152946 -28.5 36.1875 C-25.49098832 33.68300229 -22.09704388 32.14585398 -18.5625 30.5 C-11.66574585 27.45605776 -11.66574585 27.45605776 -7.50292969 21.56689453 C-6.61839934 15.76927026 -6.91172101 10.0502465 -7.61499023 4.24365234 C-7.57704346 3.56512207 -7.53909668 2.8865918 -7.5 2.1875 C-4.35388747 0.09009164 -3.58811922 -0.06578219 0 0 Z " fill="#3F3D3C" transform="translate(59.5,72.8125)"/>
<path d="M0 0 C14.52 0 29.04 0 44 0 C44 42.57 44 85.14 44 129 C43.67 129 43.34 129 43 129 C43.02450981 127.27018135 43.02450981 127.27018135 43.04951477 125.50541687 C43.19541688 114.60405024 43.27219842 103.70406185 43.28240681 92.80169964 C43.28984669 87.19714817 43.32109703 81.5948947 43.40795898 75.9909668 C43.49099561 70.5760371 43.50992258 65.16423225 43.48558617 59.74875832 C43.48736952 57.6895073 43.51172946 55.63014066 43.55968666 53.57144737 C44.19199107 41.62134465 44.19199107 41.62134465 39.13970947 31.32325745 C36.0098221 28.44303489 32.61736786 26.22358645 29 24 C27.71509099 23.00157222 26.44256707 21.98649248 25.1953125 20.94140625 C23.67550781 19.76384766 23.67550781 19.76384766 22.125 18.5625 C20.96835166 17.66066691 19.81211818 16.75830155 18.65625 15.85546875 C18.0684375 15.3970459 17.480625 14.93862305 16.875 14.46630859 C13.44598433 11.78471118 10.03287085 9.08339463 6.625 6.375 C5.63330811 5.59298218 5.63330811 5.59298218 4.62158203 4.79516602 C3.0621954 3.55343221 1.52819932 2.27992044 0 1 C0 0.67 0 0.34 0 0 Z " fill="#D8D8D8" transform="translate(145,49)"/>
<path d="M0 0 C2.97 0 5.94 0 9 0 C12.63 10.56 16.26 21.12 20 32 C23.55444282 22.65925491 26.9546914 13.32832023 30.01953125 3.81640625 C31 1 31 1 32 0 C34.64 0 37.28 0 40 0 C40 13.53 40 27.06 40 41 C38.02 41 36.04 41 34 41 C33.67 31.1 33.34 21.2 33 11 C29.7 20.9 26.4 30.8 23 41 C21.02 41 19.04 41 17 41 C13.7 31.1 10.4 21.2 7 11 C6.67 20.9 6.34 30.8 6 41 C4.02 41 2.04 41 0 41 C0 27.47 0 13.94 0 0 Z " fill="#E5EAEF" transform="translate(85,190)"/>
<path d="M0 0 C1.98 0 3.96 0 6 0 C6.01458252 0.91813477 6.02916504 1.83626953 6.04418945 2.78222656 C6.10533515 6.19687909 6.17950217 9.61073672 6.26245117 13.02490234 C6.29565355 14.50103138 6.32370017 15.97728594 6.34643555 17.45361328 C6.38006951 19.57899332 6.43238519 21.70322804 6.48828125 23.828125 C6.51446533 25.1059082 6.54064941 26.38369141 6.56762695 27.70019531 C7.01915921 31.14622019 7.51760979 32.6097823 10 35 C12.8598561 35.59713962 12.8598561 35.59713962 16 35.4375 C17.5778125 35.43556641 17.5778125 35.43556641 19.1875 35.43359375 C21.98988006 35.22469746 21.98988006 35.22469746 23.8125 33.66015625 C26.34440287 30.12048941 26.18782265 26.56980179 26.31640625 22.36328125 C26.35830078 21.06455078 26.40019531 19.76582031 26.44335938 18.42773438 C26.48316987 17.05599239 26.52288216 15.68424756 26.5625 14.3125 C26.60570835 12.92902355 26.64932339 11.54555973 26.69335938 10.16210938 C26.79958028 6.77484281 26.90162358 3.38750201 27 0 C28.65 0 30.3 0 32 0 C32.0743839 4.46570449 32.12871171 8.93107684 32.16479492 13.3972168 C32.17984353 14.91518438 32.20028738 16.43310876 32.22631836 17.95092773 C32.26287653 20.13796677 32.27976523 22.32442896 32.29296875 24.51171875 C32.3086792 25.82615967 32.32438965 27.14060059 32.34057617 28.49487305 C31.85507609 33.49152161 30.17639454 35.94124492 26.5 39.25 C22.17614295 42.27669993 18.1216717 42.37974372 13 42 C8.43797379 40.92658207 5.36716004 39.27362781 2 36 C-0.13762233 31.86581437 -0.23326804 28.34206677 -0.1953125 23.73046875 C-0.1924826 23.04946609 -0.18965271 22.36846344 -0.18673706 21.66682434 C-0.17560525 19.50686545 -0.15051457 17.34733206 -0.125 15.1875 C-0.11496111 13.71680289 -0.10583685 12.24609924 -0.09765625 10.77539062 C-0.07568913 7.18345714 -0.0412082 3.59177015 0 0 Z " fill="#EAEDF0" transform="translate(44,190)"/>
<path d="M0 0 C6.02800126 4.48235991 10.34052229 10.15742013 15 16 C15.91007812 16.88042969 16.82015625 17.76085937 17.7578125 18.66796875 C21.2468485 22.83687104 20.53985366 27.71232315 20.3125 32.875 C20.28994141 33.84953125 20.26738281 34.8240625 20.24414062 35.828125 C20.18550753 38.22035515 20.10351153 40.6093615 20 43 C19.34 43 18.68 43 18 43 C17.30777344 41.7625 17.30777344 41.7625 16.6015625 40.5 C15.94293921 39.33320298 15.28406342 38.16654847 14.625 37 C14.27501953 36.37424072 13.92503906 35.74848145 13.56445312 35.10375977 C11.58926622 31.61831324 9.52873116 28.25564506 7.2421875 24.96484375 C1.46070548 16.54354602 -1.63594559 10.61546914 0 0 Z " fill="#C4C6A7" transform="translate(33,113)"/>
<path d="M0 0 C1.98 0 3.96 0 6 0 C6 11.88 6 23.76 6 36 C12.6 36 19.2 36 26 36 C26 37.65 26 39.3 26 41 C17.42 41 8.84 41 0 41 C0 27.47 0 13.94 0 0 Z " fill="#EBEEF1" transform="translate(133,190)"/>
<path d="M0 0 C0.66 0 1.32 0 2 0 C3.34251969 7.2007874 3.34251969 7.2007874 1.875 10.625 C0 13 0 13 -2.6875 15.5 C-7.20506172 20.7772718 -5.23064178 28.86773578 -4.7578125 35.2890625 C-4.53821509 37.86434119 -4.28823472 40.43162275 -4 43 C-4.66 43 -5.32 43 -6 43 C-7.69140625 40.6640625 -7.69140625 40.6640625 -9.5625 37.625 C-10.49255859 36.12839844 -10.49255859 36.12839844 -11.44140625 34.6015625 C-14.24999001 29.9135505 -14.8742132 26.44321427 -14 21 C-11.35595371 15.00209634 -7.66872202 10.54254034 -3 6 C-1.20679176 2.83354526 -1.20679176 2.83354526 0 0 Z " fill="#982C12" transform="translate(60,22)"/>
<path d="M0 0 C3.62460105 1.51025044 6.1570077 3.98978151 9.0625 6.578125 C11.22998803 8.19203516 11.22998803 8.19203516 13.6796875 7.9140625 C17.78672628 6.46877026 21.53577298 4.40445227 25.34765625 2.328125 C26.97751391 1.47288786 28.65888462 0.71757209 30.34375 -0.0234375 C31.33375 0.3065625 32.32375 0.6365625 33.34375 0.9765625 C27.73375 3.9465625 22.12375 6.9165625 16.34375 9.9765625 C16.34375 10.6365625 16.34375 11.2965625 16.34375 11.9765625 C18.9607986 14.07927785 21.63762498 16.04571743 24.37109375 17.9921875 C28.33545175 20.91423115 31.0209076 23.59429282 33.34375 27.9765625 C32.84875 29.4615625 32.84875 29.4615625 32.34375 30.9765625 C29.34375 26.2265625 29.34375 26.2265625 29.34375 23.9765625 C27.19529359 25.24311977 25.04953476 26.5137921 22.90625 27.7890625 C22.24334961 28.18343506 21.58044922 28.57780762 20.89746094 28.98413086 C14.78013714 32.6546676 8.81047557 36.5369208 2.89282227 40.52075195 C2.21147217 40.971521 1.53012207 41.42229004 0.828125 41.88671875 C-0.07341309 42.49205444 -0.07341309 42.49205444 -0.99316406 43.10961914 C-2.65625 43.9765625 -2.65625 43.9765625 -5.65625 43.9765625 C-9.61625 34.5715625 -9.61625 34.5715625 -13.65625 24.9765625 C-15.30625 24.9765625 -16.95625 24.9765625 -18.65625 24.9765625 C-18.32625 24.3165625 -17.99625 23.6565625 -17.65625 22.9765625 C-16.99625 22.9765625 -16.33625 22.9765625 -15.65625 22.9765625 C-15.65625 22.3165625 -15.65625 21.6565625 -15.65625 20.9765625 C-16.171875 20.7496875 -16.6875 20.5228125 -17.21875 20.2890625 C-20.55172005 18.49438632 -23.80328671 16.47691235 -26.65625 13.9765625 C-26.65625 13.3165625 -26.65625 12.6565625 -26.65625 11.9765625 C-25.51027344 11.44546875 -24.36429687 10.914375 -23.18359375 10.3671875 C-21.6535724 9.65380331 -20.1236286 8.94025277 -18.59375 8.2265625 C-17.46549805 7.70449219 -17.46549805 7.70449219 -16.31445312 7.171875 C-12.71242738 5.48781101 -9.2760841 3.76890818 -5.91015625 1.6484375 C-2.65625 -0.0234375 -2.65625 -0.0234375 0 0 Z M-6.6640625 3.6015625 C-8.14326172 4.41367188 -8.14326172 4.41367188 -9.65234375 5.2421875 C-11.20115234 6.10070312 -11.20115234 6.10070312 -12.78125 6.9765625 C-13.82152344 7.54890625 -14.86179687 8.12125 -15.93359375 8.7109375 C-18.50989707 10.12908611 -21.08398468 11.5511067 -23.65625 12.9765625 C-20.14625936 16.5876245 -20.14625936 16.5876245 -16.14453125 19.6171875 C-12.28356836 23.27813191 -10.79645307 27.84642938 -8.84375 32.7265625 C-8.43705078 33.71011719 -8.03035156 34.69367188 -7.61132812 35.70703125 C-6.61349907 38.1252993 -5.62907657 40.54815332 -4.65625 42.9765625 C2.63679081 39.10930283 9.51794067 34.70556613 16.40625 30.1640625 C17.46263672 29.47119141 18.51902344 28.77832031 19.60742188 28.06445312 C22.18805037 26.37128058 24.76676341 24.67527064 27.34375 22.9765625 C23.83288558 19.32266286 20.14912481 16.14565344 16.09375 13.1015625 C14.94633222 12.23214336 13.79919834 11.36234942 12.65234375 10.4921875 C12.09272949 10.06873047 11.53311523 9.64527344 10.95654297 9.20898438 C7.94758738 6.90967953 5.00024745 4.53114486 2.05078125 2.15625 C-1.31140681 -0.16727585 -3.40307161 1.80239511 -6.6640625 3.6015625 Z " fill="#333232" transform="translate(102.65625,92.0234375)"/>
<path d="M0 0 C2.75253045 1.30004771 5.14766586 2.73936307 7.57421875 4.57421875 C8.57678711 5.32928711 8.57678711 5.32928711 9.59960938 6.09960938 C10.28861328 6.62361328 10.97761719 7.14761719 11.6875 7.6875 C12.35716797 8.19216797 13.02683594 8.69683594 13.71679688 9.21679688 C15.10059398 10.26224435 16.46882767 11.3285622 17.82202148 12.41333008 C19.97107984 14.081214 19.97107984 14.081214 22.52368164 15.2019043 C25.59526367 16.86935174 27.09706077 18.03498028 29 21 C30.39322242 28.0048213 29.51363548 35.36777037 29.0625 42.4375 C28.96907739 44.42884252 28.87983968 46.42038606 28.79492188 48.41210938 C28.57832793 53.27840163 28.30461912 58.13845642 28 63 C-21.76205788 65.41800643 -21.76205788 65.41800643 -46 65 C-46 64.67 -46 64.34 -46 64 C4.12541746 61.69901865 4.12541746 61.69901865 27 62 C26.67 49.46 26.34 36.92 26 24 C19.1755518 28.60238975 19.1755518 28.60238975 12.35791016 33.21484375 C11.51019043 33.78332031 10.6624707 34.35179687 9.7890625 34.9375 C8.91975098 35.52402344 8.05043945 36.11054688 7.15478516 36.71484375 C5 38 5 38 3 38 C1.93224776 36.03533587 0.93446535 34.03144641 0 32 C0.33 31.34 0.66 30.68 1 30 C1.99 31.65 2.98 33.3 4 35 C9.03382098 33.3518456 13.0260491 30.39351949 17.3125 27.375 C18.05306641 26.859375 18.79363281 26.34375 19.55664062 25.8125 C21.37422697 24.54605274 23.18850838 23.27514241 25 22 C21.26585873 18.11056363 17.31904854 14.74102153 13.0625 11.4375 C12.46759766 10.96892578 11.87269531 10.50035156 11.25976562 10.01757812 C8.42819651 7.80493122 5.59405322 5.71049465 2.55859375 3.78515625 C1.29208984 2.90150391 1.29208984 2.90150391 0 2 C0 1.34 0 0.68 0 0 Z " fill="#1E1E1E" transform="translate(136,93)"/>
<path d="M0 0 C3.63 0 7.26 0 11 0 C11.33801152 2.54112232 11.67053379 5.08276746 12 7.625 C12.09539062 8.33785156 12.19078125 9.05070312 12.2890625 9.78515625 C12.81606101 13.88821609 13.10466984 17.85245742 13 22 C12.34 21.484375 11.68 20.96875 11 20.4375 C7.3383765 18.35058653 7.3383765 18.35058653 0 20 C0 13.4 0 6.8 0 0 Z " fill="#EAE9D0" transform="translate(54,75)"/>
<path d="M0 0 C0.7734375 0.00644531 1.546875 0.01289062 2.34375 0.01953125 C4.5 0.1875 4.5 0.1875 7.5 1.1875 C7.5501123 1.83299805 7.60022461 2.47849609 7.65185547 3.14355469 C7.88433333 6.07562245 8.12952814 9.0064927 8.375 11.9375 C8.45363281 12.95328125 8.53226563 13.9690625 8.61328125 15.015625 C8.69707031 15.9953125 8.78085938 16.975 8.8671875 17.984375 C8.94050293 18.88510742 9.01381836 19.78583984 9.08935547 20.71386719 C9.95852932 25.94958032 12.71028289 28.59724168 16.5 32.1875 C11.85622999 30.13331468 8.18015535 26.83908567 4.25390625 23.671875 C3.34511719 23.18203125 2.43632813 22.6921875 1.5 22.1875 C-2.11099808 23.30645345 -5.25981255 25.10409046 -8.51171875 27.0078125 C-9.89520508 27.81025391 -9.89520508 27.81025391 -11.30664062 28.62890625 C-13.23935236 29.75839609 -15.17163905 30.88861355 -17.10351562 32.01953125 C-18.02197266 32.55191406 -18.94042969 33.08429688 -19.88671875 33.6328125 C-21.14295044 34.36781982 -21.14295044 34.36781982 -22.42456055 35.11767578 C-24.5 36.1875 -24.5 36.1875 -26.5 36.1875 C-26.17 37.1775 -25.84 38.1675 -25.5 39.1875 C-26.16 39.1875 -26.82 39.1875 -27.5 39.1875 C-27.995 37.7025 -27.995 37.7025 -28.5 36.1875 C-27.59906616 35.8150415 -27.59906616 35.8150415 -26.67993164 35.43505859 C-20.12726653 32.5767989 -13.35756113 29.56525961 -8.5 24.1875 C-6.13516938 17.79481389 -6.8083722 10.90355359 -7.61499023 4.24365234 C-7.57704346 3.56512207 -7.53909668 2.8865918 -7.5 2.1875 C-4.35388747 0.09009164 -3.58811922 -0.06578219 0 0 Z M-5.5 2.1875 C-5.5 8.7875 -5.5 15.3875 -5.5 22.1875 C-1.54 21.6925 -1.54 21.6925 2.5 21.1875 C5.5 22.625 5.5 22.625 7.5 24.1875 C6.96589137 16.83498331 6.36859084 9.50847997 5.5 2.1875 C1.87 2.1875 -1.76 2.1875 -5.5 2.1875 Z " fill="#403F3C" transform="translate(59.5,72.8125)"/>
<path d="M0 0 C4.52451299 1.44399351 4.52451299 1.44399351 5.9375 3.9375 C5.8125 7.5 5.8125 7.5 4.9375 10.9375 C1.46826119 13.25032587 0.01544425 13.36228586 -4.0625 12.9375 C-5.9375 11.8125 -5.9375 11.8125 -7.0625 9.9375 C-7.60650387 6.28490261 -7.50024093 4.5941114 -5.4375 1.5 C-3.0625 -0.0625 -3.0625 -0.0625 0 0 Z " fill="#424242" transform="translate(77.0625,132.0625)"/>
<path d="M0 0 C0.66 0 1.32 0 2 0 C1.835 0.639375 1.67 1.27875 1.5 1.9375 C0.47765999 8.19933259 0.61574779 13.11884455 3 19 C2.74246388 23.20642333 1.94714103 25.93497332 -1 29 C-1.66 29 -2.32 29 -3 29 C-2.96519531 28.41992188 -2.93039063 27.83984375 -2.89453125 27.2421875 C-2.70705141 21.83205508 -3.51148706 18.86882966 -6 14 C-6 8.62999638 -3.33812138 4.09725802 0 0 Z " fill="#962D12" transform="translate(69,36)"/>
<path d="M0 0 C2 3 2 3 1.6875 6.625 C1 10 1 10 0 11 C-5.73611111 11.27314815 -5.73611111 11.27314815 -8 11 C-10 9 -10 9 -10.3125 5.5625 C-10 2 -10 2 -8.9375 0 C-5.77203476 -1.63378851 -3.34979714 -0.85267564 0 0 Z " fill="#494948" transform="translate(126,131)"/>
<path d="M0 0 C4.23110997 3.34552881 7.8879465 6.56768138 11 11 C11.1875 13.0625 11.1875 13.0625 10 15 C8.08516023 16.82541044 6.10819701 18.3852108 4 20 C-0.78231699 13.57376154 -0.42306682 7.81498429 0 0 Z " fill="#B1B091" transform="translate(33,113)"/>
<path d="M0 0 C2.31 1.98 4.62 3.96 7 6 C4.89851796 9.98175544 2.63094642 12.35039045 -1 15 C-5.66981656 9.57698722 -5.66981656 9.57698722 -6 6 C-4.30072764 3.61774035 -2.1932158 1.96941827 0 0 Z " fill="#C3C3A3" transform="translate(44,126)"/>
<path d="M0 0 C2.75253045 1.30004771 5.14766586 2.73936307 7.57421875 4.57421875 C8.23808594 5.07405273 8.90195313 5.57388672 9.5859375 6.08886719 C10.27945313 6.61641602 10.97296875 7.14396484 11.6875 7.6875 C12.39777344 8.22407227 13.10804688 8.76064453 13.83984375 9.31347656 C18.92787213 13.16431556 23.99016335 17.04779553 29 21 C26.29851454 23.84602846 23.59044759 26.09477967 20.3046875 28.234375 C19.42425781 28.80800781 18.54382813 29.38164063 17.63671875 29.97265625 C16.72535156 30.55917969 15.81398437 31.14570312 14.875 31.75 C13.95589844 32.35199219 13.03679687 32.95398438 12.08984375 33.57421875 C5.25547406 38 5.25547406 38 3 38 C1.93224776 36.03533587 0.93446535 34.03144641 0 32 C0.33 31.34 0.66 30.68 1 30 C1.99 31.65 2.98 33.3 4 35 C9.03382098 33.3518456 13.0260491 30.39351949 17.3125 27.375 C18.42334961 26.6015625 18.42334961 26.6015625 19.55664062 25.8125 C21.37422697 24.54605274 23.18850838 23.27514241 25 22 C21.26585873 18.11056363 17.31904854 14.74102153 13.0625 11.4375 C12.46759766 10.96892578 11.87269531 10.50035156 11.25976562 10.01757812 C8.42819651 7.80493122 5.59405322 5.71049465 2.55859375 3.78515625 C1.71425781 3.19605469 0.86992187 2.60695313 0 2 C0 1.34 0 0.68 0 0 Z " fill="#323331" transform="translate(136,93)"/>
<path d="M0 0 C1.65 0 3.3 0 5 0 C5 5.61 5 11.22 5 17 C5.66 17.33 6.32 17.66 7 18 C4.69 18.66 2.38 19.32 0 20 C0 13.4 0 6.8 0 0 Z " fill="#A6A07F" transform="translate(54,75)"/>
<path d="M0 0 C3 0.25 3 0.25 5 2.25 C5.25 5.25 5.25 5.25 5 8.25 C3 10.25 3 10.25 -0.5 10.5625 C-2.2325 10.4078125 -2.2325 10.4078125 -4 10.25 C-6 7.25 -6 7.25 -5.75 4.6875 C-4.63523671 1.06451932 -3.80176857 0.31681405 0 0 Z " fill="#3A3A3A" transform="translate(155,128.75)"/>
<path d="M0 0 C1.66611905 -0.042721 3.33382885 -0.04063832 5 0 C6 1 6 1 6.09765625 2.84765625 C6.06510417 4.8984375 6.03255208 6.94921875 6 9 C5.01 9 4.02 9 3 9 C2.67 9.66 2.34 10.32 2 11 C0.57741188 7.17679443 -0.24042276 4.08718695 0 0 Z " fill="#C14004" transform="translate(47,46)"/>
<path d="M0 0 C0.33 3.63 0.66 7.26 1 11 C0.34 11 -0.32 11 -1 11 C-2.32421875 9.3203125 -2.32421875 9.3203125 -3.6875 7.125 C-4.14511719 6.40570313 -4.60273437 5.68640625 -5.07421875 4.9453125 C-5.37972656 4.30335937 -5.68523438 3.66140625 -6 3 C-5.67 2.34 -5.34 1.68 -5 1 C-3.3176559 0.47426747 -1.77322566 0 0 0 Z " fill="#8B4C23" transform="translate(55,54)"/>
<path d="M0 0 C0.99 0.99 1.98 1.98 3 3 C2.25 5.4375 2.25 5.4375 1 8 C-1.125 8.8125 -1.125 8.8125 -3 9 C-3 6.36 -3 3.72 -3 1 C-2.01 0.67 -1.02 0.34 0 0 Z " fill="#525252" transform="translate(157,129)"/>
<path d="M0 0 C1.98 1.65 3.96 3.3 6 5 C4.6875 7.5 4.6875 7.5 3 10 C2.01 10 1.02 10 0 10 C0 6.7 0 3.4 0 0 Z " fill="#A29D7E" transform="translate(33,113)"/>
<path d="M0 0 C0.33 0 0.66 0 1 0 C1 8.25 1 16.5 1 25 C3.31 25 5.62 25 8 25 C8 25.33 8 25.66 8 26 C5.36 26 2.72 26 0 26 C-0.66 24.68 -1.32 23.36 -2 22 C-1.34 22 -0.68 22 0 22 C0 14.74 0 7.48 0 0 Z " fill="#141415" transform="translate(53,134)"/>
<path d="M0 0 C0.66 0.33 1.32 0.66 2 1 C1.67 3.97 1.34 6.94 1 10 C2.98 10 4.96 10 7 10 C7 10.33 7 10.66 7 11 C3.625 11.125 3.625 11.125 0 11 C-2 9 -2 9 -2.25 5.5 C-2 2 -2 2 0 0 Z " fill="#2D2D2E" transform="translate(118,131)"/>
<path d="M0 0 C0.66 0 1.32 0 2 0 C1.83628906 0.69480469 1.67257813 1.38960937 1.50390625 2.10546875 C0.95904004 5.2352816 0.90261517 8.13798083 0.9375 11.3125 C0.95103516 12.91544922 0.95103516 12.91544922 0.96484375 14.55078125 C0.97644531 15.35902344 0.98804687 16.16726562 1 17 C-1.36530408 14.63469592 -1.33785256 13.80088502 -1.625 10.5625 C-1.69976562 9.78003906 -1.77453125 8.99757813 -1.8515625 8.19140625 C-2.18446602 3.27669903 -2.18446602 3.27669903 0 0 Z " fill="#50322B" transform="translate(69,36)"/>
<path d="M0 0 C0.33 0 0.66 0 1 0 C1 4.29 1 8.58 1 13 C-1.8290723 10.1709277 -2.37611108 9.61855575 -3 6 C-2.34 5.67 -1.68 5.34 -1 5 C-0.34444881 2.47266765 -0.34444881 2.47266765 0 0 Z " fill="#E5E7C3" transform="translate(51,142)"/>
<path d="M0 0 C0 3.3 0 6.6 0 10 C-0.66 9.34 -1.32 8.68 -2 8 C-2.66 7.67 -3.32 7.34 -4 7 C-3.625 4.0625 -3.625 4.0625 -3 1 C-1 0 -1 0 0 0 Z " fill="#AF4112" transform="translate(67,43)"/>
<path d="M0 0 C0.66 0 1.32 0 2 0 C2.33 2.97 2.66 5.94 3 9 C1.68 8.34 0.36 7.68 -1 7 C-1.04254356 5.00045254 -1.04080783 2.99958364 -1 1 C-0.67 0.67 -0.34 0.34 0 0 Z " fill="#323232" transform="translate(71,135)"/>
<path d="M0 0 C1.65 0 3.3 0 5 0 C5.33 1.65 5.66 3.3 6 5 C3.03 4.505 3.03 4.505 0 4 C0 2.68 0 1.36 0 0 Z " fill="#D43200" transform="translate(47,46)"/>
<path d="M0 0 C0.78375 0.04125 1.5675 0.0825 2.375 0.125 C1.75625 0.33125 1.1375 0.5375 0.5 0.75 C-2.47153645 2.67275888 -2.75524659 4.79094527 -3.625 8.125 C-4.285 7.795 -4.945 7.465 -5.625 7.125 C-4.53409091 0.21590909 -4.53409091 0.21590909 0 0 Z " fill="#303031" transform="translate(154.625,128.875)"/>
<path d="M0 0 C0.66 0.33 1.32 0.66 2 1 C2 2.98 2 4.96 2 7 C1.01 7.33 0.02 7.66 -1 8 C-1.04241723 5.66705225 -1.04092937 3.33297433 -1 1 C-0.67 0.67 -0.34 0.34 0 0 Z " fill="#5C5C5C" transform="translate(79,135)"/>
<path d="M0 0 C0.66 0 1.32 0 2 0 C2 2.31 2 4.62 2 7 C1.01 7 0.02 7 -1 7 C-1.04254356 5.00045254 -1.04080783 2.99958364 -1 1 C-0.67 0.67 -0.34 0.34 0 0 Z " fill="#5B5B5B" transform="translate(124,133)"/>
<path d="M0 0 C0.70125 0.680625 1.4025 1.36125 2.125 2.0625 C4.8829449 4.35289652 4.8829449 4.35289652 8.3125 3.75 C9.199375 3.5025 10.08625 3.255 11 3 C8.82575883 5.50037734 7.26954202 6.43628586 4 7 C0 2.25 0 2.25 0 0 Z " fill="#2E3232" transform="translate(48,128)"/>
</svg>
