<?xml version="1.0" encoding="UTF-8"?>
<svg version="1.1" xmlns="http://www.w3.org/2000/svg" width="225" height="225">
<path d="M0 0 C74.25 0 148.5 0 225 0 C225 74.25 225 148.5 225 225 C150.75 225 76.5 225 0 225 C0 150.75 0 76.5 0 0 Z " fill="#FF6C37" transform="translate(0,0)"/>
<path d="M0 0 C0.33 0 0.66 0 1 0 C1 33.99 1 67.98 1 103 C-33.32 103 -67.64 103 -103 103 C-103 102.67 -103 102.34 -103 102 C-102.1028125 101.91363281 -101.205625 101.82726562 -100.28125 101.73828125 C-69.59485174 98.28289136 -41.8666809 83.06342985 -22.51953125 58.90234375 C-9.58584676 40.93765634 -3.30126881 21.68638374 0 0 Z " fill="#FFFDFD" transform="translate(224,122)"/>
<path d="M0 0 C0.33 0 0.66 0 1 0 C1.21914063 1.24652344 1.43828125 2.49304688 1.6640625 3.77734375 C5.82231801 26.50285035 13.12506414 46.72358506 29 64 C29.44714355 64.48952148 29.89428711 64.97904297 30.35498047 65.48339844 C49.17719599 85.86282437 75.30446511 98.80285945 103 101 C103 101.33 103 101.66 103 102 C69.01 102 35.02 102 0 102 C0 68.34 0 34.68 0 0 Z " fill="#FFFDFD" transform="translate(0,123)"/>
<path d="M0 0 C34.65 0 69.3 0 105 0 C105 33.33 105 66.66 105 101 C104.67 101 104.34 101 104 101 C103.78085938 99.741875 103.56171875 98.48375 103.3359375 97.1875 C99.24193754 74.67160611 91.26578084 52.48552982 74.2421875 36.33203125 C73 35 73 35 73 33 C72.42894531 32.75378906 71.85789062 32.50757813 71.26953125 32.25390625 C68.63007863 30.79562004 66.84176687 29.04711885 64.6875 26.9375 C46.91618545 10.75105414 23.51502034 3.36075992 0 1 C0 0.67 0 0.34 0 0 Z " fill="#FFFDFD" transform="translate(120,0)"/>
<path d="M0 0 C33.33 0 66.66 0 101 0 C101 0.33 101 0.66 101 1 C99.741875 1.21914063 98.48375 1.43828125 97.1875 1.6640625 C74.87914958 5.72032543 54.9272673 13.4458886 38 29 C37.51047852 29.44714355 37.02095703 29.89428711 36.51660156 30.35498047 C16.13717563 49.17719599 3.19714055 75.30446511 1 103 C0.67 103 0.34 103 0 103 C0 69.01 0 35.02 0 0 Z " fill="#FFFDFD" transform="translate(0,0)"/>
<path d="M0 0 C0.51046875 0.54527344 1.0209375 1.09054688 1.546875 1.65234375 C2.32804687 2.47412109 2.32804687 2.47412109 3.125 3.3125 C3.51171875 3.73402344 3.8984375 4.15554687 4.296875 4.58984375 C-0.2734534 16.41892901 -20.34349059 24.64198468 -30.703125 30.58984375 C-31.3425 30.95722656 -31.981875 31.32460937 -32.640625 31.703125 C-41.20698456 36.58984375 -41.20698456 36.58984375 -43.703125 36.58984375 C-43.043125 40.54984375 -42.383125 44.50984375 -41.703125 48.58984375 C-45.54594236 46.66843507 -47.50744427 44.99716215 -50.453125 41.96484375 C-51.25234375 41.14757812 -52.0515625 40.3303125 -52.875 39.48828125 C-53.47828125 38.86179688 -54.0815625 38.2353125 -54.703125 37.58984375 C-53.36865176 34.64994703 -51.88846308 32.49177936 -49.66894531 30.15405273 C-49.05359924 29.50335312 -48.43825317 28.8526535 -47.80426025 28.18223572 C-44.95416305 25.22888752 -42.0973488 22.28271425 -39.22216797 19.35375977 C-37.71900691 17.81259108 -36.22755345 16.25990922 -34.74853516 14.69555664 C-19.94127981 -0.95825358 -19.94127981 -0.95825358 -8.54980469 -2.42944336 C-5.05565809 -2.40576947 -2.71896632 -2.25125422 0 0 Z " fill="#FFFDFC" transform="translate(112.703125,127.41015625)"/>
<path d="M0 0 C1.72265625 1.515625 1.72265625 1.515625 3 3 C2.52800171 3.32988922 2.05600342 3.65977844 1.56970215 3.99966431 C-4.18199081 8.15012734 -9.1183461 12.85801513 -14.09375 17.8984375 C-15.34194519 19.15087753 -15.34194519 19.15087753 -16.61535645 20.42861938 C-19.24834155 23.07271818 -21.8742515 25.72371669 -24.5 28.375 C-26.29380631 30.17884748 -28.08807261 31.98223764 -29.8828125 33.78515625 C-34.26054215 38.18482928 -38.63249845 42.59017473 -43 47 C-44.12894876 46.06725891 -45.25300876 45.12859878 -46.375 44.1875 C-47.00148438 43.66542969 -47.62796875 43.14335938 -48.2734375 42.60546875 C-50 41 -50 41 -52 38 C-49.21758255 35.16721153 -46.42792287 32.34175719 -43.63208008 29.5222168 C-42.22827838 28.10370567 -40.82987502 26.67985854 -39.43164062 25.25585938 C-31.60155336 17.3704358 -23.44713091 9.82622454 -13.9375 4 C-12.58978516 3.1646875 -12.58978516 3.1646875 -11.21484375 2.3125 C-7.22957144 -0.04914285 -4.69398684 -0.32940259 0 0 Z " fill="#FFFCFC" transform="translate(146,68)"/>
<path d="M0 0 C1.8125 1.125 1.8125 1.125 3 3 C3.46875 5.72265625 3.46875 5.72265625 3 9 C1.20652526 11.45685681 -1.0088622 13.34134601 -3.3125 15.3125 C-4.2715625 16.16714844 -4.2715625 16.16714844 -5.25 17.0390625 C-9.76710403 21.03322834 -14.428739 24.8429912 -19.13671875 28.609375 C-23.25626831 32.04888978 -27.15514298 35.71115251 -31.0546875 39.39648438 C-34.59996153 42.74022891 -38.22548234 45.91643035 -42 49 C-45.40062014 47.59284684 -46.89229698 45.97131772 -49 43 C-43.70903066 37.68585623 -38.41535878 32.37441763 -33.11822796 27.06641579 C-30.6586211 24.60159128 -28.19995278 22.13584557 -25.7434082 19.66796875 C-22.91894858 16.83056145 -20.09044938 13.99721192 -17.26171875 11.1640625 C-16.38037766 10.27756012 -15.49903656 9.39105774 -14.59098816 8.47769165 C-13.77036392 7.65699188 -12.94973969 6.83629211 -12.10424805 5.99072266 C-11.38254929 5.26680328 -10.66085052 4.54288391 -9.9172821 3.79702759 C-6.60445055 0.69198129 -4.52833304 -0.56604163 0 0 Z " fill="#FFF8F6" transform="translate(153,73)"/>
<path d="M0 0 C3.5625 1.5 3.5625 1.5 6 3 C4.34136495 7.32504836 1.128959 10.09418825 -2.125 13.25 C-2.68832031 13.80429687 -3.25164062 14.35859375 -3.83203125 14.9296875 C-5.21686028 16.29104485 -6.60783204 17.64614859 -8 19 C-6.46356148 22.68069887 -4.21849055 24.98775204 -1.375 27.75 C-0.14910156 28.94882813 -0.14910156 28.94882813 1.1015625 30.171875 C1.72804687 30.77515625 2.35453125 31.3784375 3 32 C-1.2594668 34.83964453 -4.99975838 34.63185581 -10 34 C-14.98669007 31.50665497 -18.49675474 28.00649051 -21 23 C-21.49813129 17.54505412 -21.71117027 12.62976519 -19.5 7.5625 C-13.77100384 1.69027894 -8.36634208 -1.4791323 0 0 Z " fill="#FFFCFB" transform="translate(170,42)"/>
<path d="M0 0 C1 3 1 3 0.28515625 5.12890625 C-7.90102407 21.42280509 -22.12810682 34.33028315 -35 47 C-36.17825358 46.09827532 -37.34231577 45.17798498 -38.5 44.25 C-39.47453125 43.48429687 -39.47453125 43.48429687 -40.46875 42.703125 C-42 41 -42 41 -42 37 C-39.95300278 34.76772712 -37.94731479 32.80669408 -35.6875 30.8125 C-35.0488501 30.23443604 -34.4102002 29.65637207 -33.75219727 29.06079102 C-29.22591306 24.99566899 -24.55581801 21.13152582 -19.8046875 17.33203125 C-15.86892589 14.05953866 -12.13888195 10.58085156 -8.41381836 7.07202148 C-5.71622434 4.53926875 -3.0214032 2.14046395 0 0 Z " fill="#FFFAF8" transform="translate(155,85)"/>
<path d="M0 0 C3 1 3 1 4.6875 3.5625 C6.72014357 8.88609031 6.79897442 12.92266652 4.75 18.25 C3.06185617 20.90279745 1.33504562 22.90651082 -1 25 C-4.45201639 23.52278578 -6.64961936 21.56205999 -9.25 18.875 C-9.95640625 18.15054688 -10.6628125 17.42609375 -11.390625 16.6796875 C-11.92171875 16.12539062 -12.4528125 15.57109375 -13 15 C-11.38989473 10.92623969 -8.46177729 8.23492931 -5.375 5.25 C-4.859375 4.74339844 -4.34375 4.23679687 -3.8125 3.71484375 C-2.54616661 2.47196098 -1.2736856 1.23534724 0 0 Z " fill="#FFF5F3" transform="translate(177,48)"/>
<path d="M0 0 C3.42527887 1.47348708 5.64955058 3.40907846 8.25 6.0625 C8.95640625 6.77535156 9.6628125 7.48820313 10.390625 8.22265625 C12 10 12 10 12 11 C5.23405981 11.11381955 -1.28837062 10.88021369 -8 10 C-6.07712966 5.70621187 -3.37521131 3.22846299 0 0 Z " fill="#FFF3F0" transform="translate(54,166)"/>
<path d="M0 0 C4.28359673 1.8855148 6.15103592 4.35965701 9 8 C2.63460728 10.11293829 -3.31006781 11.46048934 -10 12 C-8.52278578 8.54798361 -6.56205999 6.35038064 -3.875 3.75 C-3.15054688 3.04359375 -2.42609375 2.3371875 -1.6796875 1.609375 C-1.12539062 1.07828125 -0.57109375 0.5471875 0 0 Z " fill="#FFF2EE" transform="translate(91,108)"/>
<path d="M0 0 C4 4 8 8 12 12 C11.01 12.66 10.02 13.32 9 14 C7.2978302 12.4324482 5.61359446 10.84540216 3.9375 9.25 C2.99777344 8.36828125 2.05804688 7.4865625 1.08984375 6.578125 C-1 4 -1 4 -0.80859375 1.671875 C-0.54175781 1.12015625 -0.27492187 0.5684375 0 0 Z " fill="#FF8458" transform="translate(57,163)"/>
<path d="M0 0 C2 0.125 2 0.125 4 1 C4.66 2.32 5.32 3.64 6 5 C2.7 5.33 -0.6 5.66 -4 6 C-2 2 -2 2 0 0 Z " fill="#FFEEE9" transform="translate(101,119)"/>
<path d="M0 0 C2.5 2.3125 2.5 2.3125 5 5 C5 5.99 5 6.98 5 8 C2.69 6.35 0.38 4.7 -2 3 C-1.34 2.67 -0.68 2.34 0 2 C0 1.34 0 0.68 0 0 Z " fill="#FF652A" transform="translate(93,105)"/>
<path d="M0 0 C0.33 0.99 0.66 1.98 1 3 C-1.97 5.475 -1.97 5.475 -5 8 C-4.45773019 4.20411134 -2.79872437 2.52788007 0 0 Z " fill="#FF7543" transform="translate(124,109)"/>
<path d="M0 0 C0.66 0.33 1.32 0.66 2 1 C2 2.98 2 4.96 2 7 C1.01 7.33 0.02 7.66 -1 8 C-1.04241723 5.66705225 -1.04092937 3.33297433 -1 1 C-0.67 0.67 -0.34 0.34 0 0 Z " fill="#FF6A30" transform="translate(177,56)"/>
</svg>
