<?xml version="1.0" encoding="UTF-8"?>
<svg version="1.1" xmlns="http://www.w3.org/2000/svg" width="235" height="214">
<path d="M0 0 C77.55 0 155.1 0 235 0 C235 70.62 235 141.24 235 214 C157.45 214 79.9 214 0 214 C0 143.38 0 72.76 0 0 Z " fill="#FEFEFE" transform="translate(0,0)"/>
<path d="M0 0 C4.49273922 1.86062937 8.31573879 2.10118952 13.09375 1.28125 C16.97783476 -0.46367992 20.09199663 -2.71699663 23.09375 -5.71875 C23.68800781 -5.17347656 24.28226563 -4.62820312 24.89453125 -4.06640625 C29.2845838 -0.072346 33.71071308 3.82068997 38.34375 7.53125 C43.5282568 11.71873626 48.39646697 16.18790353 53.23535156 20.76464844 C53.79448242 21.29219727 54.35361328 21.81974609 54.9296875 22.36328125 C55.4669043 22.87068848 56.00412109 23.3780957 56.55761719 23.90087891 C58.23683015 25.45435348 58.23683015 25.45435348 60.8203125 27.29296875 C64.62687486 30.62207569 65.90100404 33.90961594 66.59765625 38.8671875 C66.79114932 51.37973955 66.79114932 51.37973955 62.10546875 56.48046875 C58.89993814 59.34988547 55.59999509 62.07049469 52.21875 64.73046875 C48.6713677 67.56451874 45.39234608 70.66476016 42.09375 73.78125 C37.2036166 78.38788783 32.18599418 82.70745466 26.9375 86.90625 C23.53739815 89.7458955 20.317899 92.74514371 17.09375 95.78125 C12.18068945 100.40745527 7.14253041 104.75395878 1.87109375 108.97265625 C-1.33067799 111.63404458 -4.36859918 114.43587246 -7.40625 117.28125 C-12.13983377 121.71486191 -17.0114377 125.86889623 -22.08203125 129.91796875 C-24.78925692 132.18335123 -27.34149822 134.54605184 -29.89550781 136.97949219 C-36.84062431 143.58114692 -42.42729198 148.6584968 -52.4375 148.8125 C-59.56395119 147.27895987 -64.65310171 143.10089506 -69.71875 138.09375 C-70.94024462 136.92190565 -72.16422525 135.75264738 -73.390625 134.5859375 C-74.28491211 133.73467285 -74.28491211 133.73467285 -75.19726562 132.86621094 C-77.53169561 130.70119387 -79.98105584 128.70454096 -82.46875 126.71875 C-87.21387278 122.9212582 -91.64337406 118.86950086 -96.07495117 114.71801758 C-99.37837765 111.64116758 -102.75054699 108.72452629 -106.28125 105.90625 C-111.56158234 101.67274739 -116.44182625 97.08519367 -121.35449219 92.43847656 C-125.79812953 88.25716081 -130.39423771 84.36205506 -135.1640625 80.5546875 C-138.93376637 77.42937745 -142.48163743 74.08759188 -146.05102539 70.73754883 C-150.38646712 66.69385957 -154.89094016 62.96537904 -159.56640625 59.31640625 C-164.0953348 55.37722132 -166.64710147 52.0465944 -167.21484375 45.98828125 C-167.63747859 33.21958625 -167.63747859 33.21958625 -162.91796875 28.08203125 C-159.71243814 25.21261453 -156.41249509 22.49200531 -153.03125 19.83203125 C-149.4838519 16.99796864 -146.20499423 13.89760632 -142.90625 10.78125 C-136.2653381 4.53055194 -129.51165892 -1.64847739 -121.90625 -6.71875 C-121.92719727 -6.13496582 -121.94814453 -5.55118164 -121.96972656 -4.94970703 C-122.88297528 10.26730051 -122.88297528 10.26730051 -117.90625 24.28125 C-117.49375 24.96832031 -117.08125 25.65539062 -116.65625 26.36328125 C-107.64078573 39.75841708 -91.21215848 47.21703954 -75.82421875 50.51171875 C-68.09793631 51.88968631 -60.1984323 52.19377169 -52.37255859 52.59887695 C-37.38188402 53.38844663 -21.24587896 55.38806313 -9.90625 66.28125 C-7.72584605 69.55185593 -7.68541461 70.04499489 -8.15625 73.71875 C-8.24390625 74.48058594 -8.3315625 75.24242187 -8.421875 76.02734375 C-9.10673195 79.21413778 -9.81981272 81.51115007 -12.54296875 83.44140625 C-34.03796066 92.89920269 -61.06596436 92.10843323 -82.90625 84.28125 C-84.03401855 83.88848877 -84.03401855 83.88848877 -85.18457031 83.48779297 C-96.99123251 79.34514861 -96.99123251 79.34514861 -100.98046875 77.12890625 C-105.66288185 75.06788466 -112.25480398 75.33220844 -117.0234375 77.0390625 C-118.88429635 78.08147938 -118.88429635 78.08147938 -120.90625 80.28125 C-121.30485352 84.09531085 -121.30485352 84.09531085 -119.65625 85.95703125 C-118.79 86.76720703 -118.79 86.76720703 -117.90625 87.59375 C-117.25785156 88.20476562 -116.60945313 88.81578125 -115.94140625 89.4453125 C-115.26980469 90.05117187 -114.59820312 90.65703125 -113.90625 91.28125 C-113.32746094 91.80460937 -112.74867187 92.32796875 -112.15234375 92.8671875 C-110.08902844 94.69431337 -107.99808706 96.4868147 -105.90625 98.28125 C-104.75742877 99.2821118 -103.60902584 100.28345384 -102.4609375 101.28515625 C-101.21375874 102.3674377 -99.96636152 103.44946745 -98.71875 104.53125 C-98.12441162 105.05098389 -97.53007324 105.57071777 -96.91772461 106.10620117 C-80.97630986 119.8625138 -56.68531059 119.4814768 -36.58447266 118.12451172 C-31.98470335 117.72350619 -27.459788 117.0537252 -22.90625 116.28125 C-21.4521875 116.11109375 -21.4521875 116.11109375 -19.96875 115.9375 C-11.02931768 114.37829669 -5.59516076 107.98816668 0.55761719 101.80517578 C2.43699515 99.94073248 4.39800846 98.19295738 6.40625 96.46875 C7.30150391 95.68757813 7.30150391 95.68757813 8.21484375 94.890625 C9.63143293 93.67724716 11.06395905 92.48243931 12.50390625 91.296875 C13.31730469 90.61109375 14.13070312 89.9253125 14.96875 89.21875 C15.70867187 88.60902344 16.44859375 87.99929687 17.2109375 87.37109375 C22.37116452 81.64345588 21.57649702 73.6573732 21.40625 66.421875 C21.13419173 61.36612545 19.88189452 57.51541979 17.09375 53.28125 C16.65804687 52.59933594 16.22234375 51.91742188 15.7734375 51.21484375 C5.27050465 36.09176831 -11.45484572 29.70574951 -28.90625 26.28125 C-29.81117188 26.09175781 -30.71609375 25.90226562 -31.6484375 25.70703125 C-35.52538226 25.20033223 -39.35007073 25.09384484 -43.25634766 24.99169922 C-58.35366234 24.58214565 -76.70628618 24.04209277 -88.39770508 12.85400391 C-90.80167742 10.13988287 -92.60004213 7.98832196 -92.46875 4.28125 C-92.14228508 0.00455948 -90.8691296 -2.53907433 -87.90625 -5.71875 C-63.25031598 -22.02704716 -24.28165433 -10.97372325 0 0 Z " fill="#66B644" transform="translate(167.90625,64.71875)"/>
<path d="M0 0 C1.13661759 3.31441161 1.0033177 6.41995012 0.88330078 9.88891602 C0.51470312 21.53024703 2.88672569 30.28834971 11 39 C27.30811482 54.87975909 48.75591992 58.19030366 70.53369141 59.31762695 C85.52436598 60.10719663 101.66037104 62.10681313 113 73 C115.18040395 76.27060593 115.22083539 76.76374489 114.75 80.4375 C114.66234375 81.19933594 114.5746875 81.96117187 114.484375 82.74609375 C113.79951805 85.93288778 113.08643728 88.22990007 110.36328125 90.16015625 C88.86828934 99.61795269 61.84028564 98.82718323 40 91 C38.87223145 90.60723877 38.87223145 90.60723877 37.72167969 90.20654297 C25.91501749 86.06389861 25.91501749 86.06389861 21.92578125 83.84765625 C17.62867254 81.95623112 12.57402895 82.48496189 8 83 C4.52218792 84.70464277 4.52218792 84.70464277 2 87 C0.68032357 87.69330827 -0.65104641 88.36553454 -2 89 C-2.70125 88.35933594 -3.4025 87.71867187 -4.125 87.05859375 C-12.03685401 79.84547684 -20.06755874 72.7898683 -28.1875 65.8125 C-28.78216064 65.30090332 -29.37682129 64.78930664 -29.98950195 64.26220703 C-32.55202274 62.06514461 -35.11439637 59.91115001 -37.78125 57.83984375 C-42.15170949 54.21574794 -43.76076182 50.50720052 -44.625 45.0625 C-44.29501944 39.86280635 -41.55232117 36.61440057 -38 33 C-35.43278103 30.76911652 -32.79808349 28.65365535 -30.125 26.55078125 C-26.57762584 23.71673777 -23.29851693 20.61656706 -20 17.5 C-14.86915741 12.66468043 -9.62425035 8.10424695 -4.109375 3.70703125 C-1.9533522 2.02324802 -1.9533522 2.02324802 0 0 Z " fill="#66B644" transform="translate(45,58)"/>
<path d="M0 0 C0.33 0 0.66 0 1 0 C1.61850252 4.94802016 1.62702032 8.82234362 -1.3125 13 C-4.71343207 17.03513851 -8.74041499 20.19660364 -12.875 23.44921875 C-16.4223823 26.28326874 -19.70140392 29.38351016 -23 32.5 C-27.8901334 37.10663783 -32.90775582 41.42620466 -38.15625 45.625 C-41.55635185 48.4646455 -44.775851 51.46389371 -48 54.5 C-52.91306055 59.12620527 -57.95121959 63.47270878 -63.22265625 67.69140625 C-66.42442799 70.35279458 -69.46234918 73.15462246 -72.5 76 C-77.23358377 80.43361191 -82.1051877 84.58764623 -87.17578125 88.63671875 C-89.88300692 90.90210123 -92.43524822 93.26480184 -94.98925781 95.69824219 C-101.93437431 102.29989692 -107.52104198 107.3772468 -117.53125 107.53125 C-124.65770119 105.99770987 -129.74685171 101.81964506 -134.8125 96.8125 C-136.03399462 95.64065565 -137.25797525 94.47139738 -138.484375 93.3046875 C-139.08056641 92.73717773 -139.67675781 92.16966797 -140.29101562 91.58496094 C-142.62544561 89.41994387 -145.07480584 87.42329096 -147.5625 85.4375 C-152.30762278 81.6400082 -156.73712406 77.58825086 -161.16870117 73.43676758 C-164.47212765 70.35991758 -167.84429699 67.44327629 -171.375 64.625 C-176.65533234 60.39149739 -181.53557625 55.80394367 -186.44824219 51.15722656 C-190.89187953 46.97591081 -195.48798771 43.08080506 -200.2578125 39.2734375 C-204.02751637 36.14812745 -207.57538743 32.80634188 -211.14477539 29.45629883 C-215.48021712 25.41260957 -219.98469016 21.68412904 -224.66015625 18.03515625 C-228.07743547 15.06286497 -230.5593144 12.32205681 -232 8 C-232.03954234 5.66700175 -232.04401732 3.33291811 -232 1 C-228 5.75 -228 5.75 -228 8 C-227.45859375 8.22300781 -226.9171875 8.44601563 -226.359375 8.67578125 C-223.25018923 10.4208375 -220.82164735 12.75328449 -218.25 15.1875 C-217.16985004 16.1933307 -216.08912149 17.19854041 -215.0078125 18.203125 C-214.48735352 18.68845703 -213.96689453 19.17378906 -213.43066406 19.67382812 C-208.10197142 24.61332615 -202.51724855 29.27402963 -197 34 C-190.50012143 39.5676726 -184.01345604 45.12874946 -177.73291016 50.94482422 C-172.4299849 55.85233388 -167.03043052 60.52488046 -161.375 65.02734375 C-159 67 -159 67 -157.11328125 69.12109375 C-145.31234251 79.61324076 -118.77775237 77.66484192 -104 77 C-98.60825424 76.63601464 -93.32960135 75.9041288 -88 75 C-86.5459375 74.82984375 -86.5459375 74.82984375 -85.0625 74.65625 C-76.12306768 73.09704669 -70.68891076 66.70691668 -64.53613281 60.52392578 C-62.65675485 58.65948248 -60.69574154 56.91170738 -58.6875 55.1875 C-55.81587438 52.70661393 -52.96335308 50.20648213 -50.125 47.6875 C-49.01511719 46.70330078 -49.01511719 46.70330078 -47.8828125 45.69921875 C-46.55572485 44.50153591 -45.26404229 43.26404229 -44 42 C-40.02603237 38.53334739 -35.98401421 35.18020705 -31.875 31.875 C-26.37832283 27.39902629 -21.19874798 22.63818218 -16.0234375 17.80078125 C-13.54696944 15.49059696 -11.01426255 13.26089036 -8.4375 11.0625 C-4.68361619 7.80755011 -1.59848651 4.79545954 0 0 Z " fill="#CACBC9" transform="translate(233,106)"/>
<path d="M0 0 C11.00201983 6.85155726 20.89283907 17.02350925 29.95703125 26.21875 C28.18199219 25.80302734 28.18199219 25.80302734 26.37109375 25.37890625 C24.774813 25.01270067 23.17845459 24.64683348 21.58203125 24.28125 C20.80730469 24.09884766 20.03257812 23.91644531 19.234375 23.72851562 C9.62482904 21.54452791 0.16695628 21.02410195 -9.66796875 21.03125 C-11.23695923 21.03137085 -11.23695923 21.03137085 -12.83764648 21.03149414 C-21.38813437 21.09389687 -29.60447014 21.86661631 -38.04296875 23.21875 C-40.37592996 23.55467788 -42.70916211 23.88874677 -45.04296875 24.21875 C-14.22509043 -6.93593574 -14.22509043 -6.93593574 0 0 Z " fill="#66B744" transform="translate(126.04296875,2.78125)"/>
<path d="M0 0 C3.37516753 0.47799135 6.75010281 0.9576039 10.125 1.4375 C11.55199219 1.63956055 11.55199219 1.63956055 13.0078125 1.84570312 C13.9359375 1.97783203 14.8640625 2.10996094 15.8203125 2.24609375 C17.18373779 2.43957397 17.18373779 2.43957397 18.57470703 2.63696289 C20.41066534 2.91178371 22.23915947 3.23708408 24.0625 3.5859375 C28.33482507 4.18815353 32.5653002 4.19101748 36.875 4.1875 C38.26078247 4.18737915 38.26078247 4.18737915 39.67456055 4.18725586 C47.92051832 4.11966021 55.85314347 3.23056157 64 2 C66.66515553 1.65303244 69.33213533 1.32577885 72 1 C68.23167161 6.06775197 63.78185541 9.75445135 58.85546875 13.68359375 C55.44007185 16.45422352 52.1998812 19.38515665 48.97265625 22.37109375 C44.02886648 26.45339144 39.59920345 26.55592047 33.30859375 26.4296875 C24.57804915 25.29585054 18.43932242 17.86484768 12.28515625 12.07421875 C10.18410469 9.97954908 10.18410469 9.97954908 8 9 C8 8.34 8 7.68 8 7 C7.4225 6.773125 6.845 6.54625 6.25 6.3125 C3.4376721 4.67197539 1.97029539 2.56221186 0 0 Z " fill="#66B644" transform="translate(81,179)"/>
<path d="M0 0 C2.19265161 2.79531024 3.92801816 5.63390469 5.625 8.75 C13.50432217 21.82469032 28.27201449 29.28783166 42.64453125 33.26171875 C52.29265415 35.38453043 61.97386098 36.05111452 71.8125 36.5 C87.07930473 37.21420988 102.70034827 39.70034827 114 51 C114.04092937 53.33297433 114.04241723 55.66705225 114 58 C113.06994141 57.32904297 113.06994141 57.32904297 112.12109375 56.64453125 C99.35878084 47.93197702 86.3400492 45.15603231 71.09790039 44.70996094 C48.62779336 44.02457245 27.11633469 39.12243732 10.265625 23.4375 C5.12823451 17.91037644 0.16597305 10.39828592 -0.125 2.6875 C-0.08375 1.800625 -0.0425 0.91375 0 0 Z " fill="#529336" transform="translate(45,81)"/>
<path d="M0 0 C5.01147961 2.06020473 10.09520872 2.2030209 15.29296875 0.59375 C16.92975536 -0.10204998 18.52082877 -0.9038699 20.09765625 -1.7265625 C21.08765625 -0.7365625 21.08765625 -0.7365625 22.09765625 0.2734375 C21.88662092 2.78576281 21.4111908 3.95487299 19.63671875 5.7578125 C13.86222397 9.57604987 8.92817514 10.52335204 2.09765625 9.2734375 C-1.38928895 7.99545516 -4.71137054 6.50030127 -8.078125 4.93359375 C-12.18127334 3.07517854 -16.39194942 1.76952682 -20.71484375 0.5234375 C-21.73602295 0.22626831 -21.73602295 0.22626831 -22.77783203 -0.0769043 C-24.81316142 -0.65304772 -26.8555348 -1.19278159 -28.90234375 -1.7265625 C-29.56274658 -1.91492676 -30.22314941 -2.10329102 -30.90356445 -2.29736328 C-38.02223745 -4.14922777 -45.14544792 -4.11023693 -52.46484375 -4.1015625 C-53.12887207 -4.10201569 -53.79290039 -4.10246887 -54.47705078 -4.10293579 C-67.32578353 -4.07715614 -78.38347083 -2.78090987 -89.90234375 3.2734375 C-90.97363121 0.14884906 -91.1214897 -1.25366861 -89.71484375 -4.2890625 C-85.34978531 -8.07211315 -80.41830742 -9.25789487 -74.90234375 -10.7265625 C-73.65130859 -11.06880859 -73.65130859 -11.06880859 -72.375 -11.41796875 C-48.22522316 -16.87360554 -22.02396066 -10.00440642 0 0 Z " fill="#549437" transform="translate(167.90234375,64.7265625)"/>
<path d="M0 0 C11.00201983 6.85155726 20.89283907 17.02350925 29.95703125 26.21875 C27.86915239 25.84763858 25.78671852 25.44581321 23.70703125 25.03125 C22.546875 24.81082031 21.38671875 24.59039063 20.19140625 24.36328125 C16.31183265 22.99043697 15.31148293 21.5236668 12.95703125 18.21875 C6.75632851 12.42244092 0.5811362 6.68255627 -8.21875 6.06640625 C-17.82025429 6.44781316 -25.50883487 13.75129096 -32.04296875 20.21875 C-32.37296875 20.87875 -32.70296875 21.53875 -33.04296875 22.21875 C-35.765625 22.8515625 -35.765625 22.8515625 -39.10546875 23.34375 C-40.21019531 23.51132812 -41.31492187 23.67890625 -42.453125 23.8515625 C-43.30777344 23.97273438 -44.16242188 24.09390625 -45.04296875 24.21875 C-14.22509043 -6.93593574 -14.22509043 -6.93593574 0 0 Z " fill="#86C66A" transform="translate(126.04296875,2.78125)"/>
<path d="M0 0 C3.37516753 0.47799135 6.75010281 0.9576039 10.125 1.4375 C11.55199219 1.63956055 11.55199219 1.63956055 13.0078125 1.84570312 C13.9359375 1.97783203 14.8640625 2.10996094 15.8203125 2.24609375 C17.18373779 2.43957397 17.18373779 2.43957397 18.57470703 2.63696289 C20.41066534 2.91178371 22.23915947 3.23708408 24.0625 3.5859375 C28.33482507 4.18815353 32.5653002 4.19101748 36.875 4.1875 C38.26078247 4.18737915 38.26078247 4.18737915 39.67456055 4.18725586 C47.92051832 4.11966021 55.85314347 3.23056157 64 2 C66.66515553 1.65303244 69.33213533 1.32577885 72 1 C66.31037796 8.11202755 62.7400526 10.50339921 53.51953125 11.65234375 C38.34665407 13.01209506 22.79351292 12.83663536 8 9 C8 8.34 8 7.68 8 7 C7.4225 6.773125 6.845 6.54625 6.25 6.3125 C3.4376721 4.67197539 1.97029539 2.56221186 0 0 Z " fill="#529336" transform="translate(81,179)"/>
<path d="M0 0 C0.33 0 0.66 0 1 0 C1.61850252 4.94802016 1.62702032 8.82234362 -1.3125 13 C-4.71343207 17.03513851 -8.74041499 20.19660364 -12.875 23.44921875 C-16.4223981 26.28328136 -19.70125577 29.38364368 -23 32.5 C-29.6409119 38.75069806 -36.39459108 44.92972739 -44 50 C-43.86435794 45.19514091 -43.6757747 42.18284045 -40.2265625 38.69140625 C-39.04429106 37.62779526 -37.84259539 36.58548365 -36.625 35.5625 C-35.98868652 35.00030762 -35.35237305 34.43811523 -34.69677734 33.85888672 C-30.24020983 29.95226433 -25.6294126 26.23691925 -21.01171875 22.5234375 C-17.05195051 19.20565503 -13.23398675 15.75256519 -9.4375 12.25 C-8.73383301 11.61143066 -8.03016602 10.97286133 -7.30517578 10.31494141 C-2.55727157 5.89816316 -2.55727157 5.89816316 0 0 Z " fill="#CACCCA" transform="translate(233,106)"/>
<path d="M0 0 C4 4.75 4 4.75 4 7 C4.54140625 7.22300781 5.0828125 7.44601563 5.640625 7.67578125 C8.74981077 9.4208375 11.17835265 11.75328449 13.75 14.1875 C14.83014996 15.1933307 15.91087851 16.19854041 16.9921875 17.203125 C17.51264648 17.68845703 18.03310547 18.17378906 18.56933594 18.67382812 C22.74583041 22.5452817 27.09023897 26.2270732 31.42578125 29.91796875 C32.04404785 30.44527588 32.66231445 30.97258301 33.29931641 31.51586914 C34.5276928 32.56270504 35.75775011 33.60757281 36.98974609 34.65014648 C40.48856541 37.63027688 43.79539954 40.7048741 47 44 C45.68 45.32 44.36 46.64 43 48 C42.33355469 47.38253906 41.66710938 46.76507813 40.98046875 46.12890625 C36.2931797 41.82184484 31.59181799 37.61162122 26.625 33.625 C21.71814569 29.66990623 17.08954096 25.4771839 12.50244141 21.16064453 C10.14158888 18.944893 7.7759812 16.82369183 5.23046875 14.8203125 C2.36235635 12.47961131 1.28941836 10.46107032 0 7 C-0.1875 3.125 -0.1875 3.125 0 0 Z " fill="#CACCCA" transform="translate(1,107)"/>
<path d="M0 0 C5.84228592 4.11805827 11.10023312 8.7281387 16.35546875 13.56640625 C18.48768784 15.52855173 20.63286547 17.46606954 22.8125 19.375 C23.43125 19.91769531 24.05 20.46039063 24.6875 21.01953125 C26.60842731 22.66464974 28.54771194 24.27928666 30.5 25.88671875 C31.12672607 26.4089502 31.75345215 26.93118164 32.39916992 27.46923828 C33.64746756 28.50871645 34.90258583 29.54007375 36.1652832 30.56201172 C39.88400878 33.6737563 42.21565785 36.36708307 44 41 C44.1875 44.375 44.1875 44.375 44 47 C42.62437146 45.71034824 41.29233607 44.37310707 40 43 C40 42.34 40 41.68 40 41 C39.46503906 40.78472656 38.93007812 40.56945312 38.37890625 40.34765625 C35.13062589 38.50749742 32.61580073 36.00157733 29.9375 33.4375 C25.92163546 29.65597402 21.87699973 26.00641818 17.5625 22.5625 C10.71196168 17.06990862 4.37921151 11.02532824 -2 5 C-1.34 3.35 -0.68 1.7 0 0 Z " fill="#86C66A" transform="translate(190,59)"/>
<path d="M0 0 C0.90876909 2.45367655 1.06409824 3.76680826 0.36328125 6.31640625 C-1.33558532 9.66059345 -3.65578721 11.82113241 -6.4375 14.25 C-6.97391113 14.73033691 -7.51032227 15.21067383 -8.06298828 15.70556641 C-12.27979953 19.45094833 -16.65028351 22.99270897 -21.05078125 26.51953125 C-25.33040274 30.118948 -29.37617318 33.95957214 -33.40576172 37.83544922 C-37.78891105 42 -37.78891105 42 -40 42 C-40.28875 42.78375 -40.5775 43.5675 -40.875 44.375 C-42 47 -42 47 -44 49 C-44.51775396 44.16762968 -44.52608574 41.1048413 -41.6875 37.0625 C-38.29614586 32.98338873 -34.28054162 29.8198826 -30.125 26.55078125 C-26.57762584 23.71673777 -23.29851693 20.61656706 -20 17.5 C-14.86915741 12.66468043 -9.62425035 8.10424695 -4.109375 3.70703125 C-1.9533522 2.02324802 -1.9533522 2.02324802 0 0 Z " fill="#85C669" transform="translate(45,58)"/>
<path d="M0 0 C0.66 0.33 1.32 0.66 2 1 C2.2568714 5.62368519 1.96706794 7.89097713 -1.12890625 11.44140625 C-4.01345751 14.06335256 -6.9666064 16.55186393 -10 19 C-10.90878906 19.7425 -11.81757813 20.485 -12.75390625 21.25 C-14.55551428 22.71855968 -16.36558185 24.17679706 -18.18359375 25.625 C-20.22770983 27.34874837 -22.09554762 29.05000034 -23.97265625 30.9375 C-30.11352664 37.06152437 -34.9320551 40.76794629 -44 41 C-43.2575 40.278125 -42.515 39.55625 -41.75 38.8125 C-39.0127891 36.12821077 -39.0127891 36.12821077 -37 33.375 C-35 31 -35 31 -32.73828125 29.6796875 C-29.53127659 27.71248065 -26.90640895 25.3214903 -24.1875 22.75 C-23.12302834 21.75843513 -22.05792391 20.76754913 -20.9921875 19.77734375 C-20.22213379 19.05973877 -20.22213379 19.05973877 -19.43652344 18.32763672 C-17.5908803 16.62189107 -15.70896769 14.96143677 -13.8125 13.3125 C-13.19890625 12.77882812 -12.5853125 12.24515625 -11.953125 11.6953125 C-11.30859375 11.13585937 -10.6640625 10.57640625 -10 10 C-8.35091008 8.56623711 -6.70512206 7.12866841 -5.0625 5.6875 C-4.31097656 5.03136719 -3.55945313 4.37523437 -2.78515625 3.69921875 C-0.91375803 2.11045152 -0.91375803 2.11045152 0 0 Z " fill="#A4A5A3" transform="translate(188,148)"/>
<path d="M0 0 C3.86236226 1.59790401 6.58231821 4.22134815 9.5625 7.0625 C14.42157061 11.61524444 19.41367112 15.87844353 24.625 20.02734375 C27 22 27 22 29.125 24.19140625 C30.96742962 26.22859832 30.96742962 26.22859832 34 27 C35.53515625 28.55859375 35.53515625 28.55859375 37.0625 30.4375 C38.66078674 32.38553905 40.21573944 34.21573944 42 36 C33.37827435 35.26934528 28.78212613 32.02335871 22.375 26.4375 C21.76398438 25.90954834 21.15296875 25.38159668 20.5234375 24.83764648 C15.73055998 20.67945079 11.03142597 16.42589074 6.35546875 12.13671875 C3.63525404 9.66912763 0.85226755 7.31264936 -2 5 C-1.125 1.125 -1.125 1.125 0 0 Z " fill="#A3A4A3" transform="translate(47,151)"/>
</svg>
