<?xml version="1.0" encoding="UTF-8"?>
<svg version="1.1" xmlns="http://www.w3.org/2000/svg" width="301" height="167">
<path d="M0 0 C99.33 0 198.66 0 301 0 C301 55.11 301 110.22 301 167 C201.67 167 102.34 167 0 167 C0 111.89 0 56.78 0 0 Z " fill="#FDFEFE" transform="translate(0,0)"/>
<path d="M0 0 C7.92928706 5.4653843 12.78791426 12.83029966 15.51171875 21.9921875 C16.84905791 33.49330427 14.42134577 43.08977093 7.6484375 52.609375 C1.37934329 59.72419284 -6.87058591 64.03711982 -16.2421875 64.9921875 C-27.08594272 65.40186893 -35.82909433 62.65973431 -44.171875 55.66015625 C-51.42989974 48.48702069 -55.20736871 39.95250108 -55.61328125 29.8046875 C-55.27577286 18.2707051 -50.17157202 9.28016501 -41.98828125 1.4296875 C-29.77995247 -8.30505833 -12.9331581 -7.84812825 0 0 Z " fill="#F6D803" transform="translate(61.17578125,48.3203125)"/>
<path d="M0 0 C2.86867529 -0.34150896 5.25568776 -1.08522925 8 -2 C13.37395366 -0.09672474 14.57641829 2.04746346 17 7 C18.64363134 7.72159424 20.31050386 8.39351421 22 9 C24.25683874 12.27316346 24.0758208 14.64744801 23.5625 18.5 C23.0958773 22.0758034 23.1305317 24.5367397 24 28 C22.875 31.125 22.875 31.125 21 34 C19.34183216 34.68753301 17.67540664 35.35561283 16 36 C15.731875 36.804375 15.46375 37.60875 15.1875 38.4375 C13.54577062 41.98017919 11.5057663 42.40065889 7.97265625 43.71484375 C6 44 6 44 3 42 C0.15879766 42.35515029 -2.28047752 43.09349251 -5 44 C-10.38779107 42.09182399 -11.53343826 39.93312348 -14 35 C-15.66014616 34.63557767 -17.32706064 34.30027117 -19 34 C-21.42706306 29.83932048 -21.49718996 26.03847882 -20.375 21.4375 C-19.73311214 18.99225821 -19.73311214 18.99225821 -21.125 17.125 C-22 15 -22 15 -21 11.375 C-18.58121977 7.29330836 -17.34722354 7.35850736 -13 6 C-11.96708324 4.01679982 -10.9662501 2.01652194 -10 0 C-5.94770812 -2.55934224 -4.19967647 -1.7848625 0 0 Z " fill="#F4D605" transform="translate(40,57)"/>
<path d="M0 0 C7.92928706 5.4653843 12.78791426 12.83029966 15.51171875 21.9921875 C16.84905791 33.49330427 14.42134577 43.08977093 7.6484375 52.609375 C1.37934329 59.72419284 -6.87058591 64.03711982 -16.2421875 64.9921875 C-27.08594272 65.40186893 -35.82909433 62.65973431 -44.171875 55.66015625 C-51.42989974 48.48702069 -55.20736871 39.95250108 -55.61328125 29.8046875 C-55.27577286 18.2707051 -50.17157202 9.28016501 -41.98828125 1.4296875 C-29.77995247 -8.30505833 -12.9331581 -7.84812825 0 0 Z M-44.9375 8.89453125 C-51.12190749 17.89411697 -52.23666405 25.96504256 -51.17578125 36.6796875 C-49.21870196 45.64475132 -43.71592293 52.56863378 -36.11328125 57.5546875 C-28.43715753 61.90546755 -20.86988433 63.14474851 -12.23046875 60.921875 C-2.14928928 57.43329246 5.12772512 52.161952 10.19921875 42.6796875 C13.45837624 34.71588846 13.29884219 23.78582373 10.04296875 15.796875 C4.96779606 6.98038911 -2.4228003 0.66888238 -12.17578125 -2.3203125 C-24.78804908 -3.96599218 -36.76308997 -1.3823878 -44.9375 8.89453125 Z " fill="#173748" transform="translate(61.17578125,48.3203125)"/>
<path d="M0 0 C0.99 0 1.98 0 3 0 C3.33 0.66 3.66 1.32 4 2 C4.99 1.34 5.98 0.68 7 0 C10.04453491 -0.48219153 12.95291087 -0.46284898 16 0 C18.50160818 1.87620613 19.61945652 3.23891303 21 6 C21.14851844 7.93359586 21.22130833 9.87342097 21.25 11.8125 C21.27578125 12.85019531 21.3015625 13.88789062 21.328125 14.95703125 C20.95701851 18.39860214 20.04491005 20.23540073 18 23 C15.63386544 24.18306728 14.13219264 24.13354608 11.5 24.125 C10.7059375 24.12757812 9.911875 24.13015625 9.09375 24.1328125 C7 24 7 24 5 23 C4.67 26.96 4.34 30.92 4 35 C2.68 35 1.36 35 0 35 C0 23.45 0 11.9 0 0 Z " fill="#213F4F" transform="translate(167,68)"/>
<path d="M0 0 C2.86867529 -0.34150896 5.25568776 -1.08522925 8 -2 C13.37395366 -0.09672474 14.57641829 2.04746346 17 7 C18.64363134 7.72159424 20.31050386 8.39351421 22 9 C24.25683874 12.27316346 24.0758208 14.64744801 23.5625 18.5 C23.0958773 22.0758034 23.1305317 24.5367397 24 28 C22.875 31.125 22.875 31.125 21 34 C19.34183216 34.68753301 17.67540664 35.35561283 16 36 C15.731875 36.804375 15.46375 37.60875 15.1875 38.4375 C13.54577062 41.98017919 11.5057663 42.40065889 7.97265625 43.71484375 C6 44 6 44 3 42 C0.15879766 42.35515029 -2.28047752 43.09349251 -5 44 C-10.38779107 42.09182399 -11.53343826 39.93312348 -14 35 C-15.66014616 34.63557767 -17.32706064 34.30027117 -19 34 C-21.42706306 29.83932048 -21.49718996 26.03847882 -20.375 21.4375 C-19.73311214 18.99225821 -19.73311214 18.99225821 -21.125 17.125 C-22 15 -22 15 -21 11.375 C-18.58121977 7.29330836 -17.34722354 7.35850736 -13 6 C-11.96708324 4.01679982 -10.9662501 2.01652194 -10 0 C-5.94770812 -2.55934224 -4.19967647 -1.7848625 0 0 Z M-7 2 C-7.45375 2.94875 -7.9075 3.8975 -8.375 4.875 C-10.14761243 8.28387006 -10.92639281 9.63340242 -14.5625 10.875 C-17.16429227 11.74458083 -17.16429227 11.74458083 -17.875 14.0625 C-17.91625 14.701875 -17.9575 15.34125 -18 16 C-17.67 16.33 -17.34 16.66 -17 17 C-16.76470588 24.29411765 -16.76470588 24.29411765 -18 28 C-16.33255117 31.16627558 -16.33255117 31.16627558 -13.5625 31.8125 C-11 33 -11 33 -9.5 36.0625 C-8.30642077 39.22885295 -8.30642077 39.22885295 -5.375 39.9375 C-4.59125 39.958125 -3.8075 39.97875 -3 40 C-2.505 39.505 -2.505 39.505 -2 39 C1.89789978 38.85290944 5.24171586 39.02563004 9 40 C11.78750144 38.60624928 11.89266287 36.83755139 13 34 C15.22189824 31.77810176 17.08482708 31.07401108 20 30 C19.98839844 29.09636719 19.97679687 28.19273438 19.96484375 27.26171875 C19.95582031 26.08222656 19.94679687 24.90273437 19.9375 23.6875 C19.92589844 22.51574219 19.91429687 21.34398437 19.90234375 20.13671875 C20 17 20 17 21 14 C19.33255117 10.83372442 19.33255117 10.83372442 16.5625 10.1875 C14 9 14 9 12.5 5.9375 C11.30642077 2.77114705 11.30642077 2.77114705 8.375 2.0625 C7.199375 2.0315625 7.199375 2.0315625 6 2 C5.67 2.33 5.34 2.66 5 3 C0.83535074 3.16017882 -2.94726192 2.98248196 -7 2 Z " fill="#1F3C45" transform="translate(40,57)"/>
<path d="M0 0 C2.93423195 1.79646854 4.47205355 2.9441071 6 6 C6.93762008 16.40604586 6.93762008 16.40604586 4.125 21.1875 C0.34512149 24.41151402 -2.67265205 24.39046133 -7.515625 24.35546875 C-10 24 -10 24 -13.0625 21.6875 C-16.43194454 17.01375435 -16.55892055 12.5793999 -16 7 C-12.69189977 -0.40384336 -7.4255274 -0.9948075 0 0 Z " fill="#F9FAFA" transform="translate(133,68)"/>
<path d="M0 0 C0.95648438 -0.03738281 1.91296875 -0.07476562 2.8984375 -0.11328125 C5.625 0.3125 5.625 0.3125 7.9609375 1.69140625 C10.57041272 5.80163601 10.04814491 9.80767428 9.875 14.5625 C9.85695312 15.49835938 9.83890625 16.43421875 9.8203125 17.3984375 C9.77325673 19.70417015 9.70753713 22.00780945 9.625 24.3125 C8.635 24.3125 7.645 24.3125 6.625 24.3125 C6.625 23.3225 6.625 22.3325 6.625 21.3125 C6.06941406 21.79847656 5.51382813 22.28445312 4.94140625 22.78515625 C2.2453465 24.56282803 0.76093614 24.74517581 -2.4375 24.75 C-3.29472656 24.76933594 -4.15195313 24.78867188 -5.03515625 24.80859375 C-7.375 24.3125 -7.375 24.3125 -9.18359375 22.5078125 C-11.02128362 19.12164296 -10.42786185 16.93171261 -9.375 13.3125 C-6.23307057 10.17057057 -3.30894033 10.14905915 0.9375 10.125 C2.50051517 10.17291725 4.06339515 10.23062945 5.625 10.3125 C5.295 8.3325 4.965 6.3525 4.625 4.3125 C0.995 4.3125 -2.635 4.3125 -6.375 4.3125 C-6.705 3.3225 -7.035 2.3325 -7.375 1.3125 C-4.81683084 0.03341542 -2.85652006 0.07275319 0 0 Z " fill="#1B3A4B" transform="translate(152.375,67.6875)"/>
<path d="M0 0 C1.32 0 2.64 0 4 0 C4.01458252 0.74161377 4.02916504 1.48322754 4.04418945 2.24731445 C4.11859457 5.60290631 4.21528006 8.95749494 4.3125 12.3125 C4.33505859 13.47974609 4.35761719 14.64699219 4.38085938 15.84960938 C4.41630859 16.96787109 4.45175781 18.08613281 4.48828125 19.23828125 C4.51446533 20.26993408 4.54064941 21.30158691 4.56762695 22.36450195 C5.0530061 25.32309478 5.60330607 26.25824422 8 28 C10.17495081 28.47307456 10.17495081 28.47307456 12.5 28.375 C13.2734375 28.38273437 14.046875 28.39046875 14.84375 28.3984375 C17.59214182 27.89058249 18.31331614 27.21541194 20 25 C20.50545868 22.29515125 20.50545868 22.29515125 20.51171875 19.23828125 C20.54716797 18.12001953 20.58261719 17.00175781 20.61914062 15.84960938 C20.64169922 14.68236328 20.66425781 13.51511719 20.6875 12.3125 C20.72166016 11.13365234 20.75582031 9.95480469 20.79101562 8.74023438 C20.87357925 5.82691775 20.94270322 2.91390534 21 0 C22.32 0 23.64 0 25 0 C25.08729047 4.06236402 25.14048992 8.12448589 25.1875 12.1875 C25.21263672 13.33798828 25.23777344 14.48847656 25.26367188 15.67382812 C25.27333984 16.78564453 25.28300781 17.89746094 25.29296875 19.04296875 C25.3086792 20.06414795 25.32438965 21.08532715 25.34057617 22.13745117 C24.94283678 25.48045786 23.98833788 27.30533687 22 30 C17.60682104 32.89550431 14.21531417 33.55878366 9 33 C4.21452111 31.25145964 2.21781658 29.54461382 0 25 C-0.34057617 22.13745117 -0.34057617 22.13745117 -0.29296875 19.04296875 C-0.28330078 17.93115234 -0.27363281 16.81933594 -0.26367188 15.67382812 C-0.23853516 14.52333984 -0.21339844 13.37285156 -0.1875 12.1875 C-0.17396484 11.01767578 -0.16042969 9.84785156 -0.14648438 8.64257812 C-0.11120278 5.761248 -0.0619028 2.88086096 0 0 Z " fill="#264252" transform="translate(193,60)"/>
<path d="M0 0 C0.99 0.33 1.98 0.66 3 1 C1.8905928 4.48670834 0.73662334 7.77484237 -1 11 C1.97 11.495 1.97 11.495 5 12 C3.66511872 15.59391114 2.03977277 18.75490696 0 22 C3.28099032 21.43431201 4.91961686 20.61668588 7 18 C7.39923762 15.8546771 7.39923762 15.8546771 7.25 13.5625 C7.23453125 12.80066406 7.2190625 12.03882812 7.203125 11.25390625 C7.00665883 9.07388739 6.59405998 7.10316396 6 5 C8.51912388 5.33588318 9.67196119 5.57354954 11.25 7.625 C12.62363898 11.97485675 12.66134883 15.61431674 10.6875 19.75 C8.24550447 23.00599404 6.91585593 24.69471469 3 26 C-5.835 26.57 -5.835 26.57 -10 23 C-13.21203931 18.23732103 -13.62864569 14.56800472 -13 9 C-11 6.5 -11 6.5 -9 5 C-8.01 6.485 -8.01 6.485 -7 8 C-7.99 9.485 -7.99 9.485 -9 11 C-9.5838196 13.9149255 -9.5838196 13.9149255 -9 17 C-6.62499209 19.87640616 -6.62499209 19.87640616 -4 22 C-3.01 18.535 -3.01 18.535 -2 15 C-3.65 14.67 -5.3 14.34 -7 14 C-5.23570801 9.02790438 -2.6060834 4.56561939 0 0 Z " fill="#183746" transform="translate(42,65)"/>
<path d="M0 0 C1.42505859 0.02320313 1.42505859 0.02320313 2.87890625 0.046875 C5.4375 0.25 5.4375 0.25 8.4375 1.25 C8.1075 2.24 7.7775 3.23 7.4375 4.25 C6.66664062 4.23839844 5.89578125 4.22679687 5.1015625 4.21484375 C4.09867188 4.20582031 3.09578125 4.19679687 2.0625 4.1875 C0.56589844 4.17009766 0.56589844 4.17009766 -0.9609375 4.15234375 C-3.54682453 4.06993398 -3.54682453 4.06993398 -5.5625 5.25 C-5.5625 7.23 -5.5625 9.21 -5.5625 11.25 C-4.98242188 11.48074219 -4.40234375 11.71148437 -3.8046875 11.94921875 C1.35448633 14.10313126 5.60407903 16.1217005 9.4375 20.25 C10.11568179 23.86696953 9.70312024 25.66563546 8.1875 29 C6.28854308 31.44151604 5.28112573 32.14524645 2.4375 33.25 C-0.2890625 33.48046875 -0.2890625 33.48046875 -3.1875 33.4375 C-4.14914063 33.43105469 -5.11078125 33.42460938 -6.1015625 33.41796875 C-8.5625 33.25 -8.5625 33.25 -10.5625 32.25 C-10.2325 30.93 -9.9025 29.61 -9.5625 28.25 C-8.63566406 28.26160156 -7.70882812 28.27320312 -6.75390625 28.28515625 C-4.95759766 28.29869141 -4.95759766 28.29869141 -3.125 28.3125 C-1.93003906 28.32410156 -0.73507813 28.33570312 0.49609375 28.34765625 C3.32623341 28.58901792 3.32623341 28.58901792 4.4375 27.25 C4.47830783 25.25041636 4.48004356 23.24954746 4.4375 21.25 C3.60605469 20.87488281 2.77460937 20.49976562 1.91796875 20.11328125 C0.28794922 19.34564453 0.28794922 19.34564453 -1.375 18.5625 C-2.45394531 18.06363281 -3.53289062 17.56476563 -4.64453125 17.05078125 C-7.85033871 15.0723646 -9.05641651 13.67050651 -10.5625 10.25 C-10.45709351 4.13642371 -10.45709351 4.13642371 -7.8515625 1.5546875 C-5.03014765 -0.05342267 -3.22785677 -0.08783284 0 0 Z " fill="#1D3C4D" transform="translate(104.5625,59.75)"/>
<path d="M0 0 C2.10358381 1.54262813 2.84054159 2.68108317 4 5 C4.27262215 9.15748782 4.35327272 12.02330484 2.9375 15.9375 C1 18 1 18 -2.4375 19.125 C-6 19 -6 19 -8.4375 17.25 C-10.6621215 12.62278729 -10.8685586 8.05485458 -10 3 C-7.25675443 -0.79959983 -4.48649176 -0.48069555 0 0 Z " fill="#F7F7F8" transform="translate(181,71)"/>
<path d="M0 0 C2.93423195 1.79646854 4.47205355 2.9441071 6 6 C6.93762008 16.40604586 6.93762008 16.40604586 4.125 21.1875 C0.34512149 24.41151402 -2.67265205 24.39046133 -7.515625 24.35546875 C-10 24 -10 24 -13.0625 21.6875 C-16.43194454 17.01375435 -16.55892055 12.5793999 -16 7 C-12.69189977 -0.40384336 -7.4255274 -0.9948075 0 0 Z M-10.71875 4.71875 C-12.93832778 8.67068117 -12.75943463 12.60663519 -12 17 C-9.69338056 20.29517062 -8.3756945 21.69801828 -4.4375 22.5625 C-1.17582551 21.80980589 -0.081252 20.601565 2 18 C2.59354241 15.06377314 2.59354241 15.06377314 2.4375 11.9375 C2.43621094 10.89464844 2.43492187 9.85179688 2.43359375 8.77734375 C2.20913728 6.01574874 2.20913728 6.01574874 0.72265625 4.15625 C-1.33635922 2.77423508 -2.53273269 2.56717285 -5 2.5625 C-6.0209375 2.53349609 -6.0209375 2.53349609 -7.0625 2.50390625 C-9.15675001 2.86478418 -9.15675001 2.86478418 -10.71875 4.71875 Z " fill="#0F3144" transform="translate(133,68)"/>
<path d="M0 0 C1.32 0 2.64 0 4 0 C4 10.56 4 21.12 4 32 C2.68 32 1.36 32 0 32 C0 21.44 0 10.88 0 0 Z " fill="#223E50" transform="translate(224,60)"/>
<path d="M0 0 C1.32 0 2.64 0 4 0 C4.33 8.58 4.66 17.16 5 26 C3.35 25.67 1.7 25.34 0 25 C0 16.75 0 8.5 0 0 Z " fill="#193A49" transform="translate(193,60)"/>
<path d="M0 0 C0.32152515 3.53677664 0.4131192 5.3962104 -1.625 8.375 C-4.64835963 10.44361448 -6.40588208 10.46879799 -10 10 C-12 8 -12 8 -12.4375 5.5625 C-12 3 -12 3 -9.9375 1.1875 C-6.4483377 -0.22301242 -3.7303242 -0.21943084 0 0 Z " fill="#EAECED" transform="translate(158,80)"/>
<path d="M0 0 C0.95648438 -0.03738281 1.91296875 -0.07476562 2.8984375 -0.11328125 C5.625 0.3125 5.625 0.3125 7.9609375 1.69140625 C10.57041272 5.80163601 10.04814491 9.80767428 9.875 14.5625 C9.85695312 15.49835938 9.83890625 16.43421875 9.8203125 17.3984375 C9.77325673 19.70417015 9.70753713 22.00780945 9.625 24.3125 C8.635 24.3125 7.645 24.3125 6.625 24.3125 C6.955 22.3325 7.285 20.3525 7.625 18.3125 C6.965 18.3125 6.305 18.3125 5.625 18.3125 C5.625 17.6525 5.625 16.9925 5.625 16.3125 C6.285 16.3125 6.945 16.3125 7.625 16.3125 C7.51041307 14.87413249 7.38290884 13.43679034 7.25 12 C7.18039063 11.19949219 7.11078125 10.39898437 7.0390625 9.57421875 C6.72935574 7.04025559 6.72935574 7.04025559 4.625 4.3125 C1.95846095 3.94789547 1.95846095 3.94789547 -1 4.125 C-2.00289062 4.15207031 -3.00578125 4.17914063 -4.0390625 4.20703125 C-4.80992187 4.24183594 -5.58078125 4.27664062 -6.375 4.3125 C-6.705 3.3225 -7.035 2.3325 -7.375 1.3125 C-4.81683084 0.03341542 -2.85652006 0.07275319 0 0 Z " fill="#2E4B5B" transform="translate(152.375,67.6875)"/>
<path d="M0 0 C2.31 0 4.62 0 7 0 C7.87803368 3.73164314 8.17423601 7.16680771 8 11 C7 12 7 12 3.4375 12.0625 C2.303125 12.041875 1.16875 12.02125 0 12 C0 8.04 0 4.08 0 0 Z " fill="#667984" transform="translate(247,109)"/>
<path d="M0 0 C0.99 0 1.98 0 3 0 C2.979375 0.804375 2.95875 1.60875 2.9375 2.4375 C2.70366379 4.93354885 2.70366379 4.93354885 4 6 C4.23529412 13.29411765 4.23529412 13.29411765 3 17 C3.495 17.45375 3.99 17.9075 4.5 18.375 C6 20 6 20 6 22 C4.35 22 2.7 22 1 22 C-1.37144068 17.99819385 -1.46853867 14.92100856 -0.375 10.4375 C0.2470314 7.9832098 0.2470314 7.9832098 -1.0625 5.9375 C-1.5265625 4.9784375 -1.5265625 4.9784375 -2 4 C-1.125 1.75 -1.125 1.75 0 0 Z " fill="#123447" transform="translate(20,68)"/>
<path d="M0 0 C1.98 0 3.96 0 6 0 C8 2 8 2 8.125 4.4375 C8.08375 5.283125 8.0425 6.12875 8 7 C8 7.99 8 8.98 8 10 C8 10.66 8 11.32 8 12 C7.34 12 6.68 12 6 12 C5.67 11.34 5.34 10.68 5 10 C4.01 9.67 3.02 9.34 2 9 C2 9.99 2 10.98 2 12 C1.34 12 0.68 12 0 12 C0 8.04 0 4.08 0 0 Z " fill="#23394C" transform="translate(286,109)"/>
<path d="M0 0 C1.98 0 3.96 0 6 0 C8 2 8 2 8.1875 4.5 C8 7 8 7 7 9 C7.33 9.99 7.66 10.98 8 12 C7.34 12 6.68 12 6 12 C5.67 11.34 5.34 10.68 5 10 C4.01 9.67 3.02 9.34 2 9 C2 9.99 2 10.98 2 12 C1.34 12 0.68 12 0 12 C0 8.04 0 4.08 0 0 Z " fill="#263F51" transform="translate(223,109)"/>
<path d="M0 0 C2.4375 1.75 2.4375 1.75 4.4375 4.75 C4.6328125 7.66796875 4.6328125 7.66796875 4.5625 10.9375 C4.54445312 12.02417969 4.52640625 13.11085938 4.5078125 14.23046875 C4.47300781 15.47763672 4.47300781 15.47763672 4.4375 16.75 C3.1175 16.42 1.7975 16.09 0.4375 15.75 C0.38851562 14.97914062 0.33953125 14.20828125 0.2890625 13.4140625 C0.21429688 12.41117188 0.13953125 11.40828125 0.0625 10.375 C-0.00710937 9.37726563 -0.07671875 8.37953125 -0.1484375 7.3515625 C-0.32613964 4.59491121 -0.32613964 4.59491121 -2.5625 2.75 C-4.55071313 2.35235737 -6.55194339 2.01224651 -8.5625 1.75 C-3.42869718 -1.67253521 -3.42869718 -1.67253521 0 0 Z " fill="#35505E" transform="translate(134.5625,69.25)"/>
<path d="M0 0 C0.66 0 1.32 0 2 0 C2.56221257 11.88975473 2.56221257 11.88975473 -1 16 C-3.40545638 17.20272819 -4.94996953 17.10071472 -7.625 17.0625 C-8.85089844 17.04896484 -8.85089844 17.04896484 -10.1015625 17.03515625 C-10.72804687 17.02355469 -11.35453125 17.01195313 -12 17 C-12 16.01 -12 15.02 -12 14 C-11.071875 14.061875 -10.14375 14.12375 -9.1875 14.1875 C-6.0937639 14.2944176 -6.0937639 14.2944176 -4.37109375 12.80859375 C-2.63614714 10.52004594 -2.32767655 8.6980556 -1.875 5.875 C-1.08333333 1.08333333 -1.08333333 1.08333333 0 0 Z " fill="#103043" transform="translate(186,75)"/>
<path d="M0 0 C0.99 0 1.98 0 3 0 C3.99 1.98 4.98 3.96 6 6 C6.66 4.02 7.32 2.04 8 0 C9.32 0 10.64 0 12 0 C12 3.96 12 7.92 12 12 C11.34 12 10.68 12 10 12 C9.67 9.69 9.34 7.38 9 5 C8.34 6.98 7.68 8.96 7 11 C6.01 11 5.02 11 4 11 C3.34 8.69 2.68 6.38 2 4 C1.67 6.64 1.34 9.28 1 12 C0.67 12 0.34 12 0 12 C0 8.04 0 4.08 0 0 Z " fill="#273B4F" transform="translate(193,109)"/>
<path d="M0 0 C4.06450891 6.09676336 4.82026253 12.7985775 4 20 C2.984375 22.30078125 2.984375 22.30078125 2 24 C-0.16952347 20.44021048 -0.41724668 17.24525558 -0.6875 13.125 C-0.81705078 11.33449219 -0.81705078 11.33449219 -0.94921875 9.5078125 C-0.99732666 6.18466586 -0.66073429 3.24902427 0 0 Z " fill="#2D4952" transform="translate(73,63)"/>
<path d="M0 0 C1.32 0 2.64 0 4 0 C5.29243536 4.1196377 6.26252625 7.66831683 6 12 C5.34 12 4.68 12 4 12 C4 11.01 4 10.02 4 9 C2.35 9 0.7 9 -1 9 C-1 9.99 -1 10.98 -1 12 C-1.66 12 -2.32 12 -3 12 C-2.69230293 10.18667846 -2.37870936 8.37435655 -2.0625 6.5625 C-1.80146484 5.04849609 -1.80146484 5.04849609 -1.53515625 3.50390625 C-1 1 -1 1 0 0 Z " fill="#526472" transform="translate(212,109)"/>
<path d="M0 0 C1.32 0 2.64 0 4 0 C4.66 3.96 5.32 7.92 6 12 C5.34 12 4.68 12 4 12 C4 11.01 4 10.02 4 9 C2.35 9 0.7 9 -1 9 C-1 9.99 -1 10.98 -1 12 C-1.66 12 -2.32 12 -3 12 C-2.69230293 10.18667846 -2.37870936 8.37435655 -2.0625 6.5625 C-1.80146484 5.04849609 -1.80146484 5.04849609 -1.53515625 3.50390625 C-1 1 -1 1 0 0 Z " fill="#516371" transform="translate(275,109)"/>
<path d="M0 0 C3.79472973 0.54449764 5.27031268 2.03792388 7.6875 4.9375 C8.28949219 5.64777344 8.89148438 6.35804687 9.51171875 7.08984375 C12.61205991 11.06902177 12.07934452 14.08063963 12 19 C10.08176826 16.60221032 8.60298597 14.27214094 7.125 11.5625 C5.66410226 8.91816185 4.46631961 7.46631961 2.25 5.25 C1.5075 4.5075 0.765 3.765 0 3 C0 2.01 0 1.02 0 0 Z " fill="#163748" transform="translate(61,50)"/>
<path d="M0 0 C7.60344828 0.60344828 7.60344828 0.60344828 10 3 C9.625 5.625 9.625 5.625 9 8 C6.03 8 3.06 8 0 8 C-0.38063221 5.6739143 -0.71269945 3.33944736 -1 1 C-0.67 0.67 -0.34 0.34 0 0 Z " fill="#B3BBC0" transform="translate(137,113)"/>
<path d="M0 0 C2.4377963 -0.05397335 4.87439685 -0.09365616 7.3125 -0.125 C8.00279297 -0.14175781 8.69308594 -0.15851563 9.40429688 -0.17578125 C13.17135396 -0.21217794 14.78431704 -0.14378864 18 2 C13.21734678 5.95805784 7.89249489 5.49341342 2 5 C1.34 4.67 0.68 4.34 0 4 C0 2.68 0 1.36 0 0 Z " fill="#48606C" transform="translate(94,88)"/>
<path d="M0 0 C2.64 0 5.28 0 8 0 C8 0.66 8 1.32 8 2 C6.02 2 4.04 2 2 2 C2 2.99 2 3.98 2 5 C3.65 5 5.3 5 7 5 C7 5.66 7 6.32 7 7 C5.35 7 3.7 7 2 7 C2 7.99 2 8.98 2 10 C3.98 10 5.96 10 8 10 C8 10.66 8 11.32 8 12 C5.36 12 2.72 12 0 12 C0 8.04 0 4.08 0 0 Z " fill="#455A67" transform="translate(260,109)"/>
<path d="M0 0 C0.9590625 0.03738281 1.918125 0.07476562 2.90625 0.11328125 C4.34484375 0.15001953 4.34484375 0.15001953 5.8125 0.1875 C8.40625 0.42578125 8.40625 0.42578125 11.40625 1.42578125 C11.07625 2.41578125 10.74625 3.40578125 10.40625 4.42578125 C9.63539062 4.41417969 8.86453125 4.40257812 8.0703125 4.390625 C7.06742188 4.38160156 6.06453125 4.37257812 5.03125 4.36328125 C3.53464844 4.34587891 3.53464844 4.34587891 2.0078125 4.328125 C-0.57807453 4.24571523 -0.57807453 4.24571523 -2.59375 5.42578125 C-3.25147428 8.45512616 -3.25147428 8.45512616 -3.59375 11.42578125 C-3.92375 11.42578125 -4.25375 11.42578125 -4.59375 11.42578125 C-5.93419644 5.08912535 -5.93419644 5.08912535 -4.45703125 2.2109375 C-2.59375 0.42578125 -2.59375 0.42578125 0 0 Z " fill="#0F3043" transform="translate(101.59375,59.57421875)"/>
<path d="M0 0 C3.05917167 0.33990796 4.80401508 0.85698398 7.3125 2.6875 C9.49645069 5.68032131 9.46356672 7.36872733 9 11 C8.01 12.485 8.01 12.485 7 14 C6.01 14 5.02 14 4 14 C4.03255208 12.01432292 4.06510417 10.02864583 4.09765625 8.04296875 C4.08263217 5.79694539 4.08263217 5.79694539 3 3 C2.34 3 1.68 3 1 3 C0.67 2.01 0.34 1.02 0 0 Z " fill="#163648" transform="translate(105,75)"/>
<path d="M0 0 C2.51912388 0.33588318 3.67196119 0.57354954 5.25 2.625 C6.27344414 5.86590645 6.24563314 8.62254427 6 12 C5.01 13.485 5.01 13.485 4 15 C3.01 14.34 2.02 13.68 1 13 C0.7421875 10.9765625 0.7421875 10.9765625 0.875 8.625 C1.03140469 5.50733316 0.89099463 3.00196651 0 0 Z " fill="#324942" transform="translate(48,70)"/>
<path d="M0 0 C1.134375 0.020625 2.26875 0.04125 3.4375 0.0625 C3.4375 0.7225 3.4375 1.3825 3.4375 2.0625 C1.4575 2.0625 -0.5225 2.0625 -2.5625 2.0625 C-0.62995228 4.0870738 1.06908688 5.48355792 3.4375 7.0625 C3.1075 8.7125 2.7775 10.3625 2.4375 12.0625 C0.1275 12.0625 -2.1825 12.0625 -4.5625 12.0625 C-4.5625 11.4025 -4.5625 10.7425 -4.5625 10.0625 C-2.5825 10.0625 -0.6025 10.0625 1.4375 10.0625 C1.4375 9.0725 1.4375 8.0825 1.4375 7.0625 C-0.2125 6.7325 -1.8625 6.4025 -3.5625 6.0625 C-3.94468767 4.40635343 -4.27645102 2.73792976 -4.5625 1.0625 C-3.5625 0.0625 -3.5625 0.0625 0 0 Z " fill="#314858" transform="translate(184.5625,108.9375)"/>
<path d="M0 0 C4.68738665 0.90723613 9.34193744 1.9547267 14 3 C13.67 3.66 13.34 4.32 13 5 C13.66 5.66 14.32 6.32 15 7 C9.77825222 7.31330487 6.42308959 6.88015136 2 4 C0.625 1.8125 0.625 1.8125 0 0 Z " fill="#1B394B" transform="translate(194,86)"/>
<path d="M0 0 C1.45212891 -0.03867188 1.45212891 -0.03867188 2.93359375 -0.078125 C5.5625 0.25 5.5625 0.25 7.41015625 1.765625 C7.98056641 2.50039062 7.98056641 2.50039062 8.5625 3.25 C7.9025 3.91 7.2425 4.57 6.5625 5.25 C5.9025 4.92 5.2425 4.59 4.5625 4.25 C2.68870395 4.17966231 0.81248898 4.1656978 -1.0625 4.1875 C-2.56683594 4.20103516 -2.56683594 4.20103516 -4.1015625 4.21484375 C-5.25785156 4.23224609 -5.25785156 4.23224609 -6.4375 4.25 C-6.7675 3.26 -7.0975 2.27 -7.4375 1.25 C-4.85741408 -0.04004296 -2.88008426 0.04589776 0 0 Z " fill="#0F3144" transform="translate(152.4375,67.75)"/>
<path d="M0 0 C1.875 0.625 1.875 0.625 4 2 C4.72693904 3.97888961 5.39816251 5.97954558 6 8 C6.66 8.33 7.32 8.66 8 9 C6.02 9.99 6.02 9.99 4 11 C2 9 2 9 1.1875 6.4375 C0.795625 5.633125 0.40375 4.82875 0 4 C-2.54775306 3.10613836 -2.54775306 3.10613836 -5 3 C-5 2.67 -5 2.34 -5 2 C-3.35 2 -1.7 2 0 2 C0 1.34 0 0.68 0 0 Z " fill="#294445" transform="translate(26,88)"/>
<path d="M0 0 C-3 2 -3 2 -6.0625 3.3125 C-9.40413497 5.23216264 -10.01589421 6.35880858 -11 10 C-11.99 9.67 -12.98 9.34 -14 9 C-13.67357189 6.06214703 -13.1175594 4.18123741 -11.5 1.6875 C-7.79612992 -0.8126123 -4.34139932 -0.33395379 0 0 Z " fill="#153547" transform="translate(132,68)"/>
<path d="M0 0 C0.33 0 0.66 0 1 0 C1.03738281 0.83402344 1.07476562 1.66804688 1.11328125 2.52734375 C1.52381216 9.5546669 2.44234969 15.43907095 5 22 C3.68 22.33 2.36 22.66 1 23 C-1.55975195 18.2029076 -1.03828449 13.92381452 -0.625 8.6875 C-0.56828125 7.85154297 -0.5115625 7.01558594 -0.453125 6.15429688 C-0.31240504 4.10213072 -0.1576007 2.05093882 0 0 Z " fill="#3A4F41" transform="translate(9,72)"/>
<path d="M0 0 C0.33 0 0.66 0 1 0 C1 2.97 1 5.94 1 9 C-0.66611905 9.042721 -2.33382885 9.04063832 -4 9 C-5 8 -5 8 -5.0625 5.4375 C-5.041875 4.633125 -5.02125 3.82875 -5 3 C-4.360625 2.87625 -3.72125 2.7525 -3.0625 2.625 C-2.0415625 2.315625 -2.0415625 2.315625 -1 2 C-0.67 1.34 -0.34 0.68 0 0 Z " fill="#8A969C" transform="translate(153,112)"/>
<path d="M0 0 C2.125 0.9375 2.125 0.9375 4 2 C3.67 3.65 3.34 5.3 3 7 C1.68 7 0.36 7 -1 7 C-1.33 7.99 -1.66 8.98 -2 10 C-2 7.03 -2 4.06 -2 1 C-1.34 0.67 -0.68 0.34 0 0 Z " fill="#95A0A7" transform="translate(118,114)"/>
<path d="M0 0 C3.08914085 0.33097938 4.0026931 1.00284699 6.1875 3.3125 C7.79407709 5.69466602 8.58574686 7.20379133 9 10 C8.01 10 7.02 10 6 10 C4.39453125 8.3203125 4.39453125 8.3203125 2.8125 6.125 C2.01779297 5.04605469 2.01779297 5.04605469 1.20703125 3.9453125 C0 2 0 2 0 0 Z " fill="#1C3B4C" transform="translate(11,94)"/>
<path d="M0 0 C0.99 0 1.98 0 3 0 C3 0.99 3 1.98 3 3 C-1.41100077 6.96990069 -6.43296933 6.29186374 -12 6 C-11.34 4.68 -10.68 3.36 -10 2 C-9.67 2.33 -9.34 2.66 -9 3 C-5.63370749 3.14636054 -3.21580438 3.07193479 0 2 C0 1.34 0 0.68 0 0 Z " fill="#0B2E42" transform="translate(157,86)"/>
<path d="M0 0 C0.66 1.32 1.32 2.64 2 4 C-0.0625 6.5625 -0.0625 6.5625 -3 9 C-6.8125 8.8125 -6.8125 8.8125 -10 8 C-7 6 -7 6 -4.875 5 C-2.82955462 4.14139842 -2.82955462 4.14139842 -2 2 C-1.34 2 -0.68 2 0 2 C0 1.34 0 0.68 0 0 Z " fill="#183749" transform="translate(215,83)"/>
<path d="M0 0 C0.33 0.66 0.66 1.32 1 2 C1.99 2.33 2.98 2.66 4 3 C4.33 5.64 4.66 8.28 5 11 C3.68 11.33 2.36 11.66 1 12 C0.03929566 9.11788698 -0.10581883 7.30149956 -0.0625 4.3125 C-0.05347656 3.50425781 -0.04445313 2.69601563 -0.03515625 1.86328125 C-0.02355469 1.24839844 -0.01195313 0.63351563 0 0 Z " fill="#244252" transform="translate(117,75)"/>
<path d="M0 0 C2.125 0.375 2.125 0.375 4 1 C4 2.65 4 4.3 4 6 C2.35 6.33 0.7 6.66 -1 7 C-1.625 4.625 -1.625 4.625 -2 2 C-1.34 1.34 -0.68 0.68 0 0 Z " fill="#98A3AB" transform="translate(125,114)"/>
<path d="M0 0 C2.64 0 5.28 0 8 0 C8 0.66 8 1.32 8 2 C7.01 2 6.02 2 5 2 C5 5.3 5 8.6 5 12 C4.34 12 3.68 12 3 12 C3 8.7 3 5.4 3 2 C2.01 2 1.02 2 0 2 C0 1.34 0 0.68 0 0 Z " fill="#274352" transform="translate(235,109)"/>
<path d="M0 0 C0.33 0.66 0.66 1.32 1 2 C3.02463255 2.65213292 3.02463255 2.65213292 5 3 C5 4.98 5 6.96 5 9 C3.35 9 1.7 9 0 9 C0 6.03 0 3.06 0 0 Z " fill="#96A1A7" transform="translate(160,112)"/>
<path d="M0 0 C2.50440935 1.77732276 3.02798883 3.4948813 3.9375 6.375 C2.6175 6.705 1.2975 7.035 -0.0625 7.375 C-0.3925 6.055 -0.7225 4.735 -1.0625 3.375 C-3.3725 3.045 -5.6825 2.715 -8.0625 2.375 C-3.09375 -0.9375 -3.09375 -0.9375 0 0 Z " fill="#284353" transform="translate(184.0625,68.625)"/>
<path d="M0 0 C0 0.66 0 1.32 0 2 C-1.26607607 2.53229326 -2.53810412 3.05044544 -3.8125 3.5625 C-4.52019531 3.85253906 -5.22789063 4.14257812 -5.95703125 4.44140625 C-8 5 -8 5 -11 4 C-10.67 3.01 -10.34 2.02 -10 1 C-6.76421296 -0.31828361 -3.44785988 -0.07836045 0 0 Z " fill="#123446" transform="translate(43,96)"/>
<path d="M0 0 C3.0466145 1.01553817 5.31143836 2.20762558 8 4 C7.67 4.33 7.34 4.66 7 5 C5.47480724 4.91062197 3.95318071 4.75462854 2.4375 4.5625 C1.19806641 4.40974609 1.19806641 4.40974609 -0.06640625 4.25390625 C-0.70449219 4.17011719 -1.34257813 4.08632813 -2 4 C-2 3.01 -2 2.02 -2 1 C-1.34 0.67 -0.68 0.34 0 0 Z " fill="#123447" transform="translate(35,55)"/>
<path d="M0 0 C-1.07401108 2.91517292 -1.77810176 4.77810176 -4 7 C-4.99 6.34 -5.98 5.68 -7 5 C-7 4.01 -7 3.02 -7 2 C-4.35261084 0.5393715 -3.10551666 0 0 0 Z " fill="#2C4643" transform="translate(47,77)"/>
<path d="M0 0 C3.25543229 0.34879632 4.01873107 1.02133261 6.25 3.5625 C6.8275 4.366875 7.405 5.17125 8 6 C6.25 6.75 6.25 6.75 4 7 C1.75 5.25 1.75 5.25 0 3 C0 2.01 0 1.02 0 0 Z " fill="#25414A" transform="translate(61,50)"/>
<path d="M0 0 C-0.1875 1.8125 -0.1875 1.8125 -1 4 C-3.5625 5.75 -3.5625 5.75 -6 7 C-6 3 -6 3 -4.6875 1.25 C-3 0 -3 0 0 0 Z " fill="#1A3A4B" transform="translate(138,85)"/>
<path d="M0 0 C1.17949219 0.01804688 2.35898437 0.03609375 3.57421875 0.0546875 C4.92966797 0.08949219 4.92966797 0.08949219 6.3125 0.125 C6.3125 0.455 6.3125 0.785 6.3125 1.125 C3.6725 1.125 1.0325 1.125 -1.6875 1.125 C-1.6875 1.785 -1.6875 2.445 -1.6875 3.125 C-4.3275 2.795 -6.9675 2.465 -9.6875 2.125 C-6.05554504 -0.29630331 -4.30400652 -0.08522785 0 0 Z " fill="#082B41" transform="translate(40.6875,42.875)"/>
<path d="M0 0 C0.66 0.33 1.32 0.66 2 1 C1.67 2.65 1.34 4.3 1 6 C-0.65 5.67 -2.3 5.34 -4 5 C-3.67 3.68 -3.34 2.36 -3 1 C-2.01 1.33 -1.02 1.66 0 2 C0 1.34 0 0.68 0 0 Z " fill="#819098" transform="translate(145,115)"/>
<path d="M0 0 C0.99 0.99 1.98 1.98 3 3 C2.01 4.485 2.01 4.485 1 6 C0.34 6 -0.32 6 -1 6 C-1.33 6.66 -1.66 7.32 -2 8 C-2.6875 6.25 -2.6875 6.25 -3 4 C-1.5625 1.75 -1.5625 1.75 0 0 Z " fill="#284344" transform="translate(32,70)"/>
<path d="M0 0 C0.33 0.66 0.66 1.32 1 2 C1.66 2.33 2.32 2.66 3 3 C-0.13498292 4.85776765 -2.37471432 5.20140476 -6 5 C-6.33 4.34 -6.66 3.68 -7 3 C-4.69 2.01 -2.38 1.02 0 0 Z " fill="#264348" transform="translate(57,105)"/>
<path d="M0 0 C0.66 2.97 1.32 5.94 2 9 C0.68 8.67 -0.64 8.34 -2 8 C-2.33 5.69 -2.66 3.38 -3 1 C-1 0 -1 0 0 0 Z " fill="#092D47" transform="translate(32,76)"/>
<path d="M0 0 C3.63 0.66 7.26 1.32 11 2 C11 2.33 11 2.66 11 3 C7.37 3.33 3.74 3.66 0 4 C0 2.68 0 1.36 0 0 Z " fill="#0B2D40" transform="translate(94,88)"/>
<path d="M0 0 C2 3 2 3 1.75 6.0625 C1 9 1 9 -1 11 C-1.125 3.375 -1.125 3.375 0 0 Z " fill="#0D3045" transform="translate(73,83)"/>
<path d="M0 0 C0.66 0.33 1.32 0.66 2 1 C2 3.31 2 5.62 2 8 C1.01 8.495 1.01 8.495 0 9 C-1.125 2.25 -1.125 2.25 0 0 Z " fill="#1C3C45" transform="translate(52,74)"/>
<path d="M0 0 C0.66 0 1.32 0 2 0 C2 2.64 2 5.28 2 8 C1.01 7.67 0.02 7.34 -1 7 C-1.04254356 5.00045254 -1.04080783 2.99958364 -1 1 C-0.67 0.67 -0.34 0.34 0 0 Z " fill="#072A3E" transform="translate(137,76)"/>
<path d="M0 0 C2.97 0 5.94 0 9 0 C6.01353231 1.99097846 3.40312738 2.94124926 0 4 C0 2.68 0 1.36 0 0 Z " fill="#0C2F42" transform="translate(123,68)"/>
<path d="M0 0 C1.32 0 2.64 0 4 0 C4 1.65 4 3.3 4 5 C2.68 5 1.36 5 0 5 C0 3.35 0 1.7 0 0 Z " fill="#F4F5F6" transform="translate(288,111)"/>
<path d="M0 0 C1.32 0 2.64 0 4 0 C4 1.65 4 3.3 4 5 C2.68 5 1.36 5 0 5 C0 3.35 0 1.7 0 0 Z " fill="#F4F6F6" transform="translate(225,111)"/>
<path d="M0 0 C1.98 0 3.96 0 6 0 C5.67 0.66 5.34 1.32 5 2 C5.66 2.66 6.32 3.32 7 4 C4.69 4 2.38 4 0 4 C0 2.68 0 1.36 0 0 Z " fill="#4B626E" transform="translate(202,89)"/>
<path d="M0 0 C-0.33 1.32 -0.66 2.64 -1 4 C-3.64 3.34 -6.28 2.68 -9 2 C-4 -1.33333333 -4 -1.33333333 0 0 Z " fill="#2C4757" transform="translate(135,69)"/>
<path d="M0 0 C1.08667969 0.29197266 1.08667969 0.29197266 2.1953125 0.58984375 C2.74960938 0.74582031 3.30390625 0.90179688 3.875 1.0625 C3.875 1.3925 3.875 1.7225 3.875 2.0625 C-0.58 2.5575 -0.58 2.5575 -5.125 3.0625 C-5.455 2.0725 -5.785 1.0825 -6.125 0.0625 C-3.57797384 -1.21101308 -2.6967055 -0.73941925 0 0 Z " fill="#3B5361" transform="translate(151.125,68.9375)"/>
<path d="M0 0 C0.5625 1.9375 0.5625 1.9375 1 4 C0 5 0 5 -3.0625 5.0625 C-4.5165625 5.0315625 -4.5165625 5.0315625 -6 5 C-2.25 1.125 -2.25 1.125 0 0 Z " fill="#23404E" transform="translate(25,46)"/>
<path d="M0 0 C3.3 0 6.6 0 10 0 C7.23776722 2.76223278 4.79293383 2.57856291 1 3 C0.67 2.01 0.34 1.02 0 0 Z " fill="#123343" transform="translate(46,109)"/>
<path d="M0 0 C0.33 0 0.66 0 1 0 C1 3.3 1 6.6 1 10 C0.01 9.67 -0.98 9.34 -2 9 C-1.34 6.03 -0.68 3.06 0 0 Z " fill="#D3D7DA" transform="translate(202,111)"/>
<path d="M0 0 C0.99 0 1.98 0 3 0 C3 0.99 3 1.98 3 3 C1.02 3.99 -0.96 4.98 -3 6 C-3 5.01 -3 4.02 -3 3 C-2.01 2.67 -1.02 2.34 0 2 C0 1.34 0 0.68 0 0 Z " fill="#18384A" transform="translate(157,86)"/>
<path d="M0 0 C0.66 0 1.32 0 2 0 C2.33 1.65 2.66 3.3 3 5 C1.68 5 0.36 5 -1 5 C-0.67 3.35 -0.34 1.7 0 0 Z " fill="#E4E7E8" transform="translate(110,114)"/>
<path d="M0 0 C2.64 0 5.28 0 8 0 C4.81237635 2.12508244 2.73487777 2.5020163 -1 3 C-0.67 2.01 -0.34 1.02 0 0 Z " fill="#082C40" transform="translate(174,68)"/>
</svg>
