<?xml version="1.0" encoding="UTF-8"?>
<svg version="1.1" xmlns="http://www.w3.org/2000/svg" width="413" height="122">
<path d="M0 0 C136.29 0 272.58 0 413 0 C413 40.26 413 80.52 413 122 C276.71 122 140.42 122 0 122 C0 81.74 0 41.48 0 0 Z " fill="#FDFDFD" transform="translate(0,0)"/>
<path d="M0 0 C6.54863815 4.37399605 11.76934517 10.35672683 14 18 C14.48376377 21.40484326 14.57146759 24.75136818 14.5625 28.1875 C14.56080811 29.11498047 14.55911621 30.04246094 14.55737305 30.99804688 C14.31050191 40.45015651 11.58747393 46.69503128 5.5 54 C-2.50511441 60.40409153 -8.3109486 62.51928052 -18.5390625 62.390625 C-25.01615158 61.65957657 -28.5307955 58.4692045 -33 54 C-33.33 66.54 -33.66 79.08 -34 92 C-39.28 92 -44.56 92 -50 92 C-50 61.31 -50 30.62 -50 -1 C-44.72 -1 -39.44 -1 -34 -1 C-33.67 1.64 -33.34 4.28 -33 7 C-32.48050781 6.51789062 -31.96101563 6.03578125 -31.42578125 5.5390625 C-30.72839844 4.90742187 -30.03101562 4.27578125 -29.3125 3.625 C-28.62800781 2.99851562 -27.94351563 2.37203125 -27.23828125 1.7265625 C-20.06142884 -3.80950864 -8.00219769 -4.09767709 0 0 Z " fill="#0C1723" transform="translate(101,30)"/>
<path d="M0 0 C5.28 0 10.56 0 16 0 C16 17.49 16 34.98 16 53 C16.99 53 17.98 53 19 53 C19.23332031 52.44828125 19.46664063 51.8965625 19.70703125 51.328125 C21.34019284 48.38744733 23.39339207 46.20922749 25.6875 43.75 C29.40268351 39.75068269 32.98835895 35.69774903 36.4296875 31.4609375 C38.337848 29.6856837 39.4030088 29.20756621 42 29 C44.359375 29.77734375 44.359375 29.77734375 46.75 30.9375 C47.54921875 31.31777344 48.3484375 31.69804687 49.171875 32.08984375 C49.77515625 32.39019531 50.3784375 32.69054688 51 33 C49.56827327 36.26160985 47.80509589 38.4457494 45.3046875 40.96875 C44.58925781 41.70480469 43.87382812 42.44085938 43.13671875 43.19921875 C41.62506184 44.73698373 40.10940664 46.27082819 38.58984375 47.80078125 C37.87699219 48.53683594 37.16414063 49.27289063 36.4296875 50.03125 C35.77210449 50.69705078 35.11452148 51.36285156 34.43701172 52.04882812 C32.60465771 54.13292232 32.60465771 54.13292232 33 58 C34.14212692 59.93212978 34.14212692 59.93212978 35.78125 61.7578125 C36.37276855 62.46156006 36.96428711 63.16530762 37.57373047 63.89038086 C38.20939941 64.62780518 38.84506836 65.36522949 39.5 66.125 C40.78420445 67.64944457 42.0680601 69.17418305 43.3515625 70.69921875 C43.97708008 71.43575684 44.60259766 72.17229492 45.24707031 72.93115234 C47.48781535 75.57573082 49.69143031 78.24548177 51.875 80.9375 C52.49117188 81.68902344 53.10734375 82.44054687 53.7421875 83.21484375 C55 85 55 85 55 87 C52.90049414 87.86555948 50.7952093 88.71711277 48.6875 89.5625 C47.51574219 90.03816406 46.34398437 90.51382813 45.13671875 91.00390625 C42 92 42 92 39 91 C37.71655273 89.5480957 37.71655273 89.5480957 36.43359375 87.67578125 C35.71187988 86.63635376 35.71187988 86.63635376 34.97558594 85.57592773 C34.46801758 84.82899658 33.96044922 84.08206543 33.4375 83.3125 C32.36892568 81.76792737 31.29990763 80.22366165 30.23046875 78.6796875 C29.69341309 77.89948242 29.15635742 77.11927734 28.60302734 76.31542969 C26.18943714 72.82921441 23.7217882 69.38256784 21.25 65.9375 C19.14625 62.9984375 19.14625 62.9984375 17 60 C16.67 70.23 16.34 80.46 16 91 C10.72 91 5.44 91 0 91 C0 60.97 0 30.94 0 0 Z " fill="#0D1724" transform="translate(291,0)"/>
<path d="M0 0 C5.28 0 10.56 0 16 0 C16.01458252 1.27117676 16.02916504 2.54235352 16.04418945 3.85205078 C16.10229807 8.58231292 16.17953048 13.3121053 16.26245117 18.04199219 C16.29564141 20.0865108 16.32369163 22.13111974 16.34643555 24.17578125 C16.38008993 27.12018206 16.43241166 30.06375954 16.48828125 33.0078125 C16.49467117 33.9174173 16.5010611 34.82702209 16.50764465 35.76419067 C16.62549438 40.88704129 17.08644209 44.59937176 20 49 C24.25821391 51.83880927 28.00338745 51.51165313 33 51 C37.29555824 49.26349773 39.05896113 47.15734251 41 43 C41.46703594 39.70480995 41.48849653 36.42990548 41.51171875 33.10546875 C41.52966995 32.15811356 41.54762115 31.21075836 41.56611633 30.23469543 C41.62015087 27.21900843 41.65409327 24.2034791 41.6875 21.1875 C41.7206791 19.13864997 41.75516931 17.08982072 41.79101562 15.04101562 C41.87587356 10.02745762 41.94271765 5.01394583 42 0 C47.61 0 53.22 0 59 0 C59 20.46 59 40.92 59 62 C53.39 62 47.78 62 42 62 C41.505 59.03 41.505 59.03 41 56 C40.319375 56.598125 39.63875 57.19625 38.9375 57.8125 C30.90563841 63.79367353 22.62928703 64.1578301 13 63 C7.46463186 61.03054287 4.47718151 58.30385601 1.91210938 53.07421875 C-0.47518766 47.56214033 -0.51268874 42.55419544 -0.390625 36.62109375 C-0.38496521 35.56841812 -0.37930542 34.51574249 -0.37347412 33.4311676 C-0.35124884 30.09946426 -0.30107768 26.7688732 -0.25 23.4375 C-0.22991714 21.16603126 -0.21166951 18.8945455 -0.1953125 16.62304688 C-0.15142933 11.08160872 -0.08249774 5.54099234 0 0 Z " fill="#101A27" transform="translate(150,29)"/>
<path d="M0 0 C4.53996294 2.7187494 9.33041098 6.8295283 11.03196716 11.97357178 C11.45464883 14.34318132 11.53001713 16.54661519 11.52368164 18.95410156 C11.52360611 19.91479553 11.52353058 20.8754895 11.52345276 21.86529541 C11.51829147 22.89459167 11.51313019 23.92388794 11.5078125 24.984375 C11.50639755 26.04412537 11.5049826 27.10387573 11.50352478 28.19573975 C11.49793007 31.57843862 11.4853785 34.96107115 11.47265625 38.34375 C11.46764057 40.63801988 11.46307778 42.93229079 11.45898438 45.2265625 C11.44796236 50.84898387 11.43070132 56.47135569 11.41015625 62.09375 C6.13015625 62.09375 0.85015625 62.09375 -4.58984375 62.09375 C-4.59918945 60.79228027 -4.60853516 59.49081055 -4.61816406 58.14990234 C-4.65812422 53.30776105 -4.72390032 48.46625107 -4.79736328 43.62451172 C-4.82553788 41.53149544 -4.84676984 39.43837346 -4.86083984 37.34521484 C-4.88231769 34.33115663 -4.92899363 31.31836463 -4.98046875 28.3046875 C-4.98169739 27.37320892 -4.98292603 26.44173035 -4.98419189 25.48202515 C-5.11219377 19.76659119 -5.74787441 16.42709342 -9.58984375 12.09375 C-14.76916789 10.36730862 -20.29142838 10.56702981 -25.58984375 11.78125 C-28.37327248 13.6078751 -28.63967568 14.87682595 -29.58984375 18.09375 C-29.91856836 21.46253164 -29.96218448 24.82398506 -30.00390625 28.20703125 C-30.0232724 29.17658249 -30.04263855 30.14613373 -30.06259155 31.14506531 C-30.12221811 34.23203828 -30.16870515 37.31904888 -30.21484375 40.40625 C-30.25303909 42.50327118 -30.29209173 44.60027694 -30.33203125 46.69726562 C-30.42790584 51.82930131 -30.51199952 56.96141043 -30.58984375 62.09375 C-36.19984375 62.09375 -41.80984375 62.09375 -47.58984375 62.09375 C-47.58984375 41.63375 -47.58984375 21.17375 -47.58984375 0.09375 C-41.97984375 0.09375 -36.36984375 0.09375 -30.58984375 0.09375 C-30.58984375 2.40375 -30.58984375 4.71375 -30.58984375 7.09375 C-29.90277344 6.60003906 -29.21570313 6.10632812 -28.5078125 5.59765625 C-27.15623047 4.63666016 -27.15623047 4.63666016 -25.77734375 3.65625 C-24.88402344 3.01816406 -23.99070313 2.38007813 -23.0703125 1.72265625 C-16.89119961 -2.33512339 -6.92614082 -2.42362695 0 0 Z " fill="#0F1926" transform="translate(267.58984375,28.90625)"/>
<path d="M0 0 C-1.12451727 2.9719385 -2.22293791 5.33440687 -4 8 C-4.804375 7.67 -5.60875 7.34 -6.4375 7 C-11.70180652 5.52229992 -16.78266099 5.260887 -22 7 C-22.41890218 9.78938212 -22.41890218 9.78938212 -22 13 C-18.05318159 17.42102025 -13.4036934 21.07614377 -8.81640625 24.80664062 C0.0280307 32.14232069 0.0280307 32.14232069 1.84765625 37.4921875 C2.40303083 43.65179644 1.70373192 47.94839095 -2 53 C-6.77680425 57.65109888 -11.97114658 60.35238229 -18.71044922 60.46728516 C-19.72002686 60.4525415 -19.72002686 60.4525415 -20.75 60.4375 C-21.45012207 60.43282715 -22.15024414 60.4281543 -22.87158203 60.42333984 C-29.57140272 60.2335913 -36.12219632 58.87780368 -41 54 C-40.82194873 50.61702587 -40.21162756 49.23727939 -37.9375 46.6875 C-37.298125 46.130625 -36.65875 45.57375 -36 45 C-35.43152344 45.3609375 -34.86304688 45.721875 -34.27734375 46.09375 C-29.38849869 49.03195404 -25.87231253 50.92114706 -20 50 C-17.44148975 49.18547684 -17.44148975 49.18547684 -16 47 C-15.24145004 43.55735017 -14.95848381 42.22870018 -16 39 C-18.62002353 35.83914592 -21.72686612 33.45732256 -25 31 C-35.85462273 22.85041817 -35.85462273 22.85041817 -38 18 C-38.7548733 12.69204881 -38.68242097 8.44358282 -36.375 3.5625 C-26.3913203 -7.20936494 -12.43999203 -5.6868535 0 0 Z " fill="#0D1724" transform="translate(42,32)"/>
<path d="M0 0 C5.28 0 10.56 0 16 0 C16 30.03 16 60.06 16 91 C10.72 91 5.44 91 0 91 C0 60.97 0 30.94 0 0 Z " fill="#0B1522" transform="translate(123,0)"/>
<path d="M0 0 C4.91285036 3.09327615 7.35386204 6.50761004 9 12 C9.45290495 15.11537385 9.52447034 18.16743449 9.5 21.3125 C9.49500488 22.15047119 9.49000977 22.98844238 9.48486328 23.85180664 C9.29944087 30.43941744 8.25330877 35.75911558 4 41 C0.73894361 44.04365263 -1.68437164 45.21530176 -6.0625 45.4375 C-11.65025886 44.8166379 -13.80692932 43.22081651 -17.6875 39.25 C-23.03555519 31.73381433 -22.75600435 22.88305108 -22 14 C-20.41448503 7.54983682 -17.43550143 3.70076693 -12 0 C-7.79493509 -1.4016883 -4.2813621 -1.05387375 0 0 Z " fill="#FAFBFB" transform="translate(89,38)"/>
<path d="M0 0 C16.49965908 7.66797758 32.74924222 15.82204275 49 24 C49 27.63 49 31.26 49 35 C42.18363895 38.42049948 35.3659929 41.83841869 28.54711914 45.25390625 C26.22547065 46.41725173 23.90418092 47.58131345 21.58325195 48.74609375 C18.25565153 50.41592865 14.92678795 52.08322054 11.59765625 53.75 C10.55287613 54.2749707 9.50809601 54.79994141 8.43165588 55.34082031 C6.99027504 56.06156738 6.99027504 56.06156738 5.51977539 56.796875 C4.66928116 57.22323242 3.81878693 57.64958984 2.94252014 58.08886719 C1 59 1 59 0 59 C0 55.37 0 51.74 0 48 C11.88 42.06 23.76 36.12 36 30 C32.39620891 27.29715668 28.89592647 25.3683758 24.86328125 23.4609375 C24.18323532 23.13461334 23.50318939 22.80828918 22.80253601 22.47207642 C20.64114307 21.43557759 18.4770312 20.40492702 16.3125 19.375 C14.1376515 18.3371405 11.96342189 17.29803081 9.79032898 16.25650024 C8.4403764 15.6097862 7.08933835 14.96533226 5.73713684 14.32333374 C1.11164233 12.11164233 1.11164233 12.11164233 0 11 C-0.07226502 9.14712498 -0.0838122 7.29166122 -0.0625 5.4375 C-0.05347656 4.42558594 -0.04445313 3.41367187 -0.03515625 2.37109375 C-0.02355469 1.58863281 -0.01195312 0.80617188 0 0 Z " fill="#0D1622" transform="translate(361,30)"/>
<path d="M0 0 C5.28 0 10.56 0 16 0 C16 2.97 16 5.94 16 9 C15.67 9 15.34 9 15 9 C15 6.69 15 4.38 15 2 C10.71 2 6.42 2 2 2 C2 31.37 2 60.74 2 91 C6.29 91 10.58 91 15 91 C15 78.79 15 66.58 15 54 C15.33 54 15.66 54 16 54 C16 66.87 16 79.74 16 93 C10.72 93 5.44 93 0 93 C0 62.31 0 31.62 0 0 Z " fill="#19222D" transform="translate(51,29)"/>
<path d="M0 0 C3 0.25 3 0.25 5 2.25 C5.333728 5.38704316 5.52849028 7.41554166 3.8125 10.125 C1.31963619 11.67229478 -0.11967335 11.75405716 -3 11.25 C-4.875 9.5625 -4.875 9.5625 -6 7.25 C-5.67747519 2.7346526 -4.81889451 0.40157454 0 0 Z " fill="#81858B" transform="translate(366,13.75)"/>
<path d="M0 0 C4.875 0.875 4.875 0.875 6 2 C6.04063832 3.66617115 6.042721 5.33388095 6 7 C5.01 7.495 5.01 7.495 4 8 C3.67 7.01 3.34 6.02 3 5 C2.34 4.67 1.68 4.34 1 4 C0.375 1.9375 0.375 1.9375 0 0 Z " fill="#DCDDDF" transform="translate(364,15)"/>
</svg>
