<?xml version="1.0" encoding="UTF-8"?>
<svg version="1.1" xmlns="http://www.w3.org/2000/svg" width="300" height="215">
<path d="M0 0 C99 0 198 0 300 0 C300 70.95 300 141.9 300 215 C201 215 102 215 0 215 C0 144.05 0 73.1 0 0 Z " fill="#EEEFED" transform="translate(0,0)"/>
<path d="M0 0 C1.09148411 0.91243021 2.16873827 1.84217559 3.23046875 2.7890625 C4.60138672 3.88347656 4.60138672 3.88347656 6 5 C9.40451771 3.86516076 9.6005564 3.44722063 11.1875 0.4375 C11.785625 -0.696875 12.38375 -1.83125 13 -3 C15.19950957 -0.80049043 15.5611184 0.32674982 16.40234375 3.26171875 C16.65161621 4.12563232 16.90088867 4.9895459 17.15771484 5.87963867 C17.41504395 6.80623291 17.67237305 7.73282715 17.9375 8.6875 C18.20256348 9.63923096 18.46762695 10.59096191 18.74072266 11.5715332 C19.50999836 14.37700179 20.26097137 17.18642348 21 20 C21.28206299 21.07314453 21.28206299 21.07314453 21.56982422 22.16796875 C25.94400717 39.40251178 26.23262577 58.9285828 16.95800781 74.63720703 C7.29629566 89.82166258 -7.45660136 100.53021063 -25 105 C-29.43349503 105.36010455 -33.54098743 105.24500069 -38 105 C-38 108.96 -38 112.92 -38 117 C-36.7625 116.7525 -35.525 116.505 -34.25 116.25 C-31.39536974 115.67907395 -30.38985598 115.7543088 -27.8972168 117.32519531 C-24.88214876 121.57601058 -25.44890599 125.88377791 -25.50390625 130.96875 C-25.50245102 132.04120972 -25.50099579 133.11366943 -25.49949646 134.21862793 C-25.50115556 136.48480955 -25.51271792 138.75100243 -25.53344727 141.01708984 C-25.56239273 144.4871402 -25.55405748 147.95566221 -25.54101562 151.42578125 C-25.5472533 153.6276116 -25.55564447 155.82943712 -25.56640625 158.03125 C-25.56347061 159.06987183 -25.56053497 160.10849365 -25.55751038 161.17858887 C-25.57019455 162.14639282 -25.58287872 163.11419678 -25.59594727 164.11132812 C-25.60135025 164.9608606 -25.60675323 165.81039307 -25.61231995 166.68566895 C-26.09258566 169.55270803 -26.97469275 170.93139874 -29 173 C-32.91795996 173.56988508 -35.07240983 173.59460908 -38.4375 171.4375 C-40 169 -40 169 -40 162 C-45.94 162 -51.88 162 -58 162 C-58 168.6 -58 175.2 -58 182 C-64.6 182 -71.2 182 -78 182 C-78 175.4 -78 168.8 -78 162 C-85.75700694 162.65030324 -85.75700694 162.65030324 -90.6875 166.9375 C-95.90717957 172.19534908 -99.9102116 173.30896179 -107.3125 173.4375 C-113.12035942 173.36937262 -116.96114798 172.78774398 -121.6796875 169.38671875 C-123 168 -123 168 -124 165 C-124.66 165 -125.32 165 -126 165 C-125.98428955 165.62044189 -125.9685791 166.24088379 -125.95239258 166.88012695 C-125.89003786 169.69082528 -125.85100852 172.50137812 -125.8125 175.3125 C-125.78736328 176.28896484 -125.76222656 177.26542969 -125.73632812 178.27148438 C-125.72666016 179.20927734 -125.71699219 180.14707031 -125.70703125 181.11328125 C-125.6913208 181.97735596 -125.67561035 182.84143066 -125.65942383 183.73168945 C-126 186 -126 186 -127.3034668 187.78198242 C-130.14034844 189.81870749 -132.63303966 189.35441688 -136 189 C-138.4375 187.75 -138.4375 187.75 -140 186 C-140 184.68 -140 183.36 -140 182 C-145.94 182 -151.88 182 -158 182 C-158 179.36 -158 176.72 -158 174 C-158.7734375 174.01160156 -159.546875 174.02320313 -160.34375 174.03515625 C-166.33936364 174.08709845 -172.07302983 173.91184156 -178 173 C-178 175.97 -178 178.94 -178 182 C-184.6 182 -191.2 182 -198 182 C-198 155.6 -198 129.2 -198 102 C-171.6 102 -145.2 102 -118 102 C-118 106.95 -118 111.9 -118 117 C-116.68 116.67 -115.36 116.34 -114 116 C-105.21272411 115.16651855 -98.29849729 115.79435674 -91 121 C-85.31955671 125.72347876 -82.8981954 131.98784288 -81 139 C-81 139.99 -81 140.98 -81 142 C-80.01 142 -79.02 142 -78 142 C-78.01571045 141.42032471 -78.0314209 140.84064941 -78.04760742 140.2434082 C-78.11022791 137.59987261 -78.14907518 134.95649345 -78.1875 132.3125 C-78.21263672 131.40048828 -78.23777344 130.48847656 -78.26367188 129.54882812 C-78.35921537 120.79067423 -78.35921537 120.79067423 -75 117 C-71.5625 115.9375 -71.5625 115.9375 -68 116 C-65.58718117 117.84136174 -64.34849087 119.30301826 -63 122 C-62.54625 121.505 -62.0925 121.01 -61.625 120.5 C-60 119 -60 119 -58 119 C-58 113.39 -58 107.78 -58 102 C-64.6 102 -71.2 102 -78 102 C-78.02578125 100.54207031 -78.0515625 99.08414063 -78.078125 97.58203125 C-78.13441398 95.65882456 -78.19176113 93.73564863 -78.25 91.8125 C-78.26417969 90.85279297 -78.27835937 89.89308594 -78.29296875 88.90429688 C-78.49106865 83.1792097 -78.93471517 80.27924719 -83 76 C-84.13483376 73.67983637 -85.19537196 71.32217794 -86.1875 68.9375 C-86.69667969 67.72964844 -87.20585938 66.52179688 -87.73046875 65.27734375 C-92.55906282 52.81214244 -91.77312865 36.20700324 -86.55078125 24.01171875 C-78.73633662 8.8355555 -67.91836034 -2.48283608 -51.375 -8 C-33.19489332 -13.51165586 -16.05241276 -9.41997875 0 0 Z " fill="#E9EEE7" transform="translate(198,18)"/>
<path d="M0 0 C46.2 0 92.4 0 140 0 C140 13 140 13 137.21875 16.140625 C136.00401694 16.88586 134.762183 17.58830092 133.5 18.25 C132.20208731 19.05457883 130.90907716 19.86712011 129.62109375 20.6875 C128.99444824 21.07550781 128.36780273 21.46351562 127.72216797 21.86328125 C117.80043719 28.41212992 111.49565869 41.71681071 109 53 C107.42306252 69.76568256 109.11153981 83.99134807 119 98 C119.33 98.33 119.66 98.66 120 99 C120.08685603 100.56172745 120.10702219 102.12729344 120.09765625 103.69140625 C120.09282227 105.10776367 120.09282227 105.10776367 120.08789062 106.55273438 C120.07532227 108.04256836 120.07532227 108.04256836 120.0625 109.5625 C120.05798828 110.55958984 120.05347656 111.55667969 120.04882812 112.58398438 C120.03700023 115.05601487 120.01906415 117.52801472 120 120 C126.6 120 133.2 120 140 120 C140.12375 122.7225 140.2475 125.445 140.375 128.25 C140.45693604 129.52665527 140.45693604 129.52665527 140.54052734 130.82910156 C140.58882881 133.0218843 140.54797639 134.87078207 140 137 C136.9765625 139.546875 136.9765625 139.546875 134 141 C133.67 139.35 133.34 137.7 133 136 C127.77965448 134.72797317 127.77965448 134.72797317 123.0625 136.3125 C121.22516886 139.23061417 120.83547979 141.14202759 120.68359375 144.5703125 C120.64169922 145.46621094 120.59980469 146.36210937 120.55664062 147.28515625 C120.51732422 148.22230469 120.47800781 149.15945312 120.4375 150.125 C120.37272461 151.54232422 120.37272461 151.54232422 120.30664062 152.98828125 C120.20040928 155.32537092 120.09836824 157.6625683 120 160 C119.01 160 118.02 160 117 160 C116.63648437 158.80503906 116.63648437 158.80503906 116.265625 157.5859375 C113.00677287 147.28295115 109.50299296 140.91343158 99.828125 135.8671875 C95.90921494 134.66553276 92.25880332 134.78627084 88.1875 134.875 C87.39923828 134.88402344 86.61097656 134.89304688 85.79882812 134.90234375 C83.86575334 134.92577496 81.9328362 134.96164162 80 135 C80 130.05 80 125.1 80 120 C53.6 120 27.2 120 0 120 C0 80.4 0 40.8 0 0 Z " fill="#ECEDEC" transform="translate(0,0)"/>
<path d="M0 0 C1.09148411 0.91243021 2.16873827 1.84217559 3.23046875 2.7890625 C4.14441406 3.51867188 5.05835938 4.24828125 6 5 C9.40451771 3.86516076 9.6005564 3.44722063 11.1875 0.4375 C11.785625 -0.696875 12.38375 -1.83125 13 -3 C15.19950957 -0.80049043 15.5611184 0.32674982 16.40234375 3.26171875 C16.65161621 4.12563232 16.90088867 4.9895459 17.15771484 5.87963867 C17.41504395 6.80623291 17.67237305 7.73282715 17.9375 8.6875 C18.20256348 9.63923096 18.46762695 10.59096191 18.74072266 11.5715332 C19.50999836 14.37700179 20.26097137 17.18642348 21 20 C21.18804199 20.71542969 21.37608398 21.43085937 21.56982422 22.16796875 C25.94400717 39.40251178 26.23262577 58.9285828 16.95800781 74.63720703 C8.04844608 88.6395745 -4.65348342 99.02474649 -21 103 C-21.928125 103.226875 -22.85625 103.45375 -23.8125 103.6875 C-40.03989845 105.27842142 -54.36756421 102.08829053 -68 93 C-68 92.34 -68 91.68 -68 91 C-67.34 90.566875 -66.68 90.13375 -66 89.6875 C-63.71481799 88.1489525 -63.71481799 88.1489525 -63.6875 85.375 C-63.74843946 83.04862094 -63.74843946 83.04862094 -65 82 C-66.99958364 81.95919217 -69.00045254 81.95745644 -71 82 C-71.66 83.65 -72.32 85.3 -73 87 C-82.27076496 80.72860018 -87.71969731 68.70288831 -90 58 C-91.58766033 38.71093183 -88.86659816 23.41555329 -76.41796875 8.046875 C-55.54633995 -14.50057801 -25.1862742 -14.77996929 0 0 Z " fill="#6EB242" transform="translate(198,18)"/>
<path d="M0 0 C6.6 0 13.2 0 20 0 C20 6.6 20 13.2 20 20 C26.6 20 33.2 20 40 20 C40 24.29 40 28.58 40 33 C41.6396875 32.8453125 41.6396875 32.8453125 43.3125 32.6875 C47 33 47 33 48.70776367 34.87768555 C50.56369655 39.3620093 50.40962983 43.46197509 50.36328125 48.26953125 C50.36402901 49.76198616 50.36402901 49.76198616 50.36479187 51.28459167 C50.36245494 53.3867696 50.35274892 55.48895051 50.33618164 57.59106445 C50.31265963 60.79078534 50.31561531 63.9896681 50.32226562 67.18945312 C50.31668587 69.23698409 50.30957412 71.28451156 50.30078125 73.33203125 C50.30169266 74.28124954 50.30260406 75.23046783 50.30354309 76.20845032 C50.21828312 84.29625703 48.96806189 90.8816315 44.875 98 C44.33617187 98.94875 43.79734375 99.8975 43.2421875 100.875 C42.83226562 101.57625 42.42234375 102.2775 42 103 C41.34 103 40.68 103 40 103 C40 106.96 40 110.92 40 115 C20.2 115 0.4 115 -20 115 C-20 110.05 -20 105.1 -20 100 C-26.6 100 -33.2 100 -40 100 C-40 93.4 -40 86.8 -40 80 C-35.38 80 -30.76 80 -26 80 C-26 73.4 -26 66.8 -26 60 C-30.62 60 -35.24 60 -40 60 C-40.33 56.37 -40.66 52.74 -41 49 C-43.475 49.495 -43.475 49.495 -46 50 C-48.40113307 53.90518434 -48.26564312 57.85636797 -48.30859375 62.34765625 C-48.33373899 63.77148873 -48.35913722 65.19531676 -48.38476562 66.61914062 C-48.41355081 68.84642521 -48.43759349 71.07363304 -48.45629883 73.30102539 C-48.47796644 75.46278683 -48.51738395 77.62369191 -48.55859375 79.78515625 C-48.57204834 81.07301025 -48.58550293 82.36086426 -48.59936523 83.68774414 C-49.01976159 87.16337931 -49.45613038 88.62873306 -52 91 C-57.96726986 91.74590873 -57.96726986 91.74590873 -60.6934967 89.77684021 C-62.40734928 87.44600631 -62.38615877 86.01278381 -62.40405273 83.13305664 C-62.41673691 82.1451564 -62.42942108 81.15725616 -62.44248962 80.13941956 C-62.43955399 79.07376266 -62.43661835 78.00810577 -62.43359375 76.91015625 C-62.4388356 75.81408554 -62.44407745 74.71801483 -62.44947815 73.58872986 C-62.45590481 71.2695297 -62.45455307 68.95029697 -62.44604492 66.63110352 C-62.43754107 63.07965083 -62.46627953 59.52980906 -62.49804688 55.97851562 C-62.49965907 53.72656298 -62.49908101 51.47460749 -62.49609375 49.22265625 C-62.50732773 48.15902359 -62.51856171 47.09539093 -62.53013611 45.99952698 C-62.46083028 38.67769878 -62.46083028 38.67769878 -60.16040039 35.29467773 C-58 34 -58 34 -54.9375 34.0625 C-51.99696989 35.00096706 -50.79290899 35.54654559 -49 38 C-48.67 38.99 -48.34 39.98 -48 41 C-47.52949219 40.57847656 -47.05898437 40.15695313 -46.57421875 39.72265625 C-45.95160156 39.17480469 -45.32898438 38.62695312 -44.6875 38.0625 C-44.07261719 37.51722656 -43.45773438 36.97195312 -42.82421875 36.41015625 C-37.56951023 32.3481653 -29.60055627 33.72319262 -23.375 34.5 C-22.26125 34.665 -21.1475 34.83 -20 35 C-20 30.05 -20 25.1 -20 20 C-13.4 20 -6.8 20 0 20 C0 13.4 0 6.8 0 0 Z " fill="#EFF0ED" transform="translate(240,100)"/>
<path d="M0 0 C26.4 0 52.8 0 80 0 C80 4.95 80 9.9 80 15 C80.99 15.495 80.99 15.495 82 16 C80.70982586 16.98113243 79.41780894 17.95984199 78.125 18.9375 C77.40570313 19.48277344 76.68640625 20.02804688 75.9453125 20.58984375 C74 22 74 22 72 23 C71.01 19.535 71.01 19.535 70 16 C65.51866426 15.27743171 65.51866426 15.27743171 61 15 C59.87340481 18.37978558 59.87979017 20.92816136 59.88647461 24.4909668 C59.88632858 25.1448941 59.88618256 25.79882141 59.8860321 26.4725647 C59.88672812 28.63148326 59.89450592 30.79031528 59.90234375 32.94921875 C59.90420904 34.44708713 59.90563242 35.94495611 59.90663147 37.44282532 C59.91044793 41.38345019 59.9202708 45.32403814 59.93133545 49.26464844 C59.94156828 53.28645325 59.9461331 57.30826404 59.95117188 61.33007812 C59.96189384 69.22006901 59.97895983 77.11002991 60 85 C59.01 84.505 59.01 84.505 58 84 C58 82.68 58 81.36 58 80 C52.06 80 46.12 80 40 80 C40 77.36 40 74.72 40 72 C39.2265625 72.01160156 38.453125 72.02320313 37.65625 72.03515625 C31.66063636 72.08709845 25.92697017 71.91184156 20 71 C20 73.97 20 76.94 20 80 C13.4 80 6.8 80 0 80 C0 53.6 0 27.2 0 0 Z " fill="#FCFDFB" transform="translate(0,120)"/>
<path d="M0 0 C2 1 2 1 2.65429688 2.73071289 C2.84056641 3.4705542 3.02683594 4.21039551 3.21875 4.97265625 C3.42886719 5.79056641 3.63898438 6.60847656 3.85546875 7.45117188 C4.06816406 8.31291016 4.28085938 9.17464844 4.5 10.0625 C4.71269531 10.89716797 4.92539063 11.73183594 5.14453125 12.59179688 C5.56953709 14.26444258 5.98790277 15.93878933 6.3996582 17.61474609 C6.77292693 19.09780239 7.16634456 20.57612017 7.59057617 22.04541016 C9.12005727 27.46457297 9.34818889 32.63511811 9.3125 38.25 C9.30686035 39.17659424 9.3012207 40.10318848 9.29541016 41.05786133 C9.08616998 52.89443305 6.87719618 64.13759348 -1.81640625 72.8125 C-11.00243341 80.23555225 -21.20866845 82.16394089 -32.67578125 82.09765625 C-33.6009404 82.0962413 -34.52609955 82.09482635 -35.47929382 82.09336853 C-38.42372927 82.08778715 -41.36808767 82.07523805 -44.3125 82.0625 C-46.31314994 82.05748259 -48.31380108 82.05292011 -50.31445312 82.04882812 C-55.20966494 82.03782381 -60.10481942 82.02057198 -65 82 C-62.78562116 79.78562116 -61.51058984 79.36754874 -58.5625 78.44921875 C-57.67224121 78.16578613 -56.78198242 77.88235352 -55.86474609 77.59033203 C-54.91937988 77.29239746 -53.97401367 76.99446289 -53 76.6875 C-33.32570762 70.26155564 -18.12173295 60.12198463 -8.375 41.3125 C-6.87220744 38.28989306 -6.87220744 38.28989306 -7 36 C-7.66 37.134375 -8.32 38.26875 -9 39.4375 C-23.07351076 61.64237253 -46.70632225 69.1652739 -71 75 C-74.125 75.5625 -74.125 75.5625 -77 75 C-81.74978114 70.95473185 -84.6839709 66.20543798 -85.30078125 59.94921875 C-85.33758327 49.70598991 -84.0463312 43.37344565 -76.9375 35.8203125 C-67.4069306 26.86618883 -55.02921125 25.81218144 -42.5 24.625 C-25.13058907 22.72969075 -14.10171372 17.25614221 -2.53125 3.91796875 C-0.95040817 2.07461365 -0.95040817 2.07461365 0 0 Z " fill="#FBFDF9" transform="translate(210,21)"/>
<path d="M0 0 C3.04312663 2.01072503 5.65383333 4.14602083 8.23046875 6.72265625 C8.51921875 5.77390625 8.80796875 4.82515625 9.10546875 3.84765625 C10.23046875 0.72265625 10.23046875 0.72265625 12.23046875 -1.27734375 C15.60476033 -1.71746874 17.49977284 -1.7453712 20.39697266 0.11035156 C23.24042183 4.16160405 22.76372325 8.06140396 22.69140625 12.89453125 C22.69003159 14.38910858 22.69003159 14.38910858 22.68862915 15.91387939 C22.68258975 18.02206177 22.66683367 20.13023544 22.64208984 22.23828125 C22.60575991 25.44694073 22.60106944 28.65443825 22.6015625 31.86328125 C22.59172383 33.91537446 22.58006358 35.9674599 22.56640625 38.01953125 C22.5641806 38.9718866 22.56195496 39.92424194 22.55966187 40.90545654 C22.42711618 50.33178793 20.87580513 58.61715401 14.23046875 65.72265625 C4.2680741 72.2454683 -7.22662601 73.33230292 -18.83642578 71.37402344 C-29.63747146 68.87785556 -29.63747146 68.87785556 -32.76953125 64.72265625 C-33.08203125 61.66015625 -33.08203125 61.66015625 -32.76953125 58.72265625 C-30.76953125 56.72265625 -30.76953125 56.72265625 -28.26953125 56.34765625 C-24.95591131 56.70268696 -23.12302604 57.37227758 -20.14453125 58.72265625 C-13.70590027 61.42804487 -7.06624042 62.24120005 -0.37109375 59.875 C4.96924456 56.94674758 6.97414848 53.26944359 9.23046875 47.72265625 C8.78316406 48.13257813 8.33585937 48.5425 7.875 48.96484375 C7.27042969 49.50367188 6.66585937 50.0425 6.04296875 50.59765625 C5.45128906 51.13132813 4.85960937 51.665 4.25 52.21484375 C-1.8143085 56.74254797 -8.51404192 56.28836891 -15.76953125 55.72265625 C-21.93503301 54.39349917 -27.59676874 50.0425294 -31.02734375 44.80078125 C-35.77550433 35.72651881 -36.96739667 26.86959293 -34.5234375 16.95703125 C-31.83926589 9.0018698 -26.81010779 4.11401787 -19.70703125 -0.08984375 C-13.5469183 -2.43915512 -6.00699854 -2.77050567 0 0 Z " fill="#71B247" transform="translate(267.76953125,135.27734375)"/>
<path d="M0 0 C3.375 0.875 3.375 0.875 5.375 2.875 C6 5.5 6 5.5 6.375 7.875 C6.83390625 7.46507812 7.2928125 7.05515625 7.765625 6.6328125 C8.37921875 6.09398437 8.9928125 5.55515625 9.625 5 C10.22828125 4.46632812 10.8315625 3.93265625 11.453125 3.3828125 C17.24878404 -1.16418829 23.23973514 -0.9132456 30.375 -0.125 C37.22098897 1.9670894 42.6588657 5.72015256 46.375 11.875 C50.95449397 21.06260977 51.93878921 29.75055334 48.8125 39.5625 C45.89275042 46.73381476 41.13545579 53.08382492 33.875 56.24609375 C26.58601026 58.07973023 18.11424789 58.50239495 11.5 54.5625 C8.8817553 52.67532363 8.43772416 52.06317249 7.375 48.875 C6.715 48.875 6.055 48.875 5.375 48.875 C5.39856567 49.80566284 5.39856567 49.80566284 5.42260742 50.75512695 C5.48496214 53.56582528 5.52399148 56.37637812 5.5625 59.1875 C5.60020508 60.65219727 5.60020508 60.65219727 5.63867188 62.14648438 C5.65317383 63.55317383 5.65317383 63.55317383 5.66796875 64.98828125 C5.69153442 66.28439331 5.69153442 66.28439331 5.71557617 67.60668945 C5.375 69.875 5.375 69.875 4.07543945 71.65307617 C1.21044505 73.711841 -1.23567507 73.29866562 -4.625 72.875 C-6.97686522 70.61130986 -7.5813915 69.20365568 -8.01268005 65.95324707 C-8.01808304 64.81947632 -8.02348602 63.68570557 -8.02905273 62.51757812 C-8.04173691 61.22944214 -8.05442108 59.94130615 -8.06748962 58.61413574 C-8.06543826 57.21150553 -8.06245031 55.80887641 -8.05859375 54.40625 C-8.06315595 52.96423089 -8.06846164 51.52221397 -8.07447815 50.0802002 C-8.08340584 47.06070105 -8.08098979 44.04146645 -8.07104492 41.02197266 C-8.05954814 37.15467768 -8.07977801 33.28829484 -8.10896206 29.42111969 C-8.1273166 26.44421604 -8.12703332 23.46753136 -8.12132454 20.49058533 C-8.12117127 19.06484191 -8.12722043 17.6390837 -8.13961601 16.21339417 C-8.15450916 14.21978772 -8.1412276 12.22603108 -8.12670898 10.23242188 C-8.12645973 8.53176575 -8.12645973 8.53176575 -8.12620544 6.79675293 C-7.25051361 1.69194968 -5.12794934 -0.17682584 0 0 Z " fill="#72B347" transform="translate(66.625,134.125)"/>
<path d="M0 0 C2.19950957 2.19950957 2.5611184 3.32674982 3.40234375 6.26171875 C3.65161621 7.12563232 3.90088867 7.9895459 4.15771484 8.87963867 C4.41504395 9.80623291 4.67237305 10.73282715 4.9375 11.6875 C5.20256348 12.63923096 5.46762695 13.59096191 5.74072266 14.5715332 C6.50999836 17.37700179 7.26097137 20.18642348 8 23 C8.18804199 23.71542969 8.37608398 24.43085937 8.56982422 25.16796875 C12.94400717 42.40251178 13.23262577 61.9285828 3.95800781 77.63720703 C-4.95155392 91.6395745 -17.65348342 102.02474649 -34 106 C-34.928125 106.226875 -35.85625 106.45375 -36.8125 106.6875 C-53.03989845 108.27842142 -67.36756421 105.08829053 -81 96 C-81 95.34 -81 94.68 -81 94 C-80.34 93.566875 -79.68 93.13375 -79 92.6875 C-76.69657929 91.14416344 -76.69657929 91.14416344 -76.75 88.3125 C-76.8325 87.549375 -76.915 86.78625 -77 86 C-78.98 85.34 -80.96 84.68 -83 84 C-83 83.34 -83 82.68 -83 82 C-81.68 82 -80.36 82 -79 82 C-78.505 81.01 -78.505 81.01 -78 80 C-75.8876849 79.75512476 -73.77400268 79.51891658 -71.65625 79.32666016 C-66.98787587 78.75255312 -62.52303692 77.44632864 -58 76.1875 C-57.06671875 75.93935547 -56.1334375 75.69121094 -55.171875 75.43554688 C-37.86728449 70.68645185 -20.72673766 61.72393914 -11.25390625 45.9453125 C-10.01099033 44.01705042 -8.67744422 42.55518152 -7 41 C-8.96660939 53.52884856 -20.11670788 65.21063754 -29.6875 72.875 C-40.00513627 80.18993956 -52.02642172 83.37470123 -64 87 C-58.54147491 87.09998003 -53.08349996 87.17198513 -47.62426758 87.21972656 C-45.77293597 87.23965928 -43.92166579 87.26681568 -42.07055664 87.30175781 C-27.81831243 87.56376176 -13.09704071 87.40207453 -2 77 C7.26372854 65.59848795 8.18101459 51.10750276 7.328125 36.99121094 C6.21304794 26.82608878 3.22837225 16.68511675 0 7 C-1.65 8.98 -3.3 10.96 -5 13 C-5.99 11.02 -5.99 11.02 -7 9 C-6.401875 8.443125 -5.80375 7.88625 -5.1875 7.3125 C-3.0136554 5.01443571 -1.53101917 2.75583451 0 0 Z " fill="#73B349" transform="translate(211,15)"/>
<path d="M0 0 C2.94053011 0.93846706 4.14459101 1.48404559 5.9375 3.9375 C6.2675 4.9275 6.5975 5.9175 6.9375 6.9375 C7.40800781 6.51597656 7.87851563 6.09445313 8.36328125 5.66015625 C8.98589844 5.11230469 9.60851562 4.56445312 10.25 4 C10.86488281 3.45472656 11.47976562 2.90945312 12.11328125 2.34765625 C16.45055938 -1.00514333 21.72941779 -0.47264615 26.9375 -0.0625 C32.6479021 1.03140831 36.02320652 3.50668463 39.7109375 7.92578125 C42.954483 13.24560906 43.24546767 18.43814668 43.23828125 24.4765625 C43.24256638 25.27983978 43.2468515 26.08311707 43.25126648 26.91073608 C43.25698388 28.59998638 43.25752924 30.28926127 43.25317383 31.97851562 C43.25000108 34.56162217 43.27354824 37.14359621 43.29882812 39.7265625 C43.30110013 41.37239439 43.30180507 43.01822936 43.30078125 44.6640625 C43.309991 45.43392487 43.31920074 46.20378723 43.32868958 46.99697876 C43.30099768 50.20283555 43.1336509 52.56297334 41.63354492 55.42724609 C39.9375 56.9375 39.9375 56.9375 36.4375 57.375 C32.9375 56.9375 32.9375 56.9375 31.24633789 55.86865234 C29.27156162 52.95492723 29.49666422 50.00359514 29.49609375 46.6015625 C29.48288589 45.88519623 29.46967804 45.16882996 29.45606995 44.43075562 C29.41519067 42.14129791 29.39351995 39.85223984 29.375 37.5625 C29.35115397 35.2800254 29.32290886 32.99792411 29.28321838 30.71566772 C29.25901638 29.29671193 29.24403198 27.87755983 29.23960876 26.45840454 C29.17804255 22.52614037 28.75736353 19.44429093 26.9375 15.9375 C23.31401479 12.75322512 19.7582366 12.36401001 15.09375 12.51171875 C11.57611402 13.20632441 10.0161369 15.14433166 7.9375 17.9375 C6.75903449 21.47289653 6.7769791 24.35970951 6.7265625 28.08984375 C6.69849919 29.52019384 6.66983476 30.95053224 6.640625 32.38085938 C6.59934958 34.63012427 6.56245122 36.87916959 6.53613281 39.12866211 C6.50849542 41.30367727 6.46263577 43.47770878 6.4140625 45.65234375 C6.39424316 46.95292725 6.37442383 48.25351074 6.35400391 49.59350586 C5.91980628 53.07955793 5.49143001 54.56040325 2.9375 56.9375 C-3.02976986 57.68340873 -3.02976986 57.68340873 -5.7559967 55.71434021 C-7.46984928 53.38350631 -7.44865877 51.95028381 -7.46655273 49.07055664 C-7.47923691 48.0826564 -7.49192108 47.09475616 -7.50498962 46.07691956 C-7.50205399 45.01126266 -7.49911835 43.94560577 -7.49609375 42.84765625 C-7.5013356 41.75158554 -7.50657745 40.65551483 -7.51197815 39.52622986 C-7.51840481 37.2070297 -7.51705307 34.88779697 -7.50854492 32.56860352 C-7.50004107 29.01715083 -7.52877953 25.46730906 -7.56054688 21.91601562 C-7.56215907 19.66406298 -7.56158101 17.41210749 -7.55859375 15.16015625 C-7.56982773 14.09652359 -7.58106171 13.03289093 -7.59263611 11.93702698 C-7.52333028 4.61519878 -7.52333028 4.61519878 -5.22290039 1.23217773 C-3.0625 -0.0625 -3.0625 -0.0625 0 0 Z " fill="#72B248" transform="translate(185.0625,134.0625)"/>
<path d="M0 0 C4.89439655 2.26939655 4.89439655 2.26939655 6.1875 3.5625 C6.4375 7 6.4375 7 6.1875 10.5625 C3.1875 12.5625 3.1875 12.5625 0.4375 12.375 C-2.8125 11.5625 -2.8125 11.5625 -6.1875 10 C-10.55937087 8.26632707 -13.15335121 8.1742376 -17.8125 8.5625 C-18.8025 9.2225 -19.7925 9.8825 -20.8125 10.5625 C-21.06280977 13.14630177 -21.06280977 13.14630177 -20.8125 15.5625 C-15.66236383 18.28838552 -10.59522517 20.71066881 -5.0625 22.5625 C0.53074479 24.53239809 4.34956243 26.68572816 7.625 31.8125 C8.66585965 36.90114718 8.06758435 41.67660497 5.875 46.375 C2.33538077 50.9633953 -0.15186579 53.02528814 -5.8125 54.5625 C-8.46935547 54.79927676 -10.97208117 54.94318212 -13.625 54.9375 C-14.32915039 54.93733887 -15.03330078 54.93717773 -15.75878906 54.93701172 C-21.60539346 54.809092 -25.8495134 53.51871376 -30.8125 50.5625 C-31.52921875 50.22992188 -32.2459375 49.89734375 -32.984375 49.5546875 C-34.8125 48.5625 -34.8125 48.5625 -35.8125 46.5625 C-36 43.5625 -36 43.5625 -35.8125 40.5625 C-33.8125 38.5625 -33.8125 38.5625 -31.4765625 38.28125 C-28.4328868 38.60257647 -26.79576986 39.4923041 -24.1875 41.0625 C-18.77735186 43.92574182 -13.85702684 44.51795765 -7.8125 43.5625 C-6.8225 42.9025 -5.8325 42.2425 -4.8125 41.5625 C-4.56219023 38.97869823 -4.56219023 38.97869823 -4.8125 36.5625 C-8.85842242 34.6911302 -12.8762532 32.88572806 -17.09375 31.4296875 C-23.92814256 29.06273044 -29.08253814 27.01349961 -32.8125 20.5625 C-34.36667619 15.89997142 -34.35698802 12.07496673 -32.6875 7.4375 C-25.08505101 -4.21958845 -12.19823672 -5.05459869 0 0 Z " fill="#72B248" transform="translate(46.8125,136.4375)"/>
<path d="M0 0 C4.29 0 8.58 0 13 0 C12.34 1.670625 11.68 3.34125 11 5.0625 C6.56076495 19.60537038 7.06717276 36.37859146 14 50 C15.54793864 52.8000109 17.17494877 55.36381489 19 58 C19.33 58.66 19.66 59.32 20 60 C13.4 60 6.8 60 0 60 C0 53.4 0 46.8 0 40 C-6.6 40 -13.2 40 -20 40 C-20 33.4 -20 26.8 -20 20 C-13.4 20 -6.8 20 0 20 C0 13.4 0 6.8 0 0 Z " fill="#EBEDEA" transform="translate(100,40)"/>
<path d="M0 0 C2.24432982 1.87027485 3.69443202 3.38886404 5 6 C5.804375 5.195625 6.60875 4.39125 7.4375 3.5625 C11.26425773 0.37202027 15.08628515 -0.29836599 20 0 C22.5625 1 22.5625 1 24 3 C24.5 6.5 24.5 6.5 24 10 C22.22142788 12.08788902 20.37541392 12.84363493 17.87109375 13.88671875 C12.03857996 16.31773356 8.73130331 18.36022583 5.92163086 24.26708984 C4.86351093 27.40473076 4.72895865 29.98101513 4.69140625 33.2890625 C4.66626953 34.47757813 4.64113281 35.66609375 4.61523438 36.890625 C4.57996856 39.38796735 4.54874336 41.88536992 4.52148438 44.3828125 C4.49505859 45.56875 4.46863281 46.7546875 4.44140625 47.9765625 C4.42122437 49.60198975 4.42122437 49.60198975 4.40063477 51.26025391 C4 54 4 54 2.69116211 55.84912109 C-0.19036499 57.8100737 -2.64621908 57.41922261 -6 57 C-8.80648335 54.14660917 -9.37899588 52.05111558 -9.40405273 48.11132812 C-9.41673691 47.14352417 -9.42942108 46.17572021 -9.44248962 45.17858887 C-9.43955399 44.13996704 -9.43661835 43.10134521 -9.43359375 42.03125 C-9.4388356 40.95879028 -9.44407745 39.88633057 -9.44947815 38.78137207 C-9.45589803 36.5152269 -9.45456182 34.24904841 -9.44604492 31.98291016 C-9.43753127 28.51274428 -9.46630454 25.04422215 -9.49804688 21.57421875 C-9.49965885 19.37239633 -9.49908142 17.17057099 -9.49609375 14.96875 C-9.50732773 13.93012817 -9.51856171 12.89150635 -9.53013611 11.82141113 C-9.4606446 4.65218493 -9.4606446 4.65218493 -7.12524414 1.34570312 C-4.43241268 -0.3593959 -3.12930897 -0.62586179 0 0 Z " fill="#72B348" transform="translate(130,134)"/>
<path d="M0 0 C5.67476113 1.96434039 9.31400331 5.62800662 12 11 C12.75894454 18.04734219 12.6443162 23.62165138 8.3671875 29.4453125 C5.35397566 32.87176483 2.56180974 34.70234211 -2.05078125 35.23828125 C-7.56058152 35.41908644 -10.75244276 34.85243563 -15 31 C-19.56604614 25.47268098 -19.60713132 20.30499437 -19.3828125 13.25390625 C-18.71947925 7.61557359 -16.42183622 5.25650643 -12.3125 1.625 C-8.01507138 -0.48317253 -4.69964191 -0.68466006 0 0 Z " fill="#E9EDE7" transform="translate(265,145)"/>
<path d="M0 0 C3.9108633 2.24797654 5.97841415 4.09366753 7.75 8.375 C8.45413442 14.48483305 9.00079256 20.98959953 6 26.5625 C2.64815391 30.75230761 -0.05837494 32.87613143 -5.44921875 33.71875 C-10.66091562 34.04601511 -13.6853236 33.61312307 -17.75 30.1875 C-22.25175712 25.95326533 -23.55812866 21.66240973 -23.75 15.5625 C-23.6623693 10.08895157 -22.51626976 7.00309034 -18.88671875 2.93359375 C-13.15670457 -2.5229114 -7.13405162 -3.17511794 0 0 Z " fill="#E8EDE5" transform="translate(95.25,146.625)"/>
<path d="M0 0 C2.31 0.33 4.62 0.66 7 1 C7.33 22.45 7.66 43.9 8 66 C7.01 65.505 7.01 65.505 6 65 C6 63.68 6 62.36 6 61 C0.06 61 -5.88 61 -12 61 C-12 58.36 -12 55.72 -12 53 C-15.96 53 -19.92 53 -24 53 C-24 52.67 -24 52.34 -24 52 C-23.14277344 51.96261719 -22.28554688 51.92523438 -21.40234375 51.88671875 C-13.70723047 51.44427143 -7.88882834 51.04800059 -1.6875 46.1875 C1.43356546 42.1416744 2.2213274 38.46291455 1.9375 33.4375 C1.2612677 28.85756303 -0.22212696 26.81330971 -4 24 C-9.16806133 20.85931874 -14.76753492 18.9302348 -20.484375 17.02734375 C-23.06670392 15.97275911 -24.93058991 14.86531689 -27 13 C-27.5 10.5 -27.5 10.5 -27 8 C-24.64557908 5.15507472 -22.98970015 4.99877798 -19.3125 4.5625 C-15.03851242 4.68984414 -11.90034551 6.30907978 -8.12109375 8.17578125 C-5.16660933 9.32384058 -2.98001456 8.91692756 0 8 C0 5.36 0 2.72 0 0 Z " fill="#E8EEE4" transform="translate(52,139)"/>
<path d="M0 0 C6.6 0 13.2 0 20 0 C21.22226115 8.2066106 21.22226115 8.2066106 20 13 C16.28570377 16.63243846 12.13012877 19.1184138 7.73095703 21.83691406 C2.26579245 25.50913466 -1.41175877 30.71288237 -4.1875 36.5625 C-5.3046875 38.53515625 -5.3046875 38.53515625 -7 40 C-11.53288283 40.70376054 -15.37407841 40.37381185 -20 40 C-20 33.4 -20 26.8 -20 20 C-13.4 20 -6.8 20 0 20 C0 13.4 0 6.8 0 0 Z " fill="#FDFDFC" transform="translate(120,0)"/>
<path d="M0 0 C2.12524414 1.34570312 2.12524414 1.34570312 4 4 C4.60326839 7.6522951 4.53605204 11.27446159 4.49609375 14.96875 C4.49754898 16.04120972 4.49900421 17.11366943 4.50050354 18.21862793 C4.49884444 20.48480955 4.48728208 22.75100243 4.46655273 25.01708984 C4.43760727 28.4871402 4.44594252 31.95566221 4.45898438 35.42578125 C4.4527467 37.6276116 4.44435553 39.82943712 4.43359375 42.03125 C4.43652939 43.06987183 4.43946503 44.10849365 4.44248962 45.17858887 C4.42346336 46.6302948 4.42346336 46.6302948 4.40405273 48.11132812 C4.39864975 48.9608606 4.39324677 49.81039307 4.38768005 50.68566895 C3.90712792 53.55441786 3.03169302 54.93434932 1 57 C-4.96726986 57.74590873 -4.96726986 57.74590873 -7.6934967 55.77684021 C-9.40734928 53.44600631 -9.38615877 52.01278381 -9.40405273 49.13305664 C-9.41673691 48.1451564 -9.42942108 47.15725616 -9.44248962 46.13941956 C-9.43955399 45.07376266 -9.43661835 44.00810577 -9.43359375 42.91015625 C-9.4388356 41.81408554 -9.44407745 40.71801483 -9.44947815 39.58872986 C-9.45590481 37.2695297 -9.45455307 34.95029697 -9.44604492 32.63110352 C-9.43754107 29.07965083 -9.46627953 25.52980906 -9.49804688 21.97851562 C-9.49965907 19.72656298 -9.49908101 17.47460749 -9.49609375 15.22265625 C-9.50732773 14.15902359 -9.51856171 13.09539093 -9.53013611 11.99952698 C-9.46062542 4.65605681 -9.46062542 4.65605681 -7.12524414 1.32983398 C-4.43119797 -0.35591782 -3.12094692 -0.62418938 0 0 Z " fill="#6CB13F" transform="translate(168,134)"/>
<path d="M0 0 C19.8 0 39.6 0 60 0 C60 6.6 60 13.2 60 20 C57.586875 18.741875 55.17375 17.48375 52.6875 16.1875 C38.18566989 8.90520202 23.3176249 6.07233637 7.5 11 C6.4790625 11.37125 5.458125 11.7425 4.40625 12.125 C2 13 2 13 0 13 C0 8.71 0 4.42 0 0 Z " fill="#E9EEE7" transform="translate(140,0)"/>
<path d="M0 0 C0.66 0 1.32 0 2 0 C3.66666667 1.66666667 5.33333333 3.33333333 7 5 C10.66279247 7.48396271 14.10456509 7.23473715 18.4375 7.1875 C19.73558594 7.18105469 21.03367188 7.17460937 22.37109375 7.16796875 C25.38722841 7.02836295 28.07471935 6.70454736 31 6 C30.67 6.66 30.34 7.32 30 8 C29.34 8 28.68 8 28 8 C28 10.97 28 13.94 28 17 C21.4 17 14.8 17 8 17 C8 21.95 8 26.9 8 32 C1.4 32 -5.2 32 -12 32 C-12 28.7 -12 25.4 -12 22 C-11.34 22.33 -10.68 22.66 -10 23 C-6.5 23.25 -6.5 23.25 -3 23 C-0.51942372 20.51942372 -0.70980995 19.63807536 -0.5859375 16.2109375 C-0.54726562 15.26992187 -0.50859375 14.32890625 -0.46875 13.359375 C-0.4378125 12.37453125 -0.406875 11.3896875 -0.375 10.375 C-0.31699219 8.88613281 -0.31699219 8.88613281 -0.2578125 7.3671875 C-0.1633686 4.91164615 -0.07780125 2.4561159 0 0 Z " fill="#E8ECE5" transform="translate(72,183)"/>
<path d="M0 0 C1.98 0 3.96 0 6 0 C6 6.6 6 13.2 6 20 C12.6 20 19.2 20 26 20 C26 26.6 26 33.2 26 40 C20.39 40 14.78 40 9 40 C9 44.95 9 49.9 9 55 C8.34 55 7.68 55 7 55 C7.02618408 54.45400146 7.05236816 53.90800293 7.0793457 53.34545898 C7.66345479 39.11537859 6.09971804 26.41835458 2.63378906 12.62695312 C1.62464854 8.44422891 0.80617341 4.22585383 0 0 Z " fill="#EBEEEA" transform="translate(214,20)"/>
<path d="M0 0 C0.33 0 0.66 0 1 0 C1 1.65 1 3.3 1 5 C7.27 5 13.54 5 20 5 C20 11.6 20 18.2 20 25 C13.4 25 6.8 25 0 25 C-0.33 21.37 -0.66 17.74 -1 14 C-1.66 14 -2.32 14 -3 14 C-3 14.99 -3 15.98 -3 17 C-3.66 17 -4.32 17 -5 17 C-4.80664062 16.443125 -4.61328125 15.88625 -4.4140625 15.3125 C-2.68625575 10.24882873 -1.2306933 5.20677935 0 0 Z " fill="#ECEDEC" transform="translate(220,75)"/>
<path d="M0 0 C0.33 0 0.66 0 1 0 C1.01213028 0.87323662 1.01213028 0.87323662 1.02450562 1.76411438 C1.11046097 7.8148917 1.20996043 13.86533799 1.31738281 19.91577148 C1.35570221 22.17482959 1.39054981 24.43394932 1.421875 26.69311523 C1.46746107 29.93756157 1.52546638 33.18158248 1.5859375 36.42578125 C1.59748871 37.43836502 1.60903992 38.45094879 1.62094116 39.49421692 C1.64081085 40.43496567 1.66068054 41.37571442 1.68115234 42.3449707 C1.69447601 43.17325882 1.70779968 44.00154694 1.7215271 44.85493469 C1.87738759 47.29596133 1.87738759 47.29596133 4 50 C7.5 50.41666667 7.5 50.41666667 11 50 C13.71663793 47.28336207 13.30753121 45.69805347 13.4140625 41.8984375 C13.45273438 40.68671875 13.49140625 39.475 13.53125 38.2265625 C13.57765625 36.32003906 13.57765625 36.32003906 13.625 34.375 C13.66367188 33.09625 13.70234375 31.8175 13.7421875 30.5 C13.83671049 27.33347983 13.92226357 24.1669696 14 21 C14.33 21 14.66 21 15 21 C15 27.27 15 33.54 15 40 C16.65 40 18.3 40 20 40 C20 46.6 20 53.2 20 60 C13.4 60 6.8 60 0 60 C0 53.4 0 46.8 0 40 C-2.64 40 -5.28 40 -8 40 C-7.72285156 39.2265625 -7.44570312 38.453125 -7.16015625 37.65625 C-5.09610345 31.72118003 -3.48233374 26.27033868 -3 20 C-2.01 20 -1.02 20 0 20 C0 13.4 0 6.8 0 0 Z " fill="#E7EEE3" transform="translate(120,140)"/>
<path d="M0 0 C6.6 0 13.2 0 20 0 C20 6.6 20 13.2 20 20 C13.4 20 6.8 20 0 20 C0 13.4 0 6.8 0 0 Z " fill="#EDEDED" transform="translate(280,100)"/>
<path d="M0 0 C6.6 0 13.2 0 20 0 C20 6.6 20 13.2 20 20 C13.4 20 6.8 20 0 20 C0 13.4 0 6.8 0 0 Z " fill="#FDFDFD" transform="translate(260,100)"/>
<path d="M0 0 C6.6 0 13.2 0 20 0 C20 6.6 20 13.2 20 20 C13.4 20 6.8 20 0 20 C0 13.4 0 6.8 0 0 Z " fill="#FDFEFD" transform="translate(220,100)"/>
<path d="M0 0 C6.6 0 13.2 0 20 0 C20 6.6 20 13.2 20 20 C13.4 20 6.8 20 0 20 C0 13.4 0 6.8 0 0 Z " fill="#FDFEFD" transform="translate(100,100)"/>
<path d="M0 0 C6.6 0 13.2 0 20 0 C20 6.6 20 13.2 20 20 C13.4 20 6.8 20 0 20 C0 13.4 0 6.8 0 0 Z " fill="#EDEDED" transform="translate(80,100)"/>
<path d="M0 0 C6.6 0 13.2 0 20 0 C20 6.6 20 13.2 20 20 C13.4 20 6.8 20 0 20 C0 13.4 0 6.8 0 0 Z " fill="#FDFDFD" transform="translate(60,100)"/>
<path d="M0 0 C6.6 0 13.2 0 20 0 C20 6.6 20 13.2 20 20 C13.4 20 6.8 20 0 20 C0 13.4 0 6.8 0 0 Z " fill="#EDEDED" transform="translate(40,100)"/>
<path d="M0 0 C6.6 0 13.2 0 20 0 C20 6.6 20 13.2 20 20 C13.4 20 6.8 20 0 20 C0 13.4 0 6.8 0 0 Z " fill="#FDFDFD" transform="translate(20,100)"/>
<path d="M0 0 C6.6 0 13.2 0 20 0 C20 6.6 20 13.2 20 20 C13.4 20 6.8 20 0 20 C0 13.4 0 6.8 0 0 Z " fill="#EDEDED" transform="translate(0,100)"/>
<path d="M0 0 C6.6 0 13.2 0 20 0 C20 6.6 20 13.2 20 20 C13.4 20 6.8 20 0 20 C0 13.4 0 6.8 0 0 Z " fill="#FEFEFE" transform="translate(280,80)"/>
<path d="M0 0 C6.6 0 13.2 0 20 0 C20 6.6 20 13.2 20 20 C13.4 20 6.8 20 0 20 C0 13.4 0 6.8 0 0 Z " fill="#EDEDED" transform="translate(260,80)"/>
<path d="M0 0 C6.6 0 13.2 0 20 0 C20 6.6 20 13.2 20 20 C13.4 20 6.8 20 0 20 C0 13.4 0 6.8 0 0 Z " fill="#FDFDFD" transform="translate(240,80)"/>
<path d="M0 0 C6.6 0 13.2 0 20 0 C20 6.6 20 13.2 20 20 C13.4 20 6.8 20 0 20 C0 13.4 0 6.8 0 0 Z " fill="#FDFDFD" transform="translate(80,80)"/>
<path d="M0 0 C6.6 0 13.2 0 20 0 C20 6.6 20 13.2 20 20 C13.4 20 6.8 20 0 20 C0 13.4 0 6.8 0 0 Z " fill="#EDEDED" transform="translate(60,80)"/>
<path d="M0 0 C6.6 0 13.2 0 20 0 C20 6.6 20 13.2 20 20 C13.4 20 6.8 20 0 20 C0 13.4 0 6.8 0 0 Z " fill="#FDFDFD" transform="translate(40,80)"/>
<path d="M0 0 C6.6 0 13.2 0 20 0 C20 6.6 20 13.2 20 20 C13.4 20 6.8 20 0 20 C0 13.4 0 6.8 0 0 Z " fill="#EDEDED" transform="translate(20,80)"/>
<path d="M0 0 C6.6 0 13.2 0 20 0 C20 6.6 20 13.2 20 20 C13.4 20 6.8 20 0 20 C0 13.4 0 6.8 0 0 Z " fill="#FEFEFE" transform="translate(0,80)"/>
<path d="M0 0 C6.6 0 13.2 0 20 0 C20 6.6 20 13.2 20 20 C13.4 20 6.8 20 0 20 C0 13.4 0 6.8 0 0 Z " fill="#EDEDED" transform="translate(280,60)"/>
<path d="M0 0 C6.6 0 13.2 0 20 0 C20 6.6 20 13.2 20 20 C13.4 20 6.8 20 0 20 C0 13.4 0 6.8 0 0 Z " fill="#FDFDFD" transform="translate(260,60)"/>
<path d="M0 0 C6.6 0 13.2 0 20 0 C20 6.6 20 13.2 20 20 C13.4 20 6.8 20 0 20 C0 13.4 0 6.8 0 0 Z " fill="#FDFDFD" transform="translate(60,60)"/>
<path d="M0 0 C6.6 0 13.2 0 20 0 C20 6.6 20 13.2 20 20 C13.4 20 6.8 20 0 20 C0 13.4 0 6.8 0 0 Z " fill="#EDEDED" transform="translate(40,60)"/>
<path d="M0 0 C6.6 0 13.2 0 20 0 C20 6.6 20 13.2 20 20 C13.4 20 6.8 20 0 20 C0 13.4 0 6.8 0 0 Z " fill="#FDFDFD" transform="translate(20,60)"/>
<path d="M0 0 C6.6 0 13.2 0 20 0 C20 6.6 20 13.2 20 20 C13.4 20 6.8 20 0 20 C0 13.4 0 6.8 0 0 Z " fill="#EDEDED" transform="translate(0,60)"/>
<path d="M0 0 C6.6 0 13.2 0 20 0 C20 6.6 20 13.2 20 20 C13.4 20 6.8 20 0 20 C0 13.4 0 6.8 0 0 Z " fill="#FEFEFE" transform="translate(280,40)"/>
<path d="M0 0 C6.6 0 13.2 0 20 0 C20 6.6 20 13.2 20 20 C13.4 20 6.8 20 0 20 C0 13.4 0 6.8 0 0 Z " fill="#EDEDED" transform="translate(260,40)"/>
<path d="M0 0 C6.6 0 13.2 0 20 0 C20 6.6 20 13.2 20 20 C13.4 20 6.8 20 0 20 C0 13.4 0 6.8 0 0 Z " fill="#FDFDFD" transform="translate(240,40)"/>
<path d="M0 0 C6.6 0 13.2 0 20 0 C20 6.6 20 13.2 20 20 C13.4 20 6.8 20 0 20 C0 13.4 0 6.8 0 0 Z " fill="#FDFEFE" transform="translate(80,40)"/>
<path d="M0 0 C6.6 0 13.2 0 20 0 C20 6.6 20 13.2 20 20 C13.4 20 6.8 20 0 20 C0 13.4 0 6.8 0 0 Z " fill="#EDEDED" transform="translate(60,40)"/>
<path d="M0 0 C6.6 0 13.2 0 20 0 C20 6.6 20 13.2 20 20 C13.4 20 6.8 20 0 20 C0 13.4 0 6.8 0 0 Z " fill="#FDFDFD" transform="translate(40,40)"/>
<path d="M0 0 C6.6 0 13.2 0 20 0 C20 6.6 20 13.2 20 20 C13.4 20 6.8 20 0 20 C0 13.4 0 6.8 0 0 Z " fill="#EDEDED" transform="translate(20,40)"/>
<path d="M0 0 C6.6 0 13.2 0 20 0 C20 6.6 20 13.2 20 20 C13.4 20 6.8 20 0 20 C0 13.4 0 6.8 0 0 Z " fill="#FEFEFE" transform="translate(0,40)"/>
<path d="M0 0 C6.6 0 13.2 0 20 0 C20 6.6 20 13.2 20 20 C13.4 20 6.8 20 0 20 C0 13.4 0 6.8 0 0 Z " fill="#EDEDED" transform="translate(280,20)"/>
<path d="M0 0 C6.6 0 13.2 0 20 0 C20 6.6 20 13.2 20 20 C13.4 20 6.8 20 0 20 C0 13.4 0 6.8 0 0 Z " fill="#FDFDFD" transform="translate(260,20)"/>
<path d="M0 0 C6.6 0 13.2 0 20 0 C20 6.6 20 13.2 20 20 C13.4 20 6.8 20 0 20 C0 13.4 0 6.8 0 0 Z " fill="#EDEDED" transform="translate(240,20)"/>
<path d="M0 0 C6.6 0 13.2 0 20 0 C20 6.6 20 13.2 20 20 C13.4 20 6.8 20 0 20 C0 13.4 0 6.8 0 0 Z " fill="#FDFEFD" transform="translate(220,20)"/>
<path d="M0 0 C6.6 0 13.2 0 20 0 C20 6.6 20 13.2 20 20 C13.4 20 6.8 20 0 20 C0 13.4 0 6.8 0 0 Z " fill="#EDEDED" transform="translate(80,20)"/>
<path d="M0 0 C6.6 0 13.2 0 20 0 C20 6.6 20 13.2 20 20 C13.4 20 6.8 20 0 20 C0 13.4 0 6.8 0 0 Z " fill="#FDFDFD" transform="translate(60,20)"/>
<path d="M0 0 C6.6 0 13.2 0 20 0 C20 6.6 20 13.2 20 20 C13.4 20 6.8 20 0 20 C0 13.4 0 6.8 0 0 Z " fill="#EDEDED" transform="translate(40,20)"/>
<path d="M0 0 C6.6 0 13.2 0 20 0 C20 6.6 20 13.2 20 20 C13.4 20 6.8 20 0 20 C0 13.4 0 6.8 0 0 Z " fill="#FDFDFD" transform="translate(20,20)"/>
<path d="M0 0 C6.6 0 13.2 0 20 0 C20 6.6 20 13.2 20 20 C13.4 20 6.8 20 0 20 C0 13.4 0 6.8 0 0 Z " fill="#EDEDED" transform="translate(0,20)"/>
<path d="M0 0 C6.6 0 13.2 0 20 0 C20 6.6 20 13.2 20 20 C13.4 20 6.8 20 0 20 C0 13.4 0 6.8 0 0 Z " fill="#FEFEFE" transform="translate(280,0)"/>
<path d="M0 0 C6.6 0 13.2 0 20 0 C20 6.6 20 13.2 20 20 C13.4 20 6.8 20 0 20 C0 13.4 0 6.8 0 0 Z " fill="#EDEDED" transform="translate(260,0)"/>
<path d="M0 0 C6.6 0 13.2 0 20 0 C20 6.6 20 13.2 20 20 C13.4 20 6.8 20 0 20 C0 13.4 0 6.8 0 0 Z " fill="#FEFEFE" transform="translate(240,0)"/>
<path d="M0 0 C6.6 0 13.2 0 20 0 C20 6.6 20 13.2 20 20 C13.4 20 6.8 20 0 20 C0 13.4 0 6.8 0 0 Z " fill="#EDEDED" transform="translate(220,0)"/>
<path d="M0 0 C6.6 0 13.2 0 20 0 C20 6.6 20 13.2 20 20 C13.4 20 6.8 20 0 20 C0 13.4 0 6.8 0 0 Z " fill="#EDEDED" transform="translate(100,0)"/>
<path d="M0 0 C6.6 0 13.2 0 20 0 C20 6.6 20 13.2 20 20 C13.4 20 6.8 20 0 20 C0 13.4 0 6.8 0 0 Z " fill="#FEFEFE" transform="translate(80,0)"/>
<path d="M0 0 C6.6 0 13.2 0 20 0 C20 6.6 20 13.2 20 20 C13.4 20 6.8 20 0 20 C0 13.4 0 6.8 0 0 Z " fill="#EDEDED" transform="translate(60,0)"/>
<path d="M0 0 C6.6 0 13.2 0 20 0 C20 6.6 20 13.2 20 20 C13.4 20 6.8 20 0 20 C0 13.4 0 6.8 0 0 Z " fill="#FEFEFE" transform="translate(40,0)"/>
<path d="M0 0 C6.6 0 13.2 0 20 0 C20 6.6 20 13.2 20 20 C13.4 20 6.8 20 0 20 C0 13.4 0 6.8 0 0 Z " fill="#FEFEFE" transform="translate(0,0)"/>
<path d="M0 0 C6.6 0 13.2 0 20 0 C20.04125 2.92875 20.0825 5.8575 20.125 8.875 C20.14320801 9.79651855 20.16141602 10.71803711 20.18017578 11.66748047 C20.1851709 12.39338379 20.19016602 13.11928711 20.1953125 13.8671875 C20.20578613 14.61081543 20.21625977 15.35444336 20.22705078 16.12060547 C20 18 20 18 18 20 C16.12060547 20.22705078 16.12060547 20.22705078 13.8671875 20.1953125 C12.77833252 20.18781982 12.77833252 20.18781982 11.66748047 20.18017578 C10.28520264 20.15286377 10.28520264 20.15286377 8.875 20.125 C5.94625 20.08375 3.0175 20.0425 0 20 C0 13.4 0 6.8 0 0 Z " fill="#FDFEFD" transform="translate(0,120)"/>
<path d="M0 0 C5.94 0 11.88 0 18 0 C18.33 2.31 18.66 4.62 19 7 C19.33 7.33 19.66 7.66 20 8 C20.14355117 12.00220653 20.04216403 15.99441683 20 20 C13.4 20 6.8 20 0 20 C0 13.4 0 6.8 0 0 Z " fill="#FDFEFD" transform="translate(140,180)"/>
<path d="M0 0 C0 0.66 0 1.32 0 2 C-2.5 3.625 -2.5 3.625 -5 5 C-1.37 5.33 2.26 5.66 6 6 C6 10.29 6 14.58 6 19 C7.48113281 18.96519531 7.48113281 18.96519531 8.9921875 18.9296875 C10.27351563 18.91164062 11.55484375 18.89359375 12.875 18.875 C14.15117187 18.85179687 15.42734375 18.82859375 16.7421875 18.8046875 C20 19 20 19 22 21 C21.05898437 20.96519531 20.11796875 20.93039063 19.1484375 20.89453125 C17.90320313 20.86746094 16.65796875 20.84039062 15.375 20.8125 C14.14523438 20.77769531 12.91546875 20.74289063 11.6484375 20.70703125 C5.53180972 21.19819515 1.57272109 24.0997379 -3 28 C-3.268125 27.21625 -3.53625 26.4325 -3.8125 25.625 C-4.84814432 22.71885077 -4.84814432 22.71885077 -8 21 C-9.98 21 -11.96 21 -14 21 C-14 16.38 -14 11.76 -14 7 C-14.99 6.67 -15.98 6.34 -17 6 C-16.08476562 5.65066406 -15.16953125 5.30132812 -14.2265625 4.94140625 C-13.03804687 4.48636719 -11.84953125 4.03132813 -10.625 3.5625 C-9.44164062 3.11003906 -8.25828125 2.65757813 -7.0390625 2.19140625 C-1.44918033 0 -1.44918033 0 0 0 Z " fill="#EBEEE9" transform="translate(194,114)"/>
<path d="M0 0 C0.99 0 1.98 0 3 0 C3 6.6 3 13.2 3 20 C-2.94 20 -8.88 20 -15 20 C-15 26.6 -15 33.2 -15 40 C-16.65 40 -18.3 40 -20 40 C-20.11681812 36.45861382 -20.187455 32.9177276 -20.25 29.375 C-20.28351563 28.37597656 -20.31703125 27.37695312 -20.3515625 26.34765625 C-20.43312684 20.18954843 -20.10530355 16.68745525 -16 12 C-12.41326594 8.51574405 -8.59970372 6.86106493 -3.98828125 5.125 C-1.58127816 3.76308076 -0.98821502 2.53659471 0 0 Z " fill="#FBFDFA" transform="translate(155,140)"/>
<path d="M0 0 C6.6 0 13.2 0 20 0 C20.103125 2.3925 20.20625 4.785 20.3125 7.25 C20.38078003 8.37003418 20.38078003 8.37003418 20.45043945 9.51269531 C20.48828125 11.328125 20.48828125 11.328125 20 15 C16.89168875 18.22806194 14.1260232 19.88284475 9.58984375 20.1328125 C8.71457031 20.13023437 7.83929688 20.12765625 6.9375 20.125 C5.62072266 20.12886719 5.62072266 20.12886719 4.27734375 20.1328125 C2 20 2 20 0 19 C0 12.73 0 6.46 0 0 Z " fill="#FCFDFB" transform="translate(80,160)"/>
<path d="M0 0 C6.6 0 13.2 0 20 0 C20 4.29 20 8.58 20 13 C22.31 13 24.62 13 27 13 C27 13.99 27 14.98 27 16 C26.505 15.505 26.505 15.505 26 15 C23.04182893 14.74994614 23.04182893 14.74994614 20 15 C17.4345406 17.5654594 17.45953913 19.47686668 17 23 C16.46890625 22.59007812 15.9378125 22.18015625 15.390625 21.7578125 C14.68421875 21.21898437 13.9778125 20.68015625 13.25 20.125 C12.55390625 19.59132812 11.8578125 19.05765625 11.140625 18.5078125 C6.43728976 15.19487928 2.9783617 14.73422741 -2.75 14.875 C-3.79607422 14.88853516 -3.79607422 14.88853516 -4.86328125 14.90234375 C-6.57566958 14.92580112 -8.28788004 14.96166896 -10 15 C-9.67 14.34 -9.34 13.68 -9 13 C-6.03 13 -3.06 13 0 13 C0 8.71 0 4.42 0 0 Z " fill="#EAEDE8" transform="translate(260,120)"/>
<path d="M0 0 C0.33 0 0.66 0 1 0 C1.33 2.31 1.66 4.62 2 7 C6.3039919 8.74849671 10.64750591 10.3770361 15 12 C15 12.33 15 12.66 15 13 C13.35 13 11.7 13 10 13 C10 15.97 10 18.94 10 22 C3.4 22 -3.2 22 -10 22 C-10 15.4 -10 8.8 -10 2 C-6.7 2 -3.4 2 0 2 C0 1.34 0 0.68 0 0 Z " fill="#EBEDEA" transform="translate(10,178)"/>
<path d="M0 0 C5.61 0 11.22 0 17 0 C17 6.6 17 13.2 17 20 C10.73 20 4.46 20 -2 20 C-2 18.35 -2 16.7 -2 15 C-1.34 15 -0.68 15 0 15 C0 10.05 0 5.1 0 0 Z " fill="#FDFEFD" transform="translate(223,60)"/>
<path d="M0 0 C6.6 0 13.2 0 20 0 C20 4.95 20 9.9 20 15 C20.66 15.33 21.32 15.66 22 16 C20.70982586 16.98113243 19.41780894 17.95984199 18.125 18.9375 C17.40570313 19.48277344 16.68640625 20.02804688 15.9453125 20.58984375 C14 22 14 22 12 23 C11.34 20.69 10.68 18.38 10 16 C5.51866426 15.27743171 5.51866426 15.27743171 1 15 C0.67 15.66 0.34 16.32 0 17 C0 11.39 0 5.78 0 0 Z " fill="#EBEDE9" transform="translate(60,120)"/>
<path d="M0 0 C6.6 0 13.2 0 20 0 C20 6.6 20 13.2 20 20 C17.03 20 14.06 20 11 20 C10.67 19.01 10.34 18.02 10 17 C8.00377639 14.1165659 6.87733716 13.97713066 3.3125 13.3125 C2.219375 13.209375 1.12625 13.10625 0 13 C0 8.71 0 4.42 0 0 Z " fill="#FDFEFD" transform="translate(280,120)"/>
<path d="M0 0 C6.6 0 13.2 0 20 0 C20.12375 2.7225 20.2475 5.445 20.375 8.25 C20.42962402 9.10110352 20.48424805 9.95220703 20.54052734 10.82910156 C20.58882881 13.0218843 20.54797639 14.87078207 20 17 C16.9765625 19.546875 16.9765625 19.546875 14 21 C13.67 19.35 13.34 17.7 13 16 C9.01336197 15.26949555 9.01336197 15.26949555 5 15 C3.10041919 16.31318262 3.10041919 16.31318262 2 18 C1.34 18 0.68 18 0 18 C0 12.06 0 6.12 0 0 Z " fill="#FBFDFA" transform="translate(120,120)"/>
<path d="M0 0 C0 6.6 0 13.2 0 20 C-6.6 20 -13.2 20 -20 20 C-20 11 -20 11 -18.390625 8.73046875 C-17.68421875 8.22128906 -16.9778125 7.71210938 -16.25 7.1875 C-15.51265625 6.63320312 -14.7753125 6.07890625 -14.015625 5.5078125 C-13.35046875 5.01023438 -12.6853125 4.51265625 -12 4 C-11.34 3.195625 -10.68 2.39125 -10 1.5625 C-8 0 -8 0 0 0 Z " fill="#FCFDFB" transform="translate(120,180)"/>
<path d="M0 0 C6.6 0 13.2 0 20 0 C20 4.29 20 8.58 20 13 C18.081875 13.0309375 18.081875 13.0309375 16.125 13.0625 C10.66120788 13.6175519 7.24365364 16.22516071 2.96875 19.50390625 C1 21 1 21 0 21 C0 14.07 0 7.14 0 0 Z " fill="#FCFDFB" transform="translate(240,120)"/>
<path d="M0 0 C6.6 0 13.2 0 20 0 C20 4.95 20 9.9 20 15 C13.4 15 6.8 15 0 15 C0 10.05 0 5.1 0 0 Z " fill="#FEFEFE" transform="translate(200,200)"/>
<path d="M0 0 C6.6 0 13.2 0 20 0 C20 4.95 20 9.9 20 15 C13.4 15 6.8 15 0 15 C0 10.05 0 5.1 0 0 Z " fill="#EDEDED" transform="translate(180,200)"/>
<path d="M0 0 C6.6 0 13.2 0 20 0 C20 4.95 20 9.9 20 15 C13.4 15 6.8 15 0 15 C0 10.05 0 5.1 0 0 Z " fill="#FEFEFE" transform="translate(160,200)"/>
<path d="M0 0 C6.6 0 13.2 0 20 0 C20 4.95 20 9.9 20 15 C13.4 15 6.8 15 0 15 C0 10.05 0 5.1 0 0 Z " fill="#EDEDED" transform="translate(140,200)"/>
<path d="M0 0 C6.6 0 13.2 0 20 0 C20 4.95 20 9.9 20 15 C13.4 15 6.8 15 0 15 C0 10.05 0 5.1 0 0 Z " fill="#FEFEFE" transform="translate(120,200)"/>
<path d="M0 0 C6.6 0 13.2 0 20 0 C20 4.95 20 9.9 20 15 C13.4 15 6.8 15 0 15 C0 10.05 0 5.1 0 0 Z " fill="#FEFEFE" transform="translate(80,200)"/>
<path d="M0 0 C6.6 0 13.2 0 20 0 C20 4.95 20 9.9 20 15 C13.4 15 6.8 15 0 15 C0 10.05 0 5.1 0 0 Z " fill="#FEFEFE" transform="translate(0,200)"/>
<path d="M0 0 C0.75410156 0.00451172 1.50820313 0.00902344 2.28515625 0.01367188 C4.14847127 0.02546501 6.01174555 0.04340058 7.875 0.0625 C7.875 5.0125 7.875 9.9625 7.875 15.0625 C1.275 15.0625 -5.325 15.0625 -12.125 15.0625 C-12.125 11.1025 -12.125 7.1425 -12.125 3.0625 C-11.465 3.0625 -10.805 3.0625 -10.125 3.0625 C-10.125 2.4025 -10.125 1.7425 -10.125 1.0625 C-6.93675432 -0.53162284 -3.49603338 -0.03924735 0 0 Z " fill="#FEFEFE" transform="translate(292.125,199.9375)"/>
<path d="M0 0 C6.6 0 13.2 0 20 0 C20 4.62 20 9.24 20 14 C16.54947917 14.1953125 13.09895833 14.390625 9.6484375 14.5859375 C5.53320274 14.92534237 5.53320274 14.92534237 0 17 C0 11.39 0 5.78 0 0 Z " fill="#ECEDEB" transform="translate(20,120)"/>
<path d="M0 0 C5.94 0 11.88 0 18 0 C20 5 20 5 20 15 C13.4 15 6.8 15 0 15 C0 10.05 0 5.1 0 0 Z " fill="#FEFEFD" transform="translate(40,200)"/>
<path d="M0 0 C6.6 0 13.2 0 20 0 C20 6.6 20 13.2 20 20 C12.4375 16.125 12.4375 16.125 10.09936523 14.91455078 C5.79279627 12.7357463 1.6842165 11.16951529 -3 10 C-2.01 9.67 -1.02 9.34 0 9 C0 6.03 0 3.06 0 0 Z " fill="#EAECE8" transform="translate(180,0)"/>
<path d="M0 0 C0.05411124 2.41696872 0.09372278 4.83271787 0.125 7.25 C0.15013672 8.27287109 0.15013672 8.27287109 0.17578125 9.31640625 C0.21213482 13.0608235 0.07944349 15.82352727 -2 19 C-4.75 19.3125 -4.75 19.3125 -8 19 C-8.61875 18.175 -9.2375 17.35 -9.875 16.5 C-11.68170042 13.82815729 -11.68170042 13.82815729 -14.0234375 13.66796875 C-16.01862023 13.68547035 -18.01163261 13.83430272 -20 14 C-20 10.04 -20 6.08 -20 2 C-19.08476562 1.93941406 -18.16953125 1.87882812 -17.2265625 1.81640625 C-15.44378906 1.69072266 -15.44378906 1.69072266 -13.625 1.5625 C-12.44164062 1.48128906 -11.25828125 1.40007812 -10.0390625 1.31640625 C-6.40357712 0.93790456 -3.75684693 -0.09886439 0 0 Z " fill="#FCFDFA" transform="translate(180,121)"/>
<path d="M0 0 C5.61 0 11.22 0 17 0 C16.01 2.31 15.02 4.62 14 7 C13.53939713 12.25087275 14.26585356 14.79756069 16 20 C10.72 20 5.44 20 0 20 C0 13.4 0 6.8 0 0 Z " fill="#EBEDEA" transform="translate(0,140)"/>
<path d="M0 0 C6.6 0 13.2 0 20 0 C20 4.62 20 9.24 20 14 C13.4 14.33 6.8 14.66 0 15 C0 10.05 0 5.1 0 0 Z " fill="#FCFDFB" transform="translate(80,120)"/>
<path d="M0 0 C4.62 0 9.24 0 14 0 C14 6.6 14 13.2 14 20 C9.38 20 4.76 20 0 20 C0 13.4 0 6.8 0 0 Z " fill="#FDFEFD" transform="translate(200,160)"/>
<path d="M0 0 C18.82758621 4.82758621 18.82758621 4.82758621 23 9 C23.375 11.4375 23.375 11.4375 23 14 C19.22758066 17.60802492 15.98224256 17.54537804 10.97265625 17.4375 C6.10608553 16.72126357 2.16428544 14.529284 -2 12 C-1.34 11.67 -0.68 11.34 0 11 C0 7.37 0 3.74 0 0 Z " fill="#E7EEE3" transform="translate(20,164)"/>
<path d="M0 0 C2.64 0 5.28 0 8 0 C8 6.6 8 13.2 8 20 C1.4 20 -5.2 20 -12 20 C-12 17.03 -12 14.06 -12 11 C-9.02148438 10.70703125 -9.02148438 10.70703125 -6.04296875 10.4140625 C-3.70011858 10.07334609 -3.70011858 10.07334609 -1 8 C-0.42251197 6.03638136 -0.42251197 6.03638136 -0.3125 3.875 C-0.209375 2.59625 -0.10625 1.3175 0 0 Z " fill="#FCFDFB" transform="translate(192,180)"/>
<path d="M0 0 C6.6 0 13.2 0 20 0 C20 4.95 20 9.9 20 15 C13.4 14.34 6.8 13.68 0 13 C0 8.71 0 4.42 0 0 Z " fill="#FDFEFD" transform="translate(200,120)"/>
<path d="M0 0 C2.19950957 2.19950957 2.5611184 3.32674982 3.40234375 6.26171875 C3.65161621 7.12563232 3.90088867 7.9895459 4.15771484 8.87963867 C4.41504395 9.80623291 4.67237305 10.73282715 4.9375 11.6875 C5.20256348 12.63923096 5.46762695 13.59096191 5.74072266 14.5715332 C6.50999836 17.37700179 7.26097137 20.18642348 8 23 C8.18804199 23.71542969 8.37608398 24.43085937 8.56982422 25.16796875 C12.69813856 41.4337747 13.42107834 60.90610038 4.859375 75.95703125 C3.93898437 77.46330078 3.93898437 77.46330078 3 79 C2.34 78.34 1.68 77.68 1 77 C0.01 77.99 -0.98 78.98 -2 80 C-2.66 79.67 -3.32 79.34 -4 79 C-3.41992188 78.30777344 -3.41992188 78.30777344 -2.828125 77.6015625 C7.36207075 64.83859455 8.51456487 49.80545914 7 34 C5.38930229 24.85908609 2.93469351 15.80408054 0 7 C-1.65 8.98 -3.3 10.96 -5 13 C-5.66 11.68 -6.32 10.36 -7 9 C-6.401875 8.443125 -5.80375 7.88625 -5.1875 7.3125 C-3.0136554 5.01443571 -1.53101917 2.75583451 0 0 Z " fill="#91BB76" transform="translate(211,15)"/>
<path d="M0 0 C0.66 0.33 1.32 0.66 2 1 C1.67 6.28 1.34 11.56 1 17 C3.31 17 5.62 17 8 17 C8 21.95 8 26.9 8 32 C1.4 32 -5.2 32 -12 32 C-12 28.7 -12 25.4 -12 22 C-11.34 22.33 -10.68 22.66 -10 23 C-6.5 23.25 -6.5 23.25 -3 23 C-0.51942372 20.51942372 -0.70980995 19.63807536 -0.5859375 16.2109375 C-0.54726562 15.26992187 -0.50859375 14.32890625 -0.46875 13.359375 C-0.4378125 12.37453125 -0.406875 11.3896875 -0.375 10.375 C-0.31699219 8.88613281 -0.31699219 8.88613281 -0.2578125 7.3671875 C-0.1633686 4.91164615 -0.07780125 2.4561159 0 0 Z " fill="#E7ECE4" transform="translate(72,183)"/>
<path d="M0 0 C0.66 0 1.32 0 2 0 C0.78991883 6.17141395 -0.84280578 8.38996404 -6 12 C-10.99640222 15.01689541 -16.34417532 14.59132238 -22 14 C-24.71125229 13.17353551 -27.18531059 12.18155388 -29.74609375 10.97265625 C-32.15222634 9.93430787 -34.42181083 9.43197173 -37 9 C-36.34 8.67 -35.68 8.34 -35 8 C-35 5.69 -35 3.38 -35 1 C-34.46890625 1.34933594 -33.9378125 1.69867188 -33.390625 2.05859375 C-32.68421875 2.51363281 -31.9778125 2.96867188 -31.25 3.4375 C-30.55390625 3.88996094 -29.8578125 4.34242188 -29.140625 4.80859375 C-23.31803406 8.04926936 -16.47182941 7.45133555 -10 7 C-5.59102221 5.45299025 -3.20234598 3.31671548 0 0 Z " fill="#DDEAD3" transform="translate(275,183)"/>
<path d="M0 0 C4.29 0 8.58 0 13 0 C13 6.27 13 12.54 13 19 C7 19 7 19 4.25 17.4375 C-0.41135081 12.38770329 -0.22780517 6.49244724 0 0 Z " fill="#FCFDFA" transform="translate(247,160)"/>
<path d="M0 0 C4.29 0 8.58 0 13 0 C12.360625 1.794375 11.72125 3.58875 11.0625 5.4375 C8.52518276 13.56050149 8.2026795 21.53813081 8 30 C7.67 30 7.34 30 7 30 C7 26.7 7 23.4 7 20 C4.69 20 2.38 20 0 20 C0 13.4 0 6.8 0 0 Z " fill="#E8ECE5" transform="translate(100,40)"/>
<path d="M0 0 C3.5625 1.5 3.5625 1.5 6 3 C2.47968852 4.76015574 -1.30197375 2.89809209 -5 2 C-5 6.29 -5 10.58 -5 15 C-9.29 15 -13.58 15 -18 15 C-17.67 18.96 -17.34 22.92 -17 27 C-20.39360137 21.90959794 -19.54694965 15.94124053 -19 10 C-15.29902204 1.74397225 -8.68098285 -1.34624868 0 0 Z " fill="#EBEFE8" transform="translate(265,145)"/>
<path d="M0 0 C0.66 0 1.32 0 2 0 C2 0.66 2 1.32 2 2 C1.34 2 0.68 2 0 2 C0 5.96 0 9.92 0 14 C-6.6 14 -13.2 14 -20 14 C-20 11.69 -20 9.38 -20 7 C-21.65 7 -23.3 7 -25 7 C-25 6.67 -25 6.34 -25 6 C-23.65808594 5.96132812 -23.65808594 5.96132812 -22.2890625 5.921875 C-10.30922434 5.5352667 -10.30922434 5.5352667 0 0 Z " fill="#E8EDE5" transform="translate(280,201)"/>
<path d="M0 0 C0.66 0.99 1.32 1.98 2 3 C-0.97 3 -3.94 3 -7 3 C-6.67 19.83 -6.34 36.66 -6 54 C-3.69 54.33 -1.38 54.66 1 55 C2.12083165 49.51949221 2.21875745 44.14061882 2.31640625 38.5703125 C2.33718735 37.57998016 2.35796844 36.58964783 2.37937927 35.56930542 C2.4445032 32.42127082 2.50358629 29.27315633 2.5625 26.125 C2.60572059 23.9843669 2.64933599 21.84374174 2.69335938 19.703125 C2.80014628 14.46883324 2.90198012 9.23446288 3 4 C3.33 4 3.66 4 4 4 C4.07603428 10.90503897 4.12859318 17.80997007 4.16479492 24.71533203 C4.1798859 27.06465693 4.20036092 29.41395363 4.22631836 31.76318359 C4.2626872 35.13906815 4.27972338 38.51458037 4.29296875 41.890625 C4.30845261 42.94179504 4.32393646 43.99296509 4.33988953 45.07598877 C4.34022942 46.54706085 4.34022942 46.54706085 4.34057617 48.04785156 C4.34723801 48.90944885 4.35389984 49.77104614 4.36076355 50.65875244 C3.9137046 53.56003131 3.05458912 54.9207547 1 57 C-4.96726986 57.74590873 -4.96726986 57.74590873 -7.6934967 55.77684021 C-9.40734928 53.44600631 -9.38615877 52.01278381 -9.40405273 49.13305664 C-9.41673691 48.1451564 -9.42942108 47.15725616 -9.44248962 46.13941956 C-9.43955399 45.07376266 -9.43661835 44.00810577 -9.43359375 42.91015625 C-9.4388356 41.81408554 -9.44407745 40.71801483 -9.44947815 39.58872986 C-9.45590481 37.2695297 -9.45455307 34.95029697 -9.44604492 32.63110352 C-9.43754107 29.07965083 -9.46627953 25.52980906 -9.49804688 21.97851562 C-9.49965907 19.72656298 -9.49908101 17.47460749 -9.49609375 15.22265625 C-9.50732773 14.15902359 -9.51856171 13.09539093 -9.53013611 11.99952698 C-9.46066101 4.65981693 -9.46066101 4.65981693 -7.13305664 1.32592773 C-4.4936568 -0.31474762 -3.05125904 -0.56207403 0 0 Z " fill="#85B664" transform="translate(168,134)"/>
<path d="M0 0 C2.97 0 5.94 0 9 0 C9 6.6 9 13.2 9 20 C6.03 20 3.06 20 0 20 C0 13.4 0 6.8 0 0 Z " fill="#FEFEFE" transform="translate(291,160)"/>
<path d="M0 0 C5.25830521 -0.31549831 8.47929032 0.26654764 13 3 C16.00617269 6.00617269 15.59585316 8.82381598 16 13 C10.72 13 5.44 13 0 13 C0 8.71 0 4.42 0 0 Z " fill="#FCFDFA" transform="translate(260,147)"/>
<path d="M0 0 C6.87480916 0.5221374 13.30710662 1.35420654 20 3 C20 5.31 20 7.62 20 10 C13.4 10 6.8 10 0 10 C0 6.7 0 3.4 0 0 Z " fill="#FCFDFA" transform="translate(240,205)"/>
<path d="M0 0 C6.6 0.33 13.2 0.66 20 1 C20 3.64 20 6.28 20 9 C13.4 9 6.8 9 0 9 C0 6.03 0 3.06 0 0 Z " fill="#FDFEFC" transform="translate(20,191)"/>
<path d="M0 0 C1.98 0 3.96 0 6 0 C6 15.51 6 31.02 6 47 C5.67 47 5.34 47 5 47 C5 38.09 5 29.18 5 20 C3.68 20 2.36 20 1 20 C1 26.6 1 33.2 1 40 C0.67 40 0.34 40 0 40 C0 26.8 0 13.6 0 0 Z " fill="#E6F0DF" transform="translate(172,140)"/>
<path d="M0 0 C0.99 0.66 1.98 1.32 3 2 C3.29296875 4.6015625 3.29296875 4.6015625 3.1875 7.625 C3.16042969 8.62789062 3.13335937 9.63078125 3.10546875 10.6640625 C3.07066406 11.43492187 3.03585938 12.20578125 3 13 C-2.94970065 12.73556886 -7.43322356 12.21548594 -12 8 C-12.625 5.4375 -12.625 5.4375 -12 3 C-8.70240087 -0.98459895 -4.7715233 -0.37869233 0 0 Z " fill="#F3FAEE" transform="translate(37,144)"/>
<path d="M0 0 C2.31 0 4.62 0 7 0 C7.797837 6.69613196 8.12910853 13.25766581 8 20 C5.36 20 2.72 20 0 20 C0 13.4 0 6.8 0 0 Z " fill="#FCFDFA" transform="translate(100,60)"/>
<path d="M0 0 C6.6 0 13.2 0 20 0 C20 2.97 20 5.94 20 9 C13.4 8.34 6.8 7.68 0 7 C0 4.69 0 2.38 0 0 Z " fill="#FDFEFC" transform="translate(160,0)"/>
<path d="M0 0 C1.32 0 2.64 0 4 0 C4.18175781 0.94101563 4.36351562 1.88203125 4.55078125 2.8515625 C4.92783203 4.71941406 4.92783203 4.71941406 5.3125 6.625 C5.55613281 7.85476562 5.79976562 9.08453125 6.05078125 10.3515625 C6.87552454 14.03960528 6.87552454 14.03960528 8.66796875 17.3359375 C9.10753906 18.21507812 9.54710937 19.09421875 10 20 C9.67 20.66 9.34 21.32 9 22 C8.67 21.67 8.34 21.34 8 21 C5.67182036 20.63239269 3.3381615 20.29758419 1 20 C1 22.64 1 25.28 1 28 C0.34 28.33 -0.32 28.66 -1 29 C-0.67 19.43 -0.34 9.86 0 0 Z " fill="#E5EFDF" transform="translate(228,160)"/>
<path d="M0 0 C3.63 0 7.26 0 11 0 C11 6.6 11 13.2 11 20 C10.01 20 9.02 20 8 20 C7.75765625 19.20335937 7.5153125 18.40671875 7.265625 17.5859375 C5.41972979 11.7500688 3.6269795 6.92232932 0 2 C0 1.34 0 0.68 0 0 Z " fill="#F9FDF6" transform="translate(109,140)"/>
<path d="M0 0 C3.63 0 7.26 0 11 0 C11 6.6 11 13.2 11 20 C10.01 20 9.02 20 8 20 C7.91363281 19.19175781 7.82726563 18.38351563 7.73828125 17.55078125 C6.88575095 11.06685811 6.3454008 7.24890833 1 3 C0.67 2.01 0.34 1.02 0 0 Z " fill="#F7FDF3" transform="translate(47,160)"/>
<path d="M0 0 C4.93264249 2.55440415 4.93264249 2.55440415 7 5 C7.62399396 8.73347646 7.41382683 12.24928385 7 16 C4.69 16 2.38 16 0 16 C0 10.72 0 5.44 0 0 Z " fill="#FBFEF8" transform="translate(73,184)"/>
<path d="M0 0 C0.66 0 1.32 0 2 0 C0.79255648 6.15796193 -0.87984083 8.37322059 -6 12 C-8.95664519 13.4783226 -11.74229737 13.06032783 -15 13 C-15 11.68 -15 10.36 -15 9 C-14.25234375 8.68546875 -13.5046875 8.3709375 -12.734375 8.046875 C-11.74953125 7.61890625 -10.7646875 7.1909375 -9.75 6.75 C-8.77546875 6.33234375 -7.8009375 5.9146875 -6.796875 5.484375 C-3.9534301 3.97528413 -2.21711719 2.29559921 0 0 Z " fill="#F4FCEE" transform="translate(275,183)"/>
<path d="M0 0 C0 3.96 0 7.92 0 12 C-2.64 12 -5.28 12 -8 12 C-7.67 8.7 -7.34 5.4 -7 2 C-1.125 0 -1.125 0 0 0 Z " fill="#FBFDF9" transform="translate(200,148)"/>
<path d="M0 0 C1.32 0 2.64 0 4 0 C4 6.6 4 13.2 4 20 C2.68 20 1.36 20 0 20 C0 13.4 0 6.8 0 0 Z " fill="#FDFEFB" transform="translate(173,160)"/>
<path d="M0 0 C0.33 0 0.66 0 1 0 C1.47347788 8.68042778 -0.89283091 15.37240026 -5 23 C-5.66 22.34 -6.32 21.68 -7 21 C-7.99 21.99 -8.98 22.98 -10 24 C-10.66 23.67 -11.32 23.34 -12 23 C-11.43732422 22.34257813 -11.43732422 22.34257813 -10.86328125 21.671875 C-5.59346313 15.14101728 -2.63873135 7.91619405 0 0 Z " fill="#83B561" transform="translate(219,71)"/>
<path d="M0 0 C-1.65 0.66 -3.3 1.32 -5 2 C7.21 2 19.42 2 32 2 C32 2.33 32 2.66 32 3 C27.12283698 4.27096493 22.32429344 4.12655874 17.32421875 4.09765625 C16.3990596 4.0962413 15.47390045 4.09482635 14.52070618 4.09336853 C11.57627073 4.08778715 8.63191233 4.07523805 5.6875 4.0625 C3.68685006 4.05748259 1.68619892 4.05292011 -0.31445312 4.04882812 C-5.20966494 4.03782381 -10.10481942 4.02057198 -15 4 C-12.83900627 1.83900627 -11.4789582 1.28436284 -8.625 0.3125 C-7.46871094 -0.09548828 -7.46871094 -0.09548828 -6.2890625 -0.51171875 C-3.79944692 -1.04278009 -2.38446982 -0.81115526 0 0 Z " fill="#E9FBDB" transform="translate(160,99)"/>
<path d="M0 0 C0 3.96 0 7.92 0 12 C-2.97 12 -5.94 12 -9 12 C-7.125 6.25 -7.125 6.25 -6 4 C-5.01 4 -4.02 4 -3 4 C-3 3.01 -3 2.02 -3 1 C-1 0 -1 0 0 0 Z " fill="#F9FCF7" transform="translate(220,88)"/>
<path d="M0 0 C0 2.97 0 5.94 0 9 C-3.96 9 -7.92 9 -12 9 C-10.68 7.68 -9.36 6.36 -8 5 C-7.34 5 -6.68 5 -6 5 C-5.67 3.68 -5.34 2.36 -5 1 C-1.125 0 -1.125 0 0 0 Z " fill="#FAFDF8" transform="translate(200,111)"/>
<path d="M0 0 C1 3 1 3 -0.0390625 5.5234375 C-5.53288294 15.40148904 -5.53288294 15.40148904 -10 19 C-10.66 19 -11.32 19 -12 19 C-13.36161311 19.96113866 -14.69855198 20.95884159 -16 22 C-16.66 21.67 -17.32 21.34 -18 21 C-17.34773437 20.45472656 -16.69546875 19.90945312 -16.0234375 19.34765625 C-10.25719668 14.37235996 -5.88472945 9.53579483 -2 3 C-1.34 2.01 -0.68 1.02 0 0 Z " fill="#80B45E" transform="translate(203,56)"/>
<path d="M0 0 C0 3.63 0 7.26 0 11 C-2.31 11 -4.62 11 -7 11 C-6.77139942 9.53815942 -6.51629608 8.08044581 -6.25 6.625 C-6.11078125 5.81289062 -5.9715625 5.00078125 -5.828125 4.1640625 C-5 2 -5 2 -2.984375 0.7109375 C-1 0 -1 0 0 0 Z " fill="#FAFDF7" transform="translate(80,149)"/>
<path d="M0 0 C3 0.125 3 0.125 4 1.125 C4.125 3.625 4.125 3.625 4 6.125 C3 7.125 3 7.125 0 7.25 C-3 7.125 -3 7.125 -4 6.125 C-4.125 3.625 -4.125 3.625 -4 1.125 C-3 0.125 -3 0.125 0 0 Z " fill="#FBFEF8" transform="translate(130,100.875)"/>
<path d="M0 0 C1.26328125 0.01804688 2.5265625 0.03609375 3.828125 0.0546875 C4.79234375 0.07789063 5.7565625 0.10109375 6.75 0.125 C6.75 0.455 6.75 0.785 6.75 1.125 C5.95335938 1.15078125 5.15671875 1.1765625 4.3359375 1.203125 C-3.43462592 1.61906757 -7.87806874 2.65672785 -13.4375 8.375 C-15.25 10.125 -15.25 10.125 -18.25 10.125 C-16.5125401 5.7023748 -13.43818584 3.54382369 -9.5390625 1.015625 C-6.30769655 -0.24163001 -3.45173725 -0.06392106 0 0 Z " fill="#8ABC6A" transform="translate(33.25,133.875)"/>
<path d="M0 0 C-0.86625 0.515625 -1.7325 1.03125 -2.625 1.5625 C-5.97005585 3.75818832 -8.25341211 6.47479614 -10.703125 9.609375 C-11.13109375 10.06828125 -11.5590625 10.5271875 -12 11 C-12.66 11 -13.32 11 -14 11 C-12.67761712 5.31375361 -10.55651636 3.32245984 -6 0 C-3.50907189 -1.24546405 -2.58919267 -0.7767578 0 0 Z " fill="#D2E5C4" transform="translate(260,146)"/>
<path d="M0 0 C2.97 0 5.94 0 9 0 C6.14723863 2.93200474 3.34920216 5.64315404 0 8 C0 5.36 0 2.72 0 0 Z " fill="#E7EEE2" transform="translate(120,20)"/>
<path d="M0 0 C6.08630451 0.06755055 9.75609878 1.16314041 14.875 4.375 C11.875 5.375 11.875 5.375 8.4375 3.9375 C3.03081071 1.71418852 -2.3753357 2.11626511 -8.125 2.375 C-5.4008438 -0.3491562 -3.8031266 0.0441198 0 0 Z " fill="#89BA69" transform="translate(90.125,133.625)"/>
<path d="M0 0 C0 0.66 0 1.32 0 2 C-5.15161986 6.59468798 -10.27653809 6.76073089 -17 7 C-14.03171001 5.02114001 -11.22552946 3.74135003 -7.9375 2.375 C-6.87402344 1.92898437 -5.81054688 1.48296875 -4.71484375 1.0234375 C-2 0 -2 0 0 0 Z " fill="#E3F5D8" transform="translate(194,114)"/>
<path d="M0 0 C0.33 0 0.66 0 1 0 C1.3125 3.1875 1.3125 3.1875 1 7 C-1.1727422 9.63016161 -2.94673788 11.47336894 -6 13 C-6.75 11.25 -6.75 11.25 -7 9 C-5.25 7.0625 -5.25 7.0625 -3 5 C-1.98343919 3.34338239 -0.97934924 1.67888441 0 0 Z " fill="#88B769" transform="translate(211,15)"/>
<path d="M0 0 C-1.5577308 3.82352106 -3.91595258 6.29205593 -7 9 C-7.99 9 -8.98 9 -10 9 C-8.5124715 4.98367305 -4.56813239 0 0 0 Z " fill="#80B75C" transform="translate(247,137)"/>
<path d="M0 0 C3.51233939 5.26850908 4.25153688 9.71157812 4 16 C3.34 16 2.68 16 2 16 C0.40837921 10.42932723 -0.20674944 5.78898419 0 0 Z " fill="#8EBA72" transform="translate(212,17)"/>
<path d="M0 0 C0.33 0 0.66 0 1 0 C1.05441656 1.89551022 1.09298035 3.7914792 1.125 5.6875 C1.14820313 6.74324219 1.17140625 7.79898438 1.1953125 8.88671875 C0.99858729 12.02251859 0.33057654 14.17645373 -1 17 C-1.33 17 -1.66 17 -2 17 C-2.21824777 10.9981863 -1.5056904 5.80766296 0 0 Z " fill="#8ABC69" transform="translate(234,150)"/>
<path d="M0 0 C-1.1446875 0.804375 -1.1446875 0.804375 -2.3125 1.625 C-5.22864474 4.20205814 -6.4705622 6.45814404 -8 10 C-8.99 10 -9.98 10 -11 10 C-9.13369612 2.39122265 -8.22012842 -0.54800856 0 0 Z " fill="#85B964" transform="translate(286,134)"/>
<path d="M0 0 C-6.13104736 4.31960155 -11.59762973 4.75690081 -19 5 C-15.66818403 2.77878936 -12.78041679 1.91331484 -8.9375 0.8125 C-7.68839844 0.44769531 -6.43929687 0.08289063 -5.15234375 -0.29296875 C-2 -1 -2 -1 0 0 Z " fill="#8DBD6E" transform="translate(166,89)"/>
<path d="M0 0 C0.33 0.99 0.66 1.98 1 3 C-0.14453125 4.82421875 -0.14453125 4.82421875 -1.8125 6.6875 C-2.35519531 7.31011719 -2.89789063 7.93273437 -3.45703125 8.57421875 C-5 10 -5 10 -7 10 C-6.42424336 6.64749299 -5.40693737 5.06181371 -2.9375 2.75 C-2.38964844 2.22921875 -1.84179688 1.7084375 -1.27734375 1.171875 C-0.64505859 0.59179688 -0.64505859 0.59179688 0 0 Z " fill="#7AB454" transform="translate(192,73)"/>
<path d="M0 0 C0.33 0 0.66 0 1 0 C1 2.64 1 5.28 1 8 C-0.65 8 -2.3 8 -4 8 C-2.25 2.25 -2.25 2.25 0 0 Z " fill="#DFEBD7" transform="translate(139,152)"/>
<path d="M0 0 C0.66 0.33 1.32 0.66 2 1 C0.90344712 2.31886772 -0.20253423 3.62990057 -1.3125 4.9375 C-1.92738281 5.66839844 -2.54226562 6.39929687 -3.17578125 7.15234375 C-5 9 -5 9 -8 10 C-6.34908222 5.70761377 -3.26245434 3.1206085 0 0 Z " fill="#EBF9E0" transform="translate(137,53)"/>
<path d="M0 0 C1 3 1 3 0.00390625 5.26171875 C-0.47175781 6.06222656 -0.94742188 6.86273438 -1.4375 7.6875 C-2.14712891 8.89986328 -2.14712891 8.89986328 -2.87109375 10.13671875 C-3.24363281 10.75160156 -3.61617187 11.36648437 -4 12 C-4.99 11.34 -5.98 10.68 -7 10 C-6.401875 9.278125 -5.80375 8.55625 -5.1875 7.8125 C-3.22577804 5.29028605 -1.58276017 2.7698303 0 0 Z " fill="#99BE80" transform="translate(203,56)"/>
<path d="M0 0 C0.66 0 1.32 0 2 0 C0.55922954 3.36179774 -1.24750021 5.59156268 -4 8 C-4.66 8 -5.32 8 -6 8 C-6 8.66 -6 9.32 -6 10 C-6.66 9.67 -7.32 9.34 -8 9 C-6.85459775 7.68712379 -5.70866567 6.37470979 -4.5625 5.0625 C-3.92441406 4.33160156 -3.28632812 3.60070312 -2.62890625 2.84765625 C-1.77458541 1.87860647 -0.91348825 0.91348825 0 0 Z " fill="#85B864" transform="translate(127,21)"/>
<path d="M0 0 C-0.59861742 2.35171131 -1.26924352 4.6859378 -2 7 C-2.99 7.495 -2.99 7.495 -4 8 C-4.33 7.34 -4.66 6.68 -5 6 C-5.66 5.67 -6.32 5.34 -7 5 C-2.25 0 -2.25 0 0 0 Z " fill="#D8F1C7" transform="translate(277,183)"/>
<path d="M0 0 C5.859375 -0.390625 5.859375 -0.390625 8 0 C9.32 1.32 10.64 2.64 12 4 C7.71 3.34 3.42 2.68 -1 2 C-0.67 1.34 -0.34 0.68 0 0 Z " fill="#7CB359" transform="translate(84,143)"/>
<path d="M0 0 C2 1 2 1 2.6328125 2.84765625 C2.79523438 3.57855469 2.95765625 4.30945313 3.125 5.0625 C3.29257813 5.79597656 3.46015625 6.52945312 3.6328125 7.28515625 C3.75398437 7.85105469 3.87515625 8.41695312 4 9 C2.5 7.625 2.5 7.625 1 6 C1 5.34 1 4.68 1 4 C0.34 4 -0.32 4 -1 4 C-1 4.66 -1 5.32 -1 6 C-1.66 5.67 -2.32 5.34 -3 5 C-2.01 3.35 -1.02 1.7 0 0 Z " fill="#DEF4D0" transform="translate(210,21)"/>
<path d="M0 0 C2.64 0 5.28 0 8 0 C7.34 1.32 6.68 2.64 6 4 C1.125 2.25 1.125 2.25 0 0 Z " fill="#DCEBD1" transform="translate(200,20)"/>
<path d="M0 0 C0.33 0 0.66 0 1 0 C1 1.98 1 3.96 1 6 C0.01 6.33 -0.98 6.66 -2 7 C-2 7.99 -2 8.98 -2 10 C-2.66 10 -3.32 10 -4 10 C-3.52449439 8.51965236 -3.04448784 7.04074979 -2.5625 5.5625 C-2.29566406 4.73878906 -2.02882812 3.91507812 -1.75390625 3.06640625 C-1 1 -1 1 0 0 Z " fill="#EAF9E0" transform="translate(219,82)"/>
</svg>
