<?xml version="1.0" encoding="UTF-8"?>
<svg version="1.1" xmlns="http://www.w3.org/2000/svg" width="225" height="225">
<path d="M0 0 C74.25 0 148.5 0 225 0 C225 74.25 225 148.5 225 225 C150.75 225 76.5 225 0 225 C0 150.75 0 76.5 0 0 Z " fill="#01BCF2" transform="translate(0,0)"/>
<path d="M0 0 C32.34 0 64.68 0 98 0 C98 74.25 98 148.5 98 225 C63.35 225 28.7 225 -7 225 C-7 224.67 -7 224.34 -7 224 C-5.21722656 223.97873047 -5.21722656 223.97873047 -3.3984375 223.95703125 C17.81958972 223.44802386 47.17344242 219.57239292 63.125 203.9140625 C67.62880818 198.88359933 69.12179663 196.36050556 69.16062927 189.51132202 C69.168261 188.500421 69.168261 188.500421 69.17604691 187.46909773 C69.19180318 185.19994095 69.20030486 182.93081608 69.20874023 180.66162109 C69.21827632 179.03885698 69.22816737 177.41609491 69.23838806 175.79333496 C69.2698077 170.45339378 69.29004671 165.11343687 69.30859375 159.7734375 C69.31189107 158.86505143 69.31518839 157.95666535 69.31858563 157.02075243 C69.3493729 148.45354841 69.3760816 139.88634091 69.39300442 131.31909752 C69.41490364 120.36067564 69.45685164 109.40274424 69.52644199 98.44451845 C69.5737073 90.73996099 69.59794153 83.03553573 69.6052013 75.33083785 C69.61015467 70.72939951 69.62520461 66.12851359 69.6649456 61.52723312 C69.70186926 57.19488066 69.71020318 52.86339476 69.69693947 48.53091431 C69.69699333 46.94425613 69.70725309 45.35755902 69.7286911 43.77104568 C69.94171264 32.69690755 69.94171264 32.69690755 64.47911167 23.38526344 C63.99100482 22.92812651 63.50289797 22.47098957 63 22 C62.35417969 21.31808594 61.70835937 20.63617187 61.04296875 19.93359375 C44.19413667 6.34811441 20.72327258 3.6236582 0 1 C0 0.67 0 0.34 0 0 Z " fill="#FEFEFE" transform="translate(127,0)"/>
<path d="M0 0 C30.69 0 61.38 0 93 0 C93 0.33 93 0.66 93 1 C91.43765625 1.25523438 91.43765625 1.25523438 89.84375 1.515625 C56.13466674 6.84627553 56.13466674 6.84627553 30 27 C28.56852807 29.86294387 28.85411638 32.31843123 28.8326416 35.51991272 C28.82684822 36.19722472 28.82105483 36.87453672 28.81508589 37.57237333 C28.79697859 39.8530108 28.78614066 42.13362344 28.77539062 44.41430664 C28.76421815 46.04530057 28.75270491 47.6762922 28.74087524 49.30728149 C28.70427415 54.67487379 28.67908829 60.04248977 28.65625 65.41015625 C28.65230413 66.3234044 28.64835827 67.23665254 28.64429283 68.17757487 C28.60786497 76.79177726 28.57642075 85.40598781 28.55518341 94.02024174 C28.52762389 105.03629017 28.47689631 116.05169362 28.39470911 127.06747347 C28.33887595 134.81365609 28.30994112 142.55966398 28.3007102 150.3060407 C28.294458 154.93163269 28.27638471 159.55646896 28.22932434 164.1818409 C28.18555324 168.53808063 28.17520109 172.8931542 28.18995285 177.24957657 C28.18962503 178.84389208 28.17741317 180.4382588 28.15210342 182.03237343 C28.02530508 190.46762157 28.22168206 196.86537869 34.17604828 203.36543941 C38.87485384 207.57634165 44.35445688 210.26848687 50 213 C51.44439453 213.70962891 51.44439453 213.70962891 52.91796875 214.43359375 C67.11845744 220.58522245 83.662208 222.91339893 99 224 C99 224.33 99 224.66 99 225 C66.33 225 33.66 225 0 225 C0 150.75 0 76.5 0 0 Z " fill="#FEFEFE" transform="translate(0,0)"/>
<path d="M0 0 C0.7191156 0.00182281 1.4382312 0.00364563 2.17913818 0.00552368 C21.01843244 0.08563648 41.98204609 1.01288537 57.875 12.3125 C58.49375 12.745625 59.1125 13.17875 59.75 13.625 C61.73828992 16.60743488 61.41123442 18.85676705 60.875 22.3125 C53.83356841 30.52750352 41.08188338 33.27874989 30.875 35.3125 C29.85019531 35.51875 28.82539063 35.725 27.76953125 35.9375 C3.54384881 39.95188236 -30.62347853 40.72880496 -52.37890625 27.3046875 C-55.29612497 25.18835528 -57.24630664 23.39355711 -59.125 20.3125 C-59.21299805 16.79257799 -58.26912757 15.49156759 -56.0625 12.75 C-41.33185484 0.5266987 -18.2388185 -0.09640526 0 0 Z " fill="#FBFDFE" transform="translate(111.125,11.6875)"/>
<path d="M0 0 C4.94156306 2.95658001 8.33444311 7.03720699 10.9375 12.125 C12.53604918 20.59731064 12.35528785 27.68317692 8.07421875 35.30078125 C5.91462287 38.35323331 3.62207757 40.302911 0.5625 42.4375 C3.57189857 46.57542303 7.0595391 49.71603647 10.953125 52.984375 C11.48421875 53.46390625 12.0153125 53.9434375 12.5625 54.4375 C12.5625 54.7675 12.5625 55.0975 12.5625 55.4375 C-1.43656824 56.82881844 -1.43656824 56.82881844 -6.1171875 53.57421875 C-7.5430912 51.97856461 -8.93289853 50.34993347 -10.28515625 48.69140625 C-13.40225178 45.42722454 -16.76996749 44.57118711 -20.9921875 43.2421875 C-26.68341857 41.36935427 -29.7859898 37.42329798 -32.484375 32.265625 C-34.82246515 25.32801326 -34.86674417 16.63894335 -31.875 9.875 C-25.19614729 -0.99589856 -11.84499653 -5.32796176 0 0 Z " fill="#FAFDFE" transform="translate(124.4375,98.5625)"/>
<path d="M0 0 C0 3.96 0 7.92 0 12 C-1.2375 11.505 -1.2375 11.505 -2.5 11 C-6.5873983 9.83217191 -9.76923344 9.8541115 -14 10 C-14.33 11.32 -14.66 12.64 -15 14 C-14.10796875 14.44730469 -13.2159375 14.89460938 -12.296875 15.35546875 C-11.12640625 15.96003906 -9.9559375 16.56460938 -8.75 17.1875 C-7.58984375 17.77917969 -6.4296875 18.37085937 -5.234375 18.98046875 C-1.23481774 21.47777685 1.44309217 23.75067099 2.6015625 28.4296875 C2.65685047 34.19806581 1.75411079 37.37542613 -2.19921875 41.625 C-7.17298216 45.42275427 -12.12471454 45.30778766 -18.125 45.25 C-18.93582031 45.25773437 -19.74664062 45.26546875 -20.58203125 45.2734375 C-21.36191406 45.27085937 -22.14179687 45.26828125 -22.9453125 45.265625 C-23.65187988 45.26336914 -24.35844727 45.26111328 -25.08642578 45.25878906 C-27 45 -27 45 -30 43 C-30.29296875 40.1796875 -30.29296875 40.1796875 -30.1875 36.875 C-30.16042969 35.77929688 -30.13335937 34.68359375 -30.10546875 33.5546875 C-30.07066406 32.71164063 -30.03585938 31.86859375 -30 31 C-29.030625 31.495 -28.06125 31.99 -27.0625 32.5 C-22.71271619 34.39857367 -18.66969796 34.28589988 -14 34 C-14.05809284 32.095069 -14.05809284 32.095069 -15 30 C-17.62796437 28.19092515 -17.62796437 28.19092515 -20.8125 26.625 C-28.86456988 22.12503229 -28.86456988 22.12503229 -31 17 C-31.65004971 11.79960229 -30.99935946 8.31157923 -28 4 C-21.04937754 -3.27613371 -9.06385665 -2.26596416 0 0 Z " fill="#F9FDFE" transform="translate(85,98)"/>
<path d="M0 0 C4.62 0 9.24 0 14 0 C14 11.55 14 23.1 14 35 C19.28 35 24.56 35 30 35 C30 38.63 30 42.26 30 46 C20.1 46 10.2 46 0 46 C0 30.82 0 15.64 0 0 Z " fill="#F3FBFE" transform="translate(142,97)"/>
<path d="M0 0 C2.4375 1.75 2.4375 1.75 4 5 C4.59724926 10.54156594 5.10099076 16.14289261 2 21 C-0.14882712 22.48194974 -1.88383421 22.97617112 -4.4375 23.5 C-7.58179368 22.88647928 -9.12938339 21.59257563 -11.05078125 19.046875 C-12.9839814 14.87816356 -12.63838955 10.46193545 -12 6 C-9.34354361 -0.03740089 -6.44527707 -0.6667528 0 0 Z " fill="#05BCF2" transform="translate(117,109)"/>
</svg>
