<?xml version="1.0" encoding="UTF-8"?>
<svg version="1.1" xmlns="http://www.w3.org/2000/svg" width="425" height="118">
<path d="M0 0 C140.25 0 280.5 0 425 0 C425 38.94 425 77.88 425 118 C284.75 118 144.5 118 0 118 C0 79.06 0 40.12 0 0 Z " fill="#FDFDFD" transform="translate(0,0)"/>
<path d="M0 0 C2.26702609 1.71199557 4.39708104 3.50645452 6.515625 5.3984375 C7.19238281 5.97078125 7.86914062 6.543125 8.56640625 7.1328125 C18.27177786 15.95245116 25.08796158 28.91110533 25.82421875 42.00390625 C26.17558602 52.10788132 25.47771474 60.96551524 21.515625 70.3984375 C21.18820313 71.25308594 20.86078125 72.10773438 20.5234375 72.98828125 C14.35045271 87.24922785 1.75129887 96.64460052 -12.296875 102.2734375 C-26.92401093 107.76088477 -42.3486965 106.63927064 -56.484375 100.3984375 C-60.39853693 98.34588917 -63.9466068 96.04132335 -67.484375 93.3984375 C-68.11472656 92.96144531 -68.74507812 92.52445312 -69.39453125 92.07421875 C-79.99279999 84.03498529 -86.31754519 70.56579439 -89.296875 57.9609375 C-90.2332212 40.17035966 -87.44514308 24.44153835 -75.62402344 10.5 C-56.44802351 -10.7377905 -24.4122901 -15.73748261 0 0 Z " fill="#7AE94D" transform="translate(89.484375,10.6015625)"/>
<path d="M0 0 C2.26702609 1.71199557 4.39708104 3.50645452 6.515625 5.3984375 C7.19238281 5.97078125 7.86914062 6.543125 8.56640625 7.1328125 C18.27177786 15.95245116 25.08796158 28.91110533 25.82421875 42.00390625 C26.17558602 52.10788132 25.47771474 60.96551524 21.515625 70.3984375 C21.18820313 71.25308594 20.86078125 72.10773438 20.5234375 72.98828125 C14.35045271 87.24922785 1.75129887 96.64460052 -12.296875 102.2734375 C-26.92401093 107.76088477 -42.3486965 106.63927064 -56.484375 100.3984375 C-60.39853693 98.34588917 -63.9466068 96.04132335 -67.484375 93.3984375 C-68.11472656 92.96144531 -68.74507812 92.52445312 -69.39453125 92.07421875 C-79.99279999 84.03498529 -86.31754519 70.56579439 -89.296875 57.9609375 C-90.2332212 40.17035966 -87.44514308 24.44153835 -75.62402344 10.5 C-56.44802351 -10.7377905 -24.4122901 -15.73748261 0 0 Z M-72.2578125 14.72265625 C-80.24704222 24.3237481 -84.06592249 35.33646412 -83.921875 47.7109375 C-83.91357666 48.63374512 -83.90527832 49.55655273 -83.89672852 50.50732422 C-83.5638361 63.98650553 -78.45502961 75.11005825 -69.359375 85.0859375 C-58.63776454 95.08474276 -46.50758358 99.96650822 -31.984375 99.7734375 C-30.67533203 99.79083984 -30.67533203 99.79083984 -29.33984375 99.80859375 C-16.88662687 99.75324612 -4.44455046 94.83623196 4.76171875 86.33984375 C15.25996044 74.7192956 20.9202842 61.50316212 20.7265625 45.71484375 C19.77502849 30.75461458 13.49372938 18.51348336 2.515625 8.3984375 C-21.55654061 -9.97242573 -51.42920235 -7.06473119 -72.2578125 14.72265625 Z " fill="#1E3947" transform="translate(89.484375,10.6015625)"/>
<path d="M0 0 C1.11181641 0.05478516 2.22363281 0.10957031 3.36914062 0.16601562 C5.09487305 0.27526367 5.09487305 0.27526367 6.85546875 0.38671875 C8.02529297 0.44794922 9.19511719 0.50917969 10.40039062 0.57226562 C13.28235958 0.72518643 16.16266423 0.89298967 19.04296875 1.07421875 C19.04296875 2.39421875 19.04296875 3.71421875 19.04296875 5.07421875 C17.06296875 5.40421875 15.08296875 5.73421875 13.04296875 6.07421875 C13.37425781 6.64269531 13.70554687 7.21117187 14.046875 7.796875 C15.71233114 11.60456492 15.13989372 15.13653938 14.04296875 19.07421875 C10.83368351 23.15087838 7.61595835 25.66098103 2.46484375 26.48828125 C1.583125 26.55789062 0.70140625 26.6275 -0.20703125 26.69921875 C-1.0990625 26.77398437 -1.99109375 26.84875 -2.91015625 26.92578125 C-3.585625 26.97476563 -4.26109375 27.02375 -4.95703125 27.07421875 C-5.61703125 29.05421875 -6.27703125 31.03421875 -6.95703125 33.07421875 C-5.72726562 33.11160156 -4.4975 33.14898437 -3.23046875 33.1875 C-1.59762724 33.25318903 0.03518393 33.31963534 1.66796875 33.38671875 C2.47621094 33.40927734 3.28445313 33.43183594 4.1171875 33.45507812 C9.09889617 33.67783746 12.74735002 34.29197954 17.04296875 37.07421875 C19.53752792 40.8160575 19.41903397 42.63664911 19.04296875 47.07421875 C17.71608787 50.70568221 16.71541235 52.57419659 13.60546875 54.88671875 C8.70082448 57.15960268 4.02004219 57.31774873 -1.33203125 57.38671875 C-2.07453125 57.41572266 -2.81703125 57.44472656 -3.58203125 57.47460938 C-8.85455279 57.53515953 -11.75383813 56.52431295 -15.95703125 53.07421875 C-18.09695032 50.37605992 -17.95730239 49.08181064 -17.83203125 45.57421875 C-16.87758172 41.75642064 -15.94618749 40.51989204 -12.95703125 38.07421875 C-12.29703125 37.41421875 -11.63703125 36.75421875 -10.95703125 36.07421875 C-11.28703125 35.74421875 -11.61703125 35.41421875 -11.95703125 35.07421875 C-12.43027069 28.68548636 -12.43027069 28.68548636 -10.45703125 26.13671875 C-9.96203125 25.78609375 -9.46703125 25.43546875 -8.95703125 25.07421875 C-9.76140625 24.14609375 -10.56578125 23.21796875 -11.39453125 22.26171875 C-14.05472983 19.19225885 -14.8811304 16.87876774 -15.26953125 12.76171875 C-14.89493979 8.34153954 -13.79317138 6.44692594 -10.95703125 3.07421875 C-7.1508635 0.28144776 -4.68111362 -0.26406282 0 0 Z " fill="#1F3947" transform="translate(284.95703125,41.92578125)"/>
<path d="M0 0 C1.11181641 0.05478516 2.22363281 0.10957031 3.36914062 0.16601562 C5.09487305 0.27526367 5.09487305 0.27526367 6.85546875 0.38671875 C8.02529297 0.44794922 9.19511719 0.50917969 10.40039062 0.57226562 C13.28235958 0.72518643 16.16266423 0.89298967 19.04296875 1.07421875 C19.04296875 2.39421875 19.04296875 3.71421875 19.04296875 5.07421875 C16.73296875 5.07421875 14.42296875 5.07421875 12.04296875 5.07421875 C13.03296875 6.55921875 13.03296875 6.55921875 14.04296875 8.07421875 C14.70280179 12.1096187 14.91441184 16.23783009 13.1328125 19.9921875 C9.25870831 25.0372428 4.62087275 25.91179759 -1.33203125 26.69921875 C-2.52828125 26.82296875 -3.72453125 26.94671875 -4.95703125 27.07421875 C-5.61703125 29.05421875 -6.27703125 31.03421875 -6.95703125 33.07421875 C-5.09498047 33.13029297 -5.09498047 33.13029297 -3.1953125 33.1875 C-1.55335614 33.25317825 0.08856962 33.31962495 1.73046875 33.38671875 C2.54708984 33.40927734 3.36371094 33.43183594 4.20507812 33.45507812 C10.14076009 33.71942024 13.73191641 34.76316641 18.04296875 39.07421875 C18.72984084 43.09422803 18.90418585 47.25568308 17.1328125 50.99609375 C14.27381022 54.71003884 11.45634975 55.93229499 7.04296875 57.07421875 C4.20370176 57.38914854 1.39789119 57.44420131 -1.45703125 57.44921875 C-2.19050781 57.47371094 -2.92398437 57.49820313 -3.6796875 57.5234375 C-8.89119494 57.55140623 -11.8332795 56.51481885 -15.95703125 53.07421875 C-18.45734779 49.32374393 -18.49306679 47.51565609 -17.95703125 43.07421875 C-15.58203125 40.26171875 -15.58203125 40.26171875 -12.95703125 38.07421875 C-12.29703125 37.41421875 -11.63703125 36.75421875 -10.95703125 36.07421875 C-11.61703125 35.08421875 -12.27703125 34.09421875 -12.95703125 33.07421875 C-12.76953125 30.01171875 -12.76953125 30.01171875 -11.95703125 27.07421875 C-10.96703125 26.41421875 -9.97703125 25.75421875 -8.95703125 25.07421875 C-9.76140625 24.12546875 -10.56578125 23.17671875 -11.39453125 22.19921875 C-14.50491835 18.53055704 -15.31034485 16.13525523 -15.23828125 11.171875 C-14.77391803 7.70849931 -13.19875651 5.67946702 -10.95703125 3.07421875 C-7.1475227 0.28554552 -4.68247028 -0.26413935 0 0 Z " fill="#1C3745" transform="translate(324.95703125,41.92578125)"/>
<path d="M0 0 C1.98 0 3.96 0 6 0 C8.64 9.9 11.28 19.8 14 30 C16.92030439 20.50215215 16.92030439 20.50215215 19.83374023 11.00219727 C20.19669189 9.82713623 20.55964355 8.6520752 20.93359375 7.44140625 C21.30540771 6.23170166 21.67722168 5.02199707 22.06030273 3.77563477 C23 1 23 1 24 0 C26.33297433 -0.04092937 28.66705225 -0.04241723 31 0 C32.31699102 4.06105795 33.62780397 8.12408411 34.9375 12.1875 C35.49727539 13.91323242 35.49727539 13.91323242 36.06835938 15.67382812 C36.42607422 16.78564453 36.78378906 17.89746094 37.15234375 19.04296875 C37.48226318 20.06414795 37.81218262 21.08532715 38.15209961 22.13745117 C38.92570648 24.74918183 39.51590266 27.32132808 40 30 C41.44740571 26.55759519 42.55490471 23.16913727 43.47265625 19.55078125 C43.73240234 18.53822266 43.99214844 17.52566406 44.25976562 16.48242188 C44.52466797 15.43634766 44.78957031 14.39027344 45.0625 13.3125 C45.5930265 11.22474464 46.12548183 9.13747818 46.66015625 7.05078125 C46.89355713 6.12950439 47.12695801 5.20822754 47.36743164 4.2590332 C48 2 48 2 49 0 C50.98 0 52.96 0 55 0 C53.7589793 4.75165239 52.51374148 9.50217222 51.26464844 14.25170898 C50.84064617 15.8663161 50.41778112 17.48122231 49.99609375 19.09643555 C49.38843488 21.42316708 48.77664279 23.74877874 48.1640625 26.07421875 C47.97752106 26.79212082 47.79097961 27.51002289 47.5987854 28.24967957 C46.62026077 31.94737728 45.51567611 35.4863872 44 39 C41.69 39 39.38 39 37 39 C35.70852528 35.24960933 34.42712927 31.49593907 33.15478516 27.73901367 C32.50818581 25.83658434 31.85375058 23.93682413 31.19921875 22.03710938 C30.79316406 20.83505859 30.38710937 19.63300781 29.96875 18.39453125 C29.59169922 17.28956299 29.21464844 16.18459473 28.82617188 15.04614258 C28.05198837 12.19168408 27.82802932 9.93544395 28 7 C27.34 7 26.68 7 26 7 C25.91878906 8.23621094 25.83757812 9.47242188 25.75390625 10.74609375 C25.0773239 16.83533491 23.02982784 22.33479772 20.9375 28.0625 C20.56044922 29.11888672 20.18339844 30.17527344 19.79492188 31.26367188 C18.87193362 33.84570231 17.94017293 36.42418814 17 39 C14.69 39 12.38 39 10 39 C8.57089981 33.92935489 7.14687113 28.85732355 5.72753906 23.78393555 C5.24390831 22.05795803 4.75889003 20.33236869 4.27246094 18.60717773 C3.57382557 16.12844795 2.88017966 13.64836849 2.1875 11.16796875 C1.96876221 10.39599655 1.75002441 9.62402435 1.5246582 8.82865906 C0.68229061 5.7970891 0 3.16252105 0 0 Z " fill="#1E3947" transform="translate(176,43)"/>
<path d="M0 0 C21.12 0 42.24 0 64 0 C64 0.66 64 1.32 64 2 C62.94683594 2.01417969 61.89367188 2.02835937 60.80859375 2.04296875 C44.29982244 2.49394382 29.66881828 6.76534062 17.25 18.25 C8.69166074 27.40352352 3.20100133 38.74968999 1 51 C0.67 51 0.34 51 0 51 C0 34.17 0 17.34 0 0 Z " fill="#FCFCFC" transform="translate(0,0)"/>
<path d="M0 0 C3.2055443 2.80485126 4.43714685 4.25463766 4.72705078 8.55737305 C4.72673499 9.93802878 4.71548717 11.31871039 4.6953125 12.69921875 C4.6924826 13.42744339 4.68965271 14.15566803 4.68673706 14.90596008 C4.67555257 17.22914137 4.65045166 19.55193547 4.625 21.875 C4.61496794 23.4511663 4.60584248 25.02733865 4.59765625 26.60351562 C4.57561896 30.46499267 4.54110141 34.32618071 4.5 38.1875 C3.18 38.1875 1.86 38.1875 0.5 38.1875 C0.005 35.7125 0.005 35.7125 -0.5 33.1875 C-1.16 33.1875 -1.82 33.1875 -2.5 33.1875 C-2.5 33.8475 -2.5 34.5075 -2.5 35.1875 C-6.30799079 38.09322432 -9.26811479 38.6194721 -14 38.625 C-15.1034375 38.64433594 -16.206875 38.66367188 -17.34375 38.68359375 C-21.13717876 38.08734938 -22.77531036 36.83814916 -25.5 34.1875 C-27.22986655 30.7277669 -26.98431489 26.97039201 -26.5 23.1875 C-24.44161475 19.85149633 -22.7606736 18.3612824 -19.5 16.1875 C-17.50708008 15.77685547 -17.50708008 15.77685547 -15.26953125 15.5546875 C-14.46708984 15.47089844 -13.66464844 15.38710938 -12.83789062 15.30078125 C-12.00451172 15.22214844 -11.17113281 15.14351562 -10.3125 15.0625 C-9.46751953 14.97613281 -8.62253906 14.88976562 -7.75195312 14.80078125 C-5.66871077 14.5889261 -3.58443958 14.38723223 -1.5 14.1875 C-1.85502532 9.47195184 -1.85502532 9.47195184 -3.79296875 5.26953125 C-7.07196744 3.19108128 -10.76409729 3.79993186 -14.5 4.1875 C-17.91471924 5.07210028 -17.91471924 5.07210028 -20.5 6.1875 C-20.83 4.5375 -21.16 2.8875 -21.5 1.1875 C-14.23176999 -2.04282445 -7.36565089 -3.81435493 0 0 Z " fill="#1A3644" transform="translate(258.5,43.8125)"/>
<path d="M0 0 C4.42484878 2.21242439 7.19476657 4.94799616 10 9 C11 12 11 12 11 21 C2.09 21 -6.82 21 -16 21 C-14.1525843 30.75415792 -14.1525843 30.75415792 -9 34 C-5.89387216 34.400062 -5.89387216 34.400062 -2.5625 34.25 C-1.45003906 34.23453125 -0.33757812 34.2190625 0.80859375 34.203125 C3.63874445 34.02299301 6.24221877 33.63918668 9 33 C9 34.65 9 36.3 9 38 C5.24629436 40.4311565 1.45188858 40.36706075 -2.875 40.375 C-3.56980469 40.39949219 -4.26460938 40.42398438 -4.98046875 40.44921875 C-10.1589264 40.47847557 -13.03206472 39.26252456 -17 36 C-22.58626006 28.60197992 -22.69204138 22.0466859 -22 13 C-20.7979497 8.0539841 -18.46209388 4.98672245 -14.375 2 C-9.68935619 -0.57885247 -5.22816312 -0.94738526 0 0 Z " fill="#1B3746" transform="translate(368,42)"/>
<path d="M0 0 C-0.66 1.65 -1.32 3.3 -2 5 C-3.7015625 4.505 -3.7015625 4.505 -5.4375 4 C-10.58902102 2.71898234 -16.17048959 1.85615536 -21.203125 3.890625 C-23.15970967 4.88098036 -23.15970967 4.88098036 -24 7 C-24.53423644 11.82966794 -24.53423644 11.82966794 -22.4765625 16.015625 C-18.70393555 19.03848698 -14.42307475 20.48356389 -9.93164062 22.1796875 C-4.81613822 24.25081874 -2.07333568 26.36334906 1 31 C2.03605407 35.15103242 1.46248206 38.90464776 -0.1875 42.8125 C-3.04372102 46.2596633 -5.73375684 48.57791895 -10 50 C-11.44567986 50.0918277 -12.89515828 50.13066598 -14.34375 50.1328125 C-15.17777344 50.13410156 -16.01179687 50.13539062 -16.87109375 50.13671875 C-17.73863281 50.13285156 -18.60617188 50.12898438 -19.5 50.125 C-20.80130859 50.13080078 -20.80130859 50.13080078 -22.12890625 50.13671875 C-22.96292969 50.13542969 -23.79695312 50.13414063 -24.65625 50.1328125 C-25.41744141 50.13168457 -26.17863281 50.13055664 -26.96289062 50.12939453 C-29 50 -29 50 -32 49 C-32 47.02 -32 45.04 -32 43 C-30.74896484 43.23589844 -30.74896484 43.23589844 -29.47265625 43.4765625 C-25.76702944 44.03511592 -22.1837673 44.27671246 -18.4375 44.375 C-17.15746094 44.42398438 -15.87742188 44.47296875 -14.55859375 44.5234375 C-10.1090865 43.86895455 -8.69318922 42.53289081 -6 39 C-5.42645858 35.42783304 -5.42645858 35.42783304 -7 32 C-10.62590199 28.68462866 -15.15385896 26.90212949 -19.625 25 C-24.18671811 23.05850752 -28.70155123 20.59689754 -31 16 C-31.49433314 10.96752656 -31.81849917 6.51107539 -29.375 2 C-20.61360625 -5.37801579 -10.09400999 -4.28230727 0 0 Z " fill="#1D3746" transform="translate(174,32)"/>
<path d="M0 0 C7.36196319 -0.49079755 7.36196319 -0.49079755 10.4375 1.875 C13.59013394 6.16258216 13.31852468 10.37025832 13.51757812 15.50195312 C13.70715642 19.15401807 13.92360657 20.88540985 16 24 C18.05925139 24.72382467 18.05925139 24.72382467 20 25 C20 27.31 20 29.62 20 32 C19.195625 32.28875 18.39125 32.5775 17.5625 32.875 C14.8673532 33.73262568 14.8673532 33.73262568 14 36 C13.75927862 39.76684378 13.61695098 43.52876447 13.4765625 47.30078125 C12.99261619 51.0573153 12.24685719 53.00047353 10 56 C6.77841364 58.33287288 3.89042645 58.17683757 0 58 C0 56.02 0 54.04 0 52 C1.65 51.34 3.3 50.68 5 50 C5.02578125 49.05898437 5.0515625 48.11796875 5.078125 47.1484375 C5.64147627 34.78031634 5.64147627 34.78031634 10 30 C9.53787109 29.15501953 9.53787109 29.15501953 9.06640625 28.29296875 C6.04998328 21.8071069 5.68133081 14.04041842 5 7 C3.35 6.67 1.7 6.34 0 6 C0 4.02 0 2.04 0 0 Z " fill="#1C3846" transform="translate(73,30)"/>
<path d="M0 0 C0 1.98 0 3.96 0 6 C-1.65 6.66 -3.3 7.32 -5 8 C-5.04898438 8.88042969 -5.09796875 9.76085938 -5.1484375 10.66796875 C-5.22320312 11.82941406 -5.29796875 12.99085937 -5.375 14.1875 C-5.44460937 15.33605469 -5.51421875 16.48460938 -5.5859375 17.66796875 C-6.15235326 22.22601255 -7.46459012 25.19688518 -10 29 C-9.360625 29.70125 -8.72125 30.4025 -8.0625 31.125 C-5.01528165 35.56707182 -5.36816585 40.74225078 -5.17578125 45.953125 C-5.20601332 48.91710277 -5.20601332 48.91710277 -4 51 C-1.97536745 51.65213292 -1.97536745 51.65213292 0 52 C0 53.98 0 55.96 0 58 C-8.27961798 57.65284621 -8.27961798 57.65284621 -11 55.1875 C-13.50249486 49.71329249 -13.2035156 44.15248156 -13.328125 38.21484375 C-13.64997618 34.80869907 -13.64997618 34.80869907 -16.52734375 33.296875 C-17.34332031 32.86890625 -18.15929687 32.4409375 -19 32 C-19.3125 28.3125 -19.3125 28.3125 -19 25 C-18.360625 24.87625 -17.72125 24.7525 -17.0625 24.625 C-16.381875 24.41875 -15.70125 24.2125 -15 24 C-13.91114116 21.82228233 -13.7838292 20.42041496 -13.60546875 18.0078125 C-13.53650391 17.22019531 -13.46753906 16.43257812 -13.39648438 15.62109375 C-13.25788952 13.96572722 -13.13016406 12.30941238 -13.01367188 10.65234375 C-12.66627846 6.88327889 -12.41286355 4.58318091 -10.19140625 1.4453125 C-6.66068989 -0.88332396 -4.14462826 -0.27630855 0 0 Z " fill="#1D3946" transform="translate(42,30)"/>
<path d="M0 0 C1.8871875 0.061875 1.8871875 0.061875 3.8125 0.125 C3.8125 2.105 3.8125 4.085 3.8125 6.125 C3.13703125 6.13917969 2.4615625 6.15335938 1.765625 6.16796875 C-4.07074403 6.37014778 -4.07074403 6.37014778 -8.75 9.5625 C-10.90124708 13.39733175 -11.35366829 15.58652388 -11.50390625 20.0078125 C-11.54580078 21.17441406 -11.58769531 22.34101562 -11.63085938 23.54296875 C-11.68983398 25.37794922 -11.68983398 25.37794922 -11.75 27.25 C-11.79318359 28.48105469 -11.83636719 29.71210937 -11.88085938 30.98046875 C-11.98718704 34.02852853 -12.08921781 37.0766719 -12.1875 40.125 C-14.1675 40.125 -16.1475 40.125 -18.1875 40.125 C-18.1875 27.255 -18.1875 14.385 -18.1875 1.125 C-16.5375 1.125 -14.8875 1.125 -13.1875 1.125 C-12.8575 3.105 -12.5275 5.085 -12.1875 7.125 C-11.424375 6.34125 -10.66125 5.5575 -9.875 4.75 C-6.53812273 1.49072453 -4.64562136 -0.15231545 0 0 Z " fill="#1E3746" transform="translate(404.1875,41.875)"/>
<path d="M0 0 C0.75925781 -0.00708984 1.51851563 -0.01417969 2.30078125 -0.02148438 C6.61819966 0.02766312 9.38926323 0.31848999 12.5 3.4375 C12.01020408 9.92729592 12.01020408 9.92729592 9.625 12.3125 C5.87484508 14.29787613 2.8131354 14.62483463 -1.375 14.6875 C-2.91800781 14.72617188 -2.91800781 14.72617188 -4.4921875 14.765625 C-7.94011019 14.38948798 -9.78628176 13.57990914 -12.5 11.4375 C-13.12357579 7.62675904 -13.2089865 5.47243614 -10.99609375 2.2421875 C-7.46512633 -0.31071852 -4.18728975 -0.11019184 0 0 Z " fill="#F9F9F9" transform="translate(325.5,80.5625)"/>
<path d="M0 0 C0.81533203 -0.00708984 1.63066406 -0.01417969 2.47070312 -0.02148438 C8.4301063 0.042174 8.4301063 0.042174 10.66186523 1.78100586 C11.9375 3.4375 11.9375 3.4375 12.4375 6.375 C11.9375 9.4375 11.9375 9.4375 9.6875 11.75 C4.21716106 15.1067989 -1.78224694 15.09711238 -8.0625 14.4375 C-11.25 12.8125 -11.25 12.8125 -13.0625 10.4375 C-13.72381765 6.91047253 -13.61982116 5.25717713 -11.59375 2.27734375 C-7.8424875 -0.44926834 -4.51963952 -0.1112858 0 0 Z " fill="#FAFAFA" transform="translate(286.0625,80.5625)"/>
<path d="M0 0 C2.13018952 1.58046319 2.82385265 2.6477053 4 5 C4.25303321 8.87984253 4.30454139 11.77364205 2 15 C-1.22794238 17.30567313 -4.11566819 17.32369432 -8 17 C-10.58971247 16.13676251 -11.66500737 15.46898968 -13.25 13.25 C-14.46967318 9.59098045 -14.46967318 6.40901955 -13.25 2.75 C-9.86424128 -1.99006221 -5.14850524 -1.35832904 0 0 Z " fill="#F6F6F6" transform="translate(290,47)"/>
<path d="M0 0 C2.29177249 1.64737388 2.91088435 2.5551644 3.46875 5.33984375 C3.55268892 12.31726663 3.55268892 12.31726663 0.875 15.625 C-2.48166915 17.23036351 -4.32296436 17.53623436 -8 17 C-12.63235294 14.73529412 -12.63235294 14.73529412 -14 12 C-14.58394161 4.75912409 -14.58394161 4.75912409 -12.125 1.5625 C-8.12372283 -1.37961556 -4.72869314 -1.31092483 0 0 Z " fill="#F8F8F8" transform="translate(330,47)"/>
<path d="M0 0 C1.63001953 0.01353516 1.63001953 0.01353516 3.29296875 0.02734375 C4.12441406 0.03894531 4.95585937 0.05054688 5.8125 0.0625 C6.48214286 7.83035714 6.48214286 7.83035714 3.5 11.5 C0.3032987 14.54801751 -1.26970668 14.97906424 -5.625 15.375 C-9.1875 15.0625 -9.1875 15.0625 -11.625 13.4375 C-13.65911336 10.34564769 -13.79355429 8.69882575 -13.1875 5.0625 C-9.39174926 0.21964561 -5.894471 -0.06338141 0 0 Z " fill="#F8F8F8" transform="translate(251.1875,62.9375)"/>
<path d="M0 0 C1.28132813 0.00902344 2.56265625 0.01804688 3.8828125 0.02734375 C4.87023437 0.03894531 5.85765625 0.05054688 6.875 0.0625 C6.875 1.3825 6.875 2.7025 6.875 4.0625 C4.895 4.3925 2.915 4.7225 0.875 5.0625 C1.20628906 5.63097656 1.53757812 6.19945312 1.87890625 6.78515625 C3.54194174 10.58731189 2.98205569 14.13175163 1.875 18.0625 C-0.32323815 20.76802388 -2.02056667 22.51028333 -5.125 24.0625 C-6.99879605 24.13283769 -8.87501102 24.1468022 -10.75 24.125 C-11.75289063 24.11597656 -12.75578125 24.10695313 -13.7890625 24.09765625 C-14.55992187 24.08605469 -15.33078125 24.07445313 -16.125 24.0625 C-16.125 23.0725 -16.125 22.0825 -16.125 21.0625 C-10.68 20.0725 -10.68 20.0725 -5.125 19.0625 C-4.939375 17.495 -4.75375 15.9275 -4.5625 14.3125 C-4.45808594 13.43078125 -4.35367187 12.5490625 -4.24609375 11.640625 C-4.13043324 9.17817549 -4.38861305 7.39711936 -5.125 5.0625 C-6.775 4.7325 -8.425 4.4025 -10.125 4.0625 C-9.795 3.0725 -9.465 2.0825 -9.125 1.0625 C-6.12186252 -0.43906874 -3.33432478 -0.03031204 0 0 Z " fill="#1F3947" transform="translate(297.125,42.9375)"/>
<path d="M0 0 C2.62697064 -0.22137393 5.00893964 -0.28162025 7.625 -0.1875 C8.33140625 -0.17396484 9.0378125 -0.16042969 9.765625 -0.14648438 C11.51074128 -0.1111104 13.25546608 -0.05730221 15 0 C15 1.32 15 2.64 15 4 C12.69 4 10.38 4 8 4 C8.99 5.485 8.99 5.485 10 7 C10.66624845 11.07463524 10.94496094 15.24356703 8.94921875 18.953125 C7.18683214 21.0950226 5.49210321 22.7539484 3 24 C1.12620395 24.07033769 -0.75001102 24.0843022 -2.625 24.0625 C-3.62789063 24.05347656 -4.63078125 24.04445313 -5.6640625 24.03515625 C-6.43492187 24.02355469 -7.20578125 24.01195313 -8 24 C-7.505 22.515 -7.505 22.515 -7 21 C-5.22265625 20.33984375 -5.22265625 20.33984375 -3.0625 19.9375 C0.35102341 19.29738154 0.35102341 19.29738154 3 17 C3.55966495 13.61844546 3.56163633 10.38072353 3 7 C0.70142894 4.32181017 0.70142894 4.32181017 -2 3 C-1.34 2.01 -0.68 1.02 0 0 Z " fill="#1D3746" transform="translate(329,43)"/>
<path d="M0 0 C3.33689956 0.92691654 3.91382369 1.85842463 5.75 4.875 C7 8 7 8 7 12 C0.07 12 -6.86 12 -14 12 C-13 5 -13 5 -10.375 2.0625 C-6.46130203 -0.32920431 -4.50611764 -0.58412636 0 0 Z " fill="#F1F1F2" transform="translate(366,47)"/>
<path d="M0 0 C1.216875 0.144375 2.43375 0.28875 3.6875 0.4375 C3.6875 2.4175 3.6875 4.3975 3.6875 6.4375 C2.08352723 6.60602247 0.4793131 6.77224886 -1.125 6.9375 C-2.01832031 7.0303125 -2.91164063 7.123125 -3.83203125 7.21875 C-6.3125 7.4375 -6.3125 7.4375 -9.3125 7.4375 C-5.33090181 -0.06628119 -5.33090181 -0.06628119 0 0 Z " fill="#29414E" transform="translate(404.3125,41.5625)"/>
<path d="M0 0 C2.5625 0.1875 2.5625 0.1875 4.5625 2.1875 C4.1875 4.8125 4.1875 4.8125 3.5625 7.1875 C1.1875 7.8125 1.1875 7.8125 -1.4375 8.1875 C-3.4375 6.1875 -3.4375 6.1875 -3.625 3.625 C-3.37291261 0.34786389 -3.27713611 0.25208739 0 0 Z " fill="#1F3C46" transform="translate(43.4375,54.8125)"/>
<path d="M0 0 C0.6875 1.8125 0.6875 1.8125 1 4 C-0.1875 5.8125 -0.1875 5.8125 -2 7 C-4.13745922 6.74853421 -5.45925779 6.54074221 -7 5 C-7.04063832 3.33382885 -7.042721 1.66611905 -7 0 C-4.3333581 -1.33332095 -2.83319697 -0.67102033 0 0 Z " fill="#1E3B46" transform="translate(61,56)"/>
<path d="M0 0 C2.625 0.375 2.625 0.375 5 1 C5.6875 2.8125 5.6875 2.8125 6 5 C4.8125 6.8125 4.8125 6.8125 3 8 C0.8125 7.6875 0.8125 7.6875 -1 7 C-1.625 4.625 -1.625 4.625 -2 2 C-1.34 1.34 -0.68 0.68 0 0 Z " fill="#1B3645" transform="translate(70,55)"/>
<path d="M0 0 C2.97 0 5.94 0 9 0 C9 0.66 9 1.32 9 2 C10.32 2 11.64 2 13 2 C13 3.98 13 5.96 13 8 C12.67 8 12.34 8 12 8 C12 6.35 12 4.7 12 3 C7.71 2.67 3.42 2.34 -1 2 C-0.67 1.34 -0.34 0.68 0 0 Z " fill="#374C58" transform="translate(245,60)"/>
<path d="M0 0 C0.33 1.32 0.66 2.64 1 4 C-2.3 4 -5.6 4 -9 4 C-9 3.01 -9 2.02 -9 1 C-2.25 0 -2.25 0 0 0 Z " fill="#113141" transform="translate(290,63)"/>
<path d="M0 0 C1.98 0 3.96 0 6 0 C6 0.99 6 1.98 6 3 C6.66 3 7.32 3 8 3 C8 3.99 8 4.98 8 6 C6.68 6 5.36 6 4 6 C4 4.35 4 2.7 4 1 C3.34 1 2.68 1 2 1 C1.67 2.32 1.34 3.64 1 5 C0.67 3.35 0.34 1.7 0 0 Z " fill="#8F9599" transform="translate(411,77)"/>
<path d="M0 0 C0.99 1.32 1.98 2.64 3 4 C-0.3 4 -3.6 4 -7 4 C-6.67 3.01 -6.34 2.02 -6 1 C-4.02 0.67 -2.04 0.34 0 0 Z " fill="#113141" transform="translate(328,63)"/>
<path d="M0 0 C3.3 0 6.6 0 10 0 C10 1.32 10 2.64 10 4 C5.38308839 3.47535095 3.90012114 2.92509086 0 0 Z " fill="#334954" transform="translate(319,42)"/>
</svg>
