<?xml version="1.0" encoding="UTF-8"?>
<svg version="1.1" xmlns="http://www.w3.org/2000/svg" width="225" height="225">
<path d="M0 0 C74.25 0 148.5 0 225 0 C225 74.25 225 148.5 225 225 C150.75 225 76.5 225 0 225 C0 150.75 0 76.5 0 0 Z " fill="#F47420" transform="translate(0,0)"/>
<path d="M0 0 C74.25 0 148.5 0 225 0 C225 74.25 225 148.5 225 225 C150.75 225 76.5 225 0 225 C0 150.75 0 76.5 0 0 Z M52 31 C51.4730957 31.39670898 50.94619141 31.79341797 50.40332031 32.20214844 C30.03505074 47.78357246 15.43067636 71.38341025 12 97 C10.81686886 114.05721644 10.95220055 130.84858312 17 147 C17.22993652 147.64163086 17.45987305 148.28326172 17.69677734 148.94433594 C26.89517676 174.16344375 46.33840235 193.18266056 70 205 C83.50664025 211.16572493 97.0217535 213.55794426 111.8125 213.4375 C113.12549072 213.42992676 114.43848145 213.42235352 115.79125977 213.41455078 C125.74194102 213.24607234 134.59522184 212.21163169 144 209 C144.63357422 208.79101074 145.26714844 208.58202148 145.91992188 208.36669922 C170.82348167 199.99654506 190.57686951 181.82518652 203.14453125 158.99609375 C213.98250666 136.8659254 217.65350349 107.58258692 210.32421875 83.7109375 C206.21160749 72.18592069 201.42225908 61.83514896 194 52 C193.60329102 51.4730957 193.20658203 50.94619141 192.79785156 50.40332031 C176.85461939 29.56208974 153.12358488 15.50752125 127 12 C122.14272047 11.68017033 117.30441704 11.61795537 112.4375 11.625 C111.4426358 11.62631424 111.4426358 11.62631424 110.42767334 11.62765503 C88.59034967 11.72272578 69.53893143 17.76395308 52 31 Z " fill="#FEFEFD" transform="translate(0,0)"/>
<path d="M0 0 C1.36965208 2.24179377 2.72052808 4.49172338 4.0625 6.75 C4.64741211 7.70132813 4.64741211 7.70132813 5.24414062 8.671875 C8.0751873 13.48214899 8.0751873 13.48214899 7.69189453 16.12207031 C6.8280694 18.46665143 5.71074156 19.39089457 3.8125 21 C-2.22851813 26.74208115 -6.6462701 35.31564278 -7.16796875 43.69921875 C-7.24034028 54.77206315 -5.88311218 65.85923328 2.140625 74.234375 C3.56918193 75.56303284 5.02826709 76.8600566 6.5234375 78.11328125 C8 80 8 80 7.94921875 82.3359375 C6.78897662 85.59225492 5.22526214 88.35456629 3.4375 91.3125 C2.47650391 92.91544922 2.47650391 92.91544922 1.49609375 94.55078125 C1.00238281 95.35902344 0.50867188 96.16726562 0 97 C-10.87825664 92.94840442 -17.33320842 83.08466259 -22.49609375 73.109375 C-24.44527435 68.60400255 -25.45670293 65.83975618 -24 61 C-23.319375 60.175 -22.63875 59.35 -21.9375 58.5 C-18.55710972 53.74516532 -19.27799344 47.52370066 -20 42 C-21.18029278 39.09954958 -22.78039019 37.21960981 -25 35 C-24.75549515 23.99728162 -17.32236571 13.70487735 -10 6 C-3.184 0 -3.184 0 0 0 Z " fill="#FEFCFB" transform="translate(81,64)"/>
<path d="M0 0 C1.30130859 -0.01160156 1.30130859 -0.01160156 2.62890625 -0.0234375 C7.36659073 -0.00901533 11.54484075 0.1082008 15.875 2.25 C17.37890625 4.2734375 17.37890625 4.2734375 18.4375 6.625 C20.93985877 11.58987105 23.43476223 14.08798202 28.5 16.5 C31.71461881 17.41086776 31.71461881 17.41086776 34.38671875 16.9453125 C37.5099392 16.58812411 39.80798715 16.50557941 42.875 17.25 C51.42863337 24.93377235 56.82064871 37.04444752 58.875 48.25 C58.875 50.56 58.875 52.87 58.875 55.25 C52.605 55.25 46.335 55.25 39.875 55.25 C38.823125 51.785 38.823125 51.785 37.75 48.25 C35.74061661 42.0383902 33.48903824 37.00041376 28.875 32.25 C28.35164063 31.71117188 27.82828125 31.17234375 27.2890625 30.6171875 C21.09525223 24.83048213 13.4104465 20.69148861 4.875 20.25 C3.9571875 20.19972656 3.039375 20.14945313 2.09375 20.09765625 C-4.6241967 19.88559985 -9.91752354 20.73036011 -16.125 23.25 C-17.63314743 20.81721456 -19.13164347 18.37933973 -20.625 15.9375 C-21.05425781 15.24720703 -21.48351562 14.55691406 -21.92578125 13.84570312 C-22.33183594 13.17861328 -22.73789063 12.51152344 -23.15625 11.82421875 C-23.53330078 11.21151123 -23.91035156 10.59880371 -24.29882812 9.9675293 C-25.125 8.25 -25.125 8.25 -25.125 5.25 C-16.69423591 1.38589979 -9.23851239 -0.08310506 0 0 Z " fill="#FEFCFB" transform="translate(112.125,53.75)"/>
<path d="M0 0 C6.27 0 12.54 0 19 0 C18.2538343 12.68481691 14.42546401 22.69228351 7 33 C6.37609375 33.92683594 5.7521875 34.85367188 5.109375 35.80859375 C3 38 3 38 0.484375 38.3828125 C-0.41796875 38.29773438 -1.3203125 38.21265625 -2.25 38.125 C-7.45891658 37.90275289 -11.48562634 38.25435588 -16 41 C-18.94622598 43.94622598 -20.75649208 46.47239951 -22.5 50.25 C-24 53 -24 53 -25.96875 54.1484375 C-30.3225169 55.37153181 -34.4962756 55.38179415 -39 55.375 C-39.93175049 55.37556396 -40.86350098 55.37612793 -41.82348633 55.37670898 C-50.1638311 55.24462044 -57.47120402 53.76439799 -65 50 C-64.45207105 45.3817417 -62.41035512 42.01850353 -59.9375 38.1875 C-59.56044922 37.59001953 -59.18339844 36.99253906 -58.79492188 36.37695312 C-57.87010434 34.91363423 -56.93597935 33.45620477 -56 32 C-55.48953125 32.2165625 -54.9790625 32.433125 -54.453125 32.65625 C-44.27883734 36.5527857 -33.58660691 35.9325382 -23.50390625 32.03515625 C-13.29880933 27.42189326 -7.0893466 20.34728609 -3 10 C-1.87659618 6.68414678 -0.91793564 3.38186816 0 0 Z " fill="#FEFDFC" transform="translate(152,116)"/>
<path d="M0 0 C3.81248738 1.31970717 5.66857107 2.63368381 8.375 5.625 C10.45494473 9.94488521 10.82730415 13.28943147 10 18 C8.19672394 21.74526566 6.67282723 23.54125416 3.25 25.875 C-0.66144815 27.22896282 -3.9705821 28.07301073 -8 27 C-12.08621792 24.34431244 -15.4382549 21.68523529 -17 17 C-17.37275294 11.9678353 -17.1569119 8.99875508 -14 5 C-9.50093581 0.29167701 -6.28579998 -1.131444 0 0 Z " fill="#FEFCFB" transform="translate(47,99)"/>
<path d="M0 0 C3.57669992 2.20689995 5.42095628 4.14934953 7 8 C7.56811094 12.53750945 7.53359148 16.68006319 5.8125 20.9375 C3.03864696 24.09395345 0.9207189 25.73662383 -3.3359375 26.3203125 C-7.67209545 26.51563493 -10.46855793 26.25122716 -14.4375 24.375 C-17.8735993 21.1903226 -19.88938541 18.60866075 -20.09375 13.7890625 C-19.75937647 8.75674094 -18.82758117 5.51723675 -15 2 C-10.01322264 -1.47914699 -5.71067027 -1.55937122 0 0 Z " fill="#FEFBFA" transform="translate(153,40)"/>
<path d="M0 0 C3.43087554 2.01162847 6.20989367 4.41978733 8 8 C8.54317573 12.9509132 8.52241949 16.89488185 6.375 21.4375 C3.1903226 24.8735993 0.60866075 26.88938541 -4.2109375 27.09375 C-9.24325906 26.75937647 -12.48276325 25.82758117 -16 22 C-18.58535713 17.89908869 -19.7726403 14.82900189 -19 10 C-14.9106082 1.33438404 -9.66245872 -1.74872719 0 0 Z " fill="#FEFBFA" transform="translate(152,159)"/>
</svg>
